G04 #@! TF.GenerationSoftware,KiCad,Pcbnew,9.0.0*
G04 #@! TF.CreationDate,2025-04-07T23:01:42+01:00*
G04 #@! TF.ProjectId,ephys-test-module-32,65706879-732d-4746-9573-742d6d6f6475,A*
G04 #@! TF.SameCoordinates,Original*
G04 #@! TF.FileFunction,Paste,Top*
G04 #@! TF.FilePolarity,Positive*
%FSLAX46Y46*%
G04 Gerber Fmt 4.6, Leading zero omitted, Abs format (unit mm)*
G04 Created by KiCad (PCBNEW 9.0.0) date 2025-04-07 23:01:42*
%MOMM*%
%LPD*%
G01*
G04 APERTURE LIST*
G04 Aperture macros list*
%AMRoundRect*
0 Rectangle with rounded corners*
0 $1 Rounding radius*
0 $2 $3 $4 $5 $6 $7 $8 $9 X,Y pos of 4 corners*
0 Add a 4 corners polygon primitive as box body*
4,1,4,$2,$3,$4,$5,$6,$7,$8,$9,$2,$3,0*
0 Add four circle primitives for the rounded corners*
1,1,$1+$1,$2,$3*
1,1,$1+$1,$4,$5*
1,1,$1+$1,$6,$7*
1,1,$1+$1,$8,$9*
0 Add four rect primitives between the rounded corners*
20,1,$1+$1,$2,$3,$4,$5,0*
20,1,$1+$1,$4,$5,$6,$7,0*
20,1,$1+$1,$6,$7,$8,$9,0*
20,1,$1+$1,$8,$9,$2,$3,0*%
G04 Aperture macros list end*
%ADD10R,3.150000X1.000000*%
%ADD11R,1.000000X0.380000*%
%ADD12RoundRect,0.135000X-0.135000X-0.185000X0.135000X-0.185000X0.135000X0.185000X-0.135000X0.185000X0*%
%ADD13RoundRect,0.150000X0.150000X-0.825000X0.150000X0.825000X-0.150000X0.825000X-0.150000X-0.825000X0*%
%ADD14RoundRect,0.140000X-0.170000X0.140000X-0.170000X-0.140000X0.170000X-0.140000X0.170000X0.140000X0*%
G04 APERTURE END LIST*
D10*
G04 #@! TO.C,J4*
X160475000Y-126970000D03*
X155425000Y-126970000D03*
X160475000Y-124430000D03*
X155425000Y-124430000D03*
G04 #@! TD*
D11*
G04 #@! TO.C,J5*
X157250000Y-105800000D03*
X158750000Y-105800000D03*
X157250000Y-105165000D03*
X158750000Y-105165000D03*
X157250000Y-104530000D03*
X158750000Y-104530000D03*
X157250000Y-103895000D03*
X158750000Y-103895000D03*
X157250000Y-103260000D03*
X158750000Y-103260000D03*
X157250000Y-102625000D03*
X158750000Y-102625000D03*
X157250000Y-101990000D03*
X158750000Y-101990000D03*
X157250000Y-101355000D03*
X158750000Y-101355000D03*
X157250000Y-100720000D03*
X158750000Y-100720000D03*
X157250000Y-100085000D03*
X158750000Y-100085000D03*
X157250000Y-99450000D03*
X158750000Y-99450000D03*
X157250000Y-98815000D03*
X158750000Y-98815000D03*
X157250000Y-98180000D03*
X158750000Y-98180000D03*
X157250000Y-97545000D03*
X158750000Y-97545000D03*
X157250000Y-96910000D03*
X158750000Y-96910000D03*
X157250000Y-96275000D03*
X158750000Y-96275000D03*
X157250000Y-95640000D03*
X158750000Y-95640000D03*
X157250000Y-95005000D03*
X158750000Y-95005000D03*
G04 #@! TD*
D12*
G04 #@! TO.C,R3*
X122690000Y-120000000D03*
X123710000Y-120000000D03*
G04 #@! TD*
G04 #@! TO.C,R1*
X120790000Y-121100000D03*
X121810000Y-121100000D03*
G04 #@! TD*
D13*
G04 #@! TO.C,U1*
X121295000Y-128175000D03*
X122565000Y-128175000D03*
X123835000Y-128175000D03*
X125105000Y-128175000D03*
X125105000Y-123225000D03*
X123835000Y-123225000D03*
X122565000Y-123225000D03*
X121295000Y-123225000D03*
G04 #@! TD*
D12*
G04 #@! TO.C,R2*
X124090000Y-118800000D03*
X125110000Y-118800000D03*
G04 #@! TD*
D14*
G04 #@! TO.C,C1*
X119700000Y-125220000D03*
X119700000Y-126180000D03*
G04 #@! TD*
M02*
