G04 #@! TF.GenerationSoftware,KiCad,Pcbnew,9.0.0*
G04 #@! TF.CreationDate,2025-04-07T23:01:42+01:00*
G04 #@! TF.ProjectId,ephys-test-module-32,65706879-732d-4746-9573-742d6d6f6475,A*
G04 #@! TF.SameCoordinates,Original*
G04 #@! TF.FileFunction,Copper,L1,Top*
G04 #@! TF.FilePolarity,Positive*
%FSLAX46Y46*%
G04 Gerber Fmt 4.6, Leading zero omitted, Abs format (unit mm)*
G04 Created by KiCad (PCBNEW 9.0.0) date 2025-04-07 23:01:42*
%MOMM*%
%LPD*%
G01*
G04 APERTURE LIST*
G04 Aperture macros list*
%AMRoundRect*
0 Rectangle with rounded corners*
0 $1 Rounding radius*
0 $2 $3 $4 $5 $6 $7 $8 $9 X,Y pos of 4 corners*
0 Add a 4 corners polygon primitive as box body*
4,1,4,$2,$3,$4,$5,$6,$7,$8,$9,$2,$3,0*
0 Add four circle primitives for the rounded corners*
1,1,$1+$1,$2,$3*
1,1,$1+$1,$4,$5*
1,1,$1+$1,$6,$7*
1,1,$1+$1,$8,$9*
0 Add four rect primitives between the rounded corners*
20,1,$1+$1,$2,$3,$4,$5,0*
20,1,$1+$1,$4,$5,$6,$7,0*
20,1,$1+$1,$6,$7,$8,$9,0*
20,1,$1+$1,$8,$9,$2,$3,0*%
G04 Aperture macros list end*
G04 #@! TA.AperFunction,SMDPad,CuDef*
%ADD10R,3.150000X1.000000*%
G04 #@! TD*
G04 #@! TA.AperFunction,SMDPad,CuDef*
%ADD11R,1.000000X0.380000*%
G04 #@! TD*
G04 #@! TA.AperFunction,SMDPad,CuDef*
%ADD12RoundRect,0.135000X-0.135000X-0.185000X0.135000X-0.185000X0.135000X0.185000X-0.135000X0.185000X0*%
G04 #@! TD*
G04 #@! TA.AperFunction,SMDPad,CuDef*
%ADD13RoundRect,0.150000X0.150000X-0.825000X0.150000X0.825000X-0.150000X0.825000X-0.150000X-0.825000X0*%
G04 #@! TD*
G04 #@! TA.AperFunction,SMDPad,CuDef*
%ADD14RoundRect,0.140000X-0.170000X0.140000X-0.170000X-0.140000X0.170000X-0.140000X0.170000X0.140000X0*%
G04 #@! TD*
G04 #@! TA.AperFunction,ViaPad*
%ADD15C,0.550000*%
G04 #@! TD*
G04 #@! TA.AperFunction,Conductor*
%ADD16C,0.400000*%
G04 #@! TD*
G04 #@! TA.AperFunction,Conductor*
%ADD17C,0.220000*%
G04 #@! TD*
G04 APERTURE END LIST*
D10*
G04 #@! TO.P,J4,1,Pin_1*
G04 #@! TO.N,/Headstage Interface/REF*
X160475000Y-126970000D03*
G04 #@! TO.P,J4,2,Pin_2*
G04 #@! TO.N,GND*
X155425000Y-126970000D03*
G04 #@! TO.P,J4,3,Pin_3*
G04 #@! TO.N,/Headstage Interface/REF*
X160475000Y-124430000D03*
G04 #@! TO.P,J4,4,Pin_4*
G04 #@! TO.N,GND*
X155425000Y-124430000D03*
G04 #@! TD*
D11*
G04 #@! TO.P,J5,1,Pin_1*
G04 #@! TO.N,/Headstage Interface/REF*
X157250000Y-105800000D03*
G04 #@! TO.P,J5,2,Pin_2*
G04 #@! TO.N,GND*
X158750000Y-105800000D03*
G04 #@! TO.P,J5,3,Pin_3*
G04 #@! TO.N,/Headstage Interface/B6.E_{7}*
X157250000Y-105165000D03*
G04 #@! TO.P,J5,4,Pin_4*
G04 #@! TO.N,/Headstage Interface/B10.E_{7}*
X158750000Y-105165000D03*
G04 #@! TO.P,J5,5,Pin_5*
G04 #@! TO.N,/Headstage Interface/B6.E_{6}*
X157250000Y-104530000D03*
G04 #@! TO.P,J5,6,Pin_6*
G04 #@! TO.N,/Headstage Interface/B10.E_{6}*
X158750000Y-104530000D03*
G04 #@! TO.P,J5,7,Pin_7*
G04 #@! TO.N,/Headstage Interface/B6.E_{5}*
X157250000Y-103895000D03*
G04 #@! TO.P,J5,8,Pin_8*
G04 #@! TO.N,/Headstage Interface/B10.E_{5}*
X158750000Y-103895000D03*
G04 #@! TO.P,J5,9,Pin_9*
G04 #@! TO.N,/Headstage Interface/B6.E_{4}*
X157250000Y-103260000D03*
G04 #@! TO.P,J5,10,Pin_10*
G04 #@! TO.N,/Headstage Interface/B10.E_{4}*
X158750000Y-103260000D03*
G04 #@! TO.P,J5,11,Pin_11*
G04 #@! TO.N,/Headstage Interface/B6.E_{3}*
X157250000Y-102625000D03*
G04 #@! TO.P,J5,12,Pin_12*
G04 #@! TO.N,/Headstage Interface/B10.E_{3}*
X158750000Y-102625000D03*
G04 #@! TO.P,J5,13,Pin_13*
G04 #@! TO.N,/Headstage Interface/B6.E_{2}*
X157250000Y-101990000D03*
G04 #@! TO.P,J5,14,Pin_14*
G04 #@! TO.N,/Headstage Interface/B10.E_{2}*
X158750000Y-101990000D03*
G04 #@! TO.P,J5,15,Pin_15*
G04 #@! TO.N,/Headstage Interface/B6.E_{1}*
X157250000Y-101355000D03*
G04 #@! TO.P,J5,16,Pin_16*
G04 #@! TO.N,/Headstage Interface/B10.E_{1}*
X158750000Y-101355000D03*
G04 #@! TO.P,J5,17,Pin_17*
G04 #@! TO.N,/Headstage Interface/B6.E_{0}*
X157250000Y-100720000D03*
G04 #@! TO.P,J5,18,Pin_18*
G04 #@! TO.N,/Headstage Interface/B10.E_{0}*
X158750000Y-100720000D03*
G04 #@! TO.P,J5,19,Pin_19*
G04 #@! TO.N,/Headstage Interface/B5.E_{7}*
X157250000Y-100085000D03*
G04 #@! TO.P,J5,20,Pin_20*
G04 #@! TO.N,/Headstage Interface/B9.E_{7}*
X158750000Y-100085000D03*
G04 #@! TO.P,J5,21,Pin_21*
G04 #@! TO.N,/Headstage Interface/B5.E_{6}*
X157250000Y-99450000D03*
G04 #@! TO.P,J5,22,Pin_22*
G04 #@! TO.N,/Headstage Interface/B9.E_{6}*
X158750000Y-99450000D03*
G04 #@! TO.P,J5,23,Pin_23*
G04 #@! TO.N,/Headstage Interface/B5.E_{5}*
X157250000Y-98815000D03*
G04 #@! TO.P,J5,24,Pin_24*
G04 #@! TO.N,/Headstage Interface/B9.E_{5}*
X158750000Y-98815000D03*
G04 #@! TO.P,J5,25,Pin_25*
G04 #@! TO.N,/Headstage Interface/B5.E_{4}*
X157250000Y-98180000D03*
G04 #@! TO.P,J5,26,Pin_26*
G04 #@! TO.N,/Headstage Interface/B9.E_{4}*
X158750000Y-98180000D03*
G04 #@! TO.P,J5,27,Pin_27*
G04 #@! TO.N,/Headstage Interface/B5.E_{3}*
X157250000Y-97545000D03*
G04 #@! TO.P,J5,28,Pin_28*
G04 #@! TO.N,/Headstage Interface/B9.E_{3}*
X158750000Y-97545000D03*
G04 #@! TO.P,J5,29,Pin_29*
G04 #@! TO.N,/Headstage Interface/B5.E_{2}*
X157250000Y-96910000D03*
G04 #@! TO.P,J5,30,Pin_30*
G04 #@! TO.N,/Headstage Interface/B9.E_{2}*
X158750000Y-96910000D03*
G04 #@! TO.P,J5,31,Pin_31*
G04 #@! TO.N,/Headstage Interface/B5.E_{1}*
X157250000Y-96275000D03*
G04 #@! TO.P,J5,32,Pin_32*
G04 #@! TO.N,/Headstage Interface/B9.E_{1}*
X158750000Y-96275000D03*
G04 #@! TO.P,J5,33,Pin_33*
G04 #@! TO.N,/Headstage Interface/B5.E_{0}*
X157250000Y-95640000D03*
G04 #@! TO.P,J5,34,Pin_34*
G04 #@! TO.N,/Headstage Interface/B9.E_{0}*
X158750000Y-95640000D03*
G04 #@! TO.P,J5,35,Pin_35*
G04 #@! TO.N,GND*
X157250000Y-95005000D03*
G04 #@! TO.P,J5,36,Pin_36*
G04 #@! TO.N,/Headstage Interface/REF*
X158750000Y-95005000D03*
G04 #@! TD*
D12*
G04 #@! TO.P,R3,1*
G04 #@! TO.N,VCC*
X122690000Y-120000000D03*
G04 #@! TO.P,R3,2*
G04 #@! TO.N,/Test Signal Interface/SCL*
X123710000Y-120000000D03*
G04 #@! TD*
G04 #@! TO.P,R1,1*
G04 #@! TO.N,VCC*
X120790000Y-121100000D03*
G04 #@! TO.P,R1,2*
G04 #@! TO.N,/Test Signal Interface/WP*
X121810000Y-121100000D03*
G04 #@! TD*
D13*
G04 #@! TO.P,U1,1,A0*
G04 #@! TO.N,GND*
X121295000Y-128175000D03*
G04 #@! TO.P,U1,2,A1*
X122565000Y-128175000D03*
G04 #@! TO.P,U1,3,A2*
X123835000Y-128175000D03*
G04 #@! TO.P,U1,4,GND*
X125105000Y-128175000D03*
G04 #@! TO.P,U1,5,SDA*
G04 #@! TO.N,/Test Signal Interface/SDA*
X125105000Y-123225000D03*
G04 #@! TO.P,U1,6,SCL*
G04 #@! TO.N,/Test Signal Interface/SCL*
X123835000Y-123225000D03*
G04 #@! TO.P,U1,7,WP*
G04 #@! TO.N,/Test Signal Interface/WP*
X122565000Y-123225000D03*
G04 #@! TO.P,U1,8,VCC*
G04 #@! TO.N,VCC*
X121295000Y-123225000D03*
G04 #@! TD*
D12*
G04 #@! TO.P,R2,1*
G04 #@! TO.N,VCC*
X124090000Y-118800000D03*
G04 #@! TO.P,R2,2*
G04 #@! TO.N,/Test Signal Interface/SDA*
X125110000Y-118800000D03*
G04 #@! TD*
D14*
G04 #@! TO.P,C1,1*
G04 #@! TO.N,VCC*
X119700000Y-125220000D03*
G04 #@! TO.P,C1,2*
G04 #@! TO.N,GND*
X119700000Y-126180000D03*
G04 #@! TD*
D15*
G04 #@! TO.N,GND*
X157226000Y-94361000D03*
X202300000Y-124800000D03*
X114730000Y-80390000D03*
X122555000Y-101854000D03*
X113269807Y-112500000D03*
X153400000Y-91900000D03*
X133600000Y-117000000D03*
X161400000Y-132300000D03*
X135000000Y-80800000D03*
X166800000Y-111700000D03*
X148400000Y-81100000D03*
X113800000Y-133900000D03*
X138700000Y-106800000D03*
X193040000Y-99695000D03*
X192913000Y-92583000D03*
X179700000Y-132600000D03*
X203200000Y-107500000D03*
X141400000Y-92500000D03*
X193040000Y-114681000D03*
X168402000Y-121412000D03*
X175300000Y-106800000D03*
X187500000Y-106800000D03*
X122810000Y-86360000D03*
X128900000Y-133600000D03*
X113100000Y-94400000D03*
X198501000Y-84836000D03*
X158750000Y-106553000D03*
X159400000Y-113200000D03*
X203000000Y-80900000D03*
X174500000Y-92400000D03*
X193900000Y-134700000D03*
X148100000Y-112900000D03*
X184300000Y-116500000D03*
X202900000Y-91100000D03*
X129000000Y-107000000D03*
X129000000Y-92400000D03*
X184900000Y-80200000D03*
X174067445Y-80221652D03*
X161900000Y-92500000D03*
X187833000Y-84963000D03*
X141900000Y-133000000D03*
G04 #@! TO.N,VCC*
X120000000Y-121150000D03*
X121900000Y-118400000D03*
X119700000Y-124200000D03*
X119700000Y-123700000D03*
X121900000Y-119200000D03*
G04 #@! TO.N,/Headstage Interface/B5.E_{0}*
X154686000Y-95631000D03*
G04 #@! TO.N,/Headstage Interface/B5.E_{2}*
X154642000Y-96901000D03*
G04 #@! TO.N,/Headstage Interface/B5.E_{5}*
X155259000Y-98806000D03*
G04 #@! TO.N,/Headstage Interface/B6.E_{2}*
X154559000Y-101981000D03*
G04 #@! TO.N,/Headstage Interface/B6.E_{5}*
X155259000Y-103886000D03*
G04 #@! TO.N,/Headstage Interface/B5.E_{7}*
X155259000Y-100076000D03*
G04 #@! TO.N,/Headstage Interface/B6.E_{7}*
X155259000Y-105156000D03*
G04 #@! TO.N,/Headstage Interface/B6.E_{0}*
X154559000Y-100711000D03*
G04 #@! TO.N,/Headstage Interface/B5.E_{1}*
X155389000Y-96257000D03*
G04 #@! TO.N,/Headstage Interface/REF*
X158750000Y-94234000D03*
X157250000Y-107696000D03*
G04 #@! TO.N,/Headstage Interface/B6.E_{6}*
X154559000Y-104521000D03*
G04 #@! TO.N,/Headstage Interface/B6.E_{1}*
X155259000Y-101346000D03*
G04 #@! TO.N,/Headstage Interface/B5.E_{6}*
X154559000Y-99441000D03*
G04 #@! TO.N,/Headstage Interface/B6.E_{4}*
X154559000Y-103251000D03*
G04 #@! TO.N,/Headstage Interface/B5.E_{4}*
X154559000Y-98171000D03*
G04 #@! TO.N,/Headstage Interface/B5.E_{3}*
X155259000Y-97536000D03*
G04 #@! TO.N,/Headstage Interface/B6.E_{3}*
X155259000Y-102616000D03*
G04 #@! TO.N,/Test Signal Interface/SDA*
X125095000Y-121666000D03*
X125095000Y-117983000D03*
G04 #@! TO.N,/Headstage Interface/B10.E_{4}*
X160800000Y-103251000D03*
G04 #@! TO.N,/Test Signal Interface/SCL*
X127700000Y-115400000D03*
G04 #@! TO.N,/Headstage Interface/B9.E_{1}*
X161500000Y-96266000D03*
G04 #@! TO.N,/Headstage Interface/B9.E_{0}*
X160800000Y-95631000D03*
G04 #@! TO.N,/Headstage Interface/B9.E_{5}*
X161500000Y-98806000D03*
G04 #@! TO.N,/Headstage Interface/B10.E_{3}*
X161500000Y-102616000D03*
G04 #@! TO.N,/Headstage Interface/B10.E_{1}*
X161500000Y-101346000D03*
G04 #@! TO.N,/Headstage Interface/B10.E_{2}*
X160800000Y-101981000D03*
G04 #@! TO.N,/Headstage Interface/B10.E_{7}*
X161417000Y-105165000D03*
G04 #@! TO.N,/Headstage Interface/B9.E_{3}*
X161500000Y-97536000D03*
G04 #@! TO.N,/Headstage Interface/B9.E_{4}*
X160800000Y-98171000D03*
G04 #@! TO.N,/Headstage Interface/B9.E_{6}*
X160800000Y-99441000D03*
G04 #@! TO.N,/Headstage Interface/B9.E_{7}*
X161500000Y-100076000D03*
G04 #@! TO.N,/Headstage Interface/B9.E_{2}*
X160800000Y-96901000D03*
G04 #@! TO.N,/Headstage Interface/B10.E_{6}*
X160670000Y-104530000D03*
G04 #@! TO.N,/Headstage Interface/B10.E_{0}*
X160800000Y-100711000D03*
G04 #@! TO.N,/Headstage Interface/B10.E_{5}*
X161417000Y-103886000D03*
G04 #@! TO.N,/Test Signal Interface/WP*
X118100000Y-114800000D03*
G04 #@! TD*
D16*
G04 #@! TO.N,VCC*
X119700000Y-125220000D02*
X119700000Y-123700000D01*
D17*
X123900000Y-118800000D02*
X124090000Y-118800000D01*
X123500000Y-118400000D02*
X123900000Y-118800000D01*
X121900000Y-119200000D02*
X122690000Y-119990000D01*
X120740000Y-121150000D02*
X120790000Y-121100000D01*
X120000000Y-121150000D02*
X120740000Y-121150000D01*
D16*
X119700000Y-123700000D02*
X119700000Y-124400000D01*
D17*
X121900000Y-118400000D02*
X123500000Y-118400000D01*
X122690000Y-119990000D02*
X122690000Y-120000000D01*
D16*
X119700000Y-124400000D02*
X119700000Y-124200000D01*
X120175000Y-123225000D02*
X119700000Y-123700000D01*
X121295000Y-123225000D02*
X120175000Y-123225000D01*
D17*
G04 #@! TO.N,/Headstage Interface/B5.E_{0}*
X154642000Y-95622000D02*
X157309000Y-95622000D01*
G04 #@! TO.N,/Headstage Interface/B5.E_{2}*
X154664000Y-96892000D02*
X157309000Y-96892000D01*
X154655000Y-96901000D02*
X154664000Y-96892000D01*
X154642000Y-96901000D02*
X154655000Y-96901000D01*
G04 #@! TO.N,/Headstage Interface/B5.E_{5}*
X157309000Y-98797000D02*
X157300000Y-98806000D01*
X157300000Y-98806000D02*
X155259000Y-98806000D01*
G04 #@! TO.N,/Headstage Interface/B6.E_{2}*
X157300000Y-101981000D02*
X154559000Y-101981000D01*
X157309000Y-101972000D02*
X157300000Y-101981000D01*
G04 #@! TO.N,/Headstage Interface/B6.E_{5}*
X157309000Y-103877000D02*
X157300000Y-103886000D01*
X157300000Y-103886000D02*
X155259000Y-103886000D01*
G04 #@! TO.N,/Headstage Interface/B5.E_{7}*
X157300000Y-100076000D02*
X155259000Y-100076000D01*
X157309000Y-100067000D02*
X157300000Y-100076000D01*
G04 #@! TO.N,/Headstage Interface/B6.E_{7}*
X157300000Y-105156000D02*
X155259000Y-105156000D01*
X157309000Y-105147000D02*
X157300000Y-105156000D01*
G04 #@! TO.N,/Headstage Interface/B6.E_{0}*
X157309000Y-100702000D02*
X157300000Y-100711000D01*
X157300000Y-100711000D02*
X154559000Y-100711000D01*
G04 #@! TO.N,/Headstage Interface/B5.E_{1}*
X155389000Y-96257000D02*
X157309000Y-96257000D01*
D16*
G04 #@! TO.N,/Headstage Interface/REF*
X157250000Y-115780000D02*
X157250000Y-107696000D01*
X160475000Y-124430000D02*
X160475000Y-126970000D01*
X160475000Y-119005000D02*
X160475000Y-124430000D01*
X160475000Y-119005000D02*
X157250000Y-115780000D01*
X157250000Y-105800000D02*
X157250000Y-107696000D01*
X158750000Y-95005000D02*
X158750000Y-94234000D01*
D17*
G04 #@! TO.N,/Headstage Interface/B6.E_{6}*
X157309000Y-104512000D02*
X157300000Y-104521000D01*
X157300000Y-104521000D02*
X154559000Y-104521000D01*
G04 #@! TO.N,/Headstage Interface/B6.E_{1}*
X157309000Y-101337000D02*
X157300000Y-101346000D01*
X157300000Y-101346000D02*
X155259000Y-101346000D01*
G04 #@! TO.N,/Headstage Interface/B5.E_{6}*
X157300000Y-99441000D02*
X154559000Y-99441000D01*
X157309000Y-99432000D02*
X157300000Y-99441000D01*
G04 #@! TO.N,/Headstage Interface/B6.E_{4}*
X157309000Y-103242000D02*
X157300000Y-103251000D01*
X157300000Y-103251000D02*
X154559000Y-103251000D01*
G04 #@! TO.N,/Headstage Interface/B5.E_{4}*
X157300000Y-98171000D02*
X154559000Y-98171000D01*
X157309000Y-98162000D02*
X157300000Y-98171000D01*
G04 #@! TO.N,/Headstage Interface/B5.E_{3}*
X157309000Y-97527000D02*
X157300000Y-97536000D01*
X157300000Y-97536000D02*
X155259000Y-97536000D01*
G04 #@! TO.N,/Headstage Interface/B6.E_{3}*
X157300000Y-102616000D02*
X155259000Y-102616000D01*
X157309000Y-102607000D02*
X157300000Y-102616000D01*
G04 #@! TO.N,/Test Signal Interface/SDA*
X125040000Y-123160000D02*
X125105000Y-123225000D01*
X125105000Y-123225000D02*
X125095000Y-123215000D01*
X125110000Y-117998000D02*
X125110000Y-118800000D01*
X125095000Y-117983000D02*
X125110000Y-117998000D01*
X125095000Y-123215000D02*
X125095000Y-121666000D01*
G04 #@! TO.N,/Headstage Interface/B10.E_{4}*
X158750000Y-103260000D02*
X158759000Y-103251000D01*
X158759000Y-103251000D02*
X160800000Y-103251000D01*
G04 #@! TO.N,/Test Signal Interface/SCL*
X127700000Y-118200000D02*
X125900000Y-120000000D01*
X123835000Y-123225000D02*
X123835000Y-120125000D01*
X127700000Y-115400000D02*
X127700000Y-118200000D01*
X123710000Y-119910000D02*
X123710000Y-120000000D01*
X123835000Y-120125000D02*
X123710000Y-120000000D01*
X125900000Y-120000000D02*
X123710000Y-120000000D01*
G04 #@! TO.N,/Headstage Interface/B9.E_{1}*
X158750000Y-96275000D02*
X158759000Y-96266000D01*
X158759000Y-96266000D02*
X161500000Y-96266000D01*
G04 #@! TO.N,/Headstage Interface/B9.E_{0}*
X158750000Y-95640000D02*
X158759000Y-95631000D01*
X158759000Y-95631000D02*
X160800000Y-95631000D01*
G04 #@! TO.N,/Headstage Interface/B9.E_{5}*
X158759000Y-98806000D02*
X161500000Y-98806000D01*
X158750000Y-98815000D02*
X158759000Y-98806000D01*
G04 #@! TO.N,/Headstage Interface/B10.E_{3}*
X158750000Y-102625000D02*
X158759000Y-102616000D01*
X158759000Y-102616000D02*
X161500000Y-102616000D01*
G04 #@! TO.N,/Headstage Interface/B10.E_{1}*
X158750000Y-101355000D02*
X158759000Y-101346000D01*
X158759000Y-101346000D02*
X161500000Y-101346000D01*
G04 #@! TO.N,/Headstage Interface/B10.E_{2}*
X158750000Y-101990000D02*
X158759000Y-101981000D01*
X158759000Y-101981000D02*
X160800000Y-101981000D01*
G04 #@! TO.N,/Headstage Interface/B10.E_{7}*
X161417000Y-105165000D02*
X158750000Y-105165000D01*
G04 #@! TO.N,/Headstage Interface/B9.E_{3}*
X158759000Y-97536000D02*
X161500000Y-97536000D01*
X158750000Y-97545000D02*
X158759000Y-97536000D01*
G04 #@! TO.N,/Headstage Interface/B9.E_{4}*
X158759000Y-98171000D02*
X160800000Y-98171000D01*
X158750000Y-98180000D02*
X158759000Y-98171000D01*
G04 #@! TO.N,/Headstage Interface/B9.E_{6}*
X158759000Y-99441000D02*
X160800000Y-99441000D01*
X158750000Y-99450000D02*
X158759000Y-99441000D01*
G04 #@! TO.N,/Headstage Interface/B9.E_{7}*
X158759000Y-100076000D02*
X161500000Y-100076000D01*
X158750000Y-100085000D02*
X158759000Y-100076000D01*
G04 #@! TO.N,/Headstage Interface/B9.E_{2}*
X158759000Y-96901000D02*
X160800000Y-96901000D01*
X158750000Y-96910000D02*
X158759000Y-96901000D01*
G04 #@! TO.N,/Headstage Interface/B10.E_{6}*
X160670000Y-104530000D02*
X158750000Y-104530000D01*
G04 #@! TO.N,/Headstage Interface/B10.E_{0}*
X158759000Y-100711000D02*
X160800000Y-100711000D01*
X158750000Y-100720000D02*
X158759000Y-100711000D01*
G04 #@! TO.N,/Headstage Interface/B10.E_{5}*
X161404000Y-103886000D02*
X161395000Y-103895000D01*
X161395000Y-103895000D02*
X158750000Y-103895000D01*
X161417000Y-103886000D02*
X161404000Y-103886000D01*
D16*
G04 #@! TO.N,/Test Signal Interface/WP*
X118600000Y-120000000D02*
X121371760Y-120000000D01*
X121810000Y-120438240D02*
X121810000Y-121100000D01*
D17*
X122565000Y-123225000D02*
X122565000Y-121255000D01*
D16*
X118100000Y-119500000D02*
X118600000Y-120000000D01*
D17*
X122565000Y-121255000D02*
X122410000Y-121100000D01*
X122410000Y-121100000D02*
X121810000Y-121100000D01*
D16*
X121371760Y-120000000D02*
X121810000Y-120438240D01*
X118100000Y-114800000D02*
X118100000Y-119500000D01*
G04 #@! TD*
G04 #@! TA.AperFunction,Conductor*
G04 #@! TO.N,GND*
G36*
X205002065Y-77200615D02*
G01*
X205309309Y-77217870D01*
X205317543Y-77218799D01*
X205618855Y-77269993D01*
X205626923Y-77271834D01*
X205920633Y-77356451D01*
X205928447Y-77359185D01*
X206210817Y-77476147D01*
X206218293Y-77479747D01*
X206485784Y-77627584D01*
X206492808Y-77631997D01*
X206742086Y-77808869D01*
X206748554Y-77814028D01*
X206901670Y-77950862D01*
X206976446Y-78017686D01*
X206982313Y-78023553D01*
X207065033Y-78116116D01*
X207185969Y-78251443D01*
X207191132Y-78257915D01*
X207346337Y-78476657D01*
X207368000Y-78507188D01*
X207372415Y-78514215D01*
X207520252Y-78781706D01*
X207523852Y-78789182D01*
X207640810Y-79071543D01*
X207643551Y-79079376D01*
X207728162Y-79373065D01*
X207730008Y-79381156D01*
X207781199Y-79682450D01*
X207782129Y-79690696D01*
X207799384Y-79997934D01*
X207799500Y-80002083D01*
X207799500Y-133997916D01*
X207799384Y-134002065D01*
X207782129Y-134309303D01*
X207781199Y-134317549D01*
X207730008Y-134618843D01*
X207728162Y-134626934D01*
X207643551Y-134920623D01*
X207640810Y-134928456D01*
X207523852Y-135210817D01*
X207520252Y-135218293D01*
X207372415Y-135485784D01*
X207368000Y-135492811D01*
X207191138Y-135742076D01*
X207185963Y-135748564D01*
X206982313Y-135976446D01*
X206976446Y-135982313D01*
X206748564Y-136185963D01*
X206742076Y-136191138D01*
X206492811Y-136368000D01*
X206485784Y-136372415D01*
X206218293Y-136520252D01*
X206210817Y-136523852D01*
X205928456Y-136640810D01*
X205920623Y-136643551D01*
X205626934Y-136728162D01*
X205618843Y-136730008D01*
X205317549Y-136781199D01*
X205309303Y-136782129D01*
X205002066Y-136799384D01*
X204997917Y-136799500D01*
X111002083Y-136799500D01*
X110997934Y-136799384D01*
X110690696Y-136782129D01*
X110682450Y-136781199D01*
X110381156Y-136730008D01*
X110373065Y-136728162D01*
X110079376Y-136643551D01*
X110071543Y-136640810D01*
X109789182Y-136523852D01*
X109781706Y-136520252D01*
X109514215Y-136372415D01*
X109507188Y-136368000D01*
X109363715Y-136266201D01*
X109257915Y-136191132D01*
X109251443Y-136185969D01*
X109062260Y-136016904D01*
X109023553Y-135982313D01*
X109017686Y-135976446D01*
X108950862Y-135901670D01*
X108814028Y-135748554D01*
X108808869Y-135742086D01*
X108631997Y-135492808D01*
X108627584Y-135485784D01*
X108610565Y-135454991D01*
X108479747Y-135218293D01*
X108476147Y-135210817D01*
X108450347Y-135148531D01*
X108359185Y-134928447D01*
X108356451Y-134920633D01*
X108271834Y-134626923D01*
X108269993Y-134618855D01*
X108218799Y-134317543D01*
X108217870Y-134309303D01*
X108200616Y-134002065D01*
X108200500Y-133997916D01*
X108200500Y-129054205D01*
X120695001Y-129054205D01*
X120697850Y-129084602D01*
X120697852Y-129084611D01*
X120742652Y-129212643D01*
X120823207Y-129321791D01*
X120823208Y-129321792D01*
X120932356Y-129402347D01*
X120932355Y-129402347D01*
X121060385Y-129447146D01*
X121060393Y-129447148D01*
X121090803Y-129449999D01*
X121195000Y-129449999D01*
X121395000Y-129449999D01*
X121499194Y-129449999D01*
X121499205Y-129449998D01*
X121529602Y-129447149D01*
X121529611Y-129447147D01*
X121657643Y-129402347D01*
X121766791Y-129321792D01*
X121766792Y-129321791D01*
X121847345Y-129212646D01*
X121860152Y-129176047D01*
X121897892Y-129133816D01*
X121954440Y-129130639D01*
X121996671Y-129168379D01*
X121999848Y-129176047D01*
X122012654Y-129212646D01*
X122093207Y-129321791D01*
X122093208Y-129321792D01*
X122202356Y-129402347D01*
X122202355Y-129402347D01*
X122330385Y-129447146D01*
X122330393Y-129447148D01*
X122360803Y-129449999D01*
X122465000Y-129449999D01*
X122665000Y-129449999D01*
X122769194Y-129449999D01*
X122769205Y-129449998D01*
X122799602Y-129447149D01*
X122799611Y-129447147D01*
X122927643Y-129402347D01*
X123036791Y-129321792D01*
X123036792Y-129321791D01*
X123117345Y-129212646D01*
X123130152Y-129176047D01*
X123167892Y-129133816D01*
X123224440Y-129130639D01*
X123266671Y-129168379D01*
X123269848Y-129176047D01*
X123282654Y-129212646D01*
X123363207Y-129321791D01*
X123363208Y-129321792D01*
X123472356Y-129402347D01*
X123472355Y-129402347D01*
X123600385Y-129447146D01*
X123600393Y-129447148D01*
X123630803Y-129449999D01*
X123735000Y-129449999D01*
X123935000Y-129449999D01*
X124039194Y-129449999D01*
X124039205Y-129449998D01*
X124069602Y-129447149D01*
X124069611Y-129447147D01*
X124197643Y-129402347D01*
X124306791Y-129321792D01*
X124306792Y-129321791D01*
X124387345Y-129212646D01*
X124400152Y-129176047D01*
X124437892Y-129133816D01*
X124494440Y-129130639D01*
X124536671Y-129168379D01*
X124539848Y-129176047D01*
X124552654Y-129212646D01*
X124633207Y-129321791D01*
X124633208Y-129321792D01*
X124742356Y-129402347D01*
X124742355Y-129402347D01*
X124870385Y-129447146D01*
X124870393Y-129447148D01*
X124900803Y-129449999D01*
X125005000Y-129449999D01*
X125205000Y-129449999D01*
X125309194Y-129449999D01*
X125309205Y-129449998D01*
X125339602Y-129447149D01*
X125339611Y-129447147D01*
X125467643Y-129402347D01*
X125576791Y-129321792D01*
X125576792Y-129321791D01*
X125657347Y-129212643D01*
X125702146Y-129084614D01*
X125702148Y-129084606D01*
X125704999Y-129054198D01*
X125705000Y-129054197D01*
X125705000Y-128275000D01*
X125205000Y-128275000D01*
X125205000Y-129449999D01*
X125005000Y-129449999D01*
X125005000Y-128275000D01*
X124480498Y-128275000D01*
X124470001Y-128279348D01*
X124469996Y-128279345D01*
X124469991Y-128279348D01*
X124459497Y-128275000D01*
X123935000Y-128275000D01*
X123935000Y-129449999D01*
X123735000Y-129449999D01*
X123735000Y-128275000D01*
X123210498Y-128275000D01*
X123200001Y-128279348D01*
X123199996Y-128279345D01*
X123199991Y-128279348D01*
X123189497Y-128275000D01*
X122665000Y-128275000D01*
X122665000Y-129449999D01*
X122465000Y-129449999D01*
X122465000Y-128275000D01*
X121940498Y-128275000D01*
X121930001Y-128279348D01*
X121929996Y-128279345D01*
X121929991Y-128279348D01*
X121919497Y-128275000D01*
X121395000Y-128275000D01*
X121395000Y-129449999D01*
X121195000Y-129449999D01*
X121195000Y-128275000D01*
X120695001Y-128275000D01*
X120695001Y-129054205D01*
X108200500Y-129054205D01*
X108200500Y-127295801D01*
X120695000Y-127295801D01*
X120695000Y-128075000D01*
X121195000Y-128075000D01*
X121395000Y-128075000D01*
X121919494Y-128075000D01*
X121929990Y-128070651D01*
X121929994Y-128070652D01*
X121929998Y-128070651D01*
X121940498Y-128075000D01*
X122465000Y-128075000D01*
X122665000Y-128075000D01*
X123189494Y-128075000D01*
X123199990Y-128070651D01*
X123199994Y-128070652D01*
X123199998Y-128070651D01*
X123210498Y-128075000D01*
X123735000Y-128075000D01*
X123935000Y-128075000D01*
X124459494Y-128075000D01*
X124469990Y-128070651D01*
X124469994Y-128070652D01*
X124469998Y-128070651D01*
X124480498Y-128075000D01*
X125005000Y-128075000D01*
X125205000Y-128075000D01*
X125704999Y-128075000D01*
X125704999Y-127514792D01*
X153550001Y-127514792D01*
X153552908Y-127539868D01*
X153552910Y-127539874D01*
X153598213Y-127642478D01*
X153677521Y-127721786D01*
X153780124Y-127767089D01*
X153780123Y-127767089D01*
X153805210Y-127769999D01*
X155325000Y-127769999D01*
X155525000Y-127769999D01*
X157044792Y-127769999D01*
X157069868Y-127767091D01*
X157069874Y-127767089D01*
X157172478Y-127721786D01*
X157251786Y-127642478D01*
X157297089Y-127539875D01*
X157300000Y-127514789D01*
X157300000Y-127070000D01*
X155525000Y-127070000D01*
X155525000Y-127769999D01*
X155325000Y-127769999D01*
X155325000Y-127070000D01*
X153550001Y-127070000D01*
X153550001Y-127514792D01*
X125704999Y-127514792D01*
X125704999Y-127295806D01*
X125704998Y-127295794D01*
X125702149Y-127265397D01*
X125702147Y-127265388D01*
X125657347Y-127137356D01*
X125617445Y-127083291D01*
X125576792Y-127028208D01*
X125576791Y-127028207D01*
X125467643Y-126947652D01*
X125467644Y-126947652D01*
X125339614Y-126902853D01*
X125339606Y-126902851D01*
X125309198Y-126900000D01*
X125205000Y-126900000D01*
X125205000Y-128075000D01*
X125005000Y-128075000D01*
X125005000Y-126900000D01*
X124900806Y-126900000D01*
X124900793Y-126900001D01*
X124870397Y-126902850D01*
X124870388Y-126902852D01*
X124742356Y-126947652D01*
X124633208Y-127028207D01*
X124633207Y-127028208D01*
X124552653Y-127137355D01*
X124539847Y-127173953D01*
X124502107Y-127216184D01*
X124445559Y-127219359D01*
X124403328Y-127181619D01*
X124400153Y-127173953D01*
X124387346Y-127137355D01*
X124306792Y-127028208D01*
X124306791Y-127028207D01*
X124197643Y-126947652D01*
X124197644Y-126947652D01*
X124069614Y-126902853D01*
X124069606Y-126902851D01*
X124039198Y-126900000D01*
X123935000Y-126900000D01*
X123935000Y-128075000D01*
X123735000Y-128075000D01*
X123735000Y-126900000D01*
X123630806Y-126900000D01*
X123630793Y-126900001D01*
X123600397Y-126902850D01*
X123600388Y-126902852D01*
X123472356Y-126947652D01*
X123363208Y-127028207D01*
X123363207Y-127028208D01*
X123282653Y-127137355D01*
X123269847Y-127173953D01*
X123232107Y-127216184D01*
X123175559Y-127219359D01*
X123133328Y-127181619D01*
X123130153Y-127173953D01*
X123117346Y-127137355D01*
X123036792Y-127028208D01*
X123036791Y-127028207D01*
X122927643Y-126947652D01*
X122927644Y-126947652D01*
X122799614Y-126902853D01*
X122799606Y-126902851D01*
X122769198Y-126900000D01*
X122665000Y-126900000D01*
X122665000Y-128075000D01*
X122465000Y-128075000D01*
X122465000Y-126900000D01*
X122360806Y-126900000D01*
X122360793Y-126900001D01*
X122330397Y-126902850D01*
X122330388Y-126902852D01*
X122202356Y-126947652D01*
X122093208Y-127028207D01*
X122093207Y-127028208D01*
X122012653Y-127137355D01*
X121999847Y-127173953D01*
X121962107Y-127216184D01*
X121905559Y-127219359D01*
X121863328Y-127181619D01*
X121860153Y-127173953D01*
X121847346Y-127137355D01*
X121766792Y-127028208D01*
X121766791Y-127028207D01*
X121657643Y-126947652D01*
X121657644Y-126947652D01*
X121529614Y-126902853D01*
X121529606Y-126902851D01*
X121499198Y-126900000D01*
X121395000Y-126900000D01*
X121395000Y-128075000D01*
X121195000Y-128075000D01*
X121195000Y-126900000D01*
X121090806Y-126900000D01*
X121090793Y-126900001D01*
X121060397Y-126902850D01*
X121060388Y-126902852D01*
X120932356Y-126947652D01*
X120823208Y-127028207D01*
X120823207Y-127028208D01*
X120742652Y-127137356D01*
X120697853Y-127265385D01*
X120697851Y-127265393D01*
X120695000Y-127295801D01*
X108200500Y-127295801D01*
X108200500Y-126373007D01*
X119090001Y-126373007D01*
X119092786Y-126402721D01*
X119092787Y-126402728D01*
X119136594Y-126527919D01*
X119215358Y-126634640D01*
X119215359Y-126634641D01*
X119322080Y-126713405D01*
X119447268Y-126757211D01*
X119447273Y-126757212D01*
X119477002Y-126759999D01*
X119600000Y-126759999D01*
X119800000Y-126759999D01*
X119922993Y-126759999D01*
X119923007Y-126759998D01*
X119952721Y-126757213D01*
X119952728Y-126757212D01*
X120077919Y-126713405D01*
X120184640Y-126634641D01*
X120184641Y-126634640D01*
X120263406Y-126527919D01*
X120299345Y-126425210D01*
X153550000Y-126425210D01*
X153550000Y-126870000D01*
X155325000Y-126870000D01*
X155525000Y-126870000D01*
X157299999Y-126870000D01*
X157299999Y-126425207D01*
X157297091Y-126400131D01*
X157297089Y-126400125D01*
X157251786Y-126297521D01*
X157172478Y-126218213D01*
X157069875Y-126172910D01*
X157069876Y-126172910D01*
X157044789Y-126170000D01*
X155525000Y-126170000D01*
X155525000Y-126870000D01*
X155325000Y-126870000D01*
X155325000Y-126170000D01*
X153805207Y-126170000D01*
X153780131Y-126172908D01*
X153780125Y-126172910D01*
X153677521Y-126218213D01*
X153598213Y-126297521D01*
X153552910Y-126400124D01*
X153550000Y-126425210D01*
X120299345Y-126425210D01*
X120307210Y-126402733D01*
X120307212Y-126402726D01*
X120309999Y-126372997D01*
X120310000Y-126372996D01*
X120310000Y-126280000D01*
X119800000Y-126280000D01*
X119800000Y-126759999D01*
X119600000Y-126759999D01*
X119600000Y-126280000D01*
X119090001Y-126280000D01*
X119090001Y-126373007D01*
X108200500Y-126373007D01*
X108200500Y-125987002D01*
X119090000Y-125987002D01*
X119090000Y-126080000D01*
X120309999Y-126080000D01*
X120309999Y-125987007D01*
X120309998Y-125986992D01*
X120307213Y-125957278D01*
X120307212Y-125957271D01*
X120263405Y-125832080D01*
X120184641Y-125725359D01*
X120184640Y-125725358D01*
X120139641Y-125692147D01*
X120110410Y-125643636D01*
X120124044Y-125588664D01*
X120131252Y-125580287D01*
X120153224Y-125558316D01*
X120203972Y-125449487D01*
X120210500Y-125399901D01*
X120210499Y-125040100D01*
X120203972Y-124990513D01*
X120196641Y-124974792D01*
X153550001Y-124974792D01*
X153552908Y-124999868D01*
X153552910Y-124999874D01*
X153598213Y-125102478D01*
X153677521Y-125181786D01*
X153780124Y-125227089D01*
X153780123Y-125227089D01*
X153805210Y-125229999D01*
X155325000Y-125229999D01*
X155525000Y-125229999D01*
X157044792Y-125229999D01*
X157069868Y-125227091D01*
X157069874Y-125227089D01*
X157172478Y-125181786D01*
X157251786Y-125102478D01*
X157297089Y-124999875D01*
X157300000Y-124974789D01*
X157300000Y-124530000D01*
X155525000Y-124530000D01*
X155525000Y-125229999D01*
X155325000Y-125229999D01*
X155325000Y-124530000D01*
X153550001Y-124530000D01*
X153550001Y-124974792D01*
X120196641Y-124974792D01*
X120153224Y-124881684D01*
X120122174Y-124850634D01*
X120100500Y-124798308D01*
X120100500Y-124477141D01*
X120110414Y-124440141D01*
X120139032Y-124390573D01*
X120143095Y-124383536D01*
X120175499Y-124262603D01*
X120175500Y-124262603D01*
X120175500Y-124137397D01*
X120175499Y-124137396D01*
X120143096Y-124016467D01*
X120143094Y-124016462D01*
X120126084Y-123987000D01*
X120118691Y-123930848D01*
X120120862Y-123924070D01*
X120123014Y-123918316D01*
X120143095Y-123883536D01*
X120160933Y-123816961D01*
X120162183Y-123813622D01*
X120166755Y-123808720D01*
X120179163Y-123787228D01*
X120319219Y-123647174D01*
X120371545Y-123625500D01*
X120720500Y-123625500D01*
X120772826Y-123647174D01*
X120794500Y-123699500D01*
X120794500Y-124083264D01*
X120804427Y-124151393D01*
X120804427Y-124151394D01*
X120855801Y-124256482D01*
X120855802Y-124256483D01*
X120938517Y-124339198D01*
X121043607Y-124390573D01*
X121111740Y-124400500D01*
X121111746Y-124400500D01*
X121478254Y-124400500D01*
X121478260Y-124400500D01*
X121546393Y-124390573D01*
X121651483Y-124339198D01*
X121734198Y-124256483D01*
X121785573Y-124151393D01*
X121795500Y-124083260D01*
X121795500Y-122366740D01*
X121785573Y-122298607D01*
X121734198Y-122193517D01*
X121651483Y-122110802D01*
X121651482Y-122110801D01*
X121546394Y-122059427D01*
X121478264Y-122049500D01*
X121478260Y-122049500D01*
X121111740Y-122049500D01*
X121111735Y-122049500D01*
X121043606Y-122059427D01*
X121043605Y-122059427D01*
X120938517Y-122110801D01*
X120855801Y-122193517D01*
X120804427Y-122298605D01*
X120804427Y-122298606D01*
X120794500Y-122366735D01*
X120794500Y-122750500D01*
X120772826Y-122802826D01*
X120720500Y-122824500D01*
X120122271Y-122824500D01*
X120020417Y-122851791D01*
X120020408Y-122851795D01*
X119929221Y-122904442D01*
X119929092Y-122904515D01*
X119929087Y-122904519D01*
X119612771Y-123220835D01*
X119579599Y-123239987D01*
X119516463Y-123256904D01*
X119408036Y-123319504D01*
X119319504Y-123408036D01*
X119256904Y-123516464D01*
X119224500Y-123637396D01*
X119224500Y-123762603D01*
X119256904Y-123883535D01*
X119273916Y-123913001D01*
X119281308Y-123969153D01*
X119273916Y-123986999D01*
X119256904Y-124016464D01*
X119224500Y-124137396D01*
X119224500Y-124262603D01*
X119256903Y-124383532D01*
X119256905Y-124383537D01*
X119289586Y-124440141D01*
X119299500Y-124477141D01*
X119299500Y-124798308D01*
X119277826Y-124850634D01*
X119246776Y-124881683D01*
X119196027Y-124990514D01*
X119189500Y-125040100D01*
X119189500Y-125399899D01*
X119196027Y-125449485D01*
X119196028Y-125449487D01*
X119246776Y-125558316D01*
X119268741Y-125580281D01*
X119290415Y-125632607D01*
X119268741Y-125684933D01*
X119260359Y-125692147D01*
X119215357Y-125725360D01*
X119136594Y-125832080D01*
X119092788Y-125957268D01*
X119092787Y-125957273D01*
X119090000Y-125987002D01*
X108200500Y-125987002D01*
X108200500Y-114737396D01*
X117624500Y-114737396D01*
X117624500Y-114862603D01*
X117656903Y-114983532D01*
X117656905Y-114983537D01*
X117689586Y-115040141D01*
X117699500Y-115077141D01*
X117699500Y-119447273D01*
X117699500Y-119552727D01*
X117711006Y-119595668D01*
X117726793Y-119654588D01*
X117726795Y-119654592D01*
X117779517Y-119745909D01*
X117779518Y-119745910D01*
X117779520Y-119745913D01*
X118136304Y-120102696D01*
X118276931Y-120243323D01*
X118276936Y-120243329D01*
X118279520Y-120245913D01*
X118354087Y-120320480D01*
X118399748Y-120346842D01*
X118399750Y-120346844D01*
X118399750Y-120346843D01*
X118445412Y-120373207D01*
X118547273Y-120400500D01*
X118652727Y-120400500D01*
X121175215Y-120400500D01*
X121227541Y-120422174D01*
X121387826Y-120582459D01*
X121409500Y-120634785D01*
X121409500Y-120676890D01*
X121397987Y-120713410D01*
X121398671Y-120713729D01*
X121396249Y-120718920D01*
X121396121Y-120719330D01*
X121395935Y-120719594D01*
X121367067Y-120781504D01*
X121325309Y-120819767D01*
X121268726Y-120817297D01*
X121232933Y-120781504D01*
X121227338Y-120769505D01*
X121204065Y-120719596D01*
X121120404Y-120635935D01*
X121013173Y-120585932D01*
X121013171Y-120585931D01*
X120977178Y-120581193D01*
X120964316Y-120579500D01*
X120615684Y-120579500D01*
X120604318Y-120580996D01*
X120566828Y-120585931D01*
X120459595Y-120635935D01*
X120375933Y-120719597D01*
X120373913Y-120723930D01*
X120332153Y-120762190D01*
X120275570Y-120759715D01*
X120269850Y-120756737D01*
X120183534Y-120706904D01*
X120183536Y-120706904D01*
X120062603Y-120674500D01*
X120062601Y-120674500D01*
X119937399Y-120674500D01*
X119937397Y-120674500D01*
X119816464Y-120706904D01*
X119708036Y-120769504D01*
X119619504Y-120858036D01*
X119556904Y-120966464D01*
X119524500Y-121087396D01*
X119524500Y-121212603D01*
X119556904Y-121333535D01*
X119585291Y-121382702D01*
X119619505Y-121441964D01*
X119708036Y-121530495D01*
X119816464Y-121593095D01*
X119816463Y-121593095D01*
X119854918Y-121603399D01*
X119937396Y-121625499D01*
X119937397Y-121625500D01*
X119937399Y-121625500D01*
X120062603Y-121625500D01*
X120062603Y-121625499D01*
X120183536Y-121593095D01*
X120291964Y-121530495D01*
X120306669Y-121515790D01*
X120358995Y-121494116D01*
X120411321Y-121515790D01*
X120459596Y-121564065D01*
X120566827Y-121614068D01*
X120615684Y-121620500D01*
X120615686Y-121620500D01*
X120964314Y-121620500D01*
X120964316Y-121620500D01*
X121013173Y-121614068D01*
X121120404Y-121564065D01*
X121204065Y-121480404D01*
X121232933Y-121418495D01*
X121274690Y-121380232D01*
X121331273Y-121382702D01*
X121367067Y-121418496D01*
X121395933Y-121480402D01*
X121395935Y-121480404D01*
X121479596Y-121564065D01*
X121586827Y-121614068D01*
X121635684Y-121620500D01*
X121635686Y-121620500D01*
X121984314Y-121620500D01*
X121984316Y-121620500D01*
X122033173Y-121614068D01*
X122140404Y-121564065D01*
X122140404Y-121564064D01*
X122146271Y-121561329D01*
X122147353Y-121563650D01*
X122193335Y-121553448D01*
X122241109Y-121583869D01*
X122254500Y-121626326D01*
X122254500Y-122042128D01*
X122232826Y-122094454D01*
X122213004Y-122108607D01*
X122208520Y-122110799D01*
X122208518Y-122110801D01*
X122125801Y-122193517D01*
X122074427Y-122298605D01*
X122074427Y-122298606D01*
X122064500Y-122366735D01*
X122064500Y-124083264D01*
X122074427Y-124151393D01*
X122074427Y-124151394D01*
X122125801Y-124256482D01*
X122125802Y-124256483D01*
X122208517Y-124339198D01*
X122313607Y-124390573D01*
X122381740Y-124400500D01*
X122381746Y-124400500D01*
X122748254Y-124400500D01*
X122748260Y-124400500D01*
X122816393Y-124390573D01*
X122921483Y-124339198D01*
X123004198Y-124256483D01*
X123055573Y-124151393D01*
X123065500Y-124083260D01*
X123065500Y-122366740D01*
X123055573Y-122298607D01*
X123004198Y-122193517D01*
X122921483Y-122110802D01*
X122921482Y-122110801D01*
X122921479Y-122110799D01*
X122916996Y-122108607D01*
X122879508Y-122066152D01*
X122875500Y-122042128D01*
X122875500Y-121214119D01*
X122875097Y-121212613D01*
X122854341Y-121135154D01*
X122854339Y-121135149D01*
X122826770Y-121087399D01*
X122813462Y-121064348D01*
X122600652Y-120851538D01*
X122529850Y-120810660D01*
X122529845Y-120810658D01*
X122450881Y-120789500D01*
X122450879Y-120789500D01*
X122450878Y-120789500D01*
X122303805Y-120789500D01*
X122292553Y-120784839D01*
X122280404Y-120785703D01*
X122268051Y-120774690D01*
X122251479Y-120767826D01*
X122237617Y-120748594D01*
X122237173Y-120747706D01*
X122224065Y-120719596D01*
X122222171Y-120717702D01*
X122218312Y-120709984D01*
X122217549Y-120699251D01*
X122210500Y-120676890D01*
X122210500Y-120493621D01*
X122232174Y-120441295D01*
X122284500Y-120419621D01*
X122336826Y-120441295D01*
X122359596Y-120464065D01*
X122466827Y-120514068D01*
X122515684Y-120520500D01*
X122515686Y-120520500D01*
X122864314Y-120520500D01*
X122864316Y-120520500D01*
X122913173Y-120514068D01*
X123020404Y-120464065D01*
X123104065Y-120380404D01*
X123132933Y-120318495D01*
X123174690Y-120280232D01*
X123231273Y-120282702D01*
X123267066Y-120318495D01*
X123267992Y-120320480D01*
X123295933Y-120380402D01*
X123295935Y-120380404D01*
X123379596Y-120464065D01*
X123481775Y-120511712D01*
X123520037Y-120553468D01*
X123524500Y-120578778D01*
X123524500Y-122042128D01*
X123502826Y-122094454D01*
X123483004Y-122108607D01*
X123478520Y-122110799D01*
X123478518Y-122110801D01*
X123395801Y-122193517D01*
X123344427Y-122298605D01*
X123344427Y-122298606D01*
X123334500Y-122366735D01*
X123334500Y-124083264D01*
X123344427Y-124151393D01*
X123344427Y-124151394D01*
X123395801Y-124256482D01*
X123395802Y-124256483D01*
X123478517Y-124339198D01*
X123583607Y-124390573D01*
X123651740Y-124400500D01*
X123651746Y-124400500D01*
X124018254Y-124400500D01*
X124018260Y-124400500D01*
X124086393Y-124390573D01*
X124191483Y-124339198D01*
X124274198Y-124256483D01*
X124325573Y-124151393D01*
X124335500Y-124083260D01*
X124335500Y-122366740D01*
X124335499Y-122366735D01*
X124604500Y-122366735D01*
X124604500Y-124083264D01*
X124614427Y-124151393D01*
X124614427Y-124151394D01*
X124665801Y-124256482D01*
X124665802Y-124256483D01*
X124748517Y-124339198D01*
X124853607Y-124390573D01*
X124921740Y-124400500D01*
X124921746Y-124400500D01*
X125288254Y-124400500D01*
X125288260Y-124400500D01*
X125356393Y-124390573D01*
X125461483Y-124339198D01*
X125544198Y-124256483D01*
X125595573Y-124151393D01*
X125605500Y-124083260D01*
X125605500Y-123885210D01*
X153550000Y-123885210D01*
X153550000Y-124330000D01*
X155325000Y-124330000D01*
X155525000Y-124330000D01*
X157299999Y-124330000D01*
X157299999Y-123885207D01*
X157297091Y-123860131D01*
X157297089Y-123860125D01*
X157251786Y-123757521D01*
X157172478Y-123678213D01*
X157069875Y-123632910D01*
X157069876Y-123632910D01*
X157044789Y-123630000D01*
X155525000Y-123630000D01*
X155525000Y-124330000D01*
X155325000Y-124330000D01*
X155325000Y-123630000D01*
X153805207Y-123630000D01*
X153780131Y-123632908D01*
X153780125Y-123632910D01*
X153677521Y-123678213D01*
X153598213Y-123757521D01*
X153552910Y-123860124D01*
X153550000Y-123885210D01*
X125605500Y-123885210D01*
X125605500Y-122366740D01*
X125595573Y-122298607D01*
X125544198Y-122193517D01*
X125461483Y-122110802D01*
X125461482Y-122110801D01*
X125461355Y-122110739D01*
X125461286Y-122110661D01*
X125456492Y-122107238D01*
X125457283Y-122106129D01*
X125423863Y-122068287D01*
X125427371Y-122011759D01*
X125441525Y-121991933D01*
X125475495Y-121957964D01*
X125538095Y-121849536D01*
X125570499Y-121728603D01*
X125570500Y-121728603D01*
X125570500Y-121603397D01*
X125570499Y-121603396D01*
X125538095Y-121482464D01*
X125475495Y-121374036D01*
X125386963Y-121285504D01*
X125278534Y-121222904D01*
X125278536Y-121222904D01*
X125157603Y-121190500D01*
X125157601Y-121190500D01*
X125032399Y-121190500D01*
X125032397Y-121190500D01*
X124911464Y-121222904D01*
X124803036Y-121285504D01*
X124714504Y-121374036D01*
X124651904Y-121482464D01*
X124619500Y-121603396D01*
X124619500Y-121728603D01*
X124651904Y-121849535D01*
X124714504Y-121957963D01*
X124756063Y-121999522D01*
X124777737Y-122051848D01*
X124756063Y-122104174D01*
X124750064Y-122109254D01*
X124665801Y-122193517D01*
X124614427Y-122298605D01*
X124614427Y-122298606D01*
X124604500Y-122366735D01*
X124335499Y-122366735D01*
X124325573Y-122298607D01*
X124274198Y-122193517D01*
X124191483Y-122110802D01*
X124191482Y-122110801D01*
X124191479Y-122110799D01*
X124186996Y-122108607D01*
X124149508Y-122066152D01*
X124145500Y-122042128D01*
X124145500Y-120384500D01*
X124167174Y-120332174D01*
X124219500Y-120310500D01*
X125940881Y-120310500D01*
X125940881Y-120310499D01*
X126019849Y-120289340D01*
X126090652Y-120248462D01*
X127948461Y-118390652D01*
X127966666Y-118359121D01*
X127989340Y-118319848D01*
X128010499Y-118240880D01*
X128010500Y-118240880D01*
X128010500Y-115792611D01*
X128032174Y-115740285D01*
X128045186Y-115727273D01*
X128080495Y-115691964D01*
X128143095Y-115583536D01*
X128175499Y-115462603D01*
X128175500Y-115462603D01*
X128175500Y-115337397D01*
X128175499Y-115337396D01*
X128143095Y-115216464D01*
X128080495Y-115108036D01*
X127991963Y-115019504D01*
X127883534Y-114956904D01*
X127883536Y-114956904D01*
X127762603Y-114924500D01*
X127762601Y-114924500D01*
X127637399Y-114924500D01*
X127637397Y-114924500D01*
X127516464Y-114956904D01*
X127408036Y-115019504D01*
X127319504Y-115108036D01*
X127256904Y-115216464D01*
X127224500Y-115337396D01*
X127224500Y-115462603D01*
X127256904Y-115583535D01*
X127319504Y-115691963D01*
X127367826Y-115740285D01*
X127389500Y-115792611D01*
X127389500Y-118040734D01*
X127367826Y-118093060D01*
X125793060Y-119667826D01*
X125740734Y-119689500D01*
X124203805Y-119689500D01*
X124151479Y-119667826D01*
X124136738Y-119646774D01*
X124124065Y-119619596D01*
X124040404Y-119535935D01*
X123933173Y-119485932D01*
X123933171Y-119485931D01*
X123897178Y-119481193D01*
X123884316Y-119479500D01*
X123535684Y-119479500D01*
X123524318Y-119480996D01*
X123486828Y-119485931D01*
X123379595Y-119535935D01*
X123295935Y-119619595D01*
X123295935Y-119619596D01*
X123269867Y-119675500D01*
X123267067Y-119681504D01*
X123225309Y-119719767D01*
X123168726Y-119717297D01*
X123132933Y-119681504D01*
X123130313Y-119675885D01*
X123104065Y-119619596D01*
X123020404Y-119535935D01*
X122913173Y-119485932D01*
X122913171Y-119485931D01*
X122877178Y-119481193D01*
X122864316Y-119479500D01*
X122864314Y-119479500D01*
X122649265Y-119479500D01*
X122596939Y-119457826D01*
X122397174Y-119258060D01*
X122375500Y-119205734D01*
X122375500Y-119137397D01*
X122375499Y-119137396D01*
X122355751Y-119063698D01*
X122343095Y-119016464D01*
X122280495Y-118908036D01*
X122224785Y-118852326D01*
X122203111Y-118800000D01*
X122224785Y-118747674D01*
X122240285Y-118732174D01*
X122292611Y-118710500D01*
X123340734Y-118710500D01*
X123393060Y-118732174D01*
X123597826Y-118936939D01*
X123619500Y-118989265D01*
X123619500Y-119024314D01*
X123625931Y-119073171D01*
X123625932Y-119073173D01*
X123675935Y-119180404D01*
X123759596Y-119264065D01*
X123866827Y-119314068D01*
X123915684Y-119320500D01*
X123915686Y-119320500D01*
X124264314Y-119320500D01*
X124264316Y-119320500D01*
X124313173Y-119314068D01*
X124420404Y-119264065D01*
X124504065Y-119180404D01*
X124532933Y-119118495D01*
X124574690Y-119080232D01*
X124631273Y-119082702D01*
X124667067Y-119118496D01*
X124695933Y-119180402D01*
X124695935Y-119180404D01*
X124779596Y-119264065D01*
X124886827Y-119314068D01*
X124935684Y-119320500D01*
X124935686Y-119320500D01*
X125284314Y-119320500D01*
X125284316Y-119320500D01*
X125333173Y-119314068D01*
X125440404Y-119264065D01*
X125524065Y-119180404D01*
X125574068Y-119073173D01*
X125580500Y-119024316D01*
X125580500Y-118575684D01*
X125574068Y-118526827D01*
X125524065Y-118419596D01*
X125524064Y-118419595D01*
X125524062Y-118419592D01*
X125479676Y-118375207D01*
X125458001Y-118322882D01*
X125473297Y-118277828D01*
X125475489Y-118274969D01*
X125475495Y-118274964D01*
X125538095Y-118166536D01*
X125570499Y-118045603D01*
X125570500Y-118045603D01*
X125570500Y-117920397D01*
X125570499Y-117920396D01*
X125538095Y-117799464D01*
X125475495Y-117691036D01*
X125386963Y-117602504D01*
X125278534Y-117539904D01*
X125278536Y-117539904D01*
X125157603Y-117507500D01*
X125157601Y-117507500D01*
X125032399Y-117507500D01*
X125032397Y-117507500D01*
X124911464Y-117539904D01*
X124803036Y-117602504D01*
X124714504Y-117691036D01*
X124651904Y-117799464D01*
X124619500Y-117920396D01*
X124619500Y-118045603D01*
X124651904Y-118166535D01*
X124714504Y-118274963D01*
X124725210Y-118285669D01*
X124746884Y-118337995D01*
X124734946Y-118378297D01*
X124730708Y-118384822D01*
X124695935Y-118419596D01*
X124664881Y-118486190D01*
X124662062Y-118490532D01*
X124642664Y-118503864D01*
X124625309Y-118519767D01*
X124619872Y-118519529D01*
X124615386Y-118522613D01*
X124592241Y-118518323D01*
X124568726Y-118517297D01*
X124564636Y-118513207D01*
X124559698Y-118512292D01*
X124550855Y-118499426D01*
X124532933Y-118481504D01*
X124504065Y-118419596D01*
X124420404Y-118335935D01*
X124313173Y-118285932D01*
X124313171Y-118285931D01*
X124277178Y-118281193D01*
X124264316Y-118279500D01*
X123915684Y-118279500D01*
X123866085Y-118286029D01*
X123811378Y-118271369D01*
X123804101Y-118264988D01*
X123779991Y-118240878D01*
X123690652Y-118151538D01*
X123690649Y-118151536D01*
X123619850Y-118110660D01*
X123619845Y-118110658D01*
X123540881Y-118089500D01*
X123540879Y-118089500D01*
X123540878Y-118089500D01*
X122292611Y-118089500D01*
X122240285Y-118067826D01*
X122191963Y-118019504D01*
X122083534Y-117956904D01*
X122083536Y-117956904D01*
X121962603Y-117924500D01*
X121962601Y-117924500D01*
X121837399Y-117924500D01*
X121837397Y-117924500D01*
X121716464Y-117956904D01*
X121608036Y-118019504D01*
X121519504Y-118108036D01*
X121456904Y-118216464D01*
X121424500Y-118337396D01*
X121424500Y-118462603D01*
X121456904Y-118583535D01*
X121519504Y-118691963D01*
X121575215Y-118747674D01*
X121596889Y-118800000D01*
X121575215Y-118852326D01*
X121519504Y-118908036D01*
X121456904Y-119016464D01*
X121424500Y-119137396D01*
X121424500Y-119262603D01*
X121456903Y-119383533D01*
X121456905Y-119383536D01*
X121519505Y-119491964D01*
X121519506Y-119491965D01*
X121521017Y-119494582D01*
X121528409Y-119550735D01*
X121493931Y-119595668D01*
X121437782Y-119603061D01*
X121424491Y-119599500D01*
X121424487Y-119599500D01*
X118796544Y-119599500D01*
X118744218Y-119577826D01*
X118522174Y-119355781D01*
X118500500Y-119303455D01*
X118500500Y-117995022D01*
X119619500Y-117995022D01*
X119619500Y-118134977D01*
X119646802Y-118272238D01*
X119646805Y-118272249D01*
X119700362Y-118401547D01*
X119777704Y-118517297D01*
X119778118Y-118517917D01*
X119877083Y-118616882D01*
X119993452Y-118694637D01*
X120122755Y-118748196D01*
X120260022Y-118775500D01*
X120260023Y-118775500D01*
X120399977Y-118775500D01*
X120399978Y-118775500D01*
X120537245Y-118748196D01*
X120666548Y-118694637D01*
X120782917Y-118616882D01*
X120881882Y-118517917D01*
X120959637Y-118401548D01*
X121013196Y-118272245D01*
X121040500Y-118134978D01*
X121040500Y-117995022D01*
X121013196Y-117857755D01*
X120959637Y-117728452D01*
X120881882Y-117612083D01*
X120782917Y-117513118D01*
X120774510Y-117507500D01*
X120666547Y-117435362D01*
X120537249Y-117381805D01*
X120537238Y-117381802D01*
X120433829Y-117361233D01*
X120399978Y-117354500D01*
X120260022Y-117354500D01*
X120232867Y-117359901D01*
X120122761Y-117381802D01*
X120122750Y-117381805D01*
X119993452Y-117435362D01*
X119877083Y-117513117D01*
X119877082Y-117513119D01*
X119778119Y-117612082D01*
X119778117Y-117612083D01*
X119700362Y-117728452D01*
X119646805Y-117857750D01*
X119646802Y-117857761D01*
X119619500Y-117995022D01*
X118500500Y-117995022D01*
X118500500Y-115077141D01*
X118510414Y-115040141D01*
X118543094Y-114983537D01*
X118543095Y-114983536D01*
X118575499Y-114862603D01*
X118575500Y-114862603D01*
X118575500Y-114737397D01*
X118575499Y-114737396D01*
X118543095Y-114616464D01*
X118480495Y-114508036D01*
X118391963Y-114419504D01*
X118283534Y-114356904D01*
X118283536Y-114356904D01*
X118162603Y-114324500D01*
X118162601Y-114324500D01*
X118037399Y-114324500D01*
X118037397Y-114324500D01*
X117916464Y-114356904D01*
X117808036Y-114419504D01*
X117719504Y-114508036D01*
X117656904Y-114616464D01*
X117624500Y-114737396D01*
X108200500Y-114737396D01*
X108200500Y-98108396D01*
X154083500Y-98108396D01*
X154083500Y-98233603D01*
X154115904Y-98354535D01*
X154156878Y-98425504D01*
X154178505Y-98462964D01*
X154267036Y-98551495D01*
X154375464Y-98614095D01*
X154375463Y-98614095D01*
X154445286Y-98632804D01*
X154496396Y-98646499D01*
X154496397Y-98646500D01*
X154496399Y-98646500D01*
X154621603Y-98646500D01*
X154621603Y-98646499D01*
X154674463Y-98632335D01*
X154700190Y-98625442D01*
X154756342Y-98632834D01*
X154790821Y-98677767D01*
X154790822Y-98716072D01*
X154783500Y-98743399D01*
X154783500Y-98868600D01*
X154790822Y-98895927D01*
X154783429Y-98952079D01*
X154738495Y-98986558D01*
X154700191Y-98986558D01*
X154621601Y-98965500D01*
X154496399Y-98965500D01*
X154496397Y-98965500D01*
X154375464Y-98997904D01*
X154267036Y-99060504D01*
X154178504Y-99149036D01*
X154115904Y-99257464D01*
X154083500Y-99378396D01*
X154083500Y-99503603D01*
X154115904Y-99624535D01*
X154156878Y-99695504D01*
X154178505Y-99732964D01*
X154267036Y-99821495D01*
X154375464Y-99884095D01*
X154375463Y-99884095D01*
X154445286Y-99902804D01*
X154496396Y-99916499D01*
X154496397Y-99916500D01*
X154496399Y-99916500D01*
X154621603Y-99916500D01*
X154621603Y-99916499D01*
X154674463Y-99902335D01*
X154700190Y-99895442D01*
X154756342Y-99902834D01*
X154790821Y-99947767D01*
X154790822Y-99986072D01*
X154783500Y-100013399D01*
X154783500Y-100138600D01*
X154790822Y-100165927D01*
X154783429Y-100222079D01*
X154738495Y-100256558D01*
X154700191Y-100256558D01*
X154621601Y-100235500D01*
X154496399Y-100235500D01*
X154496397Y-100235500D01*
X154375464Y-100267904D01*
X154267036Y-100330504D01*
X154178504Y-100419036D01*
X154115904Y-100527464D01*
X154083500Y-100648396D01*
X154083500Y-100773603D01*
X154115904Y-100894535D01*
X154156878Y-100965504D01*
X154178505Y-101002964D01*
X154267036Y-101091495D01*
X154375464Y-101154095D01*
X154375463Y-101154095D01*
X154445286Y-101172804D01*
X154496396Y-101186499D01*
X154496397Y-101186500D01*
X154496399Y-101186500D01*
X154621603Y-101186500D01*
X154621603Y-101186499D01*
X154674463Y-101172335D01*
X154700190Y-101165442D01*
X154756342Y-101172834D01*
X154790821Y-101217767D01*
X154790822Y-101256072D01*
X154783500Y-101283399D01*
X154783500Y-101408600D01*
X154790822Y-101435927D01*
X154783429Y-101492079D01*
X154738495Y-101526558D01*
X154700191Y-101526558D01*
X154621601Y-101505500D01*
X154496399Y-101505500D01*
X154496397Y-101505500D01*
X154375464Y-101537904D01*
X154267036Y-101600504D01*
X154178504Y-101689036D01*
X154115904Y-101797464D01*
X154083500Y-101918396D01*
X154083500Y-102043603D01*
X154115904Y-102164535D01*
X154156878Y-102235504D01*
X154178505Y-102272964D01*
X154267036Y-102361495D01*
X154375464Y-102424095D01*
X154375463Y-102424095D01*
X154445286Y-102442804D01*
X154496396Y-102456499D01*
X154496397Y-102456500D01*
X154496399Y-102456500D01*
X154621603Y-102456500D01*
X154621603Y-102456499D01*
X154674463Y-102442335D01*
X154700190Y-102435442D01*
X154756342Y-102442834D01*
X154790821Y-102487767D01*
X154790822Y-102526072D01*
X154783500Y-102553399D01*
X154783500Y-102678600D01*
X154790822Y-102705927D01*
X154783429Y-102762079D01*
X154738495Y-102796558D01*
X154700191Y-102796558D01*
X154621601Y-102775500D01*
X154496399Y-102775500D01*
X154496397Y-102775500D01*
X154375464Y-102807904D01*
X154267036Y-102870504D01*
X154178504Y-102959036D01*
X154115904Y-103067464D01*
X154083500Y-103188396D01*
X154083500Y-103313603D01*
X154115904Y-103434535D01*
X154156878Y-103505504D01*
X154178505Y-103542964D01*
X154267036Y-103631495D01*
X154375464Y-103694095D01*
X154375463Y-103694095D01*
X154445286Y-103712804D01*
X154496396Y-103726499D01*
X154496397Y-103726500D01*
X154496399Y-103726500D01*
X154621603Y-103726500D01*
X154621603Y-103726499D01*
X154674463Y-103712335D01*
X154700190Y-103705442D01*
X154756342Y-103712834D01*
X154790821Y-103757767D01*
X154790822Y-103796072D01*
X154783500Y-103823399D01*
X154783500Y-103948600D01*
X154790822Y-103975927D01*
X154783429Y-104032079D01*
X154738495Y-104066558D01*
X154700191Y-104066558D01*
X154621601Y-104045500D01*
X154496399Y-104045500D01*
X154496397Y-104045500D01*
X154375464Y-104077904D01*
X154267036Y-104140504D01*
X154178504Y-104229036D01*
X154115904Y-104337464D01*
X154083500Y-104458396D01*
X154083500Y-104583603D01*
X154115904Y-104704535D01*
X154162074Y-104784504D01*
X154178505Y-104812964D01*
X154267036Y-104901495D01*
X154375464Y-104964095D01*
X154375463Y-104964095D01*
X154440285Y-104981464D01*
X154496396Y-104996499D01*
X154496397Y-104996500D01*
X154496399Y-104996500D01*
X154621603Y-104996500D01*
X154621603Y-104996499D01*
X154677715Y-104981464D01*
X154700190Y-104975442D01*
X154756342Y-104982834D01*
X154790821Y-105027767D01*
X154790822Y-105066072D01*
X154783500Y-105093399D01*
X154783500Y-105218603D01*
X154815904Y-105339535D01*
X154815905Y-105339536D01*
X154878505Y-105447964D01*
X154967036Y-105536495D01*
X155075464Y-105599095D01*
X155075463Y-105599095D01*
X155145286Y-105617804D01*
X155196396Y-105631499D01*
X155196397Y-105631500D01*
X155196399Y-105631500D01*
X155321603Y-105631500D01*
X155321603Y-105631499D01*
X155442536Y-105599095D01*
X155550964Y-105536495D01*
X155599285Y-105488174D01*
X155651611Y-105466500D01*
X156483947Y-105466500D01*
X156536273Y-105488174D01*
X156557947Y-105540500D01*
X156556525Y-105554937D01*
X156549500Y-105590253D01*
X156549500Y-106009746D01*
X156561133Y-106068232D01*
X156590608Y-106112343D01*
X156605448Y-106134552D01*
X156638707Y-106156775D01*
X156671767Y-106178866D01*
X156671768Y-106178866D01*
X156671769Y-106178867D01*
X156730252Y-106190500D01*
X156775500Y-106190500D01*
X156827826Y-106212174D01*
X156849500Y-106264500D01*
X156849500Y-107418858D01*
X156839586Y-107455857D01*
X156806904Y-107512464D01*
X156774500Y-107633396D01*
X156774500Y-107758603D01*
X156806903Y-107879532D01*
X156806905Y-107879537D01*
X156839586Y-107936141D01*
X156849500Y-107973141D01*
X156849500Y-115727273D01*
X156849500Y-115832727D01*
X156876793Y-115934588D01*
X156876795Y-115934592D01*
X156929517Y-116025909D01*
X156929518Y-116025910D01*
X156929520Y-116025913D01*
X158506112Y-117602504D01*
X160052826Y-119149218D01*
X160074500Y-119201544D01*
X160074500Y-123655500D01*
X160052826Y-123707826D01*
X160000500Y-123729500D01*
X158880252Y-123729500D01*
X158851010Y-123735316D01*
X158821767Y-123741133D01*
X158755449Y-123785447D01*
X158755447Y-123785449D01*
X158711133Y-123851767D01*
X158699500Y-123910253D01*
X158699500Y-124949746D01*
X158711133Y-125008232D01*
X158740608Y-125052343D01*
X158755448Y-125074552D01*
X158797242Y-125102478D01*
X158821767Y-125118866D01*
X158821768Y-125118866D01*
X158821769Y-125118867D01*
X158880252Y-125130500D01*
X160000500Y-125130500D01*
X160052826Y-125152174D01*
X160074500Y-125204500D01*
X160074500Y-126195500D01*
X160052826Y-126247826D01*
X160000500Y-126269500D01*
X158880252Y-126269500D01*
X158851010Y-126275316D01*
X158821767Y-126281133D01*
X158755449Y-126325447D01*
X158755447Y-126325449D01*
X158711133Y-126391767D01*
X158699500Y-126450253D01*
X158699500Y-127489746D01*
X158711133Y-127548232D01*
X158740608Y-127592343D01*
X158755448Y-127614552D01*
X158797242Y-127642478D01*
X158821767Y-127658866D01*
X158821768Y-127658866D01*
X158821769Y-127658867D01*
X158880252Y-127670500D01*
X158880254Y-127670500D01*
X162069746Y-127670500D01*
X162069748Y-127670500D01*
X162128231Y-127658867D01*
X162194552Y-127614552D01*
X162238867Y-127548231D01*
X162250500Y-127489748D01*
X162250500Y-126450252D01*
X162238867Y-126391769D01*
X162194552Y-126325448D01*
X162152757Y-126297521D01*
X162128232Y-126281133D01*
X162128233Y-126281133D01*
X162098989Y-126275316D01*
X162069748Y-126269500D01*
X162069746Y-126269500D01*
X160949500Y-126269500D01*
X160897174Y-126247826D01*
X160875500Y-126195500D01*
X160875500Y-125204500D01*
X160897174Y-125152174D01*
X160949500Y-125130500D01*
X162069746Y-125130500D01*
X162069748Y-125130500D01*
X162128231Y-125118867D01*
X162194552Y-125074552D01*
X162238867Y-125008231D01*
X162250500Y-124949748D01*
X162250500Y-123910252D01*
X162238867Y-123851769D01*
X162194552Y-123785448D01*
X162152757Y-123757521D01*
X162128232Y-123741133D01*
X162128233Y-123741133D01*
X162098989Y-123735316D01*
X162069748Y-123729500D01*
X162069746Y-123729500D01*
X160949500Y-123729500D01*
X160897174Y-123707826D01*
X160875500Y-123655500D01*
X160875500Y-119063698D01*
X160875501Y-119063685D01*
X160875501Y-118952271D01*
X160875500Y-118952270D01*
X160848208Y-118850416D01*
X160848207Y-118850414D01*
X160848207Y-118850413D01*
X160830362Y-118819505D01*
X160795480Y-118759087D01*
X160720913Y-118684520D01*
X160718334Y-118681941D01*
X160718323Y-118681931D01*
X160080105Y-118043713D01*
X160031414Y-117995022D01*
X189619500Y-117995022D01*
X189619500Y-118134977D01*
X189646802Y-118272238D01*
X189646805Y-118272249D01*
X189700362Y-118401547D01*
X189777704Y-118517297D01*
X189778118Y-118517917D01*
X189877083Y-118616882D01*
X189993452Y-118694637D01*
X190122755Y-118748196D01*
X190260022Y-118775500D01*
X190260023Y-118775500D01*
X190399977Y-118775500D01*
X190399978Y-118775500D01*
X190537245Y-118748196D01*
X190666548Y-118694637D01*
X190782917Y-118616882D01*
X190881882Y-118517917D01*
X190959637Y-118401548D01*
X191013196Y-118272245D01*
X191040500Y-118134978D01*
X191040500Y-117995022D01*
X191013196Y-117857755D01*
X190959637Y-117728452D01*
X190881882Y-117612083D01*
X190782917Y-117513118D01*
X190774510Y-117507500D01*
X190666547Y-117435362D01*
X190537249Y-117381805D01*
X190537238Y-117381802D01*
X190433829Y-117361233D01*
X190399978Y-117354500D01*
X190260022Y-117354500D01*
X190232867Y-117359901D01*
X190122761Y-117381802D01*
X190122750Y-117381805D01*
X189993452Y-117435362D01*
X189877083Y-117513117D01*
X189877082Y-117513119D01*
X189778119Y-117612082D01*
X189778117Y-117612083D01*
X189700362Y-117728452D01*
X189646805Y-117857750D01*
X189646802Y-117857761D01*
X189619500Y-117995022D01*
X160031414Y-117995022D01*
X157672174Y-115635781D01*
X157650500Y-115583455D01*
X157650500Y-107973141D01*
X157660414Y-107936141D01*
X157693094Y-107879537D01*
X157693095Y-107879536D01*
X157725499Y-107758603D01*
X157725500Y-107758603D01*
X157725500Y-107633397D01*
X157725499Y-107633396D01*
X157693095Y-107512464D01*
X157660414Y-107455857D01*
X157650500Y-107418858D01*
X157650500Y-106264500D01*
X157672174Y-106212174D01*
X157724500Y-106190500D01*
X157769746Y-106190500D01*
X157769748Y-106190500D01*
X157828231Y-106178867D01*
X157891845Y-106136360D01*
X157947391Y-106125311D01*
X157994484Y-106156775D01*
X157995205Y-106158089D01*
X157998210Y-106162475D01*
X158077521Y-106241786D01*
X158180124Y-106287089D01*
X158180123Y-106287089D01*
X158205210Y-106289999D01*
X158650000Y-106289999D01*
X158850000Y-106289999D01*
X159294792Y-106289999D01*
X159319868Y-106287091D01*
X159319874Y-106287089D01*
X159422478Y-106241786D01*
X159501786Y-106162478D01*
X159547089Y-106059875D01*
X159550000Y-106034789D01*
X159550000Y-105900000D01*
X158850000Y-105900000D01*
X158850000Y-106289999D01*
X158650000Y-106289999D01*
X158650000Y-105874000D01*
X158671674Y-105821674D01*
X158724000Y-105800000D01*
X158750000Y-105800000D01*
X158750000Y-105774000D01*
X158771674Y-105721674D01*
X158824000Y-105700000D01*
X159549999Y-105700000D01*
X159549999Y-105565207D01*
X159549166Y-105558024D01*
X159564668Y-105503550D01*
X159614149Y-105475993D01*
X159622673Y-105475500D01*
X161024389Y-105475500D01*
X161076715Y-105497174D01*
X161125036Y-105545495D01*
X161233464Y-105608095D01*
X161233463Y-105608095D01*
X161303286Y-105626804D01*
X161354396Y-105640499D01*
X161354397Y-105640500D01*
X161354399Y-105640500D01*
X161479603Y-105640500D01*
X161479603Y-105640499D01*
X161600536Y-105608095D01*
X161708964Y-105545495D01*
X161797495Y-105456964D01*
X161860095Y-105348536D01*
X161892499Y-105227603D01*
X161892500Y-105227603D01*
X161892500Y-105102397D01*
X161892499Y-105102396D01*
X161860095Y-104981464D01*
X161797495Y-104873036D01*
X161708963Y-104784504D01*
X161600534Y-104721904D01*
X161600536Y-104721904D01*
X161479603Y-104689500D01*
X161479601Y-104689500D01*
X161354399Y-104689500D01*
X161354397Y-104689500D01*
X161228779Y-104723160D01*
X161228363Y-104721610D01*
X161177534Y-104721605D01*
X161137491Y-104681552D01*
X161134383Y-104634088D01*
X161145500Y-104592601D01*
X161145500Y-104467399D01*
X161145500Y-104467397D01*
X161145499Y-104467396D01*
X161131671Y-104415788D01*
X161139063Y-104359636D01*
X161183996Y-104325157D01*
X161228712Y-104328087D01*
X161228779Y-104327840D01*
X161230022Y-104328173D01*
X161231469Y-104328268D01*
X161233461Y-104329093D01*
X161233464Y-104329095D01*
X161233467Y-104329095D01*
X161233470Y-104329097D01*
X161298285Y-104346464D01*
X161354396Y-104361499D01*
X161354397Y-104361500D01*
X161354399Y-104361500D01*
X161479603Y-104361500D01*
X161479603Y-104361499D01*
X161600536Y-104329095D01*
X161708964Y-104266495D01*
X161797495Y-104177964D01*
X161860095Y-104069536D01*
X161892499Y-103948603D01*
X161892500Y-103948603D01*
X161892500Y-103823397D01*
X161892499Y-103823396D01*
X161885177Y-103796072D01*
X161860095Y-103702464D01*
X161797495Y-103594036D01*
X161708964Y-103505505D01*
X161708963Y-103505504D01*
X161600534Y-103442904D01*
X161600536Y-103442904D01*
X161479603Y-103410500D01*
X161479601Y-103410500D01*
X161354399Y-103410500D01*
X161349549Y-103410500D01*
X161349549Y-103408763D01*
X161300784Y-103395686D01*
X161272475Y-103346631D01*
X161274365Y-103317833D01*
X161275500Y-103313601D01*
X161275500Y-103188399D01*
X161275500Y-103188397D01*
X161268178Y-103161074D01*
X161275569Y-103104921D01*
X161320502Y-103070442D01*
X161358809Y-103070442D01*
X161415055Y-103085512D01*
X161437396Y-103091499D01*
X161437397Y-103091500D01*
X161437399Y-103091500D01*
X161562603Y-103091500D01*
X161562603Y-103091499D01*
X161683536Y-103059095D01*
X161791964Y-102996495D01*
X161880495Y-102907964D01*
X161943095Y-102799536D01*
X161975499Y-102678603D01*
X161975500Y-102678603D01*
X161975500Y-102553397D01*
X161975499Y-102553396D01*
X161968177Y-102526072D01*
X161943095Y-102432464D01*
X161880495Y-102324036D01*
X161791964Y-102235505D01*
X161791963Y-102235504D01*
X161683534Y-102172904D01*
X161683536Y-102172904D01*
X161562603Y-102140500D01*
X161562601Y-102140500D01*
X161437399Y-102140500D01*
X161358808Y-102161558D01*
X161302656Y-102154165D01*
X161268177Y-102109231D01*
X161268177Y-102070926D01*
X161275500Y-102043601D01*
X161275500Y-101918399D01*
X161275500Y-101918397D01*
X161268178Y-101891074D01*
X161275569Y-101834921D01*
X161320502Y-101800442D01*
X161358809Y-101800442D01*
X161415055Y-101815512D01*
X161437396Y-101821499D01*
X161437397Y-101821500D01*
X161437399Y-101821500D01*
X161562603Y-101821500D01*
X161562603Y-101821499D01*
X161683536Y-101789095D01*
X161791964Y-101726495D01*
X161880495Y-101637964D01*
X161943095Y-101529536D01*
X161975499Y-101408603D01*
X161975500Y-101408603D01*
X161975500Y-101283397D01*
X161975499Y-101283396D01*
X161968177Y-101256072D01*
X161943095Y-101162464D01*
X161880495Y-101054036D01*
X161791964Y-100965505D01*
X161791963Y-100965504D01*
X161683534Y-100902904D01*
X161683536Y-100902904D01*
X161562603Y-100870500D01*
X161562601Y-100870500D01*
X161437399Y-100870500D01*
X161358808Y-100891558D01*
X161302656Y-100884165D01*
X161268177Y-100839231D01*
X161268177Y-100800926D01*
X161275500Y-100773601D01*
X161275500Y-100648399D01*
X161275500Y-100648397D01*
X161268178Y-100621074D01*
X161275569Y-100564921D01*
X161320502Y-100530442D01*
X161358809Y-100530442D01*
X161415055Y-100545512D01*
X161437396Y-100551499D01*
X161437397Y-100551500D01*
X161437399Y-100551500D01*
X161562603Y-100551500D01*
X161562603Y-100551499D01*
X161683536Y-100519095D01*
X161791964Y-100456495D01*
X161880495Y-100367964D01*
X161943095Y-100259536D01*
X161975499Y-100138603D01*
X161975500Y-100138603D01*
X161975500Y-100013397D01*
X161975499Y-100013396D01*
X161968177Y-99986072D01*
X161943095Y-99892464D01*
X161880495Y-99784036D01*
X161791964Y-99695505D01*
X161791963Y-99695504D01*
X161683534Y-99632904D01*
X161683536Y-99632904D01*
X161562603Y-99600500D01*
X161562601Y-99600500D01*
X161437399Y-99600500D01*
X161358808Y-99621558D01*
X161302656Y-99614165D01*
X161268177Y-99569231D01*
X161268177Y-99530926D01*
X161275500Y-99503601D01*
X161275500Y-99378399D01*
X161275500Y-99378397D01*
X161268178Y-99351074D01*
X161275569Y-99294921D01*
X161320502Y-99260442D01*
X161358809Y-99260442D01*
X161415055Y-99275512D01*
X161437396Y-99281499D01*
X161437397Y-99281500D01*
X161437399Y-99281500D01*
X161562603Y-99281500D01*
X161562603Y-99281499D01*
X161683536Y-99249095D01*
X161791964Y-99186495D01*
X161880495Y-99097964D01*
X161943095Y-98989536D01*
X161975499Y-98868603D01*
X161975500Y-98868603D01*
X161975500Y-98743397D01*
X161975499Y-98743396D01*
X161968177Y-98716072D01*
X161943095Y-98622464D01*
X161880495Y-98514036D01*
X161791964Y-98425505D01*
X161791963Y-98425504D01*
X161683534Y-98362904D01*
X161683536Y-98362904D01*
X161562603Y-98330500D01*
X161562601Y-98330500D01*
X161437399Y-98330500D01*
X161358808Y-98351558D01*
X161302656Y-98344165D01*
X161268177Y-98299231D01*
X161268177Y-98260926D01*
X161275500Y-98233601D01*
X161275500Y-98108399D01*
X161275500Y-98108397D01*
X161268178Y-98081074D01*
X161275569Y-98024921D01*
X161320502Y-97990442D01*
X161358809Y-97990442D01*
X161415055Y-98005512D01*
X161437396Y-98011499D01*
X161437397Y-98011500D01*
X161437399Y-98011500D01*
X161562603Y-98011500D01*
X161562603Y-98011499D01*
X161683536Y-97979095D01*
X161791964Y-97916495D01*
X161880495Y-97827964D01*
X161943095Y-97719536D01*
X161975499Y-97598603D01*
X161975500Y-97598603D01*
X161975500Y-97473397D01*
X161975499Y-97473396D01*
X161974363Y-97469158D01*
X161943095Y-97352464D01*
X161880495Y-97244036D01*
X161791964Y-97155505D01*
X161791963Y-97155504D01*
X161683534Y-97092904D01*
X161683536Y-97092904D01*
X161562603Y-97060500D01*
X161562601Y-97060500D01*
X161437399Y-97060500D01*
X161358808Y-97081558D01*
X161302656Y-97074165D01*
X161268177Y-97029231D01*
X161268177Y-96990926D01*
X161275500Y-96963601D01*
X161275500Y-96838399D01*
X161275500Y-96838397D01*
X161268178Y-96811074D01*
X161275569Y-96754921D01*
X161320502Y-96720442D01*
X161358809Y-96720442D01*
X161415055Y-96735512D01*
X161437396Y-96741499D01*
X161437397Y-96741500D01*
X161437399Y-96741500D01*
X161562603Y-96741500D01*
X161562603Y-96741499D01*
X161683536Y-96709095D01*
X161791964Y-96646495D01*
X161880495Y-96557964D01*
X161943095Y-96449536D01*
X161975499Y-96328603D01*
X161975500Y-96328603D01*
X161975500Y-96203397D01*
X161975499Y-96203396D01*
X161949535Y-96106500D01*
X161943095Y-96082464D01*
X161880495Y-95974036D01*
X161791964Y-95885505D01*
X161791963Y-95885504D01*
X161683534Y-95822904D01*
X161683536Y-95822904D01*
X161562603Y-95790500D01*
X161562601Y-95790500D01*
X161437399Y-95790500D01*
X161358808Y-95811558D01*
X161302656Y-95804165D01*
X161268177Y-95759231D01*
X161268177Y-95720926D01*
X161275500Y-95693601D01*
X161275500Y-95568399D01*
X161275500Y-95568397D01*
X161275499Y-95568396D01*
X161243095Y-95447464D01*
X161180495Y-95339036D01*
X161091963Y-95250504D01*
X160983534Y-95187904D01*
X160983536Y-95187904D01*
X160862603Y-95155500D01*
X160862601Y-95155500D01*
X160737399Y-95155500D01*
X160737397Y-95155500D01*
X160616464Y-95187904D01*
X160508036Y-95250504D01*
X160459715Y-95298826D01*
X160407389Y-95320500D01*
X159519634Y-95320500D01*
X159467308Y-95298826D01*
X159445634Y-95246500D01*
X159447056Y-95232065D01*
X159450500Y-95214748D01*
X159450500Y-94795253D01*
X159450500Y-94795252D01*
X159438867Y-94736769D01*
X159394552Y-94670448D01*
X159372343Y-94655608D01*
X159328232Y-94626133D01*
X159328233Y-94626133D01*
X159298989Y-94620316D01*
X159269748Y-94614500D01*
X159269746Y-94614500D01*
X159224500Y-94614500D01*
X159172174Y-94592826D01*
X159150500Y-94540500D01*
X159150500Y-94511141D01*
X159160414Y-94474141D01*
X159193094Y-94417537D01*
X159193095Y-94417536D01*
X159225499Y-94296603D01*
X159225500Y-94296603D01*
X159225500Y-94171397D01*
X159225499Y-94171396D01*
X159193095Y-94050464D01*
X159130495Y-93942036D01*
X159041963Y-93853504D01*
X158933534Y-93790904D01*
X158933536Y-93790904D01*
X158812603Y-93758500D01*
X158812601Y-93758500D01*
X158687399Y-93758500D01*
X158687397Y-93758500D01*
X158566464Y-93790904D01*
X158458036Y-93853504D01*
X158369504Y-93942036D01*
X158306904Y-94050464D01*
X158274500Y-94171396D01*
X158274500Y-94296603D01*
X158306903Y-94417532D01*
X158306905Y-94417537D01*
X158339586Y-94474141D01*
X158349500Y-94511141D01*
X158349500Y-94540500D01*
X158327826Y-94592826D01*
X158275500Y-94614500D01*
X158230252Y-94614500D01*
X158206858Y-94619153D01*
X158171766Y-94626133D01*
X158108156Y-94668638D01*
X158052607Y-94679688D01*
X158005515Y-94648223D01*
X158004796Y-94646914D01*
X158001789Y-94642524D01*
X157922478Y-94563213D01*
X157819875Y-94517910D01*
X157819876Y-94517910D01*
X157794789Y-94515000D01*
X157350000Y-94515000D01*
X157350000Y-94931000D01*
X157328326Y-94983326D01*
X157276000Y-95005000D01*
X157250000Y-95005000D01*
X157250000Y-95031000D01*
X157228326Y-95083326D01*
X157176000Y-95105000D01*
X156450001Y-95105000D01*
X156450001Y-95237500D01*
X156428327Y-95289826D01*
X156376001Y-95311500D01*
X155069611Y-95311500D01*
X155017285Y-95289826D01*
X154977963Y-95250504D01*
X154869534Y-95187904D01*
X154869536Y-95187904D01*
X154748603Y-95155500D01*
X154748601Y-95155500D01*
X154623399Y-95155500D01*
X154623397Y-95155500D01*
X154502464Y-95187904D01*
X154394036Y-95250504D01*
X154305504Y-95339036D01*
X154242904Y-95447464D01*
X154210500Y-95568396D01*
X154210500Y-95693603D01*
X154242904Y-95814535D01*
X154283878Y-95885504D01*
X154305505Y-95922964D01*
X154394036Y-96011495D01*
X154502464Y-96074095D01*
X154502463Y-96074095D01*
X154544176Y-96085272D01*
X154623396Y-96106499D01*
X154623397Y-96106500D01*
X154623399Y-96106500D01*
X154748603Y-96106500D01*
X154748603Y-96106499D01*
X154827824Y-96085272D01*
X154883976Y-96092664D01*
X154918455Y-96137597D01*
X154918456Y-96175902D01*
X154913500Y-96194399D01*
X154913500Y-96319600D01*
X154927329Y-96371212D01*
X154919936Y-96427364D01*
X154875002Y-96461843D01*
X154830287Y-96458913D01*
X154830221Y-96459160D01*
X154828981Y-96458827D01*
X154827535Y-96458733D01*
X154825532Y-96457903D01*
X154704603Y-96425500D01*
X154704601Y-96425500D01*
X154579399Y-96425500D01*
X154579397Y-96425500D01*
X154458464Y-96457904D01*
X154350036Y-96520504D01*
X154261504Y-96609036D01*
X154198904Y-96717464D01*
X154166500Y-96838396D01*
X154166500Y-96963603D01*
X154198904Y-97084535D01*
X154239878Y-97155504D01*
X154261505Y-97192964D01*
X154350036Y-97281495D01*
X154458464Y-97344095D01*
X154458463Y-97344095D01*
X154528286Y-97362804D01*
X154579396Y-97376499D01*
X154579397Y-97376500D01*
X154709451Y-97376500D01*
X154709451Y-97378242D01*
X154758198Y-97391300D01*
X154786521Y-97440346D01*
X154784635Y-97469158D01*
X154783500Y-97473393D01*
X154783500Y-97598600D01*
X154790822Y-97625927D01*
X154783429Y-97682079D01*
X154738495Y-97716558D01*
X154700191Y-97716558D01*
X154621601Y-97695500D01*
X154496399Y-97695500D01*
X154496397Y-97695500D01*
X154375464Y-97727904D01*
X154267036Y-97790504D01*
X154178504Y-97879036D01*
X154115904Y-97987464D01*
X154083500Y-98108396D01*
X108200500Y-98108396D01*
X108200500Y-94770210D01*
X156450000Y-94770210D01*
X156450000Y-94905000D01*
X157150000Y-94905000D01*
X157150000Y-94515000D01*
X156705207Y-94515000D01*
X156680131Y-94517908D01*
X156680125Y-94517910D01*
X156577521Y-94563213D01*
X156498213Y-94642521D01*
X156452910Y-94745124D01*
X156450000Y-94770210D01*
X108200500Y-94770210D01*
X108200500Y-81865022D01*
X119619500Y-81865022D01*
X119619500Y-82004977D01*
X119646802Y-82142238D01*
X119646805Y-82142249D01*
X119700362Y-82271547D01*
X119700363Y-82271548D01*
X119778118Y-82387917D01*
X119877083Y-82486882D01*
X119993452Y-82564637D01*
X120122755Y-82618196D01*
X120260022Y-82645500D01*
X120260023Y-82645500D01*
X120399977Y-82645500D01*
X120399978Y-82645500D01*
X120537245Y-82618196D01*
X120666548Y-82564637D01*
X120782917Y-82486882D01*
X120881882Y-82387917D01*
X120959637Y-82271548D01*
X121013196Y-82142245D01*
X121040500Y-82004978D01*
X121040500Y-81865022D01*
X189619500Y-81865022D01*
X189619500Y-82004977D01*
X189646802Y-82142238D01*
X189646805Y-82142249D01*
X189700362Y-82271547D01*
X189700363Y-82271548D01*
X189778118Y-82387917D01*
X189877083Y-82486882D01*
X189993452Y-82564637D01*
X190122755Y-82618196D01*
X190260022Y-82645500D01*
X190260023Y-82645500D01*
X190399977Y-82645500D01*
X190399978Y-82645500D01*
X190537245Y-82618196D01*
X190666548Y-82564637D01*
X190782917Y-82486882D01*
X190881882Y-82387917D01*
X190959637Y-82271548D01*
X191013196Y-82142245D01*
X191040500Y-82004978D01*
X191040500Y-81865022D01*
X191013196Y-81727755D01*
X190959637Y-81598452D01*
X190881882Y-81482083D01*
X190782917Y-81383118D01*
X190666548Y-81305363D01*
X190666549Y-81305363D01*
X190666547Y-81305362D01*
X190537249Y-81251805D01*
X190537238Y-81251802D01*
X190433829Y-81231233D01*
X190399978Y-81224500D01*
X190260022Y-81224500D01*
X190232867Y-81229901D01*
X190122761Y-81251802D01*
X190122750Y-81251805D01*
X189993452Y-81305362D01*
X189877083Y-81383117D01*
X189877082Y-81383119D01*
X189778119Y-81482082D01*
X189778117Y-81482083D01*
X189700362Y-81598452D01*
X189646805Y-81727750D01*
X189646802Y-81727761D01*
X189619500Y-81865022D01*
X121040500Y-81865022D01*
X121013196Y-81727755D01*
X120959637Y-81598452D01*
X120881882Y-81482083D01*
X120782917Y-81383118D01*
X120666548Y-81305363D01*
X120666549Y-81305363D01*
X120666547Y-81305362D01*
X120537249Y-81251805D01*
X120537238Y-81251802D01*
X120433829Y-81231233D01*
X120399978Y-81224500D01*
X120260022Y-81224500D01*
X120232867Y-81229901D01*
X120122761Y-81251802D01*
X120122750Y-81251805D01*
X119993452Y-81305362D01*
X119877083Y-81383117D01*
X119877082Y-81383119D01*
X119778119Y-81482082D01*
X119778117Y-81482083D01*
X119700362Y-81598452D01*
X119646805Y-81727750D01*
X119646802Y-81727761D01*
X119619500Y-81865022D01*
X108200500Y-81865022D01*
X108200500Y-80002083D01*
X108200616Y-79997934D01*
X108202740Y-79960118D01*
X108217870Y-79690688D01*
X108218800Y-79682450D01*
X108269994Y-79381140D01*
X108271833Y-79373080D01*
X108356453Y-79079361D01*
X108359183Y-79071558D01*
X108476150Y-78789175D01*
X108479743Y-78781713D01*
X108627590Y-78514204D01*
X108631991Y-78507199D01*
X108808875Y-78257904D01*
X108814020Y-78251453D01*
X109017690Y-78023548D01*
X109023553Y-78017686D01*
X109251453Y-77814020D01*
X109257904Y-77808875D01*
X109507199Y-77631991D01*
X109514204Y-77627590D01*
X109781713Y-77479743D01*
X109789175Y-77476150D01*
X110071558Y-77359183D01*
X110079361Y-77356453D01*
X110373080Y-77271833D01*
X110381140Y-77269994D01*
X110682458Y-77218799D01*
X110690688Y-77217870D01*
X110997934Y-77200615D01*
X111002083Y-77200500D01*
X111039882Y-77200500D01*
X204960118Y-77200500D01*
X204997917Y-77200500D01*
X205002065Y-77200615D01*
G37*
G04 #@! TD.AperFunction*
G04 #@! TD*
M02*
