M48
; DRILL file {KiCad 9.0.7} date 2026-04-06T00:07:32+0100
; FORMAT={-:-/ absolute / inch / decimal}
; #@! TF.CreationDate,2026-04-06T00:07:32+01:00
; #@! TF.GenerationSoftware,Kicad,Pcbnew,9.0.7
; #@! TF.FileFunction,Plated,1,2,PTH
FMAT,2
INCH
; #@! TA.AperFunction,Plated,PTH,ViaDrill
T1C0.0079
%
G90
G05
T1
X0.0925Y0.1152
X0.1348Y0.6939
X0.2008Y1.6772
X0.2293Y1.2372
X0.265Y2.2287
X0.3976Y0.874
X0.4606Y0.5236
X0.4606Y0.5039
X0.4774Y0.6211
X0.5477Y0.6914
X0.5669Y0.7106
X0.573Y1.3837
X0.5831Y1.9937
X0.673Y0.7487
X0.673Y0.6037
X0.7756Y0.8504
X0.8268Y1.7559
X0.8268Y1.1811
X1.0079Y0.7874
X1.063Y2.2126
X1.1516Y0.0778
X1.2087Y1.189
X1.315Y1.752
X1.4429Y0.5138
X1.5787Y0.9488
X1.5906Y2.2008
X1.7037Y0.0354
X1.7874Y1.7756
X1.833Y1.5287
X1.833Y1.4774
X1.833Y1.4287
X1.833Y1.3787
X1.833Y1.3287
X1.833Y1.2787
X1.8363Y1.5787
X1.838Y1.6287
X1.8606Y1.5537
X1.8606Y1.5037
X1.8606Y1.4537
X1.8606Y1.4037
X1.8606Y1.3537
X1.8606Y1.3037
X1.8606Y1.2537
X1.8657Y1.6041
X1.9331Y1.6909
X1.9469Y1.185
X1.998Y1.6837
X1.998Y1.1987
X2.0236Y0.937
X2.0736Y1.2783
X2.0787Y1.6287
X2.0787Y1.5787
X2.0787Y1.5287
X2.0787Y1.4787
X2.0787Y1.4287
X2.0787Y1.3787
X2.0787Y1.3287
X2.103Y1.3037
X2.1031Y1.2527
X2.1048Y1.5502
X2.1055Y1.3549
X2.1063Y1.6037
X2.1063Y1.5037
X2.1063Y1.4037
X2.1063Y1.4534
X2.122Y1.752
X2.3022Y1.1585
X2.5059Y0.5
X2.5256Y0.811
X2.6011Y2.2354
X2.6181Y1.7559
X2.6496Y1.189
X2.6801Y0.0492
X3.0098Y0.7441
X3.0276Y2.2362
X3.1299Y1.189
X3.143Y2.0487
X3.1437Y0.9055
X3.2343Y0.6378
X3.343Y1.7487
X3.348Y1.4687
X3.563Y2.0537
X3.6496Y0.7008
X3.6969Y0.0886
X3.7362Y1.8071
X3.7402Y2.2087
X3.748Y1.1614
X3.8819Y0.4862
M30
