M48
; DRILL file {KiCad 9.0.6} date 2026-04-07T14:54:35-0400
; FORMAT={-:-/ absolute / metric / decimal}
; #@! TF.CreationDate,2026-04-07T14:54:35-04:00
; #@! TF.GenerationSoftware,Kicad,Pcbnew,9.0.6
; #@! TF.FileFunction,Plated,1,2,PTH
FMAT,2
METRIC
; #@! TA.AperFunction,Plated,PTH,ViaDrill
T1C0.200
%
G90
G05
T1
X2.35Y2.925
X3.425Y17.625
X5.1Y42.6
X5.825Y31.425
X6.73Y56.61
X10.1Y22.2
X11.7Y13.3
X11.7Y12.8
X12.125Y15.775
X13.912Y17.562
X14.4Y18.05
X14.555Y35.146
X14.81Y50.64
X17.095Y19.017
X17.095Y15.334
X19.7Y21.6
X21.0Y44.6
X21.0Y30.0
X25.6Y20.0
X27.0Y56.2
X29.25Y1.975
X30.7Y30.2
X33.4Y44.5
X36.65Y13.05
X40.1Y24.1
X40.4Y55.9
X43.275Y0.9
X45.4Y45.1
X46.559Y38.829
X46.559Y37.525
X46.559Y36.289
X46.559Y35.019
X46.559Y33.749
X46.559Y32.479
X46.642Y40.099
X46.686Y41.369
X47.259Y39.464
X47.259Y38.194
X47.259Y36.924
X47.259Y35.654
X47.259Y34.384
X47.259Y33.114
X47.259Y31.844
X47.389Y40.743
X49.1Y42.95
X49.45Y30.1
X50.75Y42.766
X50.75Y30.447
X51.4Y23.8
X52.67Y32.47
X52.8Y41.369
X52.8Y40.099
X52.8Y38.829
X52.8Y37.559
X52.8Y36.289
X52.8Y35.019
X52.8Y33.749
X53.417Y33.114
X53.419Y31.819
X53.462Y39.375
X53.481Y34.414
X53.5Y40.734
X53.5Y38.194
X53.5Y35.654
X53.501Y36.917
X53.9Y44.5
X58.475Y29.425
X63.65Y12.7
X64.15Y20.6
X66.067Y56.778
X66.5Y44.6
X67.3Y30.2
X68.075Y1.25
X76.45Y18.9
X76.9Y56.8
X79.5Y30.2
X79.833Y52.037
X79.85Y23.0
X82.15Y16.2
X84.913Y44.417
X85.04Y37.305
X90.501Y52.164
X92.7Y17.8
X93.9Y2.25
X94.9Y45.9
X95.0Y56.1
X95.2Y29.5
X98.6Y12.35
M30
