G04 #@! TF.GenerationSoftware,KiCad,Pcbnew,9.0.0*
G04 #@! TF.CreationDate,2025-04-07T23:01:42+01:00*
G04 #@! TF.ProjectId,ephys-test-module-32,65706879-732d-4746-9573-742d6d6f6475,A*
G04 #@! TF.SameCoordinates,Original*
G04 #@! TF.FileFunction,Soldermask,Top*
G04 #@! TF.FilePolarity,Negative*
%FSLAX46Y46*%
G04 Gerber Fmt 4.6, Leading zero omitted, Abs format (unit mm)*
G04 Created by KiCad (PCBNEW 9.0.0) date 2025-04-07 23:01:42*
%MOMM*%
%LPD*%
G01*
G04 APERTURE LIST*
G04 Aperture macros list*
%AMRoundRect*
0 Rectangle with rounded corners*
0 $1 Rounding radius*
0 $2 $3 $4 $5 $6 $7 $8 $9 X,Y pos of 4 corners*
0 Add a 4 corners polygon primitive as box body*
4,1,4,$2,$3,$4,$5,$6,$7,$8,$9,$2,$3,0*
0 Add four circle primitives for the rounded corners*
1,1,$1+$1,$2,$3*
1,1,$1+$1,$4,$5*
1,1,$1+$1,$6,$7*
1,1,$1+$1,$8,$9*
0 Add four rect primitives between the rounded corners*
20,1,$1+$1,$2,$3,$4,$5,0*
20,1,$1+$1,$4,$5,$6,$7,0*
20,1,$1+$1,$6,$7,$8,$9,0*
20,1,$1+$1,$8,$9,$2,$3,0*%
G04 Aperture macros list end*
%ADD10C,0.000000*%
%ADD11R,3.150000X1.000000*%
%ADD12R,1.000000X0.380000*%
%ADD13RoundRect,0.135000X-0.135000X-0.185000X0.135000X-0.185000X0.135000X0.185000X-0.135000X0.185000X0*%
%ADD14RoundRect,0.150000X0.150000X-0.825000X0.150000X0.825000X-0.150000X0.825000X-0.150000X-0.825000X0*%
%ADD15RoundRect,0.140000X-0.170000X0.140000X-0.170000X-0.140000X0.170000X-0.140000X0.170000X0.140000X0*%
%ADD16C,1.020000*%
G04 APERTURE END LIST*
D10*
G04 #@! TO.C,G\u002A\u002A\u002A*
G36*
X185019905Y-89141203D02*
G01*
X185124976Y-89156873D01*
X185183922Y-89172831D01*
X185310199Y-89224904D01*
X185421844Y-89293761D01*
X185523049Y-89381436D01*
X185610618Y-89482520D01*
X185679043Y-89592976D01*
X185731929Y-89718639D01*
X185732586Y-89720563D01*
X185765601Y-89817510D01*
X185765601Y-90617319D01*
X185765601Y-91417128D01*
X185732586Y-91514075D01*
X185679724Y-91639948D01*
X185610678Y-91751223D01*
X185523158Y-91852577D01*
X185415234Y-91945634D01*
X185297986Y-92016344D01*
X185171013Y-92064883D01*
X185033911Y-92091425D01*
X184965792Y-92096354D01*
X184907021Y-92097131D01*
X184850958Y-92095526D01*
X184806223Y-92091880D01*
X184790987Y-92089439D01*
X184655802Y-92051705D01*
X184536406Y-91998028D01*
X184428602Y-91926177D01*
X184347459Y-91853686D01*
X184269875Y-91766819D01*
X184209378Y-91676447D01*
X184161466Y-91575031D01*
X184133771Y-91495897D01*
X184105391Y-91405010D01*
X184105391Y-91380773D01*
X184105391Y-90617319D01*
X184105391Y-89853865D01*
X184493177Y-89853865D01*
X184493177Y-90617319D01*
X184493177Y-91380773D01*
X184526069Y-91447424D01*
X184582661Y-91540159D01*
X184651738Y-91612855D01*
X184735265Y-91667309D01*
X184793710Y-91692177D01*
X184870174Y-91709183D01*
X184956261Y-91711618D01*
X185042615Y-91699984D01*
X185119880Y-91674782D01*
X185120128Y-91674668D01*
X185196299Y-91628202D01*
X185266108Y-91563800D01*
X185323234Y-91487761D01*
X185342192Y-91453329D01*
X185377815Y-91380773D01*
X185377815Y-90617319D01*
X185377815Y-89853865D01*
X185342192Y-89781310D01*
X185291930Y-89701646D01*
X185225905Y-89630836D01*
X185150555Y-89575317D01*
X185120128Y-89559246D01*
X185082556Y-89543215D01*
X185048136Y-89533427D01*
X185008596Y-89528423D01*
X184955667Y-89526744D01*
X184935496Y-89526670D01*
X184876809Y-89527623D01*
X184834045Y-89531453D01*
X184798935Y-89539620D01*
X184763208Y-89553583D01*
X184750864Y-89559246D01*
X184677471Y-89604411D01*
X184608772Y-89666305D01*
X184552125Y-89737568D01*
X184525754Y-89784357D01*
X184493177Y-89853865D01*
X184105391Y-89853865D01*
X184105391Y-89829628D01*
X184133771Y-89738741D01*
X184175697Y-89625506D01*
X184227146Y-89528443D01*
X184292618Y-89440012D01*
X184347459Y-89380952D01*
X184434327Y-89303368D01*
X184524699Y-89242871D01*
X184626114Y-89194959D01*
X184705248Y-89167263D01*
X184801161Y-89146295D01*
X184909006Y-89137642D01*
X185019905Y-89141203D01*
G37*
G36*
X189389562Y-89140201D02*
G01*
X189491571Y-89154642D01*
X189540458Y-89167297D01*
X189657806Y-89211166D01*
X189758418Y-89265580D01*
X189848860Y-89334421D01*
X189891889Y-89375032D01*
X189979392Y-89474769D01*
X190047079Y-89580197D01*
X190099336Y-89698355D01*
X190107118Y-89720563D01*
X190139952Y-89817510D01*
X190140133Y-90255888D01*
X190140134Y-90370673D01*
X190139945Y-90463731D01*
X190139433Y-90537573D01*
X190138466Y-90594707D01*
X190136913Y-90637643D01*
X190134642Y-90668892D01*
X190131520Y-90690964D01*
X190127416Y-90706367D01*
X190122198Y-90717613D01*
X190115735Y-90727210D01*
X190115329Y-90727754D01*
X190086479Y-90760115D01*
X190056890Y-90786227D01*
X190048509Y-90791978D01*
X190038688Y-90796789D01*
X190025289Y-90800759D01*
X190006172Y-90803985D01*
X189979200Y-90806567D01*
X189942232Y-90808603D01*
X189893132Y-90810191D01*
X189829759Y-90811432D01*
X189749976Y-90812422D01*
X189651643Y-90813260D01*
X189532622Y-90814046D01*
X189441832Y-90814582D01*
X188860227Y-90817953D01*
X188864059Y-91099363D01*
X188867891Y-91380773D01*
X188906079Y-91461375D01*
X188959939Y-91550504D01*
X189029285Y-91621570D01*
X189116341Y-91676795D01*
X189126602Y-91681766D01*
X189171355Y-91701393D01*
X189208988Y-91712869D01*
X189249568Y-91718275D01*
X189303162Y-91719690D01*
X189310210Y-91719691D01*
X189400185Y-91712602D01*
X189478426Y-91689770D01*
X189552046Y-91648481D01*
X189604347Y-91607396D01*
X189671482Y-91560310D01*
X189736361Y-91537122D01*
X189798626Y-91537854D01*
X189857920Y-91562526D01*
X189893846Y-91590612D01*
X189936976Y-91643916D01*
X189956714Y-91700422D01*
X189953545Y-91759158D01*
X189927952Y-91819148D01*
X189880417Y-91879420D01*
X189811424Y-91939000D01*
X189721456Y-91996914D01*
X189681558Y-92018442D01*
X189575454Y-92061374D01*
X189456584Y-92089338D01*
X189331768Y-92101641D01*
X189207826Y-92097592D01*
X189096596Y-92077834D01*
X188962375Y-92030663D01*
X188841263Y-91963572D01*
X188734573Y-91877812D01*
X188643619Y-91774634D01*
X188569712Y-91655291D01*
X188514904Y-91523294D01*
X188480105Y-91417128D01*
X188480105Y-90617319D01*
X188480105Y-90429485D01*
X188859910Y-90429485D01*
X189310210Y-90429485D01*
X189760510Y-90429485D01*
X189756478Y-90141675D01*
X189752447Y-89853865D01*
X189716974Y-89781419D01*
X189666945Y-89702002D01*
X189601086Y-89631260D01*
X189525886Y-89575684D01*
X189494842Y-89559246D01*
X189457270Y-89543215D01*
X189422849Y-89533427D01*
X189383310Y-89528423D01*
X189330381Y-89526744D01*
X189310210Y-89526670D01*
X189251522Y-89527623D01*
X189208759Y-89531453D01*
X189173649Y-89539620D01*
X189137922Y-89553583D01*
X189125578Y-89559246D01*
X189048467Y-89606992D01*
X188978118Y-89672483D01*
X188921020Y-89749230D01*
X188903446Y-89781419D01*
X188867973Y-89853865D01*
X188863941Y-90141675D01*
X188859910Y-90429485D01*
X188480105Y-90429485D01*
X188480105Y-89817510D01*
X188513120Y-89720563D01*
X188563471Y-89599171D01*
X188628373Y-89491920D01*
X188712277Y-89391671D01*
X188728531Y-89375032D01*
X188816368Y-89297614D01*
X188911125Y-89236543D01*
X189019367Y-89187939D01*
X189079962Y-89167297D01*
X189174414Y-89146529D01*
X189280729Y-89137497D01*
X189389562Y-89140201D01*
G37*
G36*
X194697387Y-89140201D02*
G01*
X194799396Y-89154642D01*
X194848282Y-89167297D01*
X194965631Y-89211166D01*
X195066242Y-89265580D01*
X195156684Y-89334421D01*
X195199714Y-89375032D01*
X195287216Y-89474769D01*
X195354904Y-89580197D01*
X195407160Y-89698355D01*
X195414942Y-89720563D01*
X195447776Y-89817510D01*
X195447958Y-90255888D01*
X195447959Y-90370673D01*
X195447769Y-90463731D01*
X195447257Y-90537573D01*
X195446290Y-90594707D01*
X195444738Y-90637643D01*
X195442466Y-90668892D01*
X195439345Y-90690964D01*
X195435241Y-90706367D01*
X195430023Y-90717613D01*
X195423559Y-90727210D01*
X195423154Y-90727754D01*
X195394304Y-90760115D01*
X195364715Y-90786227D01*
X195356334Y-90791978D01*
X195346513Y-90796789D01*
X195333113Y-90800759D01*
X195313997Y-90803985D01*
X195287024Y-90806567D01*
X195250057Y-90808603D01*
X195200956Y-90810191D01*
X195137584Y-90811432D01*
X195057800Y-90812422D01*
X194959467Y-90813260D01*
X194840446Y-90814046D01*
X194749656Y-90814582D01*
X194168051Y-90817953D01*
X194171883Y-91099363D01*
X194175716Y-91380773D01*
X194213903Y-91461375D01*
X194267763Y-91550504D01*
X194337109Y-91621570D01*
X194424166Y-91676795D01*
X194434427Y-91681766D01*
X194479179Y-91701393D01*
X194516812Y-91712869D01*
X194557392Y-91718275D01*
X194610987Y-91719690D01*
X194618034Y-91719691D01*
X194708009Y-91712602D01*
X194786250Y-91689770D01*
X194859871Y-91648481D01*
X194912171Y-91607396D01*
X194979306Y-91560310D01*
X195044185Y-91537122D01*
X195106451Y-91537854D01*
X195165744Y-91562526D01*
X195201671Y-91590612D01*
X195244800Y-91643916D01*
X195264539Y-91700422D01*
X195261370Y-91759158D01*
X195235776Y-91819148D01*
X195188242Y-91879420D01*
X195119249Y-91939000D01*
X195029281Y-91996914D01*
X194989382Y-92018442D01*
X194883278Y-92061374D01*
X194764408Y-92089338D01*
X194639592Y-92101641D01*
X194515650Y-92097592D01*
X194404421Y-92077834D01*
X194270200Y-92030663D01*
X194149088Y-91963572D01*
X194042398Y-91877812D01*
X193951443Y-91774634D01*
X193877536Y-91655291D01*
X193822728Y-91523294D01*
X193787929Y-91417128D01*
X193787929Y-90617319D01*
X193787929Y-90429485D01*
X194167734Y-90429485D01*
X194618034Y-90429485D01*
X195068335Y-90429485D01*
X195064303Y-90141675D01*
X195060271Y-89853865D01*
X195024798Y-89781419D01*
X194974770Y-89702002D01*
X194908911Y-89631260D01*
X194833710Y-89575684D01*
X194802666Y-89559246D01*
X194765094Y-89543215D01*
X194730674Y-89533427D01*
X194691134Y-89528423D01*
X194638205Y-89526744D01*
X194618034Y-89526670D01*
X194559347Y-89527623D01*
X194516584Y-89531453D01*
X194481474Y-89539620D01*
X194445746Y-89553583D01*
X194433402Y-89559246D01*
X194356291Y-89606992D01*
X194285942Y-89672483D01*
X194228845Y-89749230D01*
X194211270Y-89781419D01*
X194175798Y-89853865D01*
X194171766Y-90141675D01*
X194167734Y-90429485D01*
X193787929Y-90429485D01*
X193787929Y-89817510D01*
X193820945Y-89720563D01*
X193871296Y-89599171D01*
X193936198Y-89491920D01*
X194020102Y-89391671D01*
X194036355Y-89375032D01*
X194124192Y-89297614D01*
X194218949Y-89236543D01*
X194327191Y-89187939D01*
X194387786Y-89167297D01*
X194482239Y-89146529D01*
X194588553Y-89137497D01*
X194697387Y-89140201D01*
G37*
G36*
X191749158Y-89201108D02*
G01*
X191850179Y-89242085D01*
X191935146Y-89288428D01*
X192012241Y-89345233D01*
X192078331Y-89406188D01*
X192166347Y-89507270D01*
X192234769Y-89616956D01*
X192287452Y-89741455D01*
X192288597Y-89744800D01*
X192321613Y-89841747D01*
X192321613Y-90910295D01*
X192321605Y-91095560D01*
X192321557Y-91258125D01*
X192321436Y-91399528D01*
X192321205Y-91521306D01*
X192320831Y-91624997D01*
X192320278Y-91712137D01*
X192319511Y-91784265D01*
X192318497Y-91842916D01*
X192317198Y-91889629D01*
X192315582Y-91925941D01*
X192313613Y-91953389D01*
X192311256Y-91973511D01*
X192308476Y-91987842D01*
X192305238Y-91997922D01*
X192301509Y-92005287D01*
X192297252Y-92011475D01*
X192296627Y-92012314D01*
X192254874Y-92058489D01*
X192210244Y-92084805D01*
X192155110Y-92095169D01*
X192133779Y-92095754D01*
X192073627Y-92089714D01*
X192026440Y-92068989D01*
X191984588Y-92029670D01*
X191970930Y-92012328D01*
X191966561Y-92006074D01*
X191962721Y-91998728D01*
X191959369Y-91988741D01*
X191956457Y-91974560D01*
X191953943Y-91954633D01*
X191951782Y-91927410D01*
X191949929Y-91891339D01*
X191948340Y-91844869D01*
X191946970Y-91786448D01*
X191945775Y-91714524D01*
X191944711Y-91627547D01*
X191943733Y-91523965D01*
X191942797Y-91402227D01*
X191941858Y-91260781D01*
X191940871Y-91098075D01*
X191939885Y-90928487D01*
X191933826Y-89878101D01*
X191898313Y-89805656D01*
X191843336Y-89719665D01*
X191770499Y-89645823D01*
X191685189Y-89589515D01*
X191679077Y-89586461D01*
X191606632Y-89550989D01*
X191318993Y-89546959D01*
X191031355Y-89542929D01*
X191028154Y-90760894D01*
X191027625Y-90959469D01*
X191027124Y-91135241D01*
X191026618Y-91289646D01*
X191026075Y-91424118D01*
X191025463Y-91540091D01*
X191024750Y-91639000D01*
X191023902Y-91722279D01*
X191022888Y-91791362D01*
X191021675Y-91847684D01*
X191020232Y-91892680D01*
X191018525Y-91927783D01*
X191016523Y-91954429D01*
X191014193Y-91974052D01*
X191011503Y-91988086D01*
X191008420Y-91997965D01*
X191004913Y-92005125D01*
X191000948Y-92010999D01*
X190999967Y-92012321D01*
X190971895Y-92044026D01*
X190943308Y-92069431D01*
X190902652Y-92088180D01*
X190850154Y-92097306D01*
X190796592Y-92095881D01*
X190757748Y-92085439D01*
X190713953Y-92055818D01*
X190676542Y-92013296D01*
X190652748Y-91966704D01*
X190649301Y-91953007D01*
X190648391Y-91935825D01*
X190647579Y-91896024D01*
X190646869Y-91835224D01*
X190646264Y-91755042D01*
X190645771Y-91657097D01*
X190645391Y-91543008D01*
X190645131Y-91414392D01*
X190644993Y-91272868D01*
X190644982Y-91120055D01*
X190645103Y-90957570D01*
X190645359Y-90787033D01*
X190645755Y-90610061D01*
X190645790Y-90596998D01*
X190646345Y-90390052D01*
X190646867Y-90205966D01*
X190647386Y-90043364D01*
X190647931Y-89900868D01*
X190648531Y-89777102D01*
X190649215Y-89670690D01*
X190650012Y-89580254D01*
X190650950Y-89504418D01*
X190652059Y-89441806D01*
X190653369Y-89391041D01*
X190654907Y-89350746D01*
X190656703Y-89319545D01*
X190658787Y-89296060D01*
X190661186Y-89278916D01*
X190663931Y-89266736D01*
X190667050Y-89258143D01*
X190670572Y-89251760D01*
X190674270Y-89246554D01*
X190703130Y-89214214D01*
X190732751Y-89188106D01*
X190742337Y-89181567D01*
X190753438Y-89176281D01*
X190768566Y-89172113D01*
X190790228Y-89168932D01*
X190820936Y-89166605D01*
X190863200Y-89164999D01*
X190919528Y-89163980D01*
X190992432Y-89163416D01*
X191084420Y-89163174D01*
X191198004Y-89163121D01*
X191204616Y-89163121D01*
X191642987Y-89163121D01*
X191749158Y-89201108D01*
G37*
G36*
X198434864Y-87848263D02*
G01*
X198482051Y-87868988D01*
X198523903Y-87908305D01*
X198537562Y-87925649D01*
X198543241Y-87933914D01*
X198548003Y-87943596D01*
X198551944Y-87956802D01*
X198555158Y-87975637D01*
X198557739Y-88002207D01*
X198559783Y-88038619D01*
X198561383Y-88086978D01*
X198562635Y-88149391D01*
X198563632Y-88227964D01*
X198564469Y-88324802D01*
X198565242Y-88442012D01*
X198565905Y-88557016D01*
X198569263Y-89154929D01*
X198874923Y-89159753D01*
X198969783Y-89161358D01*
X199044152Y-89163047D01*
X199101772Y-89165165D01*
X199146388Y-89168056D01*
X199181743Y-89172067D01*
X199211581Y-89177541D01*
X199239645Y-89184825D01*
X199269679Y-89194263D01*
X199277529Y-89196864D01*
X199403757Y-89249087D01*
X199515205Y-89317820D01*
X199616656Y-89405673D01*
X199704225Y-89506757D01*
X199772650Y-89617213D01*
X199825535Y-89742876D01*
X199826193Y-89744800D01*
X199859208Y-89841747D01*
X199859208Y-90910295D01*
X199859200Y-91095560D01*
X199859153Y-91258125D01*
X199859031Y-91399528D01*
X199858801Y-91521306D01*
X199858426Y-91624997D01*
X199857873Y-91712137D01*
X199857107Y-91784265D01*
X199856092Y-91842916D01*
X199854794Y-91889629D01*
X199853177Y-91925941D01*
X199851208Y-91953389D01*
X199848851Y-91973511D01*
X199846071Y-91987842D01*
X199842834Y-91997922D01*
X199839104Y-92005287D01*
X199834847Y-92011475D01*
X199834223Y-92012314D01*
X199792470Y-92058489D01*
X199747839Y-92084805D01*
X199692705Y-92095169D01*
X199671374Y-92095754D01*
X199611223Y-92089714D01*
X199564035Y-92068989D01*
X199522183Y-92029670D01*
X199508525Y-92012328D01*
X199504156Y-92006074D01*
X199500317Y-91998728D01*
X199496964Y-91988741D01*
X199494053Y-91974560D01*
X199491539Y-91954633D01*
X199489377Y-91927410D01*
X199487524Y-91891339D01*
X199485935Y-91844869D01*
X199484565Y-91786448D01*
X199483371Y-91714524D01*
X199482306Y-91627547D01*
X199481328Y-91523965D01*
X199480392Y-91402227D01*
X199479453Y-91260781D01*
X199478467Y-91098075D01*
X199477481Y-90928487D01*
X199471422Y-89878101D01*
X199435908Y-89805656D01*
X199380931Y-89719665D01*
X199308094Y-89645823D01*
X199222785Y-89589515D01*
X199216673Y-89586461D01*
X199144227Y-89550989D01*
X198856589Y-89546959D01*
X198568950Y-89542929D01*
X198565749Y-90760894D01*
X198565220Y-90959469D01*
X198564719Y-91135241D01*
X198564214Y-91289646D01*
X198563671Y-91424118D01*
X198563059Y-91540091D01*
X198562345Y-91639000D01*
X198561497Y-91722279D01*
X198560483Y-91791362D01*
X198559271Y-91847684D01*
X198557827Y-91892680D01*
X198556120Y-91927783D01*
X198554118Y-91954429D01*
X198551788Y-91974052D01*
X198549098Y-91988086D01*
X198546016Y-91997965D01*
X198542508Y-92005125D01*
X198538544Y-92010999D01*
X198537562Y-92012321D01*
X198509491Y-92044026D01*
X198480903Y-92069431D01*
X198440248Y-92088180D01*
X198387749Y-92097306D01*
X198334187Y-92095881D01*
X198295344Y-92085439D01*
X198251557Y-92055827D01*
X198214159Y-92013323D01*
X198190377Y-91966752D01*
X198186923Y-91953007D01*
X198186177Y-91936758D01*
X198185495Y-91897576D01*
X198184879Y-91836765D01*
X198184331Y-91755628D01*
X198183855Y-91655469D01*
X198183451Y-91537593D01*
X198183123Y-91403302D01*
X198182873Y-91253901D01*
X198182703Y-91090693D01*
X198182615Y-90914982D01*
X198182611Y-90728071D01*
X198182694Y-90531264D01*
X198182866Y-90325866D01*
X198183130Y-90113179D01*
X198183412Y-89936551D01*
X198183863Y-89680360D01*
X198184289Y-89447291D01*
X198184703Y-89236231D01*
X198185123Y-89046066D01*
X198185563Y-88875681D01*
X198186041Y-88723963D01*
X198186570Y-88589798D01*
X198187167Y-88472071D01*
X198187849Y-88369669D01*
X198188630Y-88281478D01*
X198189526Y-88206384D01*
X198190554Y-88143272D01*
X198191729Y-88091029D01*
X198193066Y-88048541D01*
X198194581Y-88014694D01*
X198196291Y-87988374D01*
X198198211Y-87968466D01*
X198200357Y-87953858D01*
X198202744Y-87943434D01*
X198205388Y-87936081D01*
X198208306Y-87930685D01*
X198211512Y-87926132D01*
X198211865Y-87925658D01*
X198253620Y-87879486D01*
X198298249Y-87853172D01*
X198353379Y-87842809D01*
X198374714Y-87842224D01*
X198434864Y-87848263D01*
G37*
G36*
X203209924Y-89139524D02*
G01*
X203273879Y-89140442D01*
X203321639Y-89143382D01*
X203361231Y-89149653D01*
X203400686Y-89160564D01*
X203448033Y-89177422D01*
X203452290Y-89179025D01*
X203571959Y-89234692D01*
X203680146Y-89306020D01*
X203773143Y-89390039D01*
X203847242Y-89483781D01*
X203861323Y-89506578D01*
X203888183Y-89572277D01*
X203893333Y-89636957D01*
X203877747Y-89696721D01*
X203842401Y-89747676D01*
X203791788Y-89784185D01*
X203724946Y-89806343D01*
X203660536Y-89805630D01*
X203601992Y-89783011D01*
X203552749Y-89739452D01*
X203533554Y-89711609D01*
X203477319Y-89635964D01*
X203408749Y-89580659D01*
X203326860Y-89545154D01*
X203230669Y-89528911D01*
X203197805Y-89527703D01*
X203115141Y-89532140D01*
X203047490Y-89549087D01*
X202987639Y-89581387D01*
X202928375Y-89631889D01*
X202924824Y-89635416D01*
X202867794Y-89707812D01*
X202830141Y-89789013D01*
X202812099Y-89874968D01*
X202813901Y-89961625D01*
X202835779Y-90044932D01*
X202877964Y-90120836D01*
X202895708Y-90142807D01*
X202919191Y-90164991D01*
X202960389Y-90198916D01*
X203016920Y-90242781D01*
X203086404Y-90294780D01*
X203166455Y-90353111D01*
X203254694Y-90415970D01*
X203280700Y-90434246D01*
X203363818Y-90493056D01*
X203443327Y-90550384D01*
X203516299Y-90604038D01*
X203579805Y-90651828D01*
X203630917Y-90691560D01*
X203666707Y-90721042D01*
X203679422Y-90732714D01*
X203763237Y-90830018D01*
X203827908Y-90936571D01*
X203869351Y-91034866D01*
X203884543Y-91079474D01*
X203894889Y-91116869D01*
X203901321Y-91153767D01*
X203904772Y-91196885D01*
X203906174Y-91252939D01*
X203906432Y-91302004D01*
X203903355Y-91407229D01*
X203892540Y-91495498D01*
X203872241Y-91573343D01*
X203840712Y-91647292D01*
X203796208Y-91723875D01*
X203791781Y-91730698D01*
X203707717Y-91838615D01*
X203608931Y-91929566D01*
X203498151Y-92002467D01*
X203378100Y-92056231D01*
X203251505Y-92089772D01*
X203121091Y-92102003D01*
X202989582Y-92091839D01*
X202921865Y-92077394D01*
X202799443Y-92034139D01*
X202684130Y-91971695D01*
X202580391Y-91893189D01*
X202492689Y-91801748D01*
X202455073Y-91750382D01*
X202418033Y-91678633D01*
X202402328Y-91610394D01*
X202407257Y-91548214D01*
X202432120Y-91494640D01*
X202476218Y-91452221D01*
X202538850Y-91423504D01*
X202545396Y-91421672D01*
X202612512Y-91413784D01*
X202671327Y-91428585D01*
X202723002Y-91466457D01*
X202739970Y-91485674D01*
X202792247Y-91548882D01*
X202835455Y-91595801D01*
X202873842Y-91630389D01*
X202911656Y-91656608D01*
X202939800Y-91671972D01*
X202978040Y-91689536D01*
X203012049Y-91700140D01*
X203050543Y-91705512D01*
X203102240Y-91707379D01*
X203119036Y-91707504D01*
X203175008Y-91706824D01*
X203215296Y-91703120D01*
X203248414Y-91694751D01*
X203282875Y-91680074D01*
X203296633Y-91673242D01*
X203375680Y-91621531D01*
X203443569Y-91554258D01*
X203490657Y-91483779D01*
X203503875Y-91454998D01*
X203512268Y-91425823D01*
X203516871Y-91389596D01*
X203518721Y-91339658D01*
X203518941Y-91302004D01*
X203518438Y-91243331D01*
X203516073Y-91202009D01*
X203510557Y-91171159D01*
X203500603Y-91143901D01*
X203484923Y-91113356D01*
X203482972Y-91109822D01*
X203470672Y-91088304D01*
X203458006Y-91068797D01*
X203443007Y-91049687D01*
X203423708Y-91029359D01*
X203398140Y-91006199D01*
X203364338Y-90978592D01*
X203320332Y-90944924D01*
X203264155Y-90903580D01*
X203193841Y-90852946D01*
X203107421Y-90791408D01*
X203015685Y-90726384D01*
X202918091Y-90656563D01*
X202830611Y-90592566D01*
X202755216Y-90535902D01*
X202693877Y-90488079D01*
X202648565Y-90450605D01*
X202621251Y-90424989D01*
X202619840Y-90423426D01*
X202545757Y-90323023D01*
X202486121Y-90207151D01*
X202456719Y-90126527D01*
X202436402Y-90034230D01*
X202427360Y-89931315D01*
X202429626Y-89826838D01*
X202443230Y-89729856D01*
X202455169Y-89684208D01*
X202506363Y-89561805D01*
X202577896Y-89449792D01*
X202667166Y-89350734D01*
X202771575Y-89267194D01*
X202888523Y-89201735D01*
X202979676Y-89167039D01*
X203029104Y-89153440D01*
X203076420Y-89144981D01*
X203129966Y-89140663D01*
X203198086Y-89139491D01*
X203209924Y-89139524D01*
G37*
G36*
X202030300Y-89156672D02*
G01*
X202081428Y-89189272D01*
X202119637Y-89235975D01*
X202140714Y-89293608D01*
X202143511Y-89325273D01*
X202140110Y-89339859D01*
X202130211Y-89376113D01*
X202114274Y-89432485D01*
X202092759Y-89507427D01*
X202066124Y-89599389D01*
X202034830Y-89706822D01*
X201999336Y-89828176D01*
X201960100Y-89961903D01*
X201917583Y-90106454D01*
X201872243Y-90260279D01*
X201824541Y-90421829D01*
X201774935Y-90589555D01*
X201723884Y-90761908D01*
X201671849Y-90937339D01*
X201619288Y-91114298D01*
X201566662Y-91291237D01*
X201514428Y-91466605D01*
X201463047Y-91638855D01*
X201412978Y-91806436D01*
X201364680Y-91967800D01*
X201318613Y-92121397D01*
X201275236Y-92265679D01*
X201235009Y-92399096D01*
X201198390Y-92520099D01*
X201165839Y-92627139D01*
X201137816Y-92718666D01*
X201124367Y-92762262D01*
X201087143Y-92869892D01*
X201046728Y-92959274D01*
X200999723Y-93036391D01*
X200942729Y-93107232D01*
X200907602Y-93143989D01*
X200796614Y-93238708D01*
X200676017Y-93311712D01*
X200547033Y-93362436D01*
X200410887Y-93390311D01*
X200368177Y-93394176D01*
X200316292Y-93396545D01*
X200280044Y-93394767D01*
X200251012Y-93387611D01*
X200220771Y-93373848D01*
X200217595Y-93372186D01*
X200164873Y-93332102D01*
X200132043Y-93278406D01*
X200119818Y-93212307D01*
X200119752Y-93206601D01*
X200127824Y-93140555D01*
X200152907Y-93088898D01*
X200196297Y-93050471D01*
X200259293Y-93024116D01*
X200341366Y-93008879D01*
X200450763Y-92986736D01*
X200543984Y-92946568D01*
X200621111Y-92888322D01*
X200682228Y-92811945D01*
X200698037Y-92784390D01*
X200712275Y-92752317D01*
X200731144Y-92702170D01*
X200753664Y-92637237D01*
X200778856Y-92560810D01*
X200805740Y-92476178D01*
X200833336Y-92386631D01*
X200860665Y-92295459D01*
X200886748Y-92205952D01*
X200910604Y-92121401D01*
X200931254Y-92045095D01*
X200947719Y-91980325D01*
X200959018Y-91930379D01*
X200964174Y-91898550D01*
X200964162Y-91890577D01*
X200959866Y-91874024D01*
X200949067Y-91835852D01*
X200932235Y-91777652D01*
X200909842Y-91701017D01*
X200882357Y-91607538D01*
X200850252Y-91498807D01*
X200813998Y-91376418D01*
X200774064Y-91241961D01*
X200730922Y-91097028D01*
X200685043Y-90943213D01*
X200636897Y-90782106D01*
X200598452Y-90653674D01*
X200548664Y-90487389D01*
X200500608Y-90326738D01*
X200454771Y-90173357D01*
X200411640Y-90028883D01*
X200371702Y-89894951D01*
X200335444Y-89773198D01*
X200303353Y-89665261D01*
X200275916Y-89572775D01*
X200253621Y-89497378D01*
X200236953Y-89440704D01*
X200226401Y-89404392D01*
X200222806Y-89391555D01*
X200213826Y-89319357D01*
X200227148Y-89256349D01*
X200262936Y-89201851D01*
X200270905Y-89193732D01*
X200322729Y-89158446D01*
X200381385Y-89142398D01*
X200441455Y-89144801D01*
X200497522Y-89164868D01*
X200544168Y-89201810D01*
X200568130Y-89236928D01*
X200574300Y-89253806D01*
X200586798Y-89292147D01*
X200605082Y-89350171D01*
X200628610Y-89426100D01*
X200656839Y-89518153D01*
X200689227Y-89624551D01*
X200725231Y-89743515D01*
X200764310Y-89873265D01*
X200805920Y-90012023D01*
X200849520Y-90158007D01*
X200877147Y-90250809D01*
X200921382Y-90399345D01*
X200963711Y-90541022D01*
X201003619Y-90674144D01*
X201040591Y-90797016D01*
X201074113Y-90907942D01*
X201103670Y-91005226D01*
X201128747Y-91087172D01*
X201148829Y-91152084D01*
X201163403Y-91198267D01*
X201171953Y-91224026D01*
X201174046Y-91229014D01*
X201178398Y-91217704D01*
X201189170Y-91184919D01*
X201205824Y-91132400D01*
X201227825Y-91061890D01*
X201254638Y-90975131D01*
X201285726Y-90873864D01*
X201320554Y-90759832D01*
X201358586Y-90634776D01*
X201399287Y-90500438D01*
X201442119Y-90358561D01*
X201458203Y-90305159D01*
X201502276Y-90158751D01*
X201544771Y-90017602D01*
X201585106Y-89883648D01*
X201622698Y-89758824D01*
X201656963Y-89645067D01*
X201687318Y-89544312D01*
X201713181Y-89458495D01*
X201733968Y-89389550D01*
X201749096Y-89339415D01*
X201757982Y-89310023D01*
X201759247Y-89305858D01*
X201789911Y-89234290D01*
X201832481Y-89183326D01*
X201887881Y-89151962D01*
X201906140Y-89146475D01*
X201970466Y-89141348D01*
X202030300Y-89156672D01*
G37*
G36*
X187422917Y-89201108D02*
G01*
X187523939Y-89242085D01*
X187608906Y-89288428D01*
X187686001Y-89345233D01*
X187752090Y-89406188D01*
X187840107Y-89507270D01*
X187908528Y-89616956D01*
X187961212Y-89741455D01*
X187962357Y-89744800D01*
X187995372Y-89841747D01*
X187995372Y-90617319D01*
X187995372Y-91392892D01*
X187962357Y-91489838D01*
X187910016Y-91614785D01*
X187842034Y-91724765D01*
X187754553Y-91825986D01*
X187752090Y-91828450D01*
X187674445Y-91898936D01*
X187596000Y-91954216D01*
X187508479Y-91999432D01*
X187422917Y-92033039D01*
X187389863Y-92044551D01*
X187361441Y-92053474D01*
X187333895Y-92060193D01*
X187303470Y-92065093D01*
X187266409Y-92068560D01*
X187218956Y-92070979D01*
X187157355Y-92072734D01*
X187077851Y-92074211D01*
X187011086Y-92075262D01*
X186705427Y-92079987D01*
X186702069Y-92677761D01*
X186701279Y-92813578D01*
X186700502Y-92927266D01*
X186699644Y-93020929D01*
X186698612Y-93096675D01*
X186697309Y-93156610D01*
X186695641Y-93202840D01*
X186693515Y-93237472D01*
X186690835Y-93262611D01*
X186687506Y-93280365D01*
X186683435Y-93292840D01*
X186678526Y-93302141D01*
X186673726Y-93308989D01*
X186645652Y-93340692D01*
X186617067Y-93366092D01*
X186576412Y-93384840D01*
X186523913Y-93393966D01*
X186470352Y-93392541D01*
X186431508Y-93382099D01*
X186387721Y-93352487D01*
X186350323Y-93309983D01*
X186326541Y-93263412D01*
X186323087Y-93249667D01*
X186322339Y-93233405D01*
X186321654Y-93194215D01*
X186321037Y-93133404D01*
X186320489Y-93052279D01*
X186320012Y-92952151D01*
X186319608Y-92834325D01*
X186319281Y-92700110D01*
X186319032Y-92550814D01*
X186318863Y-92387745D01*
X186318777Y-92212211D01*
X186318776Y-92025520D01*
X186318863Y-91828979D01*
X186319039Y-91623897D01*
X186319307Y-91411582D01*
X186319575Y-91245329D01*
X186320029Y-90989960D01*
X186320455Y-90757710D01*
X186320733Y-90617319D01*
X186704771Y-90617319D01*
X186704771Y-91689790D01*
X186964235Y-91689790D01*
X187055010Y-91689486D01*
X187125518Y-91688395D01*
X187179724Y-91686249D01*
X187221593Y-91682780D01*
X187255089Y-91677720D01*
X187284177Y-91670802D01*
X187295662Y-91667393D01*
X187391140Y-91626301D01*
X187471679Y-91566722D01*
X187538264Y-91487776D01*
X187581677Y-91411069D01*
X187587011Y-91399388D01*
X187591558Y-91387262D01*
X187595380Y-91372765D01*
X187598541Y-91353971D01*
X187601103Y-91328953D01*
X187603129Y-91295786D01*
X187604681Y-91252543D01*
X187605824Y-91197299D01*
X187606619Y-91128127D01*
X187607130Y-91043102D01*
X187607419Y-90940297D01*
X187607550Y-90817787D01*
X187607585Y-90673645D01*
X187607586Y-90617319D01*
X187607570Y-90465093D01*
X187607480Y-90335177D01*
X187607254Y-90225646D01*
X187606829Y-90134573D01*
X187606141Y-90060033D01*
X187605128Y-90000100D01*
X187603727Y-89952846D01*
X187601875Y-89916347D01*
X187599509Y-89888677D01*
X187596567Y-89867908D01*
X187592985Y-89852116D01*
X187588700Y-89839374D01*
X187583651Y-89827756D01*
X187581677Y-89823569D01*
X187525429Y-89728686D01*
X187456004Y-89653868D01*
X187372418Y-89598233D01*
X187295662Y-89567245D01*
X187267232Y-89559493D01*
X187236008Y-89553710D01*
X187198025Y-89549626D01*
X187149317Y-89546974D01*
X187085921Y-89545486D01*
X187003871Y-89544894D01*
X186964235Y-89544848D01*
X186704771Y-89544848D01*
X186704771Y-90617319D01*
X186320733Y-90617319D01*
X186320871Y-90547462D01*
X186321292Y-90358097D01*
X186321735Y-90188499D01*
X186322214Y-90037550D01*
X186322747Y-89904132D01*
X186323348Y-89787128D01*
X186324034Y-89685421D01*
X186324821Y-89597892D01*
X186325464Y-89544848D01*
X186325724Y-89523425D01*
X186326760Y-89460902D01*
X186327945Y-89409204D01*
X186329293Y-89367216D01*
X186330822Y-89333818D01*
X186332548Y-89307894D01*
X186334485Y-89288327D01*
X186336650Y-89273998D01*
X186339059Y-89263790D01*
X186341728Y-89256585D01*
X186344673Y-89251267D01*
X186347909Y-89246717D01*
X186348029Y-89246555D01*
X186376890Y-89214214D01*
X186406510Y-89188106D01*
X186416096Y-89181567D01*
X186427198Y-89176281D01*
X186442325Y-89172113D01*
X186463988Y-89168932D01*
X186494696Y-89166605D01*
X186536959Y-89164999D01*
X186593288Y-89163980D01*
X186666191Y-89163416D01*
X186758180Y-89163174D01*
X186871763Y-89163121D01*
X186878376Y-89163121D01*
X187316746Y-89163121D01*
X187422917Y-89201108D01*
G37*
G36*
X197069101Y-89201108D02*
G01*
X197170122Y-89242085D01*
X197255089Y-89288428D01*
X197332184Y-89345233D01*
X197398273Y-89406188D01*
X197486290Y-89507270D01*
X197554712Y-89616956D01*
X197607395Y-89741455D01*
X197608540Y-89744800D01*
X197641555Y-89841747D01*
X197641555Y-90617319D01*
X197641555Y-91392892D01*
X197608540Y-91489838D01*
X197556200Y-91614785D01*
X197488217Y-91724765D01*
X197400736Y-91825986D01*
X197398273Y-91828450D01*
X197320628Y-91898936D01*
X197242183Y-91954216D01*
X197154662Y-91999432D01*
X197069101Y-92033039D01*
X197036046Y-92044551D01*
X197007624Y-92053474D01*
X196980079Y-92060193D01*
X196949653Y-92065093D01*
X196912592Y-92068560D01*
X196865139Y-92070979D01*
X196803538Y-92072734D01*
X196724034Y-92074211D01*
X196657270Y-92075262D01*
X196351610Y-92079987D01*
X196348253Y-92677761D01*
X196347462Y-92813578D01*
X196346685Y-92927266D01*
X196345828Y-93020929D01*
X196344795Y-93096675D01*
X196343492Y-93156610D01*
X196341824Y-93202840D01*
X196339698Y-93237472D01*
X196337018Y-93262611D01*
X196333689Y-93280365D01*
X196329618Y-93292840D01*
X196324709Y-93302141D01*
X196319910Y-93308989D01*
X196291835Y-93340692D01*
X196263250Y-93366092D01*
X196222595Y-93384840D01*
X196170096Y-93393966D01*
X196116535Y-93392541D01*
X196077691Y-93382099D01*
X196033904Y-93352487D01*
X195996506Y-93309983D01*
X195972724Y-93263412D01*
X195969270Y-93249667D01*
X195968522Y-93233405D01*
X195967838Y-93194215D01*
X195967220Y-93133404D01*
X195966672Y-93052279D01*
X195966195Y-92952151D01*
X195965791Y-92834325D01*
X195965464Y-92700110D01*
X195965215Y-92550814D01*
X195965046Y-92387745D01*
X195964960Y-92212211D01*
X195964959Y-92025520D01*
X195965046Y-91828979D01*
X195965222Y-91623897D01*
X195965490Y-91411582D01*
X195965759Y-91245329D01*
X195966212Y-90989960D01*
X195966638Y-90757710D01*
X195966916Y-90617319D01*
X196350954Y-90617319D01*
X196350954Y-91689790D01*
X196610418Y-91689790D01*
X196701193Y-91689486D01*
X196771701Y-91688395D01*
X196825907Y-91686249D01*
X196867776Y-91682780D01*
X196901272Y-91677720D01*
X196930360Y-91670802D01*
X196941845Y-91667393D01*
X197037323Y-91626301D01*
X197117862Y-91566722D01*
X197184447Y-91487776D01*
X197227860Y-91411069D01*
X197233194Y-91399388D01*
X197237741Y-91387262D01*
X197241563Y-91372765D01*
X197244724Y-91353971D01*
X197247286Y-91328953D01*
X197249312Y-91295786D01*
X197250865Y-91252543D01*
X197252007Y-91197299D01*
X197252803Y-91128127D01*
X197253313Y-91043102D01*
X197253603Y-90940297D01*
X197253733Y-90817787D01*
X197253768Y-90673645D01*
X197253769Y-90617319D01*
X197253753Y-90465093D01*
X197253664Y-90335177D01*
X197253437Y-90225646D01*
X197253012Y-90134573D01*
X197252324Y-90060033D01*
X197251311Y-90000100D01*
X197249910Y-89952846D01*
X197248058Y-89916347D01*
X197245692Y-89888677D01*
X197242750Y-89867908D01*
X197239168Y-89852116D01*
X197234884Y-89839374D01*
X197229834Y-89827756D01*
X197227860Y-89823569D01*
X197171613Y-89728686D01*
X197102187Y-89653868D01*
X197018601Y-89598233D01*
X196941845Y-89567245D01*
X196913416Y-89559493D01*
X196882192Y-89553710D01*
X196844208Y-89549626D01*
X196795500Y-89546974D01*
X196732104Y-89545486D01*
X196650054Y-89544894D01*
X196610418Y-89544848D01*
X196350954Y-89544848D01*
X196350954Y-90617319D01*
X195966916Y-90617319D01*
X195967054Y-90547462D01*
X195967476Y-90358097D01*
X195967918Y-90188499D01*
X195968397Y-90037550D01*
X195968930Y-89904132D01*
X195969531Y-89787128D01*
X195970217Y-89685421D01*
X195971004Y-89597892D01*
X195971647Y-89544848D01*
X195971907Y-89523425D01*
X195972943Y-89460902D01*
X195974128Y-89409204D01*
X195975477Y-89367216D01*
X195977006Y-89333818D01*
X195978731Y-89307894D01*
X195980668Y-89288327D01*
X195982833Y-89273998D01*
X195985242Y-89263790D01*
X195987911Y-89256585D01*
X195990856Y-89251267D01*
X195994092Y-89246717D01*
X195994212Y-89246555D01*
X196023073Y-89214214D01*
X196052693Y-89188106D01*
X196062279Y-89181567D01*
X196073381Y-89176281D01*
X196088508Y-89172113D01*
X196110171Y-89168932D01*
X196140879Y-89166605D01*
X196183143Y-89164999D01*
X196239471Y-89163980D01*
X196312375Y-89163416D01*
X196404363Y-89163174D01*
X196517946Y-89163121D01*
X196524559Y-89163121D01*
X196962929Y-89163121D01*
X197069101Y-89201108D01*
G37*
G36*
X194478670Y-80611175D02*
G01*
X194560789Y-80640560D01*
X194571954Y-80646413D01*
X194626138Y-80683436D01*
X194668853Y-80731320D01*
X194704327Y-80795423D01*
X194720437Y-80834614D01*
X194727567Y-80852667D01*
X194743295Y-80891927D01*
X194767113Y-80951141D01*
X194798513Y-81029055D01*
X194836988Y-81124415D01*
X194882030Y-81235967D01*
X194933132Y-81362458D01*
X194989784Y-81502633D01*
X195051481Y-81655239D01*
X195117714Y-81819022D01*
X195187975Y-81992729D01*
X195261757Y-82175104D01*
X195338552Y-82364896D01*
X195417853Y-82560849D01*
X195499151Y-82761711D01*
X195581939Y-82966226D01*
X195665710Y-83173142D01*
X195749955Y-83381205D01*
X195834168Y-83589161D01*
X195917839Y-83795756D01*
X196000463Y-83999736D01*
X196081530Y-84199848D01*
X196160533Y-84394837D01*
X196236965Y-84583450D01*
X196310318Y-84764433D01*
X196380084Y-84936533D01*
X196445755Y-85098495D01*
X196506824Y-85249066D01*
X196562783Y-85386991D01*
X196613125Y-85511018D01*
X196657341Y-85619892D01*
X196694925Y-85712360D01*
X196725367Y-85787167D01*
X196748162Y-85843060D01*
X196762800Y-85878786D01*
X196767944Y-85891174D01*
X196793334Y-85973947D01*
X196796526Y-86054033D01*
X196777752Y-86137932D01*
X196776799Y-86140732D01*
X196770889Y-86159668D01*
X196758808Y-86199845D01*
X196741151Y-86259230D01*
X196718510Y-86335791D01*
X196691481Y-86427495D01*
X196660656Y-86532310D01*
X196626630Y-86648203D01*
X196589997Y-86773141D01*
X196551349Y-86905092D01*
X196511282Y-87042023D01*
X196470388Y-87181902D01*
X196429263Y-87322696D01*
X196388498Y-87462373D01*
X196348689Y-87598899D01*
X196310430Y-87730243D01*
X196274313Y-87854371D01*
X196240933Y-87969252D01*
X196210883Y-88072852D01*
X196184758Y-88163139D01*
X196163152Y-88238080D01*
X196146657Y-88295643D01*
X196135869Y-88333796D01*
X196132465Y-88346208D01*
X196102836Y-88413004D01*
X196054641Y-88470241D01*
X195992533Y-88515309D01*
X195921167Y-88545596D01*
X195845195Y-88558493D01*
X195769271Y-88551390D01*
X195767470Y-88550948D01*
X195726614Y-88537666D01*
X195683247Y-88519247D01*
X195676582Y-88515928D01*
X195661782Y-88509428D01*
X195625448Y-88494019D01*
X195568442Y-88470058D01*
X195491624Y-88437902D01*
X195395857Y-88397911D01*
X195282001Y-88350441D01*
X195150918Y-88295850D01*
X195003469Y-88234497D01*
X194840515Y-88166738D01*
X194662917Y-88092932D01*
X194471537Y-88013436D01*
X194267236Y-87928609D01*
X194050875Y-87838807D01*
X193823315Y-87744390D01*
X193585418Y-87645714D01*
X193338045Y-87543137D01*
X193082057Y-87437017D01*
X192818316Y-87327713D01*
X192547682Y-87215581D01*
X192271017Y-87100979D01*
X192115601Y-87036615D01*
X191836004Y-86920828D01*
X191561973Y-86807341D01*
X191294368Y-86696510D01*
X191034048Y-86588693D01*
X190781876Y-86484246D01*
X190538711Y-86383524D01*
X190305414Y-86286886D01*
X190082845Y-86194687D01*
X189871865Y-86107283D01*
X189673334Y-86025032D01*
X189488113Y-85948290D01*
X189317063Y-85877413D01*
X189161043Y-85812758D01*
X189084893Y-85781198D01*
X190670419Y-85781198D01*
X190681044Y-85786088D01*
X190712748Y-85799691D01*
X190764213Y-85821459D01*
X190834121Y-85850847D01*
X190921152Y-85887306D01*
X191023989Y-85930291D01*
X191141313Y-85979253D01*
X191271805Y-86033648D01*
X191414147Y-86092927D01*
X191567020Y-86156544D01*
X191729106Y-86223952D01*
X191899085Y-86294604D01*
X192075640Y-86367954D01*
X192257452Y-86443454D01*
X192443202Y-86520559D01*
X192631571Y-86598720D01*
X192821242Y-86677391D01*
X193010896Y-86756026D01*
X193199213Y-86834077D01*
X193384876Y-86910998D01*
X193566566Y-86986242D01*
X193742964Y-87059262D01*
X193912751Y-87129512D01*
X194074610Y-87196443D01*
X194227222Y-87259511D01*
X194369267Y-87318167D01*
X194499428Y-87371865D01*
X194616386Y-87420058D01*
X194718822Y-87462200D01*
X194805418Y-87497743D01*
X194874855Y-87526141D01*
X194925815Y-87546847D01*
X194956978Y-87559314D01*
X194967043Y-87563033D01*
X194960729Y-87553008D01*
X194941318Y-87524859D01*
X194909900Y-87480113D01*
X194867561Y-87420300D01*
X194815392Y-87346947D01*
X194754480Y-87261581D01*
X194685915Y-87165730D01*
X194610785Y-87060923D01*
X194530178Y-86948686D01*
X194445184Y-86830549D01*
X194440840Y-86824516D01*
X194355323Y-86705946D01*
X194273741Y-86593178D01*
X194197220Y-86487750D01*
X194126888Y-86391200D01*
X194063873Y-86305065D01*
X194009303Y-86230882D01*
X193964306Y-86170189D01*
X193961607Y-86166596D01*
X194720300Y-86166596D01*
X194725764Y-86177458D01*
X194743999Y-86205803D01*
X194773531Y-86249503D01*
X194812885Y-86306433D01*
X194860588Y-86374465D01*
X194915165Y-86451473D01*
X194975144Y-86535331D01*
X194994794Y-86562649D01*
X195056374Y-86647926D01*
X195113473Y-86726573D01*
X195164566Y-86796522D01*
X195208128Y-86855702D01*
X195242633Y-86902046D01*
X195266555Y-86933482D01*
X195278369Y-86947943D01*
X195279341Y-86948649D01*
X195278056Y-86936273D01*
X195272614Y-86903020D01*
X195263542Y-86851790D01*
X195251371Y-86785486D01*
X195236627Y-86707010D01*
X195219840Y-86619263D01*
X195211679Y-86577113D01*
X195193848Y-86485997D01*
X195177318Y-86402778D01*
X195162690Y-86330375D01*
X195150562Y-86271707D01*
X195149269Y-86265689D01*
X195772447Y-86265689D01*
X195772893Y-86278731D01*
X195777481Y-86311722D01*
X195785517Y-86361025D01*
X195796309Y-86423005D01*
X195809164Y-86494028D01*
X195823388Y-86570458D01*
X195838288Y-86648659D01*
X195853172Y-86724997D01*
X195867347Y-86795835D01*
X195880118Y-86857540D01*
X195890793Y-86906474D01*
X195898680Y-86939004D01*
X195903084Y-86951494D01*
X195903207Y-86951527D01*
X195908400Y-86940369D01*
X195919303Y-86908880D01*
X195934981Y-86860036D01*
X195954502Y-86796816D01*
X195976932Y-86722196D01*
X196001337Y-86639154D01*
X196003579Y-86631438D01*
X196027923Y-86547155D01*
X196049883Y-86470361D01*
X196068588Y-86404166D01*
X196083165Y-86351682D01*
X196092744Y-86316018D01*
X196096452Y-86300283D01*
X196096469Y-86300005D01*
X196085278Y-86295258D01*
X196055297Y-86289433D01*
X196011917Y-86283100D01*
X195960531Y-86276830D01*
X195906528Y-86271194D01*
X195855301Y-86266763D01*
X195812239Y-86264107D01*
X195782735Y-86263799D01*
X195772447Y-86265689D01*
X195149269Y-86265689D01*
X195141534Y-86229694D01*
X195136203Y-86207253D01*
X195135172Y-86204320D01*
X195121490Y-86201042D01*
X195088662Y-86196481D01*
X195041549Y-86191078D01*
X194985015Y-86185275D01*
X194923921Y-86179516D01*
X194863129Y-86174241D01*
X194807500Y-86169893D01*
X194761898Y-86166915D01*
X194731182Y-86165747D01*
X194720300Y-86166596D01*
X193961607Y-86166596D01*
X193930008Y-86124523D01*
X193907539Y-86095422D01*
X193898025Y-86084424D01*
X193897937Y-86084384D01*
X193884332Y-86082669D01*
X193848410Y-86078890D01*
X193791877Y-86073206D01*
X193716438Y-86065779D01*
X193623802Y-86056768D01*
X193515673Y-86046335D01*
X193393759Y-86034638D01*
X193259765Y-86021838D01*
X193115398Y-86008097D01*
X192962366Y-85993573D01*
X192802373Y-85978428D01*
X192637126Y-85962821D01*
X192468332Y-85946913D01*
X192297697Y-85930864D01*
X192126927Y-85914835D01*
X191957729Y-85898986D01*
X191791810Y-85883476D01*
X191630875Y-85868467D01*
X191476631Y-85854119D01*
X191330784Y-85840592D01*
X191195042Y-85828045D01*
X191071109Y-85816641D01*
X190960693Y-85806538D01*
X190865499Y-85797897D01*
X190787235Y-85790879D01*
X190727607Y-85785644D01*
X190688320Y-85782351D01*
X190671082Y-85781162D01*
X190670419Y-85781198D01*
X189084893Y-85781198D01*
X189020914Y-85754682D01*
X188897537Y-85703540D01*
X188791773Y-85659690D01*
X188704481Y-85623488D01*
X188636522Y-85595290D01*
X188588757Y-85575453D01*
X188562046Y-85564334D01*
X188556620Y-85562055D01*
X188488230Y-85520198D01*
X188435366Y-85462323D01*
X188399773Y-85392350D01*
X188383197Y-85314199D01*
X188387384Y-85231788D01*
X188395050Y-85199241D01*
X188405885Y-85166316D01*
X188419281Y-85138713D01*
X188439020Y-85111307D01*
X188468883Y-85078974D01*
X188501531Y-85047360D01*
X189401665Y-85047360D01*
X189401668Y-85047502D01*
X189414249Y-85049344D01*
X189449701Y-85053338D01*
X189506763Y-85059358D01*
X189584177Y-85067283D01*
X189680683Y-85076988D01*
X189795022Y-85088351D01*
X189925934Y-85101248D01*
X190072159Y-85115556D01*
X190232439Y-85131152D01*
X190405514Y-85147912D01*
X190590124Y-85165714D01*
X190785010Y-85184434D01*
X190988913Y-85203949D01*
X191200573Y-85224135D01*
X191410258Y-85244065D01*
X191628246Y-85264753D01*
X191839726Y-85284828D01*
X192043436Y-85304170D01*
X192238112Y-85322658D01*
X192422494Y-85340174D01*
X192595318Y-85356596D01*
X192755323Y-85371804D01*
X192901246Y-85385680D01*
X193031825Y-85398102D01*
X193145797Y-85408951D01*
X193241901Y-85418106D01*
X193318874Y-85425448D01*
X193375454Y-85430857D01*
X193410379Y-85434212D01*
X193422360Y-85435390D01*
X193429167Y-85428357D01*
X193428419Y-85424792D01*
X193420953Y-85413614D01*
X193400185Y-85383994D01*
X193366989Y-85337152D01*
X193322237Y-85274305D01*
X193266803Y-85196673D01*
X193201557Y-85105473D01*
X193127375Y-85001924D01*
X193045127Y-84887245D01*
X192955688Y-84762653D01*
X192859929Y-84629369D01*
X192758725Y-84488609D01*
X192652946Y-84341593D01*
X192576097Y-84234849D01*
X192466905Y-84083211D01*
X192361173Y-83936372D01*
X192329631Y-83892564D01*
X193081037Y-83892564D01*
X193083041Y-83899014D01*
X193097572Y-83922409D01*
X193122856Y-83960127D01*
X193157116Y-84009547D01*
X193198578Y-84068046D01*
X193221078Y-84099359D01*
X193257784Y-84150269D01*
X193306722Y-84218213D01*
X193365982Y-84300538D01*
X193433657Y-84394593D01*
X193507839Y-84497725D01*
X193586621Y-84607282D01*
X193668095Y-84720612D01*
X193750353Y-84835064D01*
X193799550Y-84903531D01*
X193875630Y-85009392D01*
X193947558Y-85109421D01*
X194014080Y-85201878D01*
X194073943Y-85285022D01*
X194125892Y-85357115D01*
X194168674Y-85416416D01*
X194201035Y-85461184D01*
X194221721Y-85489681D01*
X194229437Y-85500119D01*
X194242444Y-85502999D01*
X194276042Y-85507817D01*
X194326696Y-85514196D01*
X194390870Y-85521760D01*
X194465029Y-85530132D01*
X194545639Y-85538935D01*
X194629164Y-85547792D01*
X194712069Y-85556326D01*
X194790819Y-85564160D01*
X194861879Y-85570917D01*
X194921713Y-85576221D01*
X194966787Y-85579694D01*
X194985927Y-85580769D01*
X195010040Y-85579141D01*
X195016268Y-85567788D01*
X195014114Y-85554891D01*
X195009113Y-85530978D01*
X195001268Y-85490397D01*
X194991956Y-85440343D01*
X194987999Y-85418560D01*
X194978584Y-85367743D01*
X194970102Y-85324462D01*
X194963886Y-85295417D01*
X194962219Y-85288898D01*
X194952139Y-85279932D01*
X194924162Y-85257816D01*
X194879919Y-85223757D01*
X194821038Y-85178966D01*
X194749149Y-85124650D01*
X194665880Y-85062021D01*
X194572860Y-84992285D01*
X194471718Y-84916653D01*
X194364083Y-84836333D01*
X194251583Y-84752535D01*
X194135849Y-84666468D01*
X194018508Y-84579341D01*
X193901189Y-84492362D01*
X193785522Y-84406742D01*
X193673136Y-84323688D01*
X193565658Y-84244411D01*
X193464719Y-84170118D01*
X193371947Y-84102021D01*
X193288971Y-84041326D01*
X193217420Y-83989244D01*
X193158923Y-83946984D01*
X193115109Y-83915754D01*
X193087606Y-83896764D01*
X193081037Y-83892564D01*
X192329631Y-83892564D01*
X192259820Y-83795607D01*
X192163765Y-83662193D01*
X192073926Y-83537405D01*
X191991222Y-83422519D01*
X191916570Y-83318811D01*
X191850890Y-83227558D01*
X191795099Y-83150034D01*
X191750117Y-83087517D01*
X191716862Y-83041281D01*
X191696252Y-83012604D01*
X191690055Y-83003960D01*
X191652295Y-82951069D01*
X190523689Y-83995993D01*
X190383631Y-84125763D01*
X190248680Y-84250994D01*
X190119886Y-84370700D01*
X189998299Y-84483899D01*
X189884969Y-84589604D01*
X189780948Y-84686831D01*
X189687285Y-84774597D01*
X189605031Y-84851916D01*
X189535237Y-84917805D01*
X189478953Y-84971278D01*
X189437229Y-85011351D01*
X189411116Y-85037040D01*
X189401665Y-85047360D01*
X188501531Y-85047360D01*
X188512652Y-85036591D01*
X188520658Y-85029043D01*
X188541651Y-85009432D01*
X188579361Y-84974366D01*
X188632712Y-84924842D01*
X188700624Y-84861860D01*
X188782020Y-84786417D01*
X188875822Y-84699511D01*
X188980952Y-84602141D01*
X189096331Y-84495305D01*
X189220883Y-84380001D01*
X189353529Y-84257228D01*
X189493190Y-84127983D01*
X189638790Y-83993266D01*
X189789250Y-83854073D01*
X189943492Y-83711405D01*
X189958540Y-83697487D01*
X190113198Y-83554415D01*
X190264232Y-83414635D01*
X190410559Y-83279152D01*
X190551095Y-83148971D01*
X190684758Y-83025097D01*
X190810465Y-82908535D01*
X190927132Y-82800292D01*
X191033677Y-82701370D01*
X191129017Y-82612777D01*
X191212068Y-82535517D01*
X191281748Y-82470596D01*
X191336973Y-82419018D01*
X191376661Y-82381788D01*
X191399728Y-82359913D01*
X191400943Y-82358740D01*
X191465782Y-82298425D01*
X191519828Y-82254662D01*
X191567437Y-82225086D01*
X191612965Y-82207331D01*
X191660768Y-82199032D01*
X191697685Y-82197581D01*
X191729955Y-82198168D01*
X191758220Y-82201024D01*
X191785579Y-82207794D01*
X191815134Y-82220121D01*
X191849982Y-82239650D01*
X191893223Y-82268024D01*
X191947959Y-82306887D01*
X192017287Y-82357884D01*
X192060474Y-82389997D01*
X192122746Y-82436267D01*
X192199057Y-82492790D01*
X192288077Y-82558589D01*
X192388477Y-82632690D01*
X192498927Y-82714116D01*
X192618096Y-82801893D01*
X192744655Y-82895044D01*
X192877274Y-82992594D01*
X193014623Y-83093567D01*
X193155371Y-83196988D01*
X193298190Y-83301881D01*
X193441749Y-83407270D01*
X193584719Y-83512180D01*
X193725768Y-83615635D01*
X193863569Y-83716660D01*
X193996789Y-83814278D01*
X194124100Y-83907515D01*
X194244172Y-83995395D01*
X194355674Y-84076941D01*
X194457278Y-84151179D01*
X194547652Y-84217133D01*
X194625467Y-84273827D01*
X194689393Y-84320285D01*
X194738100Y-84355532D01*
X194770259Y-84378593D01*
X194784538Y-84388491D01*
X194785155Y-84388802D01*
X194783299Y-84376737D01*
X194777064Y-84342218D01*
X194766706Y-84286580D01*
X194752481Y-84211157D01*
X194734645Y-84117286D01*
X194713455Y-84006300D01*
X194702952Y-83951480D01*
X195323680Y-83951480D01*
X195324815Y-83964058D01*
X195330131Y-83997892D01*
X195339169Y-84050445D01*
X195351475Y-84119186D01*
X195366592Y-84201578D01*
X195384063Y-84295087D01*
X195403433Y-84397181D01*
X195411460Y-84439073D01*
X195434593Y-84559171D01*
X195453781Y-84657723D01*
X195469585Y-84736998D01*
X195482564Y-84799262D01*
X195493281Y-84846785D01*
X195502294Y-84881835D01*
X195510166Y-84906679D01*
X195517455Y-84923586D01*
X195524724Y-84934824D01*
X195532531Y-84942661D01*
X195536721Y-84945945D01*
X195559385Y-84962859D01*
X195596128Y-84990307D01*
X195641619Y-85024305D01*
X195684407Y-85056294D01*
X195729519Y-85089424D01*
X195767175Y-85115943D01*
X195793434Y-85133153D01*
X195804350Y-85138362D01*
X195800853Y-85126695D01*
X195789042Y-85094663D01*
X195769738Y-85044352D01*
X195743761Y-84977846D01*
X195711933Y-84897230D01*
X195675074Y-84804588D01*
X195634006Y-84702005D01*
X195589550Y-84591567D01*
X195568883Y-84540420D01*
X195523040Y-84427410D01*
X195479880Y-84321623D01*
X195440256Y-84225108D01*
X195405022Y-84139914D01*
X195375028Y-84068088D01*
X195351130Y-84011680D01*
X195334179Y-83972737D01*
X195325028Y-83953308D01*
X195323680Y-83951480D01*
X194702952Y-83951480D01*
X194698454Y-83928006D01*
X195308779Y-83928006D01*
X195314838Y-83934065D01*
X195320897Y-83928006D01*
X195314838Y-83921947D01*
X195308779Y-83928006D01*
X194698454Y-83928006D01*
X194689167Y-83879536D01*
X194662037Y-83738328D01*
X194632320Y-83584011D01*
X194600274Y-83417920D01*
X194566154Y-83241391D01*
X194530216Y-83055758D01*
X194492717Y-82862357D01*
X194458159Y-82684374D01*
X194404315Y-82406702D01*
X194355290Y-82152719D01*
X194311072Y-81922364D01*
X194271648Y-81715576D01*
X194237009Y-81532293D01*
X194207142Y-81372455D01*
X194182036Y-81235999D01*
X194161679Y-81122865D01*
X194146061Y-81032991D01*
X194135169Y-80966316D01*
X194128994Y-80922779D01*
X194127440Y-80904485D01*
X194137139Y-80818940D01*
X194166970Y-80746627D01*
X194217342Y-80686696D01*
X194240915Y-80667745D01*
X194317875Y-80624823D01*
X194397413Y-80605948D01*
X194478670Y-80611175D01*
G37*
G04 #@! TD*
D11*
G04 #@! TO.C,J4*
X160475000Y-126970000D03*
X155425000Y-126970000D03*
X160475000Y-124430000D03*
X155425000Y-124430000D03*
G04 #@! TD*
D12*
G04 #@! TO.C,J5*
X157250000Y-105800000D03*
X158750000Y-105800000D03*
X157250000Y-105165000D03*
X158750000Y-105165000D03*
X157250000Y-104530000D03*
X158750000Y-104530000D03*
X157250000Y-103895000D03*
X158750000Y-103895000D03*
X157250000Y-103260000D03*
X158750000Y-103260000D03*
X157250000Y-102625000D03*
X158750000Y-102625000D03*
X157250000Y-101990000D03*
X158750000Y-101990000D03*
X157250000Y-101355000D03*
X158750000Y-101355000D03*
X157250000Y-100720000D03*
X158750000Y-100720000D03*
X157250000Y-100085000D03*
X158750000Y-100085000D03*
X157250000Y-99450000D03*
X158750000Y-99450000D03*
X157250000Y-98815000D03*
X158750000Y-98815000D03*
X157250000Y-98180000D03*
X158750000Y-98180000D03*
X157250000Y-97545000D03*
X158750000Y-97545000D03*
X157250000Y-96910000D03*
X158750000Y-96910000D03*
X157250000Y-96275000D03*
X158750000Y-96275000D03*
X157250000Y-95640000D03*
X158750000Y-95640000D03*
X157250000Y-95005000D03*
X158750000Y-95005000D03*
G04 #@! TD*
D13*
G04 #@! TO.C,R3*
X122690000Y-120000000D03*
X123710000Y-120000000D03*
G04 #@! TD*
G04 #@! TO.C,R1*
X120790000Y-121100000D03*
X121810000Y-121100000D03*
G04 #@! TD*
D14*
G04 #@! TO.C,U1*
X121295000Y-128175000D03*
X122565000Y-128175000D03*
X123835000Y-128175000D03*
X125105000Y-128175000D03*
X125105000Y-123225000D03*
X123835000Y-123225000D03*
X122565000Y-123225000D03*
X121295000Y-123225000D03*
G04 #@! TD*
D13*
G04 #@! TO.C,R2*
X124090000Y-118800000D03*
X125110000Y-118800000D03*
G04 #@! TD*
D15*
G04 #@! TO.C,C1*
X119700000Y-125220000D03*
X119700000Y-126180000D03*
G04 #@! TD*
D16*
G04 #@! TO.C,J2*
X120330000Y-81935000D03*
X120330000Y-118065000D03*
G04 #@! TD*
G04 #@! TO.C,J3*
X190330000Y-81935000D03*
X190330000Y-118065000D03*
G04 #@! TD*
M02*
