G04 #@! TF.GenerationSoftware,KiCad,Pcbnew,9.0.0*
G04 #@! TF.CreationDate,2025-04-07T23:01:42+01:00*
G04 #@! TF.ProjectId,ephys-test-module-32,65706879-732d-4746-9573-742d6d6f6475,A*
G04 #@! TF.SameCoordinates,Original*
G04 #@! TF.FileFunction,Legend,Top*
G04 #@! TF.FilePolarity,Positive*
%FSLAX46Y46*%
G04 Gerber Fmt 4.6, Leading zero omitted, Abs format (unit mm)*
G04 Created by KiCad (PCBNEW 9.0.0) date 2025-04-07 23:01:42*
%MOMM*%
%LPD*%
G01*
G04 APERTURE LIST*
%ADD10C,0.150000*%
%ADD11C,0.200000*%
%ADD12C,0.300000*%
%ADD13C,0.120000*%
%ADD14C,0.100000*%
G04 APERTURE END LIST*
D10*
X164941990Y-99362856D02*
X164941990Y-99029523D01*
X164418180Y-99029523D02*
X165418180Y-99029523D01*
X165418180Y-99029523D02*
X165418180Y-99505713D01*
X164418180Y-99886666D02*
X165084847Y-99886666D01*
X164894371Y-99886666D02*
X164989609Y-99934285D01*
X164989609Y-99934285D02*
X165037228Y-99981904D01*
X165037228Y-99981904D02*
X165084847Y-100077142D01*
X165084847Y-100077142D02*
X165084847Y-100172380D01*
X164418180Y-100648571D02*
X164465800Y-100553333D01*
X164465800Y-100553333D02*
X164513419Y-100505714D01*
X164513419Y-100505714D02*
X164608657Y-100458095D01*
X164608657Y-100458095D02*
X164894371Y-100458095D01*
X164894371Y-100458095D02*
X164989609Y-100505714D01*
X164989609Y-100505714D02*
X165037228Y-100553333D01*
X165037228Y-100553333D02*
X165084847Y-100648571D01*
X165084847Y-100648571D02*
X165084847Y-100791428D01*
X165084847Y-100791428D02*
X165037228Y-100886666D01*
X165037228Y-100886666D02*
X164989609Y-100934285D01*
X164989609Y-100934285D02*
X164894371Y-100981904D01*
X164894371Y-100981904D02*
X164608657Y-100981904D01*
X164608657Y-100981904D02*
X164513419Y-100934285D01*
X164513419Y-100934285D02*
X164465800Y-100886666D01*
X164465800Y-100886666D02*
X164418180Y-100791428D01*
X164418180Y-100791428D02*
X164418180Y-100648571D01*
X165084847Y-101410476D02*
X164418180Y-101410476D01*
X164989609Y-101410476D02*
X165037228Y-101458095D01*
X165037228Y-101458095D02*
X165084847Y-101553333D01*
X165084847Y-101553333D02*
X165084847Y-101696190D01*
X165084847Y-101696190D02*
X165037228Y-101791428D01*
X165037228Y-101791428D02*
X164941990Y-101839047D01*
X164941990Y-101839047D02*
X164418180Y-101839047D01*
X165084847Y-102172381D02*
X165084847Y-102553333D01*
X165418180Y-102315238D02*
X164561038Y-102315238D01*
X164561038Y-102315238D02*
X164465800Y-102362857D01*
X164465800Y-102362857D02*
X164418180Y-102458095D01*
X164418180Y-102458095D02*
X164418180Y-102553333D01*
D11*
X149349524Y-123922909D02*
X149225714Y-123861004D01*
X149225714Y-123861004D02*
X149040000Y-123861004D01*
X149040000Y-123861004D02*
X148854286Y-123922909D01*
X148854286Y-123922909D02*
X148730476Y-124046719D01*
X148730476Y-124046719D02*
X148668571Y-124170528D01*
X148668571Y-124170528D02*
X148606667Y-124418147D01*
X148606667Y-124418147D02*
X148606667Y-124603861D01*
X148606667Y-124603861D02*
X148668571Y-124851480D01*
X148668571Y-124851480D02*
X148730476Y-124975290D01*
X148730476Y-124975290D02*
X148854286Y-125099100D01*
X148854286Y-125099100D02*
X149040000Y-125161004D01*
X149040000Y-125161004D02*
X149163809Y-125161004D01*
X149163809Y-125161004D02*
X149349524Y-125099100D01*
X149349524Y-125099100D02*
X149411428Y-125037195D01*
X149411428Y-125037195D02*
X149411428Y-124603861D01*
X149411428Y-124603861D02*
X149163809Y-124603861D01*
X149968571Y-125161004D02*
X149968571Y-123861004D01*
X149968571Y-123861004D02*
X150711428Y-125161004D01*
X150711428Y-125161004D02*
X150711428Y-123861004D01*
X151330476Y-125161004D02*
X151330476Y-123861004D01*
X151330476Y-123861004D02*
X151640000Y-123861004D01*
X151640000Y-123861004D02*
X151825714Y-123922909D01*
X151825714Y-123922909D02*
X151949524Y-124046719D01*
X151949524Y-124046719D02*
X152011429Y-124170528D01*
X152011429Y-124170528D02*
X152073333Y-124418147D01*
X152073333Y-124418147D02*
X152073333Y-124603861D01*
X152073333Y-124603861D02*
X152011429Y-124851480D01*
X152011429Y-124851480D02*
X151949524Y-124975290D01*
X151949524Y-124975290D02*
X151825714Y-125099100D01*
X151825714Y-125099100D02*
X151640000Y-125161004D01*
X151640000Y-125161004D02*
X151330476Y-125161004D01*
D10*
X151095990Y-99505714D02*
X151048371Y-99648571D01*
X151048371Y-99648571D02*
X151000752Y-99696190D01*
X151000752Y-99696190D02*
X150905514Y-99743809D01*
X150905514Y-99743809D02*
X150762657Y-99743809D01*
X150762657Y-99743809D02*
X150667419Y-99696190D01*
X150667419Y-99696190D02*
X150619800Y-99648571D01*
X150619800Y-99648571D02*
X150572180Y-99553333D01*
X150572180Y-99553333D02*
X150572180Y-99172381D01*
X150572180Y-99172381D02*
X151572180Y-99172381D01*
X151572180Y-99172381D02*
X151572180Y-99505714D01*
X151572180Y-99505714D02*
X151524561Y-99600952D01*
X151524561Y-99600952D02*
X151476942Y-99648571D01*
X151476942Y-99648571D02*
X151381704Y-99696190D01*
X151381704Y-99696190D02*
X151286466Y-99696190D01*
X151286466Y-99696190D02*
X151191228Y-99648571D01*
X151191228Y-99648571D02*
X151143609Y-99600952D01*
X151143609Y-99600952D02*
X151095990Y-99505714D01*
X151095990Y-99505714D02*
X151095990Y-99172381D01*
X150572180Y-100600952D02*
X151095990Y-100600952D01*
X151095990Y-100600952D02*
X151191228Y-100553333D01*
X151191228Y-100553333D02*
X151238847Y-100458095D01*
X151238847Y-100458095D02*
X151238847Y-100267619D01*
X151238847Y-100267619D02*
X151191228Y-100172381D01*
X150619800Y-100600952D02*
X150572180Y-100505714D01*
X150572180Y-100505714D02*
X150572180Y-100267619D01*
X150572180Y-100267619D02*
X150619800Y-100172381D01*
X150619800Y-100172381D02*
X150715038Y-100124762D01*
X150715038Y-100124762D02*
X150810276Y-100124762D01*
X150810276Y-100124762D02*
X150905514Y-100172381D01*
X150905514Y-100172381D02*
X150953133Y-100267619D01*
X150953133Y-100267619D02*
X150953133Y-100505714D01*
X150953133Y-100505714D02*
X151000752Y-100600952D01*
X150619800Y-101505714D02*
X150572180Y-101410476D01*
X150572180Y-101410476D02*
X150572180Y-101220000D01*
X150572180Y-101220000D02*
X150619800Y-101124762D01*
X150619800Y-101124762D02*
X150667419Y-101077143D01*
X150667419Y-101077143D02*
X150762657Y-101029524D01*
X150762657Y-101029524D02*
X151048371Y-101029524D01*
X151048371Y-101029524D02*
X151143609Y-101077143D01*
X151143609Y-101077143D02*
X151191228Y-101124762D01*
X151191228Y-101124762D02*
X151238847Y-101220000D01*
X151238847Y-101220000D02*
X151238847Y-101410476D01*
X151238847Y-101410476D02*
X151191228Y-101505714D01*
X150572180Y-101934286D02*
X151572180Y-101934286D01*
X150953133Y-102029524D02*
X150572180Y-102315238D01*
X151238847Y-102315238D02*
X150857895Y-101934286D01*
D11*
X164597142Y-125161004D02*
X164163809Y-124541957D01*
X163854285Y-125161004D02*
X163854285Y-123861004D01*
X163854285Y-123861004D02*
X164349523Y-123861004D01*
X164349523Y-123861004D02*
X164473333Y-123922909D01*
X164473333Y-123922909D02*
X164535238Y-123984814D01*
X164535238Y-123984814D02*
X164597142Y-124108623D01*
X164597142Y-124108623D02*
X164597142Y-124294338D01*
X164597142Y-124294338D02*
X164535238Y-124418147D01*
X164535238Y-124418147D02*
X164473333Y-124480052D01*
X164473333Y-124480052D02*
X164349523Y-124541957D01*
X164349523Y-124541957D02*
X163854285Y-124541957D01*
X165154285Y-124480052D02*
X165587619Y-124480052D01*
X165773333Y-125161004D02*
X165154285Y-125161004D01*
X165154285Y-125161004D02*
X165154285Y-123861004D01*
X165154285Y-123861004D02*
X165773333Y-123861004D01*
X166763809Y-124480052D02*
X166330475Y-124480052D01*
X166330475Y-125161004D02*
X166330475Y-123861004D01*
X166330475Y-123861004D02*
X166949523Y-123861004D01*
X164597142Y-127661004D02*
X164163809Y-127041957D01*
X163854285Y-127661004D02*
X163854285Y-126361004D01*
X163854285Y-126361004D02*
X164349523Y-126361004D01*
X164349523Y-126361004D02*
X164473333Y-126422909D01*
X164473333Y-126422909D02*
X164535238Y-126484814D01*
X164535238Y-126484814D02*
X164597142Y-126608623D01*
X164597142Y-126608623D02*
X164597142Y-126794338D01*
X164597142Y-126794338D02*
X164535238Y-126918147D01*
X164535238Y-126918147D02*
X164473333Y-126980052D01*
X164473333Y-126980052D02*
X164349523Y-127041957D01*
X164349523Y-127041957D02*
X163854285Y-127041957D01*
X165154285Y-126980052D02*
X165587619Y-126980052D01*
X165773333Y-127661004D02*
X165154285Y-127661004D01*
X165154285Y-127661004D02*
X165154285Y-126361004D01*
X165154285Y-126361004D02*
X165773333Y-126361004D01*
X166763809Y-126980052D02*
X166330475Y-126980052D01*
X166330475Y-127661004D02*
X166330475Y-126361004D01*
X166330475Y-126361004D02*
X166949523Y-126361004D01*
X149349524Y-126422909D02*
X149225714Y-126361004D01*
X149225714Y-126361004D02*
X149040000Y-126361004D01*
X149040000Y-126361004D02*
X148854286Y-126422909D01*
X148854286Y-126422909D02*
X148730476Y-126546719D01*
X148730476Y-126546719D02*
X148668571Y-126670528D01*
X148668571Y-126670528D02*
X148606667Y-126918147D01*
X148606667Y-126918147D02*
X148606667Y-127103861D01*
X148606667Y-127103861D02*
X148668571Y-127351480D01*
X148668571Y-127351480D02*
X148730476Y-127475290D01*
X148730476Y-127475290D02*
X148854286Y-127599100D01*
X148854286Y-127599100D02*
X149040000Y-127661004D01*
X149040000Y-127661004D02*
X149163809Y-127661004D01*
X149163809Y-127661004D02*
X149349524Y-127599100D01*
X149349524Y-127599100D02*
X149411428Y-127537195D01*
X149411428Y-127537195D02*
X149411428Y-127103861D01*
X149411428Y-127103861D02*
X149163809Y-127103861D01*
X149968571Y-127661004D02*
X149968571Y-126361004D01*
X149968571Y-126361004D02*
X150711428Y-127661004D01*
X150711428Y-127661004D02*
X150711428Y-126361004D01*
X151330476Y-127661004D02*
X151330476Y-126361004D01*
X151330476Y-126361004D02*
X151640000Y-126361004D01*
X151640000Y-126361004D02*
X151825714Y-126422909D01*
X151825714Y-126422909D02*
X151949524Y-126546719D01*
X151949524Y-126546719D02*
X152011429Y-126670528D01*
X152011429Y-126670528D02*
X152073333Y-126918147D01*
X152073333Y-126918147D02*
X152073333Y-127103861D01*
X152073333Y-127103861D02*
X152011429Y-127351480D01*
X152011429Y-127351480D02*
X151949524Y-127475290D01*
X151949524Y-127475290D02*
X151825714Y-127599100D01*
X151825714Y-127599100D02*
X151640000Y-127661004D01*
X151640000Y-127661004D02*
X151330476Y-127661004D01*
D12*
X112602129Y-81843472D02*
X113168796Y-81843472D01*
X113411653Y-82733948D02*
X112602129Y-82733948D01*
X112602129Y-82733948D02*
X112602129Y-81033948D01*
X112602129Y-81033948D02*
X113411653Y-81033948D01*
X114140224Y-81600615D02*
X114140224Y-83300615D01*
X114140224Y-81681567D02*
X114302129Y-81600615D01*
X114302129Y-81600615D02*
X114625939Y-81600615D01*
X114625939Y-81600615D02*
X114787843Y-81681567D01*
X114787843Y-81681567D02*
X114868796Y-81762519D01*
X114868796Y-81762519D02*
X114949748Y-81924424D01*
X114949748Y-81924424D02*
X114949748Y-82410138D01*
X114949748Y-82410138D02*
X114868796Y-82572043D01*
X114868796Y-82572043D02*
X114787843Y-82652996D01*
X114787843Y-82652996D02*
X114625939Y-82733948D01*
X114625939Y-82733948D02*
X114302129Y-82733948D01*
X114302129Y-82733948D02*
X114140224Y-82652996D01*
X115678319Y-82733948D02*
X115678319Y-81033948D01*
X116406891Y-82733948D02*
X116406891Y-81843472D01*
X116406891Y-81843472D02*
X116325938Y-81681567D01*
X116325938Y-81681567D02*
X116164034Y-81600615D01*
X116164034Y-81600615D02*
X115921177Y-81600615D01*
X115921177Y-81600615D02*
X115759272Y-81681567D01*
X115759272Y-81681567D02*
X115678319Y-81762519D01*
X117054510Y-81600615D02*
X117459272Y-82733948D01*
X117864033Y-81600615D02*
X117459272Y-82733948D01*
X117459272Y-82733948D02*
X117297367Y-83138710D01*
X117297367Y-83138710D02*
X117216414Y-83219662D01*
X117216414Y-83219662D02*
X117054510Y-83300615D01*
X118430700Y-82652996D02*
X118592605Y-82733948D01*
X118592605Y-82733948D02*
X118916414Y-82733948D01*
X118916414Y-82733948D02*
X119078319Y-82652996D01*
X119078319Y-82652996D02*
X119159271Y-82491091D01*
X119159271Y-82491091D02*
X119159271Y-82410138D01*
X119159271Y-82410138D02*
X119078319Y-82248234D01*
X119078319Y-82248234D02*
X118916414Y-82167281D01*
X118916414Y-82167281D02*
X118673557Y-82167281D01*
X118673557Y-82167281D02*
X118511652Y-82086329D01*
X118511652Y-82086329D02*
X118430700Y-81924424D01*
X118430700Y-81924424D02*
X118430700Y-81843472D01*
X118430700Y-81843472D02*
X118511652Y-81681567D01*
X118511652Y-81681567D02*
X118673557Y-81600615D01*
X118673557Y-81600615D02*
X118916414Y-81600615D01*
X118916414Y-81600615D02*
X119078319Y-81681567D01*
X120940223Y-81033948D02*
X121911652Y-81033948D01*
X121425938Y-82733948D02*
X121425938Y-81033948D01*
X123125937Y-82652996D02*
X122964033Y-82733948D01*
X122964033Y-82733948D02*
X122640223Y-82733948D01*
X122640223Y-82733948D02*
X122478318Y-82652996D01*
X122478318Y-82652996D02*
X122397366Y-82491091D01*
X122397366Y-82491091D02*
X122397366Y-81843472D01*
X122397366Y-81843472D02*
X122478318Y-81681567D01*
X122478318Y-81681567D02*
X122640223Y-81600615D01*
X122640223Y-81600615D02*
X122964033Y-81600615D01*
X122964033Y-81600615D02*
X123125937Y-81681567D01*
X123125937Y-81681567D02*
X123206890Y-81843472D01*
X123206890Y-81843472D02*
X123206890Y-82005376D01*
X123206890Y-82005376D02*
X122397366Y-82167281D01*
X123854509Y-82652996D02*
X124016414Y-82733948D01*
X124016414Y-82733948D02*
X124340223Y-82733948D01*
X124340223Y-82733948D02*
X124502128Y-82652996D01*
X124502128Y-82652996D02*
X124583080Y-82491091D01*
X124583080Y-82491091D02*
X124583080Y-82410138D01*
X124583080Y-82410138D02*
X124502128Y-82248234D01*
X124502128Y-82248234D02*
X124340223Y-82167281D01*
X124340223Y-82167281D02*
X124097366Y-82167281D01*
X124097366Y-82167281D02*
X123935461Y-82086329D01*
X123935461Y-82086329D02*
X123854509Y-81924424D01*
X123854509Y-81924424D02*
X123854509Y-81843472D01*
X123854509Y-81843472D02*
X123935461Y-81681567D01*
X123935461Y-81681567D02*
X124097366Y-81600615D01*
X124097366Y-81600615D02*
X124340223Y-81600615D01*
X124340223Y-81600615D02*
X124502128Y-81681567D01*
X125068794Y-81600615D02*
X125716413Y-81600615D01*
X125311651Y-81033948D02*
X125311651Y-82491091D01*
X125311651Y-82491091D02*
X125392604Y-82652996D01*
X125392604Y-82652996D02*
X125554509Y-82733948D01*
X125554509Y-82733948D02*
X125716413Y-82733948D01*
X127578318Y-82733948D02*
X127578318Y-81033948D01*
X127578318Y-81033948D02*
X128144985Y-82248234D01*
X128144985Y-82248234D02*
X128711652Y-81033948D01*
X128711652Y-81033948D02*
X128711652Y-82733948D01*
X129764033Y-82733948D02*
X129602128Y-82652996D01*
X129602128Y-82652996D02*
X129521175Y-82572043D01*
X129521175Y-82572043D02*
X129440223Y-82410138D01*
X129440223Y-82410138D02*
X129440223Y-81924424D01*
X129440223Y-81924424D02*
X129521175Y-81762519D01*
X129521175Y-81762519D02*
X129602128Y-81681567D01*
X129602128Y-81681567D02*
X129764033Y-81600615D01*
X129764033Y-81600615D02*
X130006890Y-81600615D01*
X130006890Y-81600615D02*
X130168794Y-81681567D01*
X130168794Y-81681567D02*
X130249747Y-81762519D01*
X130249747Y-81762519D02*
X130330699Y-81924424D01*
X130330699Y-81924424D02*
X130330699Y-82410138D01*
X130330699Y-82410138D02*
X130249747Y-82572043D01*
X130249747Y-82572043D02*
X130168794Y-82652996D01*
X130168794Y-82652996D02*
X130006890Y-82733948D01*
X130006890Y-82733948D02*
X129764033Y-82733948D01*
X131787842Y-82733948D02*
X131787842Y-81033948D01*
X131787842Y-82652996D02*
X131625937Y-82733948D01*
X131625937Y-82733948D02*
X131302128Y-82733948D01*
X131302128Y-82733948D02*
X131140223Y-82652996D01*
X131140223Y-82652996D02*
X131059270Y-82572043D01*
X131059270Y-82572043D02*
X130978318Y-82410138D01*
X130978318Y-82410138D02*
X130978318Y-81924424D01*
X130978318Y-81924424D02*
X131059270Y-81762519D01*
X131059270Y-81762519D02*
X131140223Y-81681567D01*
X131140223Y-81681567D02*
X131302128Y-81600615D01*
X131302128Y-81600615D02*
X131625937Y-81600615D01*
X131625937Y-81600615D02*
X131787842Y-81681567D01*
X133325937Y-81600615D02*
X133325937Y-82733948D01*
X132597365Y-81600615D02*
X132597365Y-82491091D01*
X132597365Y-82491091D02*
X132678318Y-82652996D01*
X132678318Y-82652996D02*
X132840223Y-82733948D01*
X132840223Y-82733948D02*
X133083080Y-82733948D01*
X133083080Y-82733948D02*
X133244984Y-82652996D01*
X133244984Y-82652996D02*
X133325937Y-82572043D01*
X134378318Y-82733948D02*
X134216413Y-82652996D01*
X134216413Y-82652996D02*
X134135460Y-82491091D01*
X134135460Y-82491091D02*
X134135460Y-81033948D01*
X135673555Y-82652996D02*
X135511651Y-82733948D01*
X135511651Y-82733948D02*
X135187841Y-82733948D01*
X135187841Y-82733948D02*
X135025936Y-82652996D01*
X135025936Y-82652996D02*
X134944984Y-82491091D01*
X134944984Y-82491091D02*
X134944984Y-81843472D01*
X134944984Y-81843472D02*
X135025936Y-81681567D01*
X135025936Y-81681567D02*
X135187841Y-81600615D01*
X135187841Y-81600615D02*
X135511651Y-81600615D01*
X135511651Y-81600615D02*
X135673555Y-81681567D01*
X135673555Y-81681567D02*
X135754508Y-81843472D01*
X135754508Y-81843472D02*
X135754508Y-82005376D01*
X135754508Y-82005376D02*
X134944984Y-82167281D01*
X112925939Y-83770853D02*
X113249748Y-83770853D01*
X113249748Y-83770853D02*
X113411653Y-83851805D01*
X113411653Y-83851805D02*
X113573558Y-84013710D01*
X113573558Y-84013710D02*
X113654510Y-84337520D01*
X113654510Y-84337520D02*
X113654510Y-84904186D01*
X113654510Y-84904186D02*
X113573558Y-85227996D01*
X113573558Y-85227996D02*
X113411653Y-85389901D01*
X113411653Y-85389901D02*
X113249748Y-85470853D01*
X113249748Y-85470853D02*
X112925939Y-85470853D01*
X112925939Y-85470853D02*
X112764034Y-85389901D01*
X112764034Y-85389901D02*
X112602129Y-85227996D01*
X112602129Y-85227996D02*
X112521177Y-84904186D01*
X112521177Y-84904186D02*
X112521177Y-84337520D01*
X112521177Y-84337520D02*
X112602129Y-84013710D01*
X112602129Y-84013710D02*
X112764034Y-83851805D01*
X112764034Y-83851805D02*
X112925939Y-83770853D01*
X114383081Y-85470853D02*
X114383081Y-84337520D01*
X114383081Y-84499424D02*
X114464034Y-84418472D01*
X114464034Y-84418472D02*
X114625939Y-84337520D01*
X114625939Y-84337520D02*
X114868796Y-84337520D01*
X114868796Y-84337520D02*
X115030700Y-84418472D01*
X115030700Y-84418472D02*
X115111653Y-84580377D01*
X115111653Y-84580377D02*
X115111653Y-85470853D01*
X115111653Y-84580377D02*
X115192605Y-84418472D01*
X115192605Y-84418472D02*
X115354510Y-84337520D01*
X115354510Y-84337520D02*
X115597367Y-84337520D01*
X115597367Y-84337520D02*
X115759272Y-84418472D01*
X115759272Y-84418472D02*
X115840224Y-84580377D01*
X115840224Y-84580377D02*
X115840224Y-85470853D01*
X116649748Y-84337520D02*
X116649748Y-85470853D01*
X116649748Y-84499424D02*
X116730701Y-84418472D01*
X116730701Y-84418472D02*
X116892606Y-84337520D01*
X116892606Y-84337520D02*
X117135463Y-84337520D01*
X117135463Y-84337520D02*
X117297367Y-84418472D01*
X117297367Y-84418472D02*
X117378320Y-84580377D01*
X117378320Y-84580377D02*
X117378320Y-85470853D01*
X118835462Y-85389901D02*
X118673558Y-85470853D01*
X118673558Y-85470853D02*
X118349748Y-85470853D01*
X118349748Y-85470853D02*
X118187843Y-85389901D01*
X118187843Y-85389901D02*
X118106891Y-85227996D01*
X118106891Y-85227996D02*
X118106891Y-84580377D01*
X118106891Y-84580377D02*
X118187843Y-84418472D01*
X118187843Y-84418472D02*
X118349748Y-84337520D01*
X118349748Y-84337520D02*
X118673558Y-84337520D01*
X118673558Y-84337520D02*
X118835462Y-84418472D01*
X118835462Y-84418472D02*
X118916415Y-84580377D01*
X118916415Y-84580377D02*
X118916415Y-84742281D01*
X118916415Y-84742281D02*
X118106891Y-84904186D01*
X119402129Y-84337520D02*
X120049748Y-84337520D01*
X119644986Y-83770853D02*
X119644986Y-85227996D01*
X119644986Y-85227996D02*
X119725939Y-85389901D01*
X119725939Y-85389901D02*
X119887844Y-85470853D01*
X119887844Y-85470853D02*
X120049748Y-85470853D01*
X120616415Y-85470853D02*
X120616415Y-84337520D01*
X120616415Y-83770853D02*
X120535463Y-83851805D01*
X120535463Y-83851805D02*
X120616415Y-83932758D01*
X120616415Y-83932758D02*
X120697368Y-83851805D01*
X120697368Y-83851805D02*
X120616415Y-83770853D01*
X120616415Y-83770853D02*
X120616415Y-83932758D01*
X122154511Y-85389901D02*
X121992606Y-85470853D01*
X121992606Y-85470853D02*
X121668797Y-85470853D01*
X121668797Y-85470853D02*
X121506892Y-85389901D01*
X121506892Y-85389901D02*
X121425939Y-85308948D01*
X121425939Y-85308948D02*
X121344987Y-85147043D01*
X121344987Y-85147043D02*
X121344987Y-84661329D01*
X121344987Y-84661329D02*
X121425939Y-84499424D01*
X121425939Y-84499424D02*
X121506892Y-84418472D01*
X121506892Y-84418472D02*
X121668797Y-84337520D01*
X121668797Y-84337520D02*
X121992606Y-84337520D01*
X121992606Y-84337520D02*
X122154511Y-84418472D01*
X122802130Y-85389901D02*
X122964035Y-85470853D01*
X122964035Y-85470853D02*
X123287844Y-85470853D01*
X123287844Y-85470853D02*
X123449749Y-85389901D01*
X123449749Y-85389901D02*
X123530701Y-85227996D01*
X123530701Y-85227996D02*
X123530701Y-85147043D01*
X123530701Y-85147043D02*
X123449749Y-84985139D01*
X123449749Y-84985139D02*
X123287844Y-84904186D01*
X123287844Y-84904186D02*
X123044987Y-84904186D01*
X123044987Y-84904186D02*
X122883082Y-84823234D01*
X122883082Y-84823234D02*
X122802130Y-84661329D01*
X122802130Y-84661329D02*
X122802130Y-84580377D01*
X122802130Y-84580377D02*
X122883082Y-84418472D01*
X122883082Y-84418472D02*
X123044987Y-84337520D01*
X123044987Y-84337520D02*
X123287844Y-84337520D01*
X123287844Y-84337520D02*
X123449749Y-84418472D01*
X125392606Y-83770853D02*
X126444987Y-83770853D01*
X126444987Y-83770853D02*
X125878320Y-84418472D01*
X125878320Y-84418472D02*
X126121177Y-84418472D01*
X126121177Y-84418472D02*
X126283082Y-84499424D01*
X126283082Y-84499424D02*
X126364034Y-84580377D01*
X126364034Y-84580377D02*
X126444987Y-84742281D01*
X126444987Y-84742281D02*
X126444987Y-85147043D01*
X126444987Y-85147043D02*
X126364034Y-85308948D01*
X126364034Y-85308948D02*
X126283082Y-85389901D01*
X126283082Y-85389901D02*
X126121177Y-85470853D01*
X126121177Y-85470853D02*
X125635463Y-85470853D01*
X125635463Y-85470853D02*
X125473558Y-85389901D01*
X125473558Y-85389901D02*
X125392606Y-85308948D01*
X127092606Y-83932758D02*
X127173558Y-83851805D01*
X127173558Y-83851805D02*
X127335463Y-83770853D01*
X127335463Y-83770853D02*
X127740225Y-83770853D01*
X127740225Y-83770853D02*
X127902130Y-83851805D01*
X127902130Y-83851805D02*
X127983082Y-83932758D01*
X127983082Y-83932758D02*
X128064035Y-84094662D01*
X128064035Y-84094662D02*
X128064035Y-84256567D01*
X128064035Y-84256567D02*
X127983082Y-84499424D01*
X127983082Y-84499424D02*
X127011654Y-85470853D01*
X127011654Y-85470853D02*
X128064035Y-85470853D01*
X131059273Y-85308948D02*
X130978321Y-85389901D01*
X130978321Y-85389901D02*
X130735463Y-85470853D01*
X130735463Y-85470853D02*
X130573559Y-85470853D01*
X130573559Y-85470853D02*
X130330702Y-85389901D01*
X130330702Y-85389901D02*
X130168797Y-85227996D01*
X130168797Y-85227996D02*
X130087844Y-85066091D01*
X130087844Y-85066091D02*
X130006892Y-84742281D01*
X130006892Y-84742281D02*
X130006892Y-84499424D01*
X130006892Y-84499424D02*
X130087844Y-84175615D01*
X130087844Y-84175615D02*
X130168797Y-84013710D01*
X130168797Y-84013710D02*
X130330702Y-83851805D01*
X130330702Y-83851805D02*
X130573559Y-83770853D01*
X130573559Y-83770853D02*
X130735463Y-83770853D01*
X130735463Y-83770853D02*
X130978321Y-83851805D01*
X130978321Y-83851805D02*
X131059273Y-83932758D01*
X131787844Y-85470853D02*
X131787844Y-83770853D01*
X132516416Y-85470853D02*
X132516416Y-84580377D01*
X132516416Y-84580377D02*
X132435463Y-84418472D01*
X132435463Y-84418472D02*
X132273559Y-84337520D01*
X132273559Y-84337520D02*
X132030702Y-84337520D01*
X132030702Y-84337520D02*
X131868797Y-84418472D01*
X131868797Y-84418472D02*
X131787844Y-84499424D01*
X133325939Y-85308948D02*
X133406892Y-85389901D01*
X133406892Y-85389901D02*
X133325939Y-85470853D01*
X133325939Y-85470853D02*
X133244987Y-85389901D01*
X133244987Y-85389901D02*
X133325939Y-85308948D01*
X133325939Y-85308948D02*
X133325939Y-85470853D01*
X113573558Y-88207758D02*
X113006891Y-87398234D01*
X112602129Y-88207758D02*
X112602129Y-86507758D01*
X112602129Y-86507758D02*
X113249748Y-86507758D01*
X113249748Y-86507758D02*
X113411653Y-86588710D01*
X113411653Y-86588710D02*
X113492606Y-86669663D01*
X113492606Y-86669663D02*
X113573558Y-86831567D01*
X113573558Y-86831567D02*
X113573558Y-87074425D01*
X113573558Y-87074425D02*
X113492606Y-87236329D01*
X113492606Y-87236329D02*
X113411653Y-87317282D01*
X113411653Y-87317282D02*
X113249748Y-87398234D01*
X113249748Y-87398234D02*
X112602129Y-87398234D01*
X114949748Y-88126806D02*
X114787844Y-88207758D01*
X114787844Y-88207758D02*
X114464034Y-88207758D01*
X114464034Y-88207758D02*
X114302129Y-88126806D01*
X114302129Y-88126806D02*
X114221177Y-87964901D01*
X114221177Y-87964901D02*
X114221177Y-87317282D01*
X114221177Y-87317282D02*
X114302129Y-87155377D01*
X114302129Y-87155377D02*
X114464034Y-87074425D01*
X114464034Y-87074425D02*
X114787844Y-87074425D01*
X114787844Y-87074425D02*
X114949748Y-87155377D01*
X114949748Y-87155377D02*
X115030701Y-87317282D01*
X115030701Y-87317282D02*
X115030701Y-87479186D01*
X115030701Y-87479186D02*
X114221177Y-87641091D01*
X115597368Y-87074425D02*
X116002130Y-88207758D01*
X116002130Y-88207758D02*
X116406891Y-87074425D01*
X117054510Y-88045853D02*
X117135463Y-88126806D01*
X117135463Y-88126806D02*
X117054510Y-88207758D01*
X117054510Y-88207758D02*
X116973558Y-88126806D01*
X116973558Y-88126806D02*
X117054510Y-88045853D01*
X117054510Y-88045853D02*
X117054510Y-88207758D01*
X119078320Y-87722044D02*
X119887844Y-87722044D01*
X118916415Y-88207758D02*
X119483082Y-86507758D01*
X119483082Y-86507758D02*
X120049749Y-88207758D01*
D10*
X157634666Y-128782819D02*
X157634666Y-129497104D01*
X157634666Y-129497104D02*
X157587047Y-129639961D01*
X157587047Y-129639961D02*
X157491809Y-129735200D01*
X157491809Y-129735200D02*
X157348952Y-129782819D01*
X157348952Y-129782819D02*
X157253714Y-129782819D01*
X158539428Y-129116152D02*
X158539428Y-129782819D01*
X158301333Y-128735200D02*
X158063238Y-129449485D01*
X158063238Y-129449485D02*
X158682285Y-129449485D01*
X157706666Y-107745427D02*
X157706666Y-108352570D01*
X157706666Y-108352570D02*
X157673333Y-108473998D01*
X157673333Y-108473998D02*
X157606666Y-108554951D01*
X157606666Y-108554951D02*
X157506666Y-108595427D01*
X157506666Y-108595427D02*
X157440000Y-108595427D01*
X158373333Y-107745427D02*
X158039999Y-107745427D01*
X158039999Y-107745427D02*
X158006666Y-108150189D01*
X158006666Y-108150189D02*
X158039999Y-108109712D01*
X158039999Y-108109712D02*
X158106666Y-108069236D01*
X158106666Y-108069236D02*
X158273333Y-108069236D01*
X158273333Y-108069236D02*
X158339999Y-108109712D01*
X158339999Y-108109712D02*
X158373333Y-108150189D01*
X158373333Y-108150189D02*
X158406666Y-108231141D01*
X158406666Y-108231141D02*
X158406666Y-108433522D01*
X158406666Y-108433522D02*
X158373333Y-108514474D01*
X158373333Y-108514474D02*
X158339999Y-108554951D01*
X158339999Y-108554951D02*
X158273333Y-108595427D01*
X158273333Y-108595427D02*
X158106666Y-108595427D01*
X158106666Y-108595427D02*
X158039999Y-108554951D01*
X158039999Y-108554951D02*
X158006666Y-108514474D01*
X125153333Y-120564819D02*
X124820000Y-120088628D01*
X124581905Y-120564819D02*
X124581905Y-119564819D01*
X124581905Y-119564819D02*
X124962857Y-119564819D01*
X124962857Y-119564819D02*
X125058095Y-119612438D01*
X125058095Y-119612438D02*
X125105714Y-119660057D01*
X125105714Y-119660057D02*
X125153333Y-119755295D01*
X125153333Y-119755295D02*
X125153333Y-119898152D01*
X125153333Y-119898152D02*
X125105714Y-119993390D01*
X125105714Y-119993390D02*
X125058095Y-120041009D01*
X125058095Y-120041009D02*
X124962857Y-120088628D01*
X124962857Y-120088628D02*
X124581905Y-120088628D01*
X125486667Y-119564819D02*
X126105714Y-119564819D01*
X126105714Y-119564819D02*
X125772381Y-119945771D01*
X125772381Y-119945771D02*
X125915238Y-119945771D01*
X125915238Y-119945771D02*
X126010476Y-119993390D01*
X126010476Y-119993390D02*
X126058095Y-120041009D01*
X126058095Y-120041009D02*
X126105714Y-120136247D01*
X126105714Y-120136247D02*
X126105714Y-120374342D01*
X126105714Y-120374342D02*
X126058095Y-120469580D01*
X126058095Y-120469580D02*
X126010476Y-120517200D01*
X126010476Y-120517200D02*
X125915238Y-120564819D01*
X125915238Y-120564819D02*
X125629524Y-120564819D01*
X125629524Y-120564819D02*
X125534286Y-120517200D01*
X125534286Y-120517200D02*
X125486667Y-120469580D01*
X123223333Y-121724819D02*
X122890000Y-121248628D01*
X122651905Y-121724819D02*
X122651905Y-120724819D01*
X122651905Y-120724819D02*
X123032857Y-120724819D01*
X123032857Y-120724819D02*
X123128095Y-120772438D01*
X123128095Y-120772438D02*
X123175714Y-120820057D01*
X123175714Y-120820057D02*
X123223333Y-120915295D01*
X123223333Y-120915295D02*
X123223333Y-121058152D01*
X123223333Y-121058152D02*
X123175714Y-121153390D01*
X123175714Y-121153390D02*
X123128095Y-121201009D01*
X123128095Y-121201009D02*
X123032857Y-121248628D01*
X123032857Y-121248628D02*
X122651905Y-121248628D01*
X124175714Y-121724819D02*
X123604286Y-121724819D01*
X123890000Y-121724819D02*
X123890000Y-120724819D01*
X123890000Y-120724819D02*
X123794762Y-120867676D01*
X123794762Y-120867676D02*
X123699524Y-120962914D01*
X123699524Y-120962914D02*
X123604286Y-121010533D01*
X126074819Y-126471904D02*
X126884342Y-126471904D01*
X126884342Y-126471904D02*
X126979580Y-126424285D01*
X126979580Y-126424285D02*
X127027200Y-126376666D01*
X127027200Y-126376666D02*
X127074819Y-126281428D01*
X127074819Y-126281428D02*
X127074819Y-126090952D01*
X127074819Y-126090952D02*
X127027200Y-125995714D01*
X127027200Y-125995714D02*
X126979580Y-125948095D01*
X126979580Y-125948095D02*
X126884342Y-125900476D01*
X126884342Y-125900476D02*
X126074819Y-125900476D01*
X127074819Y-124900476D02*
X127074819Y-125471904D01*
X127074819Y-125186190D02*
X126074819Y-125186190D01*
X126074819Y-125186190D02*
X126217676Y-125281428D01*
X126217676Y-125281428D02*
X126312914Y-125376666D01*
X126312914Y-125376666D02*
X126360533Y-125471904D01*
X126563333Y-119014819D02*
X126230000Y-118538628D01*
X125991905Y-119014819D02*
X125991905Y-118014819D01*
X125991905Y-118014819D02*
X126372857Y-118014819D01*
X126372857Y-118014819D02*
X126468095Y-118062438D01*
X126468095Y-118062438D02*
X126515714Y-118110057D01*
X126515714Y-118110057D02*
X126563333Y-118205295D01*
X126563333Y-118205295D02*
X126563333Y-118348152D01*
X126563333Y-118348152D02*
X126515714Y-118443390D01*
X126515714Y-118443390D02*
X126468095Y-118491009D01*
X126468095Y-118491009D02*
X126372857Y-118538628D01*
X126372857Y-118538628D02*
X125991905Y-118538628D01*
X126944286Y-118110057D02*
X126991905Y-118062438D01*
X126991905Y-118062438D02*
X127087143Y-118014819D01*
X127087143Y-118014819D02*
X127325238Y-118014819D01*
X127325238Y-118014819D02*
X127420476Y-118062438D01*
X127420476Y-118062438D02*
X127468095Y-118110057D01*
X127468095Y-118110057D02*
X127515714Y-118205295D01*
X127515714Y-118205295D02*
X127515714Y-118300533D01*
X127515714Y-118300533D02*
X127468095Y-118443390D01*
X127468095Y-118443390D02*
X126896667Y-119014819D01*
X126896667Y-119014819D02*
X127515714Y-119014819D01*
X118669580Y-125866666D02*
X118717200Y-125914285D01*
X118717200Y-125914285D02*
X118764819Y-126057142D01*
X118764819Y-126057142D02*
X118764819Y-126152380D01*
X118764819Y-126152380D02*
X118717200Y-126295237D01*
X118717200Y-126295237D02*
X118621961Y-126390475D01*
X118621961Y-126390475D02*
X118526723Y-126438094D01*
X118526723Y-126438094D02*
X118336247Y-126485713D01*
X118336247Y-126485713D02*
X118193390Y-126485713D01*
X118193390Y-126485713D02*
X118002914Y-126438094D01*
X118002914Y-126438094D02*
X117907676Y-126390475D01*
X117907676Y-126390475D02*
X117812438Y-126295237D01*
X117812438Y-126295237D02*
X117764819Y-126152380D01*
X117764819Y-126152380D02*
X117764819Y-126057142D01*
X117764819Y-126057142D02*
X117812438Y-125914285D01*
X117812438Y-125914285D02*
X117860057Y-125866666D01*
X118764819Y-124914285D02*
X118764819Y-125485713D01*
X118764819Y-125199999D02*
X117764819Y-125199999D01*
X117764819Y-125199999D02*
X117907676Y-125295237D01*
X117907676Y-125295237D02*
X118002914Y-125390475D01*
X118002914Y-125390475D02*
X118050533Y-125485713D01*
D13*
G04 #@! TO.C,J4*
X155350000Y-123670000D02*
X155350000Y-123100000D01*
X155350000Y-126210000D02*
X155350000Y-125190000D01*
X155350000Y-128300000D02*
X155350000Y-127730000D01*
X160550000Y-123100000D02*
X155350000Y-123100000D01*
X160550000Y-123670000D02*
X160550000Y-123100000D01*
X160550000Y-126210000D02*
X160550000Y-125190000D01*
X160550000Y-128300000D02*
X155350000Y-128300000D01*
X160550000Y-128300000D02*
X160550000Y-127730000D01*
X161990000Y-127730000D02*
X160550000Y-127730000D01*
D11*
G04 #@! TO.C,J5*
X156350000Y-95420000D02*
X156350000Y-93985000D01*
X156350000Y-107120000D02*
X156350000Y-104082000D01*
X159650000Y-93985000D02*
X156350000Y-93985000D01*
X159650000Y-93985000D02*
X159650000Y-95420000D01*
X159650000Y-105685000D02*
X159650000Y-107120000D01*
X159650000Y-107120000D02*
X156350000Y-107120000D01*
X156150001Y-107420000D02*
X156150001Y-107420000D01*
X156150001Y-107420000D01*
X156150001Y-107420000D01*
X156150001Y-107420000D01*
X156150001Y-107420000D01*
X156150001Y-107420001D01*
X156150001Y-107420001D01*
X156150001Y-107420001D01*
X156150001Y-107420001D01*
X156150001Y-107420001D01*
X156150001Y-107420001D01*
X156150001Y-107420001D01*
X156150000Y-107420001D01*
X156150000Y-107420001D01*
X156150000Y-107420001D01*
X156150000Y-107420001D01*
X156150000Y-107420001D01*
X156150000Y-107420001D01*
X156150000Y-107420001D01*
X156150000Y-107420001D01*
X156150000Y-107420001D01*
X156150000Y-107420001D01*
X156150000Y-107420001D01*
X156150000Y-107420001D01*
X156149999Y-107420001D01*
X156149999Y-107420001D01*
X156149999Y-107420001D01*
X156149999Y-107420001D01*
X156149999Y-107420001D01*
X156149999Y-107420001D01*
X156149999Y-107420000D01*
X156149999Y-107420000D01*
X156149999Y-107420000D01*
X156149999Y-107420000D01*
X156149999Y-107420000D01*
X156149999Y-107420000D01*
X156149999Y-107420000D02*
X156149999Y-107420000D01*
X156149999Y-107420000D01*
X156149999Y-107420000D01*
X156149999Y-107420000D01*
X156149999Y-107420000D01*
X156149999Y-107420000D01*
X156149999Y-107419999D01*
X156149999Y-107419999D01*
X156149999Y-107419999D01*
X156149999Y-107419999D01*
X156149999Y-107419999D01*
X156150000Y-107419999D01*
X156150000Y-107419999D01*
X156150000Y-107419999D01*
X156150000Y-107419999D01*
X156150000Y-107419999D01*
X156150000Y-107419999D01*
X156150000Y-107419999D01*
X156150000Y-107419999D01*
X156150000Y-107419999D01*
X156150000Y-107419999D01*
X156150000Y-107419999D01*
X156150000Y-107419999D01*
X156150001Y-107419999D01*
X156150001Y-107419999D01*
X156150001Y-107419999D01*
X156150001Y-107419999D01*
X156150001Y-107419999D01*
X156150001Y-107419999D01*
X156150001Y-107420000D01*
X156150001Y-107420000D01*
X156150001Y-107420000D01*
X156150001Y-107420000D01*
X156150001Y-107420000D01*
X156150001Y-107420000D01*
X156150001Y-107420000D01*
D13*
G04 #@! TO.C,R3*
X123046359Y-119620000D02*
X123353641Y-119620000D01*
X123046359Y-120380000D02*
X123353641Y-120380000D01*
G04 #@! TO.C,R1*
X121146359Y-120720000D02*
X121453641Y-120720000D01*
X121146359Y-121480000D02*
X121453641Y-121480000D01*
G04 #@! TO.C,H1*
D14*
X112600000Y-90400000D02*
X133000000Y-90400000D01*
X133000000Y-98800000D01*
X112600000Y-98800000D01*
X112600000Y-90400000D01*
D13*
G04 #@! TO.C,U1*
X120640000Y-125700000D02*
X120640000Y-123750000D01*
X120640000Y-125700000D02*
X120640000Y-127650000D01*
X125760000Y-125700000D02*
X125760000Y-123750000D01*
X125760000Y-125700000D02*
X125760000Y-127650000D01*
X120735000Y-128400000D02*
X120405000Y-128640000D01*
X120405000Y-128160000D01*
X120735000Y-128400000D01*
G36*
X120735000Y-128400000D02*
G01*
X120405000Y-128640000D01*
X120405000Y-128160000D01*
X120735000Y-128400000D01*
G37*
G04 #@! TO.C,R2*
X124446359Y-118420000D02*
X124753641Y-118420000D01*
X124446359Y-119180000D02*
X124753641Y-119180000D01*
G04 #@! TO.C,C1*
X119340000Y-125592164D02*
X119340000Y-125807836D01*
X120060000Y-125592164D02*
X120060000Y-125807836D01*
G04 #@! TD*
M02*
