%TF.GenerationSoftware,KiCad,Pcbnew,9.0.7*%
%TF.CreationDate,2026-04-06T00:07:16+01:00*%
%TF.ProjectId,ephys-test-module-32,65706879-732d-4746-9573-742d6d6f6475,A*%
%TF.SameCoordinates,PX66ff300PY82a7440*%
%TF.FileFunction,Legend,Top*%
%TF.FilePolarity,Positive*%
%FSLAX46Y46*%
G04 Gerber Fmt 4.6, Leading zero omitted, Abs format (unit mm)*
G04 Created by KiCad (PCBNEW 9.0.7) date 2026-04-06 00:07:16*
%MOMM*%
%LPD*%
G01*
G04 APERTURE LIST*
G04 Aperture macros list*
%AMRoundRect*
0 Rectangle with rounded corners*
0 $1 Rounding radius*
0 $2 $3 $4 $5 $6 $7 $8 $9 X,Y pos of 4 corners*
0 Add a 4 corners polygon primitive as box body*
4,1,4,$2,$3,$4,$5,$6,$7,$8,$9,$2,$3,0*
0 Add four circle primitives for the rounded corners*
1,1,$1+$1,$2,$3*
1,1,$1+$1,$4,$5*
1,1,$1+$1,$6,$7*
1,1,$1+$1,$8,$9*
0 Add four rect primitives between the rounded corners*
20,1,$1+$1,$2,$3,$4,$5,0*
20,1,$1+$1,$4,$5,$6,$7,0*
20,1,$1+$1,$6,$7,$8,$9,0*
20,1,$1+$1,$8,$9,$2,$3,0*%
G04 Aperture macros list end*
%ADD10C,0.000000*%
%ADD11C,0.150000*%
%ADD12C,0.200000*%
%ADD13C,0.120000*%
%ADD14R,3.150000X1.000000*%
%ADD15RoundRect,0.095000X0.415000X0.095000X-0.415000X0.095000X-0.415000X-0.095000X0.415000X-0.095000X0*%
%ADD16RoundRect,0.135000X-0.135000X-0.185000X0.135000X-0.185000X0.135000X0.185000X-0.135000X0.185000X0*%
%ADD17RoundRect,0.150000X0.150000X-0.825000X0.150000X0.825000X-0.150000X0.825000X-0.150000X-0.825000X0*%
%ADD18RoundRect,0.140000X-0.170000X0.140000X-0.170000X-0.140000X0.170000X-0.140000X0.170000X0.140000X0*%
%ADD19C,1.020000*%
G04 APERTURE END LIST*
D10*
G36*
X66748091Y2423733D02*
G01*
X55698091Y2423733D01*
X55698091Y2573733D01*
X66598091Y2573733D01*
X66598091Y8121233D01*
X57440591Y8121233D01*
X57440591Y8271233D01*
X66748091Y8271233D01*
X66748091Y2423733D01*
G37*
D11*
X59126009Y35082857D02*
X59126009Y34749524D01*
X59649819Y34749524D02*
X58649819Y34749524D01*
X58649819Y34749524D02*
X58649819Y35225714D01*
X59649819Y35606667D02*
X58983152Y35606667D01*
X59173628Y35606667D02*
X59078390Y35654286D01*
X59078390Y35654286D02*
X59030771Y35701905D01*
X59030771Y35701905D02*
X58983152Y35797143D01*
X58983152Y35797143D02*
X58983152Y35892381D01*
X59649819Y36368572D02*
X59602200Y36273334D01*
X59602200Y36273334D02*
X59554580Y36225715D01*
X59554580Y36225715D02*
X59459342Y36178096D01*
X59459342Y36178096D02*
X59173628Y36178096D01*
X59173628Y36178096D02*
X59078390Y36225715D01*
X59078390Y36225715D02*
X59030771Y36273334D01*
X59030771Y36273334D02*
X58983152Y36368572D01*
X58983152Y36368572D02*
X58983152Y36511429D01*
X58983152Y36511429D02*
X59030771Y36606667D01*
X59030771Y36606667D02*
X59078390Y36654286D01*
X59078390Y36654286D02*
X59173628Y36701905D01*
X59173628Y36701905D02*
X59459342Y36701905D01*
X59459342Y36701905D02*
X59554580Y36654286D01*
X59554580Y36654286D02*
X59602200Y36606667D01*
X59602200Y36606667D02*
X59649819Y36511429D01*
X59649819Y36511429D02*
X59649819Y36368572D01*
X58983152Y37130477D02*
X59649819Y37130477D01*
X59078390Y37130477D02*
X59030771Y37178096D01*
X59030771Y37178096D02*
X58983152Y37273334D01*
X58983152Y37273334D02*
X58983152Y37416191D01*
X58983152Y37416191D02*
X59030771Y37511429D01*
X59030771Y37511429D02*
X59126009Y37559048D01*
X59126009Y37559048D02*
X59649819Y37559048D01*
X58983152Y37892382D02*
X58983152Y38273334D01*
X58649819Y38035239D02*
X59506961Y38035239D01*
X59506961Y38035239D02*
X59602200Y38082858D01*
X59602200Y38082858D02*
X59649819Y38178096D01*
X59649819Y38178096D02*
X59649819Y38273334D01*
D12*
X90859524Y15147091D02*
X90735714Y15208996D01*
X90735714Y15208996D02*
X90550000Y15208996D01*
X90550000Y15208996D02*
X90364286Y15147091D01*
X90364286Y15147091D02*
X90240476Y15023281D01*
X90240476Y15023281D02*
X90178571Y14899472D01*
X90178571Y14899472D02*
X90116667Y14651853D01*
X90116667Y14651853D02*
X90116667Y14466139D01*
X90116667Y14466139D02*
X90178571Y14218520D01*
X90178571Y14218520D02*
X90240476Y14094710D01*
X90240476Y14094710D02*
X90364286Y13970900D01*
X90364286Y13970900D02*
X90550000Y13908996D01*
X90550000Y13908996D02*
X90673809Y13908996D01*
X90673809Y13908996D02*
X90859524Y13970900D01*
X90859524Y13970900D02*
X90921428Y14032805D01*
X90921428Y14032805D02*
X90921428Y14466139D01*
X90921428Y14466139D02*
X90673809Y14466139D01*
X91478571Y13908996D02*
X91478571Y15208996D01*
X91478571Y15208996D02*
X92221428Y13908996D01*
X92221428Y13908996D02*
X92221428Y15208996D01*
X92840476Y13908996D02*
X92840476Y15208996D01*
X92840476Y15208996D02*
X93150000Y15208996D01*
X93150000Y15208996D02*
X93335714Y15147091D01*
X93335714Y15147091D02*
X93459524Y15023281D01*
X93459524Y15023281D02*
X93521429Y14899472D01*
X93521429Y14899472D02*
X93583333Y14651853D01*
X93583333Y14651853D02*
X93583333Y14466139D01*
X93583333Y14466139D02*
X93521429Y14218520D01*
X93521429Y14218520D02*
X93459524Y14094710D01*
X93459524Y14094710D02*
X93335714Y13970900D01*
X93335714Y13970900D02*
X93150000Y13908996D01*
X93150000Y13908996D02*
X92840476Y13908996D01*
D11*
X41683990Y37604286D02*
X41636371Y37461429D01*
X41636371Y37461429D02*
X41588752Y37413810D01*
X41588752Y37413810D02*
X41493514Y37366191D01*
X41493514Y37366191D02*
X41350657Y37366191D01*
X41350657Y37366191D02*
X41255419Y37413810D01*
X41255419Y37413810D02*
X41207800Y37461429D01*
X41207800Y37461429D02*
X41160180Y37556667D01*
X41160180Y37556667D02*
X41160180Y37937619D01*
X41160180Y37937619D02*
X42160180Y37937619D01*
X42160180Y37937619D02*
X42160180Y37604286D01*
X42160180Y37604286D02*
X42112561Y37509048D01*
X42112561Y37509048D02*
X42064942Y37461429D01*
X42064942Y37461429D02*
X41969704Y37413810D01*
X41969704Y37413810D02*
X41874466Y37413810D01*
X41874466Y37413810D02*
X41779228Y37461429D01*
X41779228Y37461429D02*
X41731609Y37509048D01*
X41731609Y37509048D02*
X41683990Y37604286D01*
X41683990Y37604286D02*
X41683990Y37937619D01*
X41160180Y36509048D02*
X41683990Y36509048D01*
X41683990Y36509048D02*
X41779228Y36556667D01*
X41779228Y36556667D02*
X41826847Y36651905D01*
X41826847Y36651905D02*
X41826847Y36842381D01*
X41826847Y36842381D02*
X41779228Y36937619D01*
X41207800Y36509048D02*
X41160180Y36604286D01*
X41160180Y36604286D02*
X41160180Y36842381D01*
X41160180Y36842381D02*
X41207800Y36937619D01*
X41207800Y36937619D02*
X41303038Y36985238D01*
X41303038Y36985238D02*
X41398276Y36985238D01*
X41398276Y36985238D02*
X41493514Y36937619D01*
X41493514Y36937619D02*
X41541133Y36842381D01*
X41541133Y36842381D02*
X41541133Y36604286D01*
X41541133Y36604286D02*
X41588752Y36509048D01*
X41207800Y35604286D02*
X41160180Y35699524D01*
X41160180Y35699524D02*
X41160180Y35890000D01*
X41160180Y35890000D02*
X41207800Y35985238D01*
X41207800Y35985238D02*
X41255419Y36032857D01*
X41255419Y36032857D02*
X41350657Y36080476D01*
X41350657Y36080476D02*
X41636371Y36080476D01*
X41636371Y36080476D02*
X41731609Y36032857D01*
X41731609Y36032857D02*
X41779228Y35985238D01*
X41779228Y35985238D02*
X41826847Y35890000D01*
X41826847Y35890000D02*
X41826847Y35699524D01*
X41826847Y35699524D02*
X41779228Y35604286D01*
X41160180Y35175714D02*
X42160180Y35175714D01*
X41541133Y35080476D02*
X41160180Y34794762D01*
X41826847Y34794762D02*
X41445895Y35175714D01*
D12*
X77807142Y13908996D02*
X77373809Y14528043D01*
X77064285Y13908996D02*
X77064285Y15208996D01*
X77064285Y15208996D02*
X77559523Y15208996D01*
X77559523Y15208996D02*
X77683333Y15147091D01*
X77683333Y15147091D02*
X77745238Y15085186D01*
X77745238Y15085186D02*
X77807142Y14961377D01*
X77807142Y14961377D02*
X77807142Y14775662D01*
X77807142Y14775662D02*
X77745238Y14651853D01*
X77745238Y14651853D02*
X77683333Y14589948D01*
X77683333Y14589948D02*
X77559523Y14528043D01*
X77559523Y14528043D02*
X77064285Y14528043D01*
X78364285Y14589948D02*
X78797619Y14589948D01*
X78983333Y13908996D02*
X78364285Y13908996D01*
X78364285Y13908996D02*
X78364285Y15208996D01*
X78364285Y15208996D02*
X78983333Y15208996D01*
X79973809Y14589948D02*
X79540475Y14589948D01*
X79540475Y13908996D02*
X79540475Y15208996D01*
X79540475Y15208996D02*
X80159523Y15208996D01*
X77807142Y11408996D02*
X77373809Y12028043D01*
X77064285Y11408996D02*
X77064285Y12708996D01*
X77064285Y12708996D02*
X77559523Y12708996D01*
X77559523Y12708996D02*
X77683333Y12647091D01*
X77683333Y12647091D02*
X77745238Y12585186D01*
X77745238Y12585186D02*
X77807142Y12461377D01*
X77807142Y12461377D02*
X77807142Y12275662D01*
X77807142Y12275662D02*
X77745238Y12151853D01*
X77745238Y12151853D02*
X77683333Y12089948D01*
X77683333Y12089948D02*
X77559523Y12028043D01*
X77559523Y12028043D02*
X77064285Y12028043D01*
X78364285Y12089948D02*
X78797619Y12089948D01*
X78983333Y11408996D02*
X78364285Y11408996D01*
X78364285Y11408996D02*
X78364285Y12708996D01*
X78364285Y12708996D02*
X78983333Y12708996D01*
X79973809Y12089948D02*
X79540475Y12089948D01*
X79540475Y11408996D02*
X79540475Y12708996D01*
X79540475Y12708996D02*
X80159523Y12708996D01*
X90859524Y12647091D02*
X90735714Y12708996D01*
X90735714Y12708996D02*
X90550000Y12708996D01*
X90550000Y12708996D02*
X90364286Y12647091D01*
X90364286Y12647091D02*
X90240476Y12523281D01*
X90240476Y12523281D02*
X90178571Y12399472D01*
X90178571Y12399472D02*
X90116667Y12151853D01*
X90116667Y12151853D02*
X90116667Y11966139D01*
X90116667Y11966139D02*
X90178571Y11718520D01*
X90178571Y11718520D02*
X90240476Y11594710D01*
X90240476Y11594710D02*
X90364286Y11470900D01*
X90364286Y11470900D02*
X90550000Y11408996D01*
X90550000Y11408996D02*
X90673809Y11408996D01*
X90673809Y11408996D02*
X90859524Y11470900D01*
X90859524Y11470900D02*
X90921428Y11532805D01*
X90921428Y11532805D02*
X90921428Y11966139D01*
X90921428Y11966139D02*
X90673809Y11966139D01*
X91478571Y11408996D02*
X91478571Y12708996D01*
X91478571Y12708996D02*
X92221428Y11408996D01*
X92221428Y11408996D02*
X92221428Y12708996D01*
X92840476Y11408996D02*
X92840476Y12708996D01*
X92840476Y12708996D02*
X93150000Y12708996D01*
X93150000Y12708996D02*
X93335714Y12647091D01*
X93335714Y12647091D02*
X93459524Y12523281D01*
X93459524Y12523281D02*
X93521429Y12399472D01*
X93521429Y12399472D02*
X93583333Y12151853D01*
X93583333Y12151853D02*
X93583333Y11966139D01*
X93583333Y11966139D02*
X93521429Y11718520D01*
X93521429Y11718520D02*
X93459524Y11594710D01*
X93459524Y11594710D02*
X93335714Y11470900D01*
X93335714Y11470900D02*
X93150000Y11408996D01*
X93150000Y11408996D02*
X92840476Y11408996D01*
D11*
X84795628Y10045181D02*
X84795628Y9330896D01*
X84795628Y9330896D02*
X84748009Y9188039D01*
X84748009Y9188039D02*
X84652771Y9092800D01*
X84652771Y9092800D02*
X84509914Y9045181D01*
X84509914Y9045181D02*
X84414676Y9045181D01*
X85700390Y9711848D02*
X85700390Y9045181D01*
X85462295Y10092800D02*
X85224200Y9378515D01*
X85224200Y9378515D02*
X85843247Y9378515D01*
X49336666Y44655181D02*
X49336666Y43940896D01*
X49336666Y43940896D02*
X49289047Y43798039D01*
X49289047Y43798039D02*
X49193809Y43702800D01*
X49193809Y43702800D02*
X49050952Y43655181D01*
X49050952Y43655181D02*
X48955714Y43655181D01*
X50289047Y44655181D02*
X49812857Y44655181D01*
X49812857Y44655181D02*
X49765238Y44178991D01*
X49765238Y44178991D02*
X49812857Y44226610D01*
X49812857Y44226610D02*
X49908095Y44274229D01*
X49908095Y44274229D02*
X50146190Y44274229D01*
X50146190Y44274229D02*
X50241428Y44226610D01*
X50241428Y44226610D02*
X50289047Y44178991D01*
X50289047Y44178991D02*
X50336666Y44083753D01*
X50336666Y44083753D02*
X50336666Y43845658D01*
X50336666Y43845658D02*
X50289047Y43750420D01*
X50289047Y43750420D02*
X50241428Y43702800D01*
X50241428Y43702800D02*
X50146190Y43655181D01*
X50146190Y43655181D02*
X49908095Y43655181D01*
X49908095Y43655181D02*
X49812857Y43702800D01*
X49812857Y43702800D02*
X49765238Y43750420D01*
X12608333Y16870181D02*
X12275000Y17346372D01*
X12036905Y16870181D02*
X12036905Y17870181D01*
X12036905Y17870181D02*
X12417857Y17870181D01*
X12417857Y17870181D02*
X12513095Y17822562D01*
X12513095Y17822562D02*
X12560714Y17774943D01*
X12560714Y17774943D02*
X12608333Y17679705D01*
X12608333Y17679705D02*
X12608333Y17536848D01*
X12608333Y17536848D02*
X12560714Y17441610D01*
X12560714Y17441610D02*
X12513095Y17393991D01*
X12513095Y17393991D02*
X12417857Y17346372D01*
X12417857Y17346372D02*
X12036905Y17346372D01*
X12941667Y17870181D02*
X13560714Y17870181D01*
X13560714Y17870181D02*
X13227381Y17489229D01*
X13227381Y17489229D02*
X13370238Y17489229D01*
X13370238Y17489229D02*
X13465476Y17441610D01*
X13465476Y17441610D02*
X13513095Y17393991D01*
X13513095Y17393991D02*
X13560714Y17298753D01*
X13560714Y17298753D02*
X13560714Y17060658D01*
X13560714Y17060658D02*
X13513095Y16965420D01*
X13513095Y16965420D02*
X13465476Y16917800D01*
X13465476Y16917800D02*
X13370238Y16870181D01*
X13370238Y16870181D02*
X13084524Y16870181D01*
X13084524Y16870181D02*
X12989286Y16917800D01*
X12989286Y16917800D02*
X12941667Y16965420D01*
X10858333Y15470181D02*
X10525000Y15946372D01*
X10286905Y15470181D02*
X10286905Y16470181D01*
X10286905Y16470181D02*
X10667857Y16470181D01*
X10667857Y16470181D02*
X10763095Y16422562D01*
X10763095Y16422562D02*
X10810714Y16374943D01*
X10810714Y16374943D02*
X10858333Y16279705D01*
X10858333Y16279705D02*
X10858333Y16136848D01*
X10858333Y16136848D02*
X10810714Y16041610D01*
X10810714Y16041610D02*
X10763095Y15993991D01*
X10763095Y15993991D02*
X10667857Y15946372D01*
X10667857Y15946372D02*
X10286905Y15946372D01*
X11810714Y15470181D02*
X11239286Y15470181D01*
X11525000Y15470181D02*
X11525000Y16470181D01*
X11525000Y16470181D02*
X11429762Y16327324D01*
X11429762Y16327324D02*
X11334524Y16232086D01*
X11334524Y16232086D02*
X11239286Y16184467D01*
X18074819Y10528096D02*
X18884342Y10528096D01*
X18884342Y10528096D02*
X18979580Y10575715D01*
X18979580Y10575715D02*
X19027200Y10623334D01*
X19027200Y10623334D02*
X19074819Y10718572D01*
X19074819Y10718572D02*
X19074819Y10909048D01*
X19074819Y10909048D02*
X19027200Y11004286D01*
X19027200Y11004286D02*
X18979580Y11051905D01*
X18979580Y11051905D02*
X18884342Y11099524D01*
X18884342Y11099524D02*
X18074819Y11099524D01*
X19074819Y12099524D02*
X19074819Y11528096D01*
X19074819Y11813810D02*
X18074819Y11813810D01*
X18074819Y11813810D02*
X18217676Y11718572D01*
X18217676Y11718572D02*
X18312914Y11623334D01*
X18312914Y11623334D02*
X18360533Y11528096D01*
X14558333Y18320181D02*
X14225000Y18796372D01*
X13986905Y18320181D02*
X13986905Y19320181D01*
X13986905Y19320181D02*
X14367857Y19320181D01*
X14367857Y19320181D02*
X14463095Y19272562D01*
X14463095Y19272562D02*
X14510714Y19224943D01*
X14510714Y19224943D02*
X14558333Y19129705D01*
X14558333Y19129705D02*
X14558333Y18986848D01*
X14558333Y18986848D02*
X14510714Y18891610D01*
X14510714Y18891610D02*
X14463095Y18843991D01*
X14463095Y18843991D02*
X14367857Y18796372D01*
X14367857Y18796372D02*
X13986905Y18796372D01*
X14939286Y19224943D02*
X14986905Y19272562D01*
X14986905Y19272562D02*
X15082143Y19320181D01*
X15082143Y19320181D02*
X15320238Y19320181D01*
X15320238Y19320181D02*
X15415476Y19272562D01*
X15415476Y19272562D02*
X15463095Y19224943D01*
X15463095Y19224943D02*
X15510714Y19129705D01*
X15510714Y19129705D02*
X15510714Y19034467D01*
X15510714Y19034467D02*
X15463095Y18891610D01*
X15463095Y18891610D02*
X14891667Y18320181D01*
X14891667Y18320181D02*
X15510714Y18320181D01*
X10669580Y11133334D02*
X10717200Y11085715D01*
X10717200Y11085715D02*
X10764819Y10942858D01*
X10764819Y10942858D02*
X10764819Y10847620D01*
X10764819Y10847620D02*
X10717200Y10704763D01*
X10717200Y10704763D02*
X10621961Y10609525D01*
X10621961Y10609525D02*
X10526723Y10561906D01*
X10526723Y10561906D02*
X10336247Y10514287D01*
X10336247Y10514287D02*
X10193390Y10514287D01*
X10193390Y10514287D02*
X10002914Y10561906D01*
X10002914Y10561906D02*
X9907676Y10609525D01*
X9907676Y10609525D02*
X9812438Y10704763D01*
X9812438Y10704763D02*
X9764819Y10847620D01*
X9764819Y10847620D02*
X9764819Y10942858D01*
X9764819Y10942858D02*
X9812438Y11085715D01*
X9812438Y11085715D02*
X9860057Y11133334D01*
X10764819Y12085715D02*
X10764819Y11514287D01*
X10764819Y11800001D02*
X9764819Y11800001D01*
X9764819Y11800001D02*
X9907676Y11704763D01*
X9907676Y11704763D02*
X10002914Y11609525D01*
X10002914Y11609525D02*
X10050533Y11514287D01*
D13*
%TO.C,J4*%
X81083962Y15407386D02*
X82473962Y15407386D01*
X82473962Y15977386D02*
X82473962Y15407386D01*
X82473962Y15977386D02*
X87773962Y15977386D01*
X82473962Y13787386D02*
X82473962Y12867386D01*
X82473962Y11247386D02*
X82473962Y10677386D01*
X82473962Y10677386D02*
X87773962Y10677386D01*
X87773962Y15977386D02*
X87773962Y15407386D01*
X87773962Y13787386D02*
X87773962Y12867386D01*
X87773962Y11247386D02*
X87773962Y10677386D01*
%TO.C,J5*%
X51450000Y31400000D02*
X51450000Y30900000D01*
%TO.C,R3*%
X15046359Y17380000D02*
X15353641Y17380000D01*
X15046359Y16620000D02*
X15353641Y16620000D01*
%TO.C,R1*%
X13146359Y16280000D02*
X13453641Y16280000D01*
X13146359Y15520000D02*
X13453641Y15520000D01*
%TO.C,U1*%
X12640000Y13360000D02*
X12735000Y13360000D01*
X12640000Y9240000D02*
X12640000Y13360000D01*
X12735000Y9240000D02*
X12640000Y9240000D01*
X17665000Y13360000D02*
X17760000Y13360000D01*
X17760000Y13360000D02*
X17760000Y9240000D01*
X17760000Y9240000D02*
X17665000Y9240000D01*
X12730000Y8700000D02*
X12400000Y8460000D01*
X12400000Y8940000D01*
X12730000Y8700000D01*
G36*
X12730000Y8700000D02*
G01*
X12400000Y8460000D01*
X12400000Y8940000D01*
X12730000Y8700000D01*
G37*
%TO.C,R2*%
X16446359Y18580000D02*
X16753641Y18580000D01*
X16446359Y17820000D02*
X16753641Y17820000D01*
D10*
%TO.C,kibuzzard-69C29391*%
G36*
X42844521Y6729795D02*
G01*
X42877397Y6634503D01*
X42889726Y6490411D01*
X42523973Y6490411D01*
X42541438Y6638356D01*
X42577397Y6732877D01*
X42634418Y6783733D01*
X42715068Y6800685D01*
X42844521Y6729795D01*
G37*
G36*
X46954110Y4161301D02*
G01*
X46986986Y4066010D01*
X46999315Y3921918D01*
X46633562Y3921918D01*
X46651027Y4069863D01*
X46686986Y4164384D01*
X46744007Y4215240D01*
X46824658Y4232192D01*
X46954110Y4161301D01*
G37*
G36*
X52091096Y6729795D02*
G01*
X52123973Y6634503D01*
X52136301Y6490411D01*
X51770548Y6490411D01*
X51788014Y6638356D01*
X51823973Y6732877D01*
X51880993Y6783733D01*
X51961644Y6800685D01*
X52091096Y6729795D01*
G37*
G36*
X36612072Y6772688D02*
G01*
X36679110Y6707192D01*
X36718408Y6588784D01*
X36731507Y6408219D01*
X36719307Y6238313D01*
X36682705Y6116952D01*
X36621704Y6044135D01*
X36536301Y6019863D01*
X36382192Y6067123D01*
X36382192Y6771918D01*
X36515753Y6794521D01*
X36612072Y6772688D01*
G37*
G36*
X48950856Y6777055D02*
G01*
X49025342Y6724658D01*
X49025342Y6040411D01*
X48891781Y6013699D01*
X48796747Y6035788D01*
X48729452Y6102055D01*
X48689384Y6222774D01*
X48676027Y6408219D01*
X48687072Y6588784D01*
X48720205Y6707192D01*
X48775942Y6772688D01*
X48854795Y6794521D01*
X48950856Y6777055D01*
G37*
G36*
X47937072Y6774229D02*
G01*
X47998973Y6713356D01*
X48033647Y6596490D01*
X48045205Y6408219D01*
X48033647Y6219949D01*
X47998973Y6103082D01*
X47937072Y6042209D01*
X47843836Y6021918D01*
X47750599Y6042209D01*
X47688699Y6103082D01*
X47654024Y6219949D01*
X47642466Y6408219D01*
X47654024Y6596490D01*
X47688699Y6713356D01*
X47750599Y6774229D01*
X47843836Y6794521D01*
X47937072Y6774229D01*
G37*
G36*
X43840582Y4615668D02*
G01*
X43913014Y4520890D01*
X43943836Y4413014D01*
X43962329Y4257877D01*
X43968493Y4055479D01*
X43962329Y3853082D01*
X43943836Y3697945D01*
X43913014Y3590068D01*
X43840582Y3495291D01*
X43734247Y3463699D01*
X43627911Y3495291D01*
X43555479Y3590068D01*
X43524658Y3697945D01*
X43506164Y3853082D01*
X43500000Y4055479D01*
X43506164Y4257877D01*
X43524658Y4413014D01*
X43555479Y4520890D01*
X43627911Y4615668D01*
X43734247Y4647260D01*
X43840582Y4615668D01*
G37*
G36*
X55748630Y2428767D02*
G01*
X55577397Y2428767D01*
X52008904Y2428767D01*
X50913699Y2428767D01*
X49989041Y2428767D01*
X49056164Y2428767D01*
X47987671Y2428767D01*
X46871918Y2428767D01*
X46179452Y2428767D01*
X45234247Y2428767D01*
X43734247Y2428767D01*
X42762329Y2428767D01*
X41371233Y2428767D01*
X39464384Y2428767D01*
X38997945Y2428767D01*
X37970548Y2428767D01*
X37668493Y2428767D01*
X36912329Y2428767D01*
X35447260Y2428767D01*
X35118493Y2428767D01*
X33748630Y2428767D01*
X33748630Y3547945D01*
X35118493Y3547945D01*
X35118493Y3350685D01*
X35279795Y3301370D01*
X35447260Y3284932D01*
X35588527Y3297489D01*
X35704110Y3335160D01*
X35794007Y3397945D01*
X35858219Y3485845D01*
X35896747Y3598858D01*
X35909589Y3736986D01*
X35892894Y3881336D01*
X35842808Y3991781D01*
X35759332Y4068322D01*
X35642466Y4110959D01*
X35642466Y4113014D01*
X35750342Y4165283D01*
X35827397Y4244007D01*
X35873630Y4349187D01*
X35889041Y4480822D01*
X35878767Y4538664D01*
X35863356Y4625428D01*
X35797179Y4719178D01*
X36172603Y4719178D01*
X36172603Y4526027D01*
X36288356Y4593379D01*
X36394521Y4633790D01*
X36491096Y4647260D01*
X36625685Y4591781D01*
X36658818Y4519863D01*
X36669863Y4415068D01*
X36659715Y4302474D01*
X36629270Y4183086D01*
X36578529Y4056905D01*
X36507492Y3923931D01*
X36416159Y3784163D01*
X36304529Y3637601D01*
X36172603Y3484247D01*
X36172603Y3305479D01*
X36912329Y3305479D01*
X36912329Y3484247D01*
X36410959Y3484247D01*
X36410959Y3488356D01*
X36531485Y3631935D01*
X36634161Y3766781D01*
X36718985Y3892894D01*
X36785959Y4010274D01*
X36814893Y4076027D01*
X37148630Y4076027D01*
X37156753Y3890614D01*
X37181122Y3729923D01*
X37221736Y3593953D01*
X37278596Y3482705D01*
X37351702Y3396179D01*
X37441053Y3334375D01*
X37546650Y3297292D01*
X37668493Y3284932D01*
X37805651Y3297774D01*
X37830410Y3305479D01*
X38217123Y3305479D01*
X38443151Y3305479D01*
X38443151Y4143836D01*
X38526884Y4205479D01*
X38621918Y4226027D01*
X38747260Y4174658D01*
X38771918Y4096062D01*
X38780137Y3963014D01*
X38778082Y3305479D01*
X38997945Y3305479D01*
X38997945Y3654795D01*
X39464384Y3654795D01*
X39464384Y3305479D01*
X39793151Y3305479D01*
X39793151Y3654795D01*
X39612329Y3654795D01*
X39464384Y3654795D01*
X38997945Y3654795D01*
X38997945Y3997945D01*
X41371233Y3997945D01*
X41371233Y3827397D01*
X41987671Y3827397D01*
X41987671Y3997945D01*
X41794521Y3997945D01*
X41371233Y3997945D01*
X38997945Y3997945D01*
X38997945Y4020548D01*
X38994070Y4055479D01*
X43282192Y4055479D01*
X43287785Y3875571D01*
X43304566Y3722146D01*
X43332534Y3595205D01*
X43394435Y3449829D01*
X43479452Y3354795D01*
X43591438Y3302397D01*
X43734247Y3284932D01*
X43877055Y3302397D01*
X43989041Y3354795D01*
X44074058Y3449829D01*
X44135959Y3595205D01*
X44163927Y3722146D01*
X44180708Y3875571D01*
X44186301Y4055479D01*
X44180708Y4235388D01*
X44171843Y4316438D01*
X44289041Y4316438D01*
X44289041Y3305479D01*
X44504795Y3305479D01*
X44504795Y4197260D01*
X44586986Y4226027D01*
X44646575Y4204452D01*
X44663014Y4127397D01*
X44663014Y3305479D01*
X44868493Y3305479D01*
X44868493Y4197260D01*
X44952740Y4226027D01*
X45010274Y4205479D01*
X45026712Y4127397D01*
X45026712Y3305479D01*
X45234247Y3305479D01*
X45234247Y4106849D01*
X45220120Y4249401D01*
X45191322Y4308219D01*
X45398630Y4308219D01*
X45398630Y3305479D01*
X45624658Y3305479D01*
X45624658Y4180822D01*
X45764384Y4226027D01*
X45916438Y4184932D01*
X45957534Y4034932D01*
X45957534Y3305479D01*
X46179452Y3305479D01*
X46179452Y3839726D01*
X46399315Y3839726D01*
X46408960Y3692536D01*
X46437895Y3567990D01*
X46486120Y3466089D01*
X46553634Y3386833D01*
X46640439Y3330221D01*
X46746533Y3296254D01*
X46871918Y3284932D01*
X47015240Y3297774D01*
X47165753Y3336301D01*
X47165753Y3506849D01*
X47025000Y3465240D01*
X46898630Y3451370D01*
X46788442Y3469092D01*
X46708562Y3522260D01*
X46657449Y3617551D01*
X46633562Y3761644D01*
X47217123Y3761644D01*
X47221233Y3843836D01*
X47210502Y4019292D01*
X47178311Y4159361D01*
X47124658Y4264041D01*
X47052895Y4332877D01*
X47443151Y4332877D01*
X47443151Y4166438D01*
X47654795Y4166438D01*
X47654795Y3613699D01*
X47673031Y3454452D01*
X47727740Y3354795D01*
X47829195Y3302397D01*
X47987671Y3284932D01*
X48101199Y3291096D01*
X48203425Y3309589D01*
X48203425Y3496575D01*
X48115582Y3473459D01*
X48028767Y3465753D01*
X47905479Y3499658D01*
X47878767Y3654795D01*
X47878767Y4166438D01*
X48223973Y4166438D01*
X48223973Y4332877D01*
X47878767Y4332877D01*
X47878767Y4373973D01*
X48552740Y4373973D01*
X48552740Y4207534D01*
X48826027Y4207534D01*
X48826027Y3305479D01*
X49056164Y3305479D01*
X49056164Y3839726D01*
X49502055Y3839726D01*
X49516210Y3671233D01*
X49558676Y3532877D01*
X49629452Y3424658D01*
X49726027Y3347032D01*
X49845890Y3300457D01*
X49989041Y3284932D01*
X50117979Y3297774D01*
X50241781Y3336301D01*
X50241781Y3504795D01*
X50126712Y3460103D01*
X50015753Y3445205D01*
X49898116Y3469863D01*
X49808219Y3543836D01*
X49751199Y3667123D01*
X49732192Y3839726D01*
X49748630Y4007449D01*
X49797945Y4128425D01*
X49876541Y4201627D01*
X49980822Y4226027D01*
X50036301Y4219863D01*
X50036301Y3983562D01*
X50252055Y3983562D01*
X50252055Y4096575D01*
X50550000Y4096575D01*
X50570548Y3978168D01*
X50632192Y3885959D01*
X50742637Y3814298D01*
X50909589Y3757534D01*
X51045205Y3695890D01*
X51082192Y3593151D01*
X51034932Y3485274D01*
X50878767Y3451370D01*
X50724144Y3471404D01*
X50560274Y3531507D01*
X50560274Y3350685D01*
X50669863Y3314155D01*
X50787671Y3292237D01*
X50913699Y3284932D01*
X51081421Y3304966D01*
X51206507Y3365068D01*
X51284332Y3462158D01*
X51310274Y3593151D01*
X51306164Y3620477D01*
X51290497Y3724658D01*
X51231164Y3819178D01*
X51117380Y3889041D01*
X50934247Y3946575D01*
X50811986Y4004110D01*
X50776027Y4096575D01*
X50820719Y4196747D01*
X50954795Y4230137D01*
X51110959Y4217295D01*
X51275342Y4178767D01*
X51275342Y4349315D01*
X51168037Y4374429D01*
X51054338Y4389498D01*
X50934247Y4394521D01*
X50766781Y4375257D01*
X50646575Y4317466D01*
X50574144Y4223716D01*
X50550000Y4096575D01*
X50252055Y4096575D01*
X50252055Y4353425D01*
X50125685Y4384247D01*
X49984932Y4394521D01*
X49919178Y4388709D01*
X49856821Y4383198D01*
X49748420Y4349231D01*
X49659729Y4292620D01*
X49590746Y4213363D01*
X49541473Y4111462D01*
X49511909Y3986916D01*
X49502055Y3839726D01*
X49056164Y3839726D01*
X49056164Y4373973D01*
X48784932Y4373973D01*
X48552740Y4373973D01*
X47878767Y4373973D01*
X47878767Y4723288D01*
X47843836Y4723288D01*
X47654795Y4723288D01*
X47654795Y4332877D01*
X47443151Y4332877D01*
X47052895Y4332877D01*
X47049087Y4336530D01*
X46951142Y4380023D01*
X46830822Y4394521D01*
X46698973Y4379110D01*
X46591096Y4332877D01*
X46549315Y4294507D01*
X46507192Y4255822D01*
X46447260Y4147945D01*
X46411301Y4009247D01*
X46399315Y3839726D01*
X46179452Y3839726D01*
X46179452Y4024658D01*
X46158134Y4207021D01*
X46094178Y4318493D01*
X46018950Y4360731D01*
X45906963Y4386073D01*
X45758219Y4394521D01*
X45626027Y4384932D01*
X45506164Y4356164D01*
X45398630Y4308219D01*
X45191322Y4308219D01*
X45177740Y4335959D01*
X45096318Y4379880D01*
X44965068Y4394521D01*
X44905479Y4387393D01*
X44857705Y4381678D01*
X44761644Y4343151D01*
X44683048Y4381678D01*
X44578767Y4394521D01*
X44425171Y4375000D01*
X44289041Y4316438D01*
X44171843Y4316438D01*
X44163927Y4388813D01*
X44135959Y4515753D01*
X44074058Y4661130D01*
X43989041Y4756164D01*
X43877055Y4808562D01*
X43734247Y4826027D01*
X43721918Y4824520D01*
X43591438Y4808562D01*
X43479452Y4756164D01*
X43394435Y4661130D01*
X43332534Y4515753D01*
X43304566Y4388813D01*
X43287785Y4235388D01*
X43282192Y4055479D01*
X38994070Y4055479D01*
X38978938Y4191866D01*
X38921918Y4307192D01*
X38823288Y4372688D01*
X38679452Y4394521D01*
X38568493Y4380356D01*
X38558733Y4379110D01*
X38443151Y4332877D01*
X38443151Y4846575D01*
X38217123Y4846575D01*
X38217123Y3305479D01*
X37830410Y3305479D01*
X37929452Y3336301D01*
X37929452Y3525342D01*
X37812329Y3477568D01*
X37703425Y3461644D01*
X37602968Y3478710D01*
X37520776Y3529909D01*
X37456849Y3615240D01*
X37411187Y3734703D01*
X37383790Y3888299D01*
X37374658Y4076027D01*
X37382934Y4249943D01*
X37407763Y4392237D01*
X37449144Y4502911D01*
X37507078Y4581963D01*
X37581564Y4629395D01*
X37672603Y4645205D01*
X37719863Y4636986D01*
X37719863Y4316438D01*
X37939726Y4316438D01*
X37939726Y4780822D01*
X37808733Y4814726D01*
X37662329Y4826027D01*
X37541931Y4814309D01*
X37437586Y4779152D01*
X37349294Y4720559D01*
X37277055Y4638527D01*
X37220869Y4533059D01*
X37180736Y4404152D01*
X37156657Y4251809D01*
X37148630Y4076027D01*
X36814893Y4076027D01*
X36850457Y4156849D01*
X36889155Y4295205D01*
X36902055Y4425342D01*
X36878682Y4598716D01*
X36808562Y4724315D01*
X36694264Y4800599D01*
X36538356Y4826027D01*
X36408219Y4814155D01*
X36382192Y4806552D01*
X36286301Y4778539D01*
X36172603Y4719178D01*
X35797179Y4719178D01*
X35786301Y4734589D01*
X35661473Y4803168D01*
X35492466Y4826027D01*
X35381050Y4818037D01*
X35265982Y4794064D01*
X35147260Y4754110D01*
X35147260Y4563014D01*
X35306507Y4627740D01*
X35451370Y4649315D01*
X35570091Y4627397D01*
X35641324Y4561644D01*
X35665068Y4452055D01*
X35646575Y4336473D01*
X35591096Y4256849D01*
X35494007Y4210616D01*
X35350685Y4195205D01*
X35309589Y4195205D01*
X35309589Y4014384D01*
X35350685Y4014384D01*
X35504795Y3998716D01*
X35605479Y3951712D01*
X35660959Y3869264D01*
X35679452Y3747260D01*
X35663271Y3623202D01*
X35614726Y3534589D01*
X35533818Y3481421D01*
X35420548Y3463699D01*
X35267979Y3484760D01*
X35118493Y3547945D01*
X33748630Y3547945D01*
X33748630Y4867123D01*
X48784932Y4867123D01*
X48784932Y4610274D01*
X49056164Y4610274D01*
X49056164Y4867123D01*
X48902055Y4867123D01*
X48784932Y4867123D01*
X33748630Y4867123D01*
X33748630Y5873973D01*
X35159589Y5873973D01*
X35878767Y5873973D01*
X35878767Y6052740D01*
X35389726Y6052740D01*
X35389726Y6593151D01*
X35858219Y6593151D01*
X35858219Y6767808D01*
X35389726Y6767808D01*
X35389726Y6897260D01*
X36156164Y6897260D01*
X36156164Y5421918D01*
X36382192Y5421918D01*
X36382192Y5894521D01*
X36469521Y5863699D01*
X36563014Y5853425D01*
X36683562Y5868836D01*
X36694521Y5873973D01*
X37189726Y5873973D01*
X37415753Y5873973D01*
X37415753Y6712329D01*
X37499486Y6773973D01*
X37594521Y6794521D01*
X37719863Y6743151D01*
X37744521Y6664555D01*
X37752740Y6531507D01*
X37750685Y5873973D01*
X37970548Y5873973D01*
X37970548Y6589041D01*
X37951541Y6760360D01*
X37894521Y6875685D01*
X37795890Y6941182D01*
X37787431Y6942466D01*
X38155479Y6942466D01*
X38510959Y5894521D01*
X38342466Y5421918D01*
X38568493Y5421918D01*
X38969997Y6665068D01*
X39248630Y6665068D01*
X39269178Y6546661D01*
X39330822Y6454452D01*
X39441267Y6382791D01*
X39608219Y6326027D01*
X39743836Y6264384D01*
X39780822Y6161644D01*
X39733562Y6053767D01*
X39577397Y6019863D01*
X39422774Y6039897D01*
X39258904Y6100000D01*
X39258904Y5919178D01*
X39368493Y5882648D01*
X39486301Y5860731D01*
X39612329Y5853425D01*
X39780051Y5873459D01*
X39905137Y5933562D01*
X39982962Y6030651D01*
X40008904Y6161644D01*
X39989127Y6293151D01*
X39929795Y6387671D01*
X39816010Y6457534D01*
X39632877Y6515068D01*
X39510616Y6572603D01*
X39474658Y6665068D01*
X39519349Y6765240D01*
X39653425Y6798630D01*
X39809589Y6785788D01*
X39973973Y6747260D01*
X39973973Y6917808D01*
X39866667Y6942922D01*
X39752968Y6957991D01*
X39632877Y6963014D01*
X39465411Y6943750D01*
X39345205Y6885959D01*
X39272774Y6792209D01*
X39248630Y6665068D01*
X38969997Y6665068D01*
X39059589Y6942466D01*
X38825342Y6942466D01*
X38611644Y6161644D01*
X38607534Y6161644D01*
X38379452Y6942466D01*
X38155479Y6942466D01*
X37787431Y6942466D01*
X37652055Y6963014D01*
X37531336Y6947603D01*
X37415753Y6901370D01*
X37415753Y7195205D01*
X41258219Y7195205D01*
X41564384Y7195205D01*
X41564384Y5873973D01*
X41794521Y5873973D01*
X41794521Y6408219D01*
X42289726Y6408219D01*
X42302854Y6238699D01*
X42342237Y6100000D01*
X42407877Y5992123D01*
X42499772Y5915068D01*
X42617922Y5868836D01*
X42762329Y5853425D01*
X42905651Y5866267D01*
X43056164Y5904795D01*
X43056164Y6075342D01*
X42915411Y6033733D01*
X42789041Y6019863D01*
X42678853Y6037586D01*
X42598973Y6090753D01*
X42547860Y6186045D01*
X42523973Y6330137D01*
X43107534Y6330137D01*
X43111644Y6412329D01*
X43100913Y6587785D01*
X43083151Y6665068D01*
X43358219Y6665068D01*
X43378767Y6546661D01*
X43440411Y6454452D01*
X43550856Y6382791D01*
X43717808Y6326027D01*
X43853425Y6264384D01*
X43890411Y6161644D01*
X43843151Y6053767D01*
X43686986Y6019863D01*
X43532363Y6039897D01*
X43368493Y6100000D01*
X43368493Y5919178D01*
X43478082Y5882648D01*
X43595890Y5860731D01*
X43721918Y5853425D01*
X43889640Y5873459D01*
X44014726Y5933562D01*
X44092551Y6030651D01*
X44118493Y6161644D01*
X44098716Y6293151D01*
X44039384Y6387671D01*
X43925599Y6457534D01*
X43742466Y6515068D01*
X43620205Y6572603D01*
X43584247Y6665068D01*
X43628938Y6765240D01*
X43763014Y6798630D01*
X43919178Y6785788D01*
X44083562Y6747260D01*
X44083562Y6901370D01*
X44360959Y6901370D01*
X44360959Y6734932D01*
X44572603Y6734932D01*
X44572603Y6182192D01*
X44590839Y6022945D01*
X44645548Y5923288D01*
X44747003Y5870890D01*
X44905479Y5853425D01*
X45019007Y5859589D01*
X45098519Y5873973D01*
X46347945Y5873973D01*
X46549315Y5873973D01*
X46584247Y7147945D01*
X46590411Y7147945D01*
X46707534Y6223288D01*
X46902740Y6223288D01*
X47030137Y7147945D01*
X47032192Y7147945D01*
X47063014Y5873973D01*
X47282877Y5873973D01*
X47255799Y6408219D01*
X47412329Y6408219D01*
X47424201Y6231507D01*
X47459817Y6090411D01*
X47519178Y5984932D01*
X47602740Y5911872D01*
X47710959Y5868037D01*
X47843836Y5853425D01*
X47976712Y5868037D01*
X48084932Y5911872D01*
X48168493Y5984932D01*
X48227854Y6090411D01*
X48263470Y6231507D01*
X48275342Y6408219D01*
X48450000Y6408219D01*
X48462100Y6226370D01*
X48498402Y6083562D01*
X48558904Y5979795D01*
X48645434Y5909589D01*
X48759817Y5867466D01*
X48902055Y5853425D01*
X49029452Y5860731D01*
X49145890Y5882648D01*
X49251370Y5919178D01*
X49251370Y6213014D01*
X49518493Y6213014D01*
X49539555Y6038356D01*
X49602740Y5929452D01*
X49675342Y5887215D01*
X49780822Y5861872D01*
X49919178Y5853425D01*
X50051370Y5863014D01*
X50171233Y5891781D01*
X50278767Y5939726D01*
X50278767Y6942466D01*
X50052740Y6942466D01*
X50054795Y6063014D01*
X49915068Y6021918D01*
X49776370Y6061986D01*
X49738356Y6213014D01*
X49738356Y6942466D01*
X49518493Y6942466D01*
X49518493Y6213014D01*
X49251370Y6213014D01*
X49251370Y7207534D01*
X50525342Y7207534D01*
X50800685Y7207534D01*
X50800685Y5873973D01*
X51306164Y5873973D01*
X51306164Y6040411D01*
X51030822Y6040411D01*
X51030822Y6408219D01*
X51536301Y6408219D01*
X51545946Y6261029D01*
X51574881Y6136483D01*
X51623106Y6034582D01*
X51690621Y5955326D01*
X51777425Y5898714D01*
X51883520Y5864747D01*
X52008904Y5853425D01*
X52152226Y5866267D01*
X52302740Y5904795D01*
X52302740Y6075342D01*
X52161986Y6033733D01*
X52035616Y6019863D01*
X51925428Y6037586D01*
X51845548Y6090753D01*
X51794435Y6186045D01*
X51770548Y6330137D01*
X52354110Y6330137D01*
X52358219Y6412329D01*
X52347489Y6587785D01*
X52315297Y6727854D01*
X52261644Y6832534D01*
X52186073Y6905023D01*
X52088128Y6948516D01*
X51967808Y6963014D01*
X51835959Y6947603D01*
X51728082Y6901370D01*
X51644178Y6824315D01*
X51584247Y6716438D01*
X51548288Y6577740D01*
X51536301Y6408219D01*
X51030822Y6408219D01*
X51030822Y7373973D01*
X50525342Y7373973D01*
X50525342Y7207534D01*
X49251370Y7207534D01*
X49251370Y7415068D01*
X49025342Y7415068D01*
X49025342Y6917808D01*
X48930308Y6951712D01*
X48830137Y6963014D01*
X48712443Y6948630D01*
X48616895Y6905479D01*
X48543493Y6833562D01*
X48491553Y6728767D01*
X48460388Y6586986D01*
X48450000Y6408219D01*
X48275342Y6408219D01*
X48263470Y6584932D01*
X48227854Y6726027D01*
X48168493Y6831507D01*
X48084932Y6904566D01*
X47976712Y6948402D01*
X47843836Y6963014D01*
X47710959Y6948402D01*
X47602740Y6904566D01*
X47519178Y6831507D01*
X47459817Y6726027D01*
X47424201Y6584932D01*
X47412329Y6408219D01*
X47255799Y6408219D01*
X47206849Y7373973D01*
X46947945Y7373973D01*
X46824658Y6418493D01*
X46820548Y6418493D01*
X46695205Y7373973D01*
X46426027Y7373973D01*
X46347945Y5873973D01*
X45098519Y5873973D01*
X45121233Y5878082D01*
X45121233Y6065068D01*
X45033390Y6041952D01*
X44946575Y6034247D01*
X44823288Y6068151D01*
X44796575Y6223288D01*
X44796575Y6734932D01*
X45141781Y6734932D01*
X45141781Y6901370D01*
X44796575Y6901370D01*
X44796575Y7291781D01*
X44572603Y7291781D01*
X44572603Y6901370D01*
X44360959Y6901370D01*
X44083562Y6901370D01*
X44083562Y6917808D01*
X43976256Y6942922D01*
X43862557Y6957991D01*
X43742466Y6963014D01*
X43575000Y6943750D01*
X43454795Y6885959D01*
X43382363Y6792209D01*
X43358219Y6665068D01*
X43083151Y6665068D01*
X43068721Y6727854D01*
X43015068Y6832534D01*
X42939498Y6905023D01*
X42841553Y6948516D01*
X42721233Y6963014D01*
X42589384Y6947603D01*
X42481507Y6901370D01*
X42397603Y6824315D01*
X42337671Y6716438D01*
X42301712Y6577740D01*
X42289726Y6408219D01*
X41794521Y6408219D01*
X41794521Y7195205D01*
X42100685Y7195205D01*
X42100685Y7373973D01*
X41258219Y7373973D01*
X41258219Y7195205D01*
X37415753Y7195205D01*
X37415753Y7415068D01*
X37189726Y7415068D01*
X37189726Y5873973D01*
X36694521Y5873973D01*
X36782192Y5915068D01*
X36858904Y5992123D01*
X36913699Y6100000D01*
X36946575Y6238699D01*
X36957534Y6408219D01*
X36945548Y6588014D01*
X36909589Y6730137D01*
X36849658Y6834589D01*
X36763470Y6905936D01*
X36648744Y6948744D01*
X36505479Y6963014D01*
X36382648Y6955708D01*
X36266210Y6933790D01*
X36156164Y6897260D01*
X35389726Y6897260D01*
X35389726Y7195205D01*
X35878767Y7195205D01*
X35878767Y7373973D01*
X35159589Y7373973D01*
X35159589Y5873973D01*
X33748630Y5873973D01*
X33748630Y8271233D01*
X35118493Y8271233D01*
X55577397Y8271233D01*
X55748630Y8271233D01*
X57501370Y8271233D01*
X55748630Y2428767D01*
G37*
D13*
%TO.C,C1*%
X11340000Y11407836D02*
X11340000Y11192164D01*
X12060000Y11407836D02*
X12060000Y11192164D01*
%TD*%
%LPC*%
D10*
%TO.C,G\u002A\u002A\u002A*%
G36*
X60628791Y4507870D02*
G01*
X60805984Y4507816D01*
X60842629Y4495360D01*
X60886015Y4478103D01*
X60923717Y4457157D01*
X60958856Y4430560D01*
X60985707Y4405421D01*
X61020798Y4365096D01*
X61047655Y4322319D01*
X61067532Y4274870D01*
X61076072Y4245465D01*
X61077749Y4238505D01*
X61079218Y4231366D01*
X61080491Y4223393D01*
X61081583Y4213934D01*
X61082508Y4202338D01*
X61083279Y4187950D01*
X61083911Y4170120D01*
X61084417Y4148193D01*
X61084811Y4121518D01*
X61085107Y4089443D01*
X61085319Y4051313D01*
X61085461Y4006478D01*
X61085546Y3954284D01*
X61085589Y3894080D01*
X61085603Y3825211D01*
X61085604Y3797165D01*
X61085598Y3725026D01*
X61085571Y3661824D01*
X61085511Y3606937D01*
X61085402Y3559741D01*
X61085233Y3519615D01*
X61084988Y3485936D01*
X61084654Y3458081D01*
X61084219Y3435428D01*
X61083668Y3417354D01*
X61082988Y3403236D01*
X61082165Y3392453D01*
X61081185Y3384381D01*
X61080036Y3378399D01*
X61078703Y3373882D01*
X61077173Y3370210D01*
X61076254Y3368347D01*
X61059274Y3344478D01*
X61037059Y3327434D01*
X61011319Y3317950D01*
X60983760Y3316758D01*
X60965626Y3320798D01*
X60939899Y3333669D01*
X60919578Y3352489D01*
X60910618Y3366471D01*
X60909031Y3370021D01*
X60907634Y3374288D01*
X60906411Y3379891D01*
X60905345Y3387451D01*
X60904420Y3397586D01*
X60903620Y3410915D01*
X60902928Y3428057D01*
X60902327Y3449632D01*
X60901802Y3476258D01*
X60901336Y3508554D01*
X60900912Y3547141D01*
X60900514Y3592636D01*
X60900126Y3645659D01*
X60899732Y3706829D01*
X60899314Y3776765D01*
X60899190Y3798120D01*
X60896801Y4211575D01*
X60885706Y4232365D01*
X60865403Y4262331D01*
X60839482Y4288260D01*
X60810659Y4307464D01*
X60809050Y4308269D01*
X60799826Y4312663D01*
X60791457Y4315982D01*
X60782419Y4318401D01*
X60771186Y4320097D01*
X60756231Y4321243D01*
X60736028Y4322017D01*
X60709052Y4322594D01*
X60680605Y4323045D01*
X60579125Y4324579D01*
X60577839Y3854622D01*
X60576552Y3384665D01*
X60563876Y3363105D01*
X60546245Y3341775D01*
X60523206Y3326575D01*
X60497002Y3318334D01*
X60469875Y3317879D01*
X60452933Y3322107D01*
X60436908Y3330140D01*
X60422243Y3340703D01*
X60420889Y3341952D01*
X60416528Y3345950D01*
X60412636Y3349477D01*
X60409188Y3353071D01*
X60406157Y3357272D01*
X60403516Y3362616D01*
X60401237Y3369643D01*
X60399296Y3378890D01*
X60397664Y3390896D01*
X60396316Y3406199D01*
X60395224Y3425337D01*
X60394361Y3448848D01*
X60393702Y3477271D01*
X60393219Y3511144D01*
X60392885Y3551005D01*
X60392674Y3597392D01*
X60392559Y3650843D01*
X60392514Y3711897D01*
X60392511Y3781092D01*
X60392524Y3858967D01*
X60392529Y3913244D01*
X60392529Y4440379D01*
X60402668Y4461323D01*
X60416266Y4481085D01*
X60432202Y4495096D01*
X60451598Y4507925D01*
X60628791Y4507870D01*
G37*
G36*
X58181320Y4519025D02*
G01*
X58224263Y4513731D01*
X58236027Y4511087D01*
X58291638Y4492371D01*
X58341877Y4466007D01*
X58386241Y4432571D01*
X58424230Y4392642D01*
X58455343Y4346795D01*
X58479079Y4295607D01*
X58494938Y4239656D01*
X58500138Y4206911D01*
X58501304Y4191316D01*
X58502255Y4166634D01*
X58502986Y4133332D01*
X58503493Y4091882D01*
X58503769Y4042751D01*
X58503812Y3986410D01*
X58503615Y3923327D01*
X58503422Y3888937D01*
X58503039Y3830583D01*
X58502669Y3780958D01*
X58502282Y3739229D01*
X58501845Y3704567D01*
X58501325Y3676139D01*
X58500690Y3653115D01*
X58499908Y3634662D01*
X58498946Y3619951D01*
X58497773Y3608149D01*
X58496355Y3598426D01*
X58494660Y3589950D01*
X58492657Y3581890D01*
X58491285Y3576878D01*
X58471998Y3524252D01*
X58445010Y3475490D01*
X58411253Y3431640D01*
X58371662Y3393751D01*
X58327167Y3362871D01*
X58281570Y3341120D01*
X58234937Y3326924D01*
X58186581Y3318567D01*
X58139608Y3316454D01*
X58110162Y3318773D01*
X58054037Y3331179D01*
X58001799Y3352032D01*
X57954081Y3380791D01*
X57911519Y3416912D01*
X57874748Y3459854D01*
X57844403Y3509074D01*
X57821118Y3564030D01*
X57820356Y3566299D01*
X57818099Y3573210D01*
X57816165Y3579852D01*
X57814527Y3586995D01*
X57813154Y3595415D01*
X57812018Y3605883D01*
X57811089Y3619173D01*
X57810338Y3636059D01*
X57809735Y3657314D01*
X57809252Y3683710D01*
X57808859Y3716021D01*
X57808527Y3755021D01*
X57808226Y3801482D01*
X57807928Y3856177D01*
X57807700Y3900668D01*
X57807610Y3920006D01*
X57995446Y3920006D01*
X57995446Y3623657D01*
X58008102Y3596660D01*
X58028787Y3562970D01*
X58055393Y3536279D01*
X58086815Y3517107D01*
X58121946Y3505973D01*
X58159682Y3503394D01*
X58195192Y3508880D01*
X58231815Y3522867D01*
X58262491Y3544280D01*
X58287419Y3573286D01*
X58302291Y3599758D01*
X58315694Y3628437D01*
X58315694Y3917616D01*
X58315694Y4206796D01*
X58304575Y4234335D01*
X58288801Y4262759D01*
X58266288Y4289190D01*
X58239810Y4310673D01*
X58225075Y4319062D01*
X58196131Y4328745D01*
X58162947Y4333007D01*
X58129258Y4331700D01*
X58098797Y4324678D01*
X58097248Y4324108D01*
X58066736Y4308067D01*
X58038931Y4284957D01*
X58016568Y4257268D01*
X58008830Y4243612D01*
X57995446Y4216355D01*
X57995446Y3920006D01*
X57807610Y3920006D01*
X57807408Y3963158D01*
X57807223Y4016867D01*
X57807159Y4062572D01*
X57807231Y4101051D01*
X57807452Y4133082D01*
X57807837Y4159442D01*
X57808401Y4180909D01*
X57809157Y4198261D01*
X57810119Y4212275D01*
X57810541Y4216355D01*
X57811303Y4223729D01*
X57812721Y4233400D01*
X57813906Y4239744D01*
X57829834Y4295291D01*
X57853891Y4346459D01*
X57885434Y4392523D01*
X57923821Y4432759D01*
X57968409Y4466441D01*
X58018556Y4492845D01*
X58048024Y4503921D01*
X58089582Y4513982D01*
X58135220Y4519063D01*
X58181320Y4519025D01*
G37*
G36*
X58965644Y4507906D02*
G01*
X59002838Y4507810D01*
X59032688Y4507578D01*
X59056305Y4507151D01*
X59074796Y4506470D01*
X59089270Y4505476D01*
X59100834Y4504111D01*
X59110599Y4502315D01*
X59119672Y4500030D01*
X59129162Y4497196D01*
X59130655Y4496731D01*
X59171425Y4481984D01*
X59206333Y4464425D01*
X59238447Y4442183D01*
X59270833Y4413386D01*
X59276591Y4407700D01*
X59305598Y4376289D01*
X59328331Y4345545D01*
X59346836Y4312220D01*
X59363157Y4273068D01*
X59365525Y4266543D01*
X59376627Y4235475D01*
X59378118Y3932603D01*
X59378410Y3871129D01*
X59378624Y3818429D01*
X59378740Y3773717D01*
X59378739Y3736208D01*
X59378602Y3705117D01*
X59378311Y3679657D01*
X59377846Y3659043D01*
X59377189Y3642490D01*
X59376321Y3629212D01*
X59375222Y3618423D01*
X59373873Y3609338D01*
X59372256Y3601172D01*
X59370352Y3593138D01*
X59369885Y3591277D01*
X59351336Y3536632D01*
X59324917Y3486882D01*
X59291316Y3442663D01*
X59251224Y3404615D01*
X59205329Y3373376D01*
X59154322Y3349584D01*
X59098892Y3333877D01*
X59090073Y3332229D01*
X59060908Y3328553D01*
X59023138Y3326125D01*
X58977643Y3324997D01*
X58960522Y3324918D01*
X58872899Y3324918D01*
X58871526Y3099071D01*
X58871207Y3044784D01*
X58870883Y2999195D01*
X58870434Y2961444D01*
X58869738Y2930669D01*
X58868672Y2906009D01*
X58867115Y2886604D01*
X58864946Y2871593D01*
X58862042Y2860116D01*
X58858282Y2851310D01*
X58853544Y2844315D01*
X58847707Y2838272D01*
X58840648Y2832317D01*
X58832933Y2826148D01*
X58811067Y2814199D01*
X58785145Y2808981D01*
X58758115Y2810718D01*
X58734733Y2818686D01*
X58717363Y2830762D01*
X58702643Y2846497D01*
X58701274Y2848473D01*
X58688521Y2867745D01*
X58687509Y3510365D01*
X58872544Y3510365D01*
X58971725Y3512119D01*
X59005072Y3512751D01*
X59030439Y3513433D01*
X59049402Y3514350D01*
X59063540Y3515689D01*
X59074431Y3517637D01*
X59083652Y3520379D01*
X59092781Y3524102D01*
X59099586Y3527216D01*
X59129270Y3545414D01*
X59155237Y3569776D01*
X59175220Y3597920D01*
X59183143Y3614954D01*
X59185210Y3620715D01*
X59186965Y3626593D01*
X59188427Y3633370D01*
X59189619Y3641829D01*
X59190563Y3652754D01*
X59191280Y3666927D01*
X59191791Y3685134D01*
X59192119Y3708155D01*
X59192284Y3736775D01*
X59192309Y3771777D01*
X59192216Y3813945D01*
X59192024Y3864060D01*
X59191758Y3922907D01*
X59191741Y3926543D01*
X59190402Y4211575D01*
X59177735Y4235569D01*
X59158998Y4262992D01*
X59134295Y4287471D01*
X59106473Y4306448D01*
X59090800Y4313642D01*
X59080439Y4317207D01*
X59070045Y4319844D01*
X59057977Y4321689D01*
X59042590Y4322880D01*
X59022242Y4323553D01*
X58995288Y4323847D01*
X58967961Y4323901D01*
X58872544Y4323901D01*
X58872544Y3917133D01*
X58872544Y3510365D01*
X58687509Y3510365D01*
X58687283Y3653974D01*
X58686869Y3917133D01*
X58686046Y4440204D01*
X58696227Y4461235D01*
X58709896Y4481117D01*
X58725801Y4495096D01*
X58745193Y4507925D01*
X58920000Y4507925D01*
X58965644Y4507906D01*
G37*
G36*
X65397796Y4517923D02*
G01*
X65433797Y4511480D01*
X65469665Y4499663D01*
X65501262Y4485489D01*
X65533459Y4466518D01*
X65565809Y4441832D01*
X65595693Y4413785D01*
X65620489Y4384727D01*
X65631219Y4368820D01*
X65640810Y4351420D01*
X65645889Y4337073D01*
X65647782Y4321259D01*
X65647948Y4311789D01*
X65646983Y4292475D01*
X65643271Y4278036D01*
X65635591Y4263912D01*
X65634799Y4262704D01*
X65615974Y4242302D01*
X65591815Y4228075D01*
X65564789Y4220974D01*
X65537365Y4221952D01*
X65532228Y4223152D01*
X65512155Y4230953D01*
X65494914Y4243597D01*
X65478265Y4262911D01*
X65471330Y4272824D01*
X65447709Y4300468D01*
X65419496Y4319728D01*
X65386714Y4330592D01*
X65358769Y4333225D01*
X65328964Y4331253D01*
X65304184Y4324062D01*
X65280772Y4310437D01*
X65273439Y4304891D01*
X65248503Y4279584D01*
X65231993Y4249770D01*
X65223935Y4215501D01*
X65223079Y4197065D01*
X65224098Y4175755D01*
X65227408Y4159452D01*
X65234054Y4143685D01*
X65236731Y4138615D01*
X65245943Y4123291D01*
X65255267Y4110270D01*
X65260214Y4104767D01*
X65266481Y4099856D01*
X65279596Y4090210D01*
X65298556Y4076547D01*
X65322356Y4059583D01*
X65349992Y4040035D01*
X65380460Y4018620D01*
X65401787Y4003704D01*
X65434368Y3980776D01*
X65465424Y3958573D01*
X65493818Y3937933D01*
X65518409Y3919699D01*
X65538059Y3904710D01*
X65551629Y3893808D01*
X65556262Y3889690D01*
X65591641Y3849004D01*
X65619819Y3802938D01*
X65640435Y3752792D01*
X65653129Y3699862D01*
X65657543Y3645447D01*
X65653315Y3590843D01*
X65647258Y3561519D01*
X65631287Y3516787D01*
X65607111Y3473270D01*
X65576078Y3432494D01*
X65539537Y3395988D01*
X65498837Y3365277D01*
X65455327Y3341889D01*
X65451976Y3340468D01*
X65408396Y3326468D01*
X65360834Y3318361D01*
X65312641Y3316460D01*
X65267170Y3321079D01*
X65260132Y3322496D01*
X65223172Y3333186D01*
X65184406Y3348927D01*
X65148500Y3367734D01*
X65137582Y3374601D01*
X65111340Y3394749D01*
X65086202Y3419022D01*
X65063636Y3445547D01*
X65045109Y3472448D01*
X65032087Y3497853D01*
X65026508Y3516484D01*
X65026386Y3543660D01*
X65034537Y3568828D01*
X65049689Y3590565D01*
X65070574Y3607445D01*
X65095921Y3618046D01*
X65119778Y3621057D01*
X65146833Y3617534D01*
X65170155Y3606435D01*
X65191126Y3586963D01*
X65200811Y3574340D01*
X65226515Y3543991D01*
X65255096Y3522558D01*
X65287280Y3509643D01*
X65323797Y3504846D01*
X65327700Y3504797D01*
X65361727Y3508041D01*
X65391461Y3518614D01*
X65419399Y3537485D01*
X65425448Y3542753D01*
X65448786Y3568782D01*
X65463372Y3597431D01*
X65469902Y3630279D01*
X65470412Y3645166D01*
X65466720Y3682105D01*
X65455734Y3713554D01*
X65436968Y3740738D01*
X65428994Y3748972D01*
X65420267Y3756366D01*
X65404805Y3768428D01*
X65383706Y3784343D01*
X65358068Y3803298D01*
X65328987Y3824478D01*
X65297561Y3847070D01*
X65277376Y3861433D01*
X65234108Y3892366D01*
X65198017Y3918854D01*
X65168253Y3941649D01*
X65143969Y3961501D01*
X65124317Y3979160D01*
X65108447Y3995376D01*
X65095511Y4010901D01*
X65084661Y4026485D01*
X65077740Y4038028D01*
X65062979Y4069356D01*
X65050308Y4106287D01*
X65040868Y4144915D01*
X65035800Y4181331D01*
X65035758Y4181911D01*
X65036622Y4234022D01*
X65046224Y4284147D01*
X65063817Y4331503D01*
X65088655Y4375307D01*
X65119992Y4414776D01*
X65157082Y4449129D01*
X65199179Y4477582D01*
X65245537Y4499353D01*
X65295409Y4513660D01*
X65348051Y4519720D01*
X65357983Y4519874D01*
X65397796Y4517923D01*
G37*
G36*
X59917090Y4518503D02*
G01*
X59962245Y4510910D01*
X60017863Y4492144D01*
X60068308Y4465526D01*
X60113064Y4431554D01*
X60151618Y4390724D01*
X60183454Y4343533D01*
X60208059Y4290477D01*
X60216365Y4265724D01*
X60219263Y4255454D01*
X60221602Y4245239D01*
X60223459Y4233886D01*
X60224911Y4220200D01*
X60226035Y4202987D01*
X60226908Y4181054D01*
X60227607Y4153205D01*
X60228208Y4118246D01*
X60228790Y4074984D01*
X60228820Y4072513D01*
X60229302Y4019413D01*
X60229309Y3975723D01*
X60228837Y3941302D01*
X60227885Y3916012D01*
X60226450Y3899714D01*
X60225495Y3894681D01*
X60213829Y3869021D01*
X60194581Y3847672D01*
X60177026Y3836149D01*
X60172318Y3833954D01*
X60166990Y3832131D01*
X60160159Y3830647D01*
X60150942Y3829466D01*
X60138458Y3828554D01*
X60121823Y3827877D01*
X60100156Y3827399D01*
X60072574Y3827088D01*
X60038195Y3826907D01*
X59996137Y3826822D01*
X59945516Y3826800D01*
X59938225Y3826799D01*
X59717752Y3826799D01*
X59719357Y3725228D01*
X59719927Y3691496D01*
X59720543Y3665798D01*
X59721382Y3646606D01*
X59722622Y3632395D01*
X59724438Y3621640D01*
X59727007Y3612813D01*
X59730507Y3604390D01*
X59734248Y3596605D01*
X59755536Y3563078D01*
X59782958Y3535763D01*
X59813427Y3516834D01*
X59829469Y3510130D01*
X59844457Y3506263D01*
X59862152Y3504529D01*
X59881087Y3504208D01*
X59910876Y3505807D01*
X59935496Y3511336D01*
X59958109Y3522004D01*
X59981876Y3539021D01*
X59990175Y3545947D01*
X60018189Y3564997D01*
X60046540Y3574793D01*
X60074625Y3575310D01*
X60101841Y3566523D01*
X60124092Y3551507D01*
X60141341Y3532179D01*
X60150741Y3509649D01*
X60152942Y3482168D01*
X60152502Y3475007D01*
X60148941Y3455046D01*
X60141016Y3437202D01*
X60127483Y3419621D01*
X60107097Y3400446D01*
X60096793Y3391953D01*
X60055520Y3364230D01*
X60008961Y3342308D01*
X59959233Y3326753D01*
X59908450Y3318128D01*
X59858730Y3316996D01*
X59828509Y3320454D01*
X59771118Y3334939D01*
X59718414Y3357217D01*
X59671034Y3386817D01*
X59629615Y3423267D01*
X59594795Y3466095D01*
X59567722Y3513721D01*
X59561280Y3527534D01*
X59555749Y3539776D01*
X59551054Y3551269D01*
X59547123Y3562836D01*
X59543882Y3575301D01*
X59541257Y3589486D01*
X59539174Y3606215D01*
X59537560Y3626311D01*
X59536341Y3650597D01*
X59535444Y3679896D01*
X59534795Y3715031D01*
X59534320Y3756826D01*
X59533946Y3806103D01*
X59533598Y3863685D01*
X59533403Y3897397D01*
X59533070Y3960708D01*
X59532883Y4013213D01*
X59717738Y4013213D01*
X59881087Y4013213D01*
X60044437Y4013213D01*
X60042824Y4112394D01*
X60042242Y4145717D01*
X60041602Y4171057D01*
X60040720Y4189990D01*
X60039409Y4204091D01*
X60037485Y4214936D01*
X60034763Y4224101D01*
X60031057Y4233161D01*
X60027793Y4240254D01*
X60007108Y4273875D01*
X59980193Y4300573D01*
X59947980Y4319756D01*
X59911403Y4330832D01*
X59881087Y4333461D01*
X59841266Y4329174D01*
X59805905Y4316489D01*
X59775425Y4295668D01*
X59750248Y4266971D01*
X59736673Y4243707D01*
X59720963Y4211814D01*
X59719351Y4112513D01*
X59717738Y4013213D01*
X59532883Y4013213D01*
X59532876Y4015215D01*
X59532833Y4061673D01*
X59532953Y4100836D01*
X59533247Y4133460D01*
X59533726Y4160298D01*
X59534403Y4182106D01*
X59535289Y4199638D01*
X59536395Y4213650D01*
X59537734Y4224895D01*
X59538513Y4229826D01*
X59552129Y4284664D01*
X59573442Y4334457D01*
X59603034Y4380322D01*
X59637439Y4419375D01*
X59668355Y4447700D01*
X59698969Y4469697D01*
X59732637Y4487465D01*
X59769903Y4502126D01*
X59816618Y4514197D01*
X59866803Y4519707D01*
X59917090Y4518503D01*
G37*
G36*
X62766128Y4510134D02*
G01*
X62806966Y4509733D01*
X62840724Y4508849D01*
X62868643Y4507327D01*
X62891960Y4505013D01*
X62911915Y4501749D01*
X62929748Y4497381D01*
X62946698Y4491753D01*
X62964004Y4484709D01*
X62980805Y4477078D01*
X63031685Y4448498D01*
X63075365Y4413670D01*
X63112033Y4372409D01*
X63141878Y4324533D01*
X63145796Y4316732D01*
X63152777Y4302372D01*
X63158785Y4289470D01*
X63163893Y4277209D01*
X63168174Y4264775D01*
X63171700Y4251352D01*
X63174546Y4236126D01*
X63176784Y4218282D01*
X63178486Y4197004D01*
X63179727Y4171477D01*
X63180579Y4140887D01*
X63181115Y4104418D01*
X63181408Y4061255D01*
X63181531Y4010584D01*
X63181558Y3951588D01*
X63181558Y3917616D01*
X63181563Y3854536D01*
X63181524Y3800187D01*
X63181362Y3753744D01*
X63180995Y3714379D01*
X63180343Y3681265D01*
X63179326Y3653574D01*
X63177863Y3630480D01*
X63175874Y3611155D01*
X63173279Y3594771D01*
X63169996Y3580503D01*
X63165946Y3567521D01*
X63161049Y3555001D01*
X63155222Y3542113D01*
X63148388Y3528031D01*
X63142519Y3516123D01*
X63114426Y3469585D01*
X63078739Y3428148D01*
X63036375Y3392561D01*
X62988254Y3363575D01*
X62935294Y3341939D01*
X62925706Y3338997D01*
X62912470Y3335461D01*
X62898921Y3332720D01*
X62883447Y3330631D01*
X62864436Y3329051D01*
X62840278Y3327837D01*
X62809362Y3326845D01*
X62781247Y3326173D01*
X62672506Y3323792D01*
X62672506Y3101212D01*
X62672494Y3049261D01*
X62672434Y3005982D01*
X62672289Y2970489D01*
X62672021Y2941893D01*
X62671594Y2919307D01*
X62670971Y2901845D01*
X62670115Y2888619D01*
X62668989Y2878741D01*
X62667556Y2871325D01*
X62665779Y2865483D01*
X62663621Y2860327D01*
X62662368Y2857688D01*
X62646444Y2834765D01*
X62624469Y2819232D01*
X62596495Y2811120D01*
X62584717Y2810010D01*
X62563084Y2810379D01*
X62545572Y2813418D01*
X62540972Y2815098D01*
X62523655Y2826813D01*
X62507349Y2844320D01*
X62495052Y2864057D01*
X62491160Y2874288D01*
X62490504Y2881406D01*
X62489891Y2897460D01*
X62489323Y2921825D01*
X62488798Y2953877D01*
X62488317Y2992992D01*
X62487880Y3038546D01*
X62487487Y3089916D01*
X62487138Y3146476D01*
X62486834Y3207603D01*
X62486573Y3272673D01*
X62486356Y3341062D01*
X62486184Y3412146D01*
X62486055Y3485300D01*
X62486027Y3510365D01*
X62672506Y3510365D01*
X62771688Y3512162D01*
X62805045Y3512810D01*
X62830429Y3513505D01*
X62849426Y3514436D01*
X62863621Y3515789D01*
X62874601Y3517753D01*
X62883949Y3520515D01*
X62893253Y3524262D01*
X62900109Y3527353D01*
X62933759Y3547866D01*
X62961242Y3575588D01*
X62981757Y3609317D01*
X62995145Y3637996D01*
X62995145Y3920006D01*
X62995145Y4202016D01*
X62984299Y4225534D01*
X62963744Y4260141D01*
X62937037Y4287652D01*
X62910703Y4305097D01*
X62880429Y4321511D01*
X62776467Y4323041D01*
X62672506Y4324570D01*
X62672506Y3917467D01*
X62672506Y3510365D01*
X62486027Y3510365D01*
X62485971Y3559900D01*
X62485931Y3635323D01*
X62485936Y3710944D01*
X62485984Y3786140D01*
X62486077Y3860285D01*
X62486186Y3917467D01*
X62486215Y3932757D01*
X62486396Y4002931D01*
X62486622Y4070183D01*
X62486893Y4133889D01*
X62487208Y4193424D01*
X62487568Y4248166D01*
X62487972Y4297489D01*
X62488420Y4340769D01*
X62488914Y4377383D01*
X62489451Y4406707D01*
X62490034Y4428116D01*
X62490661Y4440986D01*
X62491083Y4444444D01*
X62502369Y4468405D01*
X62520855Y4488725D01*
X62540863Y4501330D01*
X62546939Y4503756D01*
X62554054Y4505695D01*
X62563292Y4507201D01*
X62575739Y4508329D01*
X62592479Y4509134D01*
X62614597Y4509670D01*
X62643179Y4509992D01*
X62679308Y4510155D01*
X62716971Y4510210D01*
X62766128Y4510134D01*
G37*
G36*
X63488110Y5025557D02*
G01*
X63512665Y5012803D01*
X63523878Y5003199D01*
X63535489Y4988801D01*
X63544430Y4972826D01*
X63546663Y4966680D01*
X63548151Y4956121D01*
X63549396Y4936075D01*
X63550399Y4906611D01*
X63551156Y4867799D01*
X63551667Y4819708D01*
X63551930Y4762408D01*
X63551968Y4728992D01*
X63551994Y4510315D01*
X63653996Y4510315D01*
X63690167Y4510184D01*
X63718522Y4509714D01*
X63740802Y4508784D01*
X63758747Y4507278D01*
X63774098Y4505075D01*
X63788597Y4502057D01*
X63793806Y4500783D01*
X63849443Y4482098D01*
X63899748Y4455757D01*
X63944198Y4422366D01*
X63982272Y4382529D01*
X64013446Y4336852D01*
X64037197Y4285941D01*
X64053005Y4230401D01*
X64058577Y4193992D01*
X64059521Y4180142D01*
X64060362Y4158101D01*
X64061100Y4128776D01*
X64061737Y4093075D01*
X64062273Y4051904D01*
X64062708Y4006172D01*
X64063043Y3956786D01*
X64063279Y3904652D01*
X64063416Y3850678D01*
X64063455Y3795772D01*
X64063397Y3740840D01*
X64063241Y3686791D01*
X64062990Y3634531D01*
X64062643Y3584967D01*
X64062200Y3539008D01*
X64061664Y3497559D01*
X64061033Y3461529D01*
X64060310Y3431825D01*
X64059494Y3409355D01*
X64058586Y3395024D01*
X64058033Y3390875D01*
X64048272Y3365560D01*
X64031689Y3344194D01*
X64010156Y3328091D01*
X63985542Y3318569D01*
X63959720Y3316943D01*
X63954099Y3317768D01*
X63925502Y3327615D01*
X63902300Y3344842D01*
X63885590Y3368394D01*
X63877500Y3391694D01*
X63876398Y3401301D01*
X63875430Y3419316D01*
X63874593Y3445880D01*
X63873887Y3481133D01*
X63873309Y3525215D01*
X63872857Y3578268D01*
X63872529Y3640431D01*
X63872325Y3711845D01*
X63872241Y3792650D01*
X63872239Y3809110D01*
X63872235Y4202016D01*
X63858476Y4231100D01*
X63837302Y4265119D01*
X63809047Y4292727D01*
X63783816Y4308862D01*
X63775673Y4313017D01*
X63768065Y4316168D01*
X63759529Y4318478D01*
X63748597Y4320110D01*
X63733806Y4321226D01*
X63713690Y4321989D01*
X63686784Y4322561D01*
X63655956Y4323041D01*
X63551994Y4324570D01*
X63551968Y3861787D01*
X63551919Y3774722D01*
X63551783Y3696984D01*
X63551557Y3628343D01*
X63551237Y3568567D01*
X63550822Y3517423D01*
X63550309Y3474682D01*
X63549695Y3440111D01*
X63548978Y3413479D01*
X63548156Y3394554D01*
X63547225Y3383105D01*
X63546659Y3379886D01*
X63536985Y3360024D01*
X63520679Y3341503D01*
X63500565Y3327082D01*
X63486584Y3321154D01*
X63463619Y3316318D01*
X63443565Y3317364D01*
X63430109Y3321125D01*
X63406080Y3333646D01*
X63386127Y3351941D01*
X63374726Y3369771D01*
X63373569Y3372576D01*
X63372517Y3375958D01*
X63371565Y3380357D01*
X63370706Y3386215D01*
X63369937Y3393975D01*
X63369253Y3404076D01*
X63368648Y3416961D01*
X63368118Y3433071D01*
X63367658Y3452848D01*
X63367262Y3476732D01*
X63366927Y3505166D01*
X63366646Y3538591D01*
X63366416Y3577449D01*
X63366231Y3622180D01*
X63366087Y3673226D01*
X63365977Y3731029D01*
X63365899Y3796031D01*
X63365846Y3868672D01*
X63365814Y3949394D01*
X63365797Y4038639D01*
X63365791Y4136847D01*
X63365791Y4173337D01*
X63365794Y4274820D01*
X63365808Y4367184D01*
X63365835Y4450871D01*
X63365883Y4526321D01*
X63365954Y4593975D01*
X63366055Y4654274D01*
X63366189Y4707659D01*
X63366363Y4754571D01*
X63366580Y4795451D01*
X63366845Y4830740D01*
X63367163Y4860879D01*
X63367540Y4886309D01*
X63367979Y4907471D01*
X63368486Y4924805D01*
X63369065Y4938754D01*
X63369722Y4949757D01*
X63370461Y4958255D01*
X63371287Y4964690D01*
X63372204Y4969503D01*
X63373218Y4973134D01*
X63374333Y4976024D01*
X63374566Y4976545D01*
X63390109Y5000326D01*
X63411016Y5017435D01*
X63435505Y5027555D01*
X63461796Y5030368D01*
X63488110Y5025557D01*
G37*
G36*
X64276074Y4517170D02*
G01*
X64301471Y4507161D01*
X64323252Y4490993D01*
X64339357Y4469647D01*
X64344856Y4456663D01*
X64347004Y4449637D01*
X64351652Y4434196D01*
X64358578Y4411088D01*
X64367557Y4381063D01*
X64378368Y4344867D01*
X64390785Y4303251D01*
X64404587Y4256962D01*
X64419549Y4206748D01*
X64435448Y4153358D01*
X64452060Y4097541D01*
X64452974Y4094470D01*
X64469544Y4038802D01*
X64485359Y3985714D01*
X64500202Y3935931D01*
X64513856Y3890179D01*
X64526106Y3849181D01*
X64536733Y3813663D01*
X64545522Y3784350D01*
X64552255Y3761966D01*
X64556716Y3747238D01*
X64558688Y3740888D01*
X64558732Y3740762D01*
X64560485Y3744099D01*
X64564767Y3755929D01*
X64571368Y3775588D01*
X64580078Y3802409D01*
X64590688Y3835727D01*
X64602988Y3874877D01*
X64616768Y3919194D01*
X64631818Y3968011D01*
X64647928Y4020663D01*
X64664890Y4076486D01*
X64672779Y4102578D01*
X64691948Y4165836D01*
X64710049Y4225097D01*
X64726897Y4279783D01*
X64742311Y4329314D01*
X64756105Y4373113D01*
X64768097Y4410601D01*
X64778103Y4441200D01*
X64785941Y4464332D01*
X64791426Y4479418D01*
X64794275Y4485749D01*
X64811851Y4502723D01*
X64834831Y4513984D01*
X64860705Y4519181D01*
X64886963Y4517964D01*
X64911095Y4509981D01*
X64921354Y4503515D01*
X64934564Y4491628D01*
X64945755Y4478582D01*
X64947974Y4475263D01*
X64950981Y4470459D01*
X64953650Y4466029D01*
X64955858Y4461486D01*
X64957484Y4456341D01*
X64958405Y4450104D01*
X64958498Y4442286D01*
X64957640Y4432400D01*
X64955709Y4419955D01*
X64952583Y4404464D01*
X64948138Y4385438D01*
X64942253Y4362387D01*
X64934804Y4334823D01*
X64925670Y4302257D01*
X64914726Y4264200D01*
X64901852Y4220164D01*
X64886925Y4169659D01*
X64869821Y4112198D01*
X64850419Y4047290D01*
X64828595Y3974447D01*
X64804228Y3893181D01*
X64790774Y3848309D01*
X64768513Y3774033D01*
X64746526Y3700637D01*
X64725027Y3628829D01*
X64704225Y3559314D01*
X64684332Y3492800D01*
X64665558Y3429995D01*
X64648116Y3371604D01*
X64632217Y3318335D01*
X64618070Y3270895D01*
X64605889Y3229991D01*
X64595884Y3196329D01*
X64588266Y3170617D01*
X64584436Y3157624D01*
X64569210Y3107264D01*
X64555404Y3065075D01*
X64542516Y3029865D01*
X64530045Y3000439D01*
X64517488Y2975605D01*
X64504344Y2954170D01*
X64491540Y2936725D01*
X64456353Y2899571D01*
X64414232Y2867175D01*
X64367133Y2840778D01*
X64317011Y2821621D01*
X64304970Y2818295D01*
X64277539Y2812852D01*
X64248698Y2809780D01*
X64221105Y2809143D01*
X64197419Y2811004D01*
X64180453Y2815357D01*
X64158567Y2829812D01*
X64141765Y2850712D01*
X64131126Y2875824D01*
X64127724Y2902913D01*
X64129859Y2920329D01*
X64139123Y2946693D01*
X64153828Y2966766D01*
X64174857Y2981204D01*
X64203092Y2990665D01*
X64230089Y2994949D01*
X64255611Y2998310D01*
X64275059Y3002907D01*
X64291919Y3009940D01*
X64309678Y3020611D01*
X64314929Y3024169D01*
X64325926Y3032292D01*
X64335588Y3041050D01*
X64344347Y3051393D01*
X64352636Y3064274D01*
X64360885Y3080644D01*
X64369528Y3101455D01*
X64378996Y3127659D01*
X64389721Y3160209D01*
X64402136Y3200056D01*
X64416672Y3248151D01*
X64416840Y3248712D01*
X64464890Y3409108D01*
X64314351Y3912240D01*
X64294230Y3979629D01*
X64274900Y4044640D01*
X64256538Y4106666D01*
X64239319Y4165097D01*
X64223422Y4219327D01*
X64209021Y4268747D01*
X64196294Y4312748D01*
X64185418Y4350723D01*
X64176568Y4382064D01*
X64169921Y4406162D01*
X64165654Y4422408D01*
X64163943Y4430196D01*
X64163917Y4430580D01*
X64168297Y4453774D01*
X64179795Y4476963D01*
X64196408Y4497277D01*
X64216133Y4511847D01*
X64222676Y4514790D01*
X64249122Y4520040D01*
X64276074Y4517170D01*
G37*
G36*
X62007307Y4518279D02*
G01*
X62050045Y4512508D01*
X62091898Y4500437D01*
X62136118Y4481376D01*
X62136947Y4480969D01*
X62158699Y4469323D01*
X62177706Y4456652D01*
X62196876Y4440783D01*
X62218686Y4419978D01*
X62250876Y4384701D01*
X62275927Y4349229D01*
X62295801Y4310439D01*
X62308624Y4276900D01*
X62321080Y4240254D01*
X62321135Y4063062D01*
X62321189Y3885869D01*
X62308360Y3866473D01*
X62292253Y3848704D01*
X62274587Y3836938D01*
X62269391Y3834552D01*
X62263958Y3832573D01*
X62257389Y3830962D01*
X62248788Y3829683D01*
X62237256Y3828697D01*
X62221897Y3827965D01*
X62201814Y3827451D01*
X62176107Y3827115D01*
X62143881Y3826920D01*
X62104238Y3826828D01*
X62056280Y3826801D01*
X62035280Y3826799D01*
X61816917Y3826799D01*
X61816917Y3728992D01*
X61817009Y3695020D01*
X61817370Y3669011D01*
X61818125Y3649373D01*
X61819401Y3634509D01*
X61821324Y3622827D01*
X61824020Y3612730D01*
X61826734Y3604948D01*
X61842454Y3575114D01*
X61865409Y3547859D01*
X61893273Y3525717D01*
X61906085Y3518450D01*
X61921134Y3511484D01*
X61934329Y3507287D01*
X61949094Y3505184D01*
X61968853Y3504501D01*
X61977041Y3504472D01*
X62005413Y3505892D01*
X62029216Y3510869D01*
X62051301Y3520522D01*
X62074519Y3535969D01*
X62091004Y3549172D01*
X62118221Y3567280D01*
X62145248Y3575875D01*
X62169500Y3575433D01*
X62187619Y3571022D01*
X62202214Y3564036D01*
X62217150Y3552383D01*
X62224237Y3545801D01*
X62240994Y3523712D01*
X62249321Y3498470D01*
X62249159Y3471547D01*
X62240445Y3444412D01*
X62229209Y3426058D01*
X62215936Y3411788D01*
X62196459Y3395239D01*
X62173213Y3378227D01*
X62148632Y3362570D01*
X62131567Y3353202D01*
X62093782Y3337691D01*
X62051054Y3326137D01*
X62006571Y3319066D01*
X61963518Y3317003D01*
X61929131Y3319783D01*
X61872506Y3332931D01*
X61821226Y3353718D01*
X61774238Y3382677D01*
X61730495Y3420338D01*
X61730260Y3420571D01*
X61710552Y3440842D01*
X61695980Y3457868D01*
X61684396Y3474593D01*
X61673651Y3493960D01*
X61667331Y3506784D01*
X61660259Y3521587D01*
X61654156Y3534946D01*
X61648950Y3547663D01*
X61644570Y3560542D01*
X61640945Y3574385D01*
X61638003Y3589995D01*
X61635674Y3608177D01*
X61633884Y3629733D01*
X61632564Y3655466D01*
X61631642Y3686179D01*
X61631047Y3722676D01*
X61630706Y3765759D01*
X61630550Y3816233D01*
X61630506Y3874899D01*
X61630504Y3921380D01*
X61630517Y3982771D01*
X61630549Y4013213D01*
X61816249Y4013213D01*
X61976707Y4013213D01*
X62137166Y4013213D01*
X62137166Y4108630D01*
X62137068Y4142199D01*
X62136688Y4167835D01*
X62135895Y4187164D01*
X62134557Y4201811D01*
X62132543Y4213401D01*
X62129721Y4223561D01*
X62127349Y4230284D01*
X62113266Y4257344D01*
X62092618Y4283598D01*
X62068129Y4305981D01*
X62049253Y4318187D01*
X62036739Y4324252D01*
X62025208Y4328060D01*
X62011801Y4330122D01*
X61993659Y4330948D01*
X61977041Y4331064D01*
X61954065Y4330796D01*
X61937764Y4329646D01*
X61925262Y4327095D01*
X61913683Y4322622D01*
X61904309Y4317923D01*
X61871130Y4295405D01*
X61844818Y4266291D01*
X61832451Y4246069D01*
X61828140Y4237646D01*
X61824872Y4229940D01*
X61822478Y4221479D01*
X61820791Y4210789D01*
X61819645Y4196399D01*
X61818870Y4176835D01*
X61818299Y4150624D01*
X61817778Y4117174D01*
X61816249Y4013213D01*
X61630549Y4013213D01*
X61630572Y4035389D01*
X61630691Y4080018D01*
X61630894Y4117444D01*
X61631205Y4148455D01*
X61631645Y4173834D01*
X61632236Y4194367D01*
X61632999Y4210842D01*
X61633958Y4224042D01*
X61635133Y4234754D01*
X61636547Y4243764D01*
X61638222Y4251858D01*
X61639913Y4258785D01*
X61658078Y4311173D01*
X61684463Y4360118D01*
X61718105Y4404392D01*
X61758039Y4442771D01*
X61803303Y4474030D01*
X61813496Y4479628D01*
X61847101Y4495705D01*
X61878412Y4506795D01*
X61910977Y4513834D01*
X61948345Y4517759D01*
X61960433Y4518442D01*
X62007307Y4518279D01*
G37*
G36*
X61923128Y7877378D02*
G01*
X61953817Y7867143D01*
X61981371Y7849161D01*
X61988712Y7842305D01*
X61991569Y7839292D01*
X61994448Y7835865D01*
X61997519Y7831619D01*
X62000953Y7826149D01*
X62004920Y7819050D01*
X62009589Y7809917D01*
X62015132Y7798345D01*
X62021719Y7783929D01*
X62029520Y7766265D01*
X62038706Y7744947D01*
X62049446Y7719570D01*
X62061912Y7689729D01*
X62076273Y7655020D01*
X62092700Y7615037D01*
X62111363Y7569376D01*
X62132433Y7517631D01*
X62156079Y7459398D01*
X62182473Y7394271D01*
X62211784Y7321846D01*
X62244183Y7241718D01*
X62279841Y7153481D01*
X62313625Y7069856D01*
X62348436Y6983687D01*
X62383563Y6896748D01*
X62418716Y6809754D01*
X62453606Y6723419D01*
X62487945Y6638459D01*
X62521443Y6555589D01*
X62553810Y6475524D01*
X62584759Y6398980D01*
X62613999Y6326670D01*
X62641242Y6259311D01*
X62666199Y6197617D01*
X62688580Y6142304D01*
X62708096Y6094086D01*
X62724458Y6053678D01*
X62731020Y6037482D01*
X62754099Y5980505D01*
X62773835Y5931677D01*
X62790486Y5890291D01*
X62804307Y5855637D01*
X62815554Y5827009D01*
X62824483Y5803698D01*
X62831350Y5784998D01*
X62836412Y5770199D01*
X62839923Y5758595D01*
X62842142Y5749477D01*
X62843322Y5742137D01*
X62843721Y5735869D01*
X62843594Y5729963D01*
X62843405Y5726794D01*
X62841785Y5718004D01*
X62837647Y5700839D01*
X62831218Y5676080D01*
X62822726Y5644510D01*
X62812398Y5606910D01*
X62800460Y5564062D01*
X62787141Y5516747D01*
X62772668Y5465748D01*
X62757267Y5411846D01*
X62741167Y5355823D01*
X62724593Y5298460D01*
X62707775Y5240540D01*
X62690938Y5182845D01*
X62674310Y5126155D01*
X62658118Y5071253D01*
X62642590Y5018921D01*
X62627953Y4969940D01*
X62614434Y4925093D01*
X62602260Y4885160D01*
X62591659Y4850924D01*
X62582858Y4823166D01*
X62576083Y4802669D01*
X62571563Y4790213D01*
X62570379Y4787545D01*
X62552139Y4762059D01*
X62527591Y4742150D01*
X62498640Y4728503D01*
X62467191Y4721803D01*
X62435149Y4722736D01*
X62409616Y4729738D01*
X62403530Y4732241D01*
X62388955Y4738265D01*
X62366231Y4747669D01*
X62335698Y4760312D01*
X62297696Y4776052D01*
X62252567Y4794749D01*
X62200651Y4816261D01*
X62142289Y4840447D01*
X62077820Y4867166D01*
X62007586Y4896277D01*
X61931927Y4927638D01*
X61851184Y4961109D01*
X61765696Y4996548D01*
X61675806Y5033814D01*
X61581853Y5072766D01*
X61484177Y5113263D01*
X61383120Y5155164D01*
X61279022Y5198327D01*
X61172223Y5242612D01*
X61063064Y5287877D01*
X61001957Y5313217D01*
X60891586Y5358983D01*
X60783361Y5403855D01*
X60677621Y5447690D01*
X60574710Y5490348D01*
X60474970Y5531687D01*
X60378743Y5571564D01*
X60286371Y5609839D01*
X60198195Y5646369D01*
X60114559Y5681014D01*
X60035803Y5713631D01*
X59962271Y5744078D01*
X59894304Y5772215D01*
X59832244Y5797899D01*
X59806660Y5808483D01*
X60494147Y5808483D01*
X60498339Y5806557D01*
X60510825Y5801198D01*
X60531068Y5792628D01*
X60558530Y5781073D01*
X60592672Y5766755D01*
X60632956Y5749897D01*
X60678846Y5730723D01*
X60729802Y5709457D01*
X60785287Y5686321D01*
X60844762Y5661540D01*
X60907690Y5635337D01*
X60973532Y5607935D01*
X61041751Y5579558D01*
X61111809Y5550428D01*
X61183167Y5520770D01*
X61255287Y5490808D01*
X61327633Y5460763D01*
X61399665Y5430861D01*
X61470845Y5401323D01*
X61540636Y5372375D01*
X61608499Y5344239D01*
X61673897Y5317138D01*
X61736292Y5291296D01*
X61795145Y5266937D01*
X61849918Y5244284D01*
X61900074Y5223560D01*
X61945075Y5204989D01*
X61984382Y5188794D01*
X62017457Y5175199D01*
X62043763Y5164427D01*
X62062761Y5156702D01*
X62073914Y5152247D01*
X62076808Y5151186D01*
X62078104Y5153731D01*
X62076264Y5156786D01*
X62072733Y5161604D01*
X62064102Y5173531D01*
X62050844Y5191910D01*
X62033433Y5216083D01*
X62012342Y5245393D01*
X61988043Y5279183D01*
X61961010Y5316794D01*
X61931716Y5357568D01*
X61900635Y5400850D01*
X61886260Y5420872D01*
X61854412Y5465192D01*
X61824031Y5507386D01*
X61795601Y5546784D01*
X61769610Y5582716D01*
X61746544Y5614512D01*
X61726888Y5641504D01*
X61712455Y5661211D01*
X62038934Y5661211D01*
X62041033Y5656975D01*
X62047942Y5646171D01*
X62058856Y5629934D01*
X62072970Y5609396D01*
X62089477Y5585692D01*
X62107572Y5559953D01*
X62126451Y5533315D01*
X62145306Y5506909D01*
X62163334Y5481870D01*
X62179728Y5459332D01*
X62193683Y5440427D01*
X62204394Y5426289D01*
X62211054Y5418051D01*
X62212895Y5416414D01*
X62212480Y5421282D01*
X62210447Y5434249D01*
X62207023Y5454033D01*
X62202435Y5479355D01*
X62196907Y5508932D01*
X62192108Y5534043D01*
X62185911Y5566028D01*
X62180303Y5594720D01*
X62175762Y5617703D01*
X62443075Y5617703D01*
X62443948Y5610977D01*
X62446389Y5596373D01*
X62450129Y5575394D01*
X62454897Y5549542D01*
X62460423Y5520321D01*
X62462194Y5511096D01*
X62467886Y5481513D01*
X62472939Y5455190D01*
X62477082Y5433545D01*
X62480045Y5417992D01*
X62481557Y5409946D01*
X62481691Y5409182D01*
X62482051Y5408250D01*
X62482876Y5409411D01*
X62484482Y5413685D01*
X62487187Y5422089D01*
X62491307Y5435642D01*
X62497158Y5455360D01*
X62505058Y5482262D01*
X62514865Y5515797D01*
X62523320Y5545015D01*
X62530676Y5570974D01*
X62536567Y5592335D01*
X62540627Y5607760D01*
X62542487Y5615908D01*
X62542529Y5616835D01*
X62537452Y5617703D01*
X62524908Y5618991D01*
X62506970Y5620503D01*
X62492068Y5621607D01*
X62469781Y5622998D01*
X62455376Y5623327D01*
X62447220Y5622464D01*
X62443681Y5620279D01*
X62443075Y5617703D01*
X62175762Y5617703D01*
X62175537Y5618844D01*
X62171866Y5637124D01*
X62169545Y5648283D01*
X62168834Y5651222D01*
X62163662Y5652318D01*
X62151142Y5653801D01*
X62133431Y5655504D01*
X62112686Y5657262D01*
X62091065Y5658908D01*
X62070725Y5660277D01*
X62053822Y5661203D01*
X62042515Y5661520D01*
X62038934Y5661211D01*
X61712455Y5661211D01*
X61711130Y5663020D01*
X61699755Y5678391D01*
X61693250Y5686948D01*
X61692070Y5688366D01*
X61690175Y5689809D01*
X61686935Y5691249D01*
X61681859Y5692739D01*
X61674453Y5694332D01*
X61664224Y5696083D01*
X61650680Y5698044D01*
X61633327Y5700269D01*
X61611673Y5702811D01*
X61585224Y5705724D01*
X61553489Y5709062D01*
X61515974Y5712878D01*
X61472185Y5717225D01*
X61421631Y5722156D01*
X61363819Y5727726D01*
X61298255Y5733988D01*
X61224447Y5740996D01*
X61141901Y5748802D01*
X61089306Y5753765D01*
X61014940Y5760768D01*
X60943241Y5767499D01*
X60874781Y5773904D01*
X60810132Y5779930D01*
X60749865Y5785526D01*
X60694554Y5790639D01*
X60644769Y5795216D01*
X60601082Y5799204D01*
X60564066Y5802552D01*
X60534293Y5805205D01*
X60512334Y5807113D01*
X60498761Y5808222D01*
X60494147Y5808483D01*
X59806660Y5808483D01*
X59776433Y5820988D01*
X59727215Y5841342D01*
X59684929Y5858818D01*
X59649919Y5873275D01*
X59622527Y5884571D01*
X59603095Y5892565D01*
X59591965Y5897114D01*
X59589518Y5898093D01*
X59559358Y5914318D01*
X59535019Y5936831D01*
X59517135Y5964117D01*
X59506340Y5994661D01*
X59503269Y6026946D01*
X59508554Y6059458D01*
X59514974Y6076290D01*
X59517039Y6079977D01*
X59520404Y6084713D01*
X59525372Y6090788D01*
X59532249Y6098489D01*
X59541338Y6108107D01*
X59552944Y6119929D01*
X59558450Y6125392D01*
X59939562Y6125392D01*
X59944319Y6124907D01*
X59957981Y6123572D01*
X59979935Y6121445D01*
X60009569Y6118585D01*
X60046273Y6115050D01*
X60089432Y6110898D01*
X60138437Y6106190D01*
X60192674Y6100982D01*
X60251532Y6095334D01*
X60314399Y6089304D01*
X60380663Y6082951D01*
X60449712Y6076333D01*
X60520934Y6069509D01*
X60593717Y6062538D01*
X60667449Y6055477D01*
X60741519Y6048387D01*
X60815313Y6041324D01*
X60888222Y6034349D01*
X60959631Y6027519D01*
X61028930Y6020893D01*
X61095507Y6014529D01*
X61158749Y6008487D01*
X61218045Y6002824D01*
X61272783Y5997600D01*
X61322350Y5992873D01*
X61366136Y5988701D01*
X61403527Y5985143D01*
X61433912Y5982258D01*
X61456679Y5980104D01*
X61471216Y5978740D01*
X61476753Y5978237D01*
X61481589Y5979981D01*
X61481533Y5981621D01*
X61478505Y5986129D01*
X61470298Y5997804D01*
X61457332Y6016063D01*
X61440025Y6040325D01*
X61418798Y6070006D01*
X61394069Y6104525D01*
X61366258Y6143299D01*
X61335785Y6185746D01*
X61303068Y6231284D01*
X61268527Y6279331D01*
X61232582Y6329304D01*
X61195651Y6380621D01*
X61158155Y6432699D01*
X61120513Y6484957D01*
X61095786Y6519269D01*
X61417487Y6519269D01*
X61418289Y6517655D01*
X61421885Y6512711D01*
X61430607Y6500636D01*
X61444001Y6482061D01*
X61461613Y6457615D01*
X61482989Y6427931D01*
X61507675Y6393637D01*
X61535217Y6355367D01*
X61565160Y6313749D01*
X61597052Y6269414D01*
X61625834Y6229394D01*
X61658997Y6183352D01*
X61690606Y6139607D01*
X61720210Y6098776D01*
X61747357Y6061476D01*
X61771596Y6028322D01*
X61792473Y5999933D01*
X61809537Y5976924D01*
X61822336Y5959913D01*
X61830419Y5949516D01*
X61833269Y5946328D01*
X61839538Y5945323D01*
X61853798Y5943625D01*
X61874515Y5941382D01*
X61900156Y5938742D01*
X61929189Y5935851D01*
X61960081Y5932856D01*
X61991299Y5929903D01*
X62021311Y5927141D01*
X62048583Y5924715D01*
X62071583Y5922774D01*
X62088779Y5921463D01*
X62098054Y5920943D01*
X62110855Y5921141D01*
X62116251Y5923299D01*
X62116336Y5928316D01*
X62116218Y5928728D01*
X62114241Y5937108D01*
X62111136Y5952124D01*
X62107468Y5971002D01*
X62106211Y5977714D01*
X62101435Y5999104D01*
X62096113Y6015866D01*
X62090994Y6025699D01*
X62090437Y6026295D01*
X62085704Y6029999D01*
X62073955Y6038850D01*
X62055878Y6052341D01*
X62032164Y6069962D01*
X62003503Y6091206D01*
X61970585Y6115565D01*
X61934100Y6142529D01*
X61894738Y6171592D01*
X61853189Y6202244D01*
X61810144Y6233978D01*
X61766291Y6266285D01*
X61722322Y6298657D01*
X61678926Y6330585D01*
X61636794Y6361562D01*
X61596614Y6391079D01*
X61559079Y6418628D01*
X61524876Y6443701D01*
X61494697Y6465789D01*
X61469231Y6484384D01*
X61449169Y6498978D01*
X61435201Y6509063D01*
X61429751Y6512934D01*
X61420928Y6518472D01*
X61417487Y6519269D01*
X61095786Y6519269D01*
X61083143Y6536813D01*
X61046466Y6587683D01*
X61010900Y6636986D01*
X60976865Y6684139D01*
X60944781Y6728561D01*
X60915067Y6769668D01*
X60888142Y6806880D01*
X60864426Y6839612D01*
X60844338Y6867284D01*
X60828297Y6889312D01*
X60816722Y6905115D01*
X60810034Y6914110D01*
X60808563Y6915975D01*
X60807116Y6917014D01*
X60805046Y6917229D01*
X60801983Y6916290D01*
X60797556Y6913868D01*
X60791395Y6909633D01*
X60783129Y6903255D01*
X60772388Y6894405D01*
X60758803Y6882753D01*
X60742001Y6867970D01*
X60721614Y6849727D01*
X60697269Y6827693D01*
X60668599Y6801539D01*
X60635230Y6770935D01*
X60596794Y6735553D01*
X60552920Y6695062D01*
X60503238Y6649132D01*
X60447377Y6597435D01*
X60384966Y6539641D01*
X60369401Y6525224D01*
X60315052Y6474868D01*
X60262704Y6426340D01*
X60212779Y6380033D01*
X60165698Y6336338D01*
X60121885Y6295648D01*
X60081760Y6258356D01*
X60045746Y6224855D01*
X60014266Y6195536D01*
X59987740Y6170793D01*
X59966591Y6151018D01*
X59951242Y6136604D01*
X59942113Y6127943D01*
X59939562Y6125392D01*
X59558450Y6125392D01*
X59567372Y6134245D01*
X59584926Y6151344D01*
X59605910Y6171515D01*
X59630629Y6195047D01*
X59659388Y6222227D01*
X59692491Y6253347D01*
X59730241Y6288693D01*
X59772945Y6328556D01*
X59820906Y6373224D01*
X59874428Y6422986D01*
X59933817Y6478131D01*
X59999376Y6538948D01*
X60071411Y6605726D01*
X60134525Y6664209D01*
X60212318Y6736231D01*
X60285915Y6804266D01*
X60355103Y6868119D01*
X60419669Y6927595D01*
X60479397Y6982499D01*
X60534076Y7032636D01*
X60583491Y7077812D01*
X60627428Y7117831D01*
X60665675Y7152498D01*
X60698017Y7181619D01*
X60724241Y7204998D01*
X60744134Y7222441D01*
X60757481Y7233753D01*
X60764069Y7238739D01*
X60764203Y7238811D01*
X60796590Y7250525D01*
X60829873Y7252956D01*
X60862973Y7246171D01*
X60894484Y7230457D01*
X60900809Y7225992D01*
X60914377Y7216187D01*
X60934736Y7201376D01*
X60961433Y7181889D01*
X60994015Y7158059D01*
X61032030Y7130218D01*
X61075025Y7098698D01*
X61122547Y7063831D01*
X61174145Y7025948D01*
X61229364Y6985382D01*
X61287753Y6942465D01*
X61348858Y6897528D01*
X61412228Y6850904D01*
X61467990Y6809859D01*
X61532523Y6762383D01*
X61594933Y6716535D01*
X61654791Y6672629D01*
X61711664Y6630978D01*
X61765123Y6591895D01*
X61814735Y6555695D01*
X61860069Y6522690D01*
X61900695Y6493194D01*
X61936181Y6467521D01*
X61966096Y6445984D01*
X61990009Y6428896D01*
X62007489Y6416571D01*
X62018105Y6409323D01*
X62021439Y6407407D01*
X62020710Y6412486D01*
X62018262Y6426420D01*
X62015969Y6438975D01*
X62284917Y6438975D01*
X62287800Y6419855D01*
X62289507Y6409814D01*
X62292740Y6391962D01*
X62297207Y6367874D01*
X62302613Y6339126D01*
X62308665Y6307292D01*
X62312623Y6286644D01*
X62334564Y6172552D01*
X62375675Y6142093D01*
X62392527Y6129674D01*
X62406246Y6119689D01*
X62415209Y6113312D01*
X62417862Y6111595D01*
X62417213Y6115354D01*
X62414772Y6122311D01*
X62409870Y6134732D01*
X62402221Y6153832D01*
X62392369Y6178275D01*
X62380857Y6206727D01*
X62368229Y6237851D01*
X62355029Y6270313D01*
X62341801Y6302778D01*
X62329089Y6333910D01*
X62317436Y6362373D01*
X62307388Y6386833D01*
X62299486Y6405954D01*
X62294276Y6418401D01*
X62292606Y6422245D01*
X62284917Y6438975D01*
X62015969Y6438975D01*
X62015096Y6443755D01*
X62280560Y6443755D01*
X62282950Y6441365D01*
X62285340Y6443755D01*
X62282950Y6446144D01*
X62280560Y6443755D01*
X62015096Y6443755D01*
X62014197Y6448679D01*
X62008614Y6478733D01*
X62001615Y6516052D01*
X61993299Y6560107D01*
X61983768Y6610367D01*
X61973123Y6666303D01*
X61961463Y6727385D01*
X61948890Y6793082D01*
X61935505Y6862864D01*
X61921407Y6936203D01*
X61906698Y7012568D01*
X61893406Y7081452D01*
X61874292Y7180542D01*
X61856975Y7270589D01*
X61841394Y7351926D01*
X61827488Y7424886D01*
X61815196Y7489803D01*
X61804456Y7547011D01*
X61795207Y7596843D01*
X61787389Y7639632D01*
X61780939Y7675713D01*
X61775796Y7705419D01*
X61771900Y7729083D01*
X61769189Y7747039D01*
X61767601Y7759621D01*
X61767077Y7767161D01*
X61767203Y7769195D01*
X61776218Y7797759D01*
X61791770Y7825547D01*
X61804288Y7841078D01*
X61829885Y7861715D01*
X61859399Y7874653D01*
X61891068Y7879877D01*
X61923128Y7877378D01*
G37*
%TD*%
D14*
%TO.C,J4*%
X82598962Y14597386D03*
X87648962Y14597386D03*
X82598962Y12057386D03*
X87648962Y12057386D03*
%TD*%
D15*
%TO.C,J5*%
X50710000Y31160000D03*
X49190000Y31160000D03*
X50710000Y31800000D03*
X49190000Y31800000D03*
X50710000Y32440000D03*
X49190000Y32440000D03*
X50710000Y33080000D03*
X49190000Y33080000D03*
X50710000Y33720000D03*
X49190000Y33720000D03*
X50710000Y34360000D03*
X49190000Y34360000D03*
X50710000Y35000000D03*
X49190000Y35000000D03*
X50710000Y35640000D03*
X49190000Y35640000D03*
X50710000Y36280000D03*
X49190000Y36280000D03*
X50710000Y36920000D03*
X49190000Y36920000D03*
X50710000Y37560000D03*
X49190000Y37560000D03*
X50710000Y38200000D03*
X49190000Y38200000D03*
X50710000Y38840000D03*
X49190000Y38840000D03*
X50710000Y39480000D03*
X49190000Y39480000D03*
X50710000Y40120000D03*
X49190000Y40120000D03*
X50710000Y40760000D03*
X49190000Y40760000D03*
X50710000Y41400000D03*
X49190000Y41400000D03*
X50710000Y42040000D03*
X49190000Y42040000D03*
%TD*%
D16*
%TO.C,R3*%
X14690000Y17000000D03*
X15710000Y17000000D03*
%TD*%
%TO.C,R1*%
X12790000Y15900000D03*
X13810000Y15900000D03*
%TD*%
D17*
%TO.C,U1*%
X13295000Y8825000D03*
X14565000Y8825000D03*
X15835000Y8825000D03*
X17105000Y8825000D03*
X17105000Y13775000D03*
X15835000Y13775000D03*
X14565000Y13775000D03*
X13295000Y13775000D03*
%TD*%
D16*
%TO.C,R2*%
X16090000Y18200000D03*
X17110000Y18200000D03*
%TD*%
D18*
%TO.C,C1*%
X11700000Y11780000D03*
X11700000Y10820000D03*
%TD*%
D19*
%TO.C,J2*%
X12330000Y55065000D03*
X12330000Y18935000D03*
%TD*%
%TO.C,J3*%
X82330000Y55065000D03*
X82330000Y18935000D03*
%TD*%
%LPD*%
M02*
