G04 #@! TF.GenerationSoftware,KiCad,Pcbnew,9.0.0*
G04 #@! TF.CreationDate,2025-04-07T23:01:42+01:00*
G04 #@! TF.ProjectId,ephys-test-module-32,65706879-732d-4746-9573-742d6d6f6475,A*
G04 #@! TF.SameCoordinates,Original*
G04 #@! TF.FileFunction,AssemblyDrawing,Bot*
%FSLAX46Y46*%
G04 Gerber Fmt 4.6, Leading zero omitted, Abs format (unit mm)*
G04 Created by KiCad (PCBNEW 9.0.0) date 2025-04-07 23:01:42*
%MOMM*%
%LPD*%
G01*
G04 APERTURE LIST*
%ADD10C,0.150000*%
%ADD11C,0.100000*%
%ADD12C,0.200000*%
G04 APERTURE END LIST*
D10*
X122454819Y-99666666D02*
X123169104Y-99666666D01*
X123169104Y-99666666D02*
X123311961Y-99619047D01*
X123311961Y-99619047D02*
X123407200Y-99523809D01*
X123407200Y-99523809D02*
X123454819Y-99380952D01*
X123454819Y-99380952D02*
X123454819Y-99285714D01*
X122550057Y-100095238D02*
X122502438Y-100142857D01*
X122502438Y-100142857D02*
X122454819Y-100238095D01*
X122454819Y-100238095D02*
X122454819Y-100476190D01*
X122454819Y-100476190D02*
X122502438Y-100571428D01*
X122502438Y-100571428D02*
X122550057Y-100619047D01*
X122550057Y-100619047D02*
X122645295Y-100666666D01*
X122645295Y-100666666D02*
X122740533Y-100666666D01*
X122740533Y-100666666D02*
X122883390Y-100619047D01*
X122883390Y-100619047D02*
X123454819Y-100047619D01*
X123454819Y-100047619D02*
X123454819Y-100666666D01*
X192454819Y-99666666D02*
X193169104Y-99666666D01*
X193169104Y-99666666D02*
X193311961Y-99619047D01*
X193311961Y-99619047D02*
X193407200Y-99523809D01*
X193407200Y-99523809D02*
X193454819Y-99380952D01*
X193454819Y-99380952D02*
X193454819Y-99285714D01*
X192454819Y-100047619D02*
X192454819Y-100666666D01*
X192454819Y-100666666D02*
X192835771Y-100333333D01*
X192835771Y-100333333D02*
X192835771Y-100476190D01*
X192835771Y-100476190D02*
X192883390Y-100571428D01*
X192883390Y-100571428D02*
X192931009Y-100619047D01*
X192931009Y-100619047D02*
X193026247Y-100666666D01*
X193026247Y-100666666D02*
X193264342Y-100666666D01*
X193264342Y-100666666D02*
X193359580Y-100619047D01*
X193359580Y-100619047D02*
X193407200Y-100571428D01*
X193407200Y-100571428D02*
X193454819Y-100476190D01*
X193454819Y-100476190D02*
X193454819Y-100190476D01*
X193454819Y-100190476D02*
X193407200Y-100095238D01*
X193407200Y-100095238D02*
X193359580Y-100047619D01*
D11*
G04 #@! TO.C,J2*
X119380500Y-81365000D02*
X126619500Y-81365000D01*
X119380500Y-118635000D02*
X119380500Y-81365000D01*
X126619500Y-81365000D02*
X126619500Y-118635000D01*
X126619500Y-118635000D02*
X119380500Y-118635000D01*
D12*
X127700000Y-84400000D02*
G75*
G02*
X127500000Y-84400000I-100000J0D01*
G01*
X127500000Y-84400000D02*
G75*
G02*
X127700000Y-84400000I100000J0D01*
G01*
D11*
G04 #@! TO.C,J3*
X189380500Y-81365000D02*
X196619500Y-81365000D01*
X189380500Y-118635000D02*
X189380500Y-81365000D01*
X196619500Y-81365000D02*
X196619500Y-118635000D01*
X196619500Y-118635000D02*
X189380500Y-118635000D01*
D12*
X197700000Y-84400000D02*
G75*
G02*
X197500000Y-84400000I-100000J0D01*
G01*
X197500000Y-84400000D02*
G75*
G02*
X197700000Y-84400000I100000J0D01*
G01*
G04 #@! TD*
M02*
