%TF.GenerationSoftware,KiCad,Pcbnew,9.0.6*%
%TF.CreationDate,2026-04-07T14:54:37-04:00*%
%TF.ProjectId,ephys-test-module-32,65706879-732d-4746-9573-742d6d6f6475,B*%
%TF.SameCoordinates,PX66ff300PY82a7440*%
%TF.FileFunction,Copper,L2,Bot*%
%TF.FilePolarity,Positive*%
%FSLAX46Y46*%
G04 Gerber Fmt 4.6, Leading zero omitted, Abs format (unit mm)*
G04 Created by KiCad (PCBNEW 9.0.6) date 2026-04-07 14:54:37*
%MOMM*%
%LPD*%
G01*
G04 APERTURE LIST*
%TA.AperFunction,SMDPad,CuDef*%
%ADD10R,2.273000X0.410000*%
%TD*%
%TA.AperFunction,SMDPad,CuDef*%
%ADD11R,0.800000X0.300000*%
%TD*%
%TA.AperFunction,ViaPad*%
%ADD12C,0.500000*%
%TD*%
%TA.AperFunction,Conductor*%
%ADD13C,0.400000*%
%TD*%
%TA.AperFunction,Conductor*%
%ADD14C,0.220000*%
%TD*%
%TA.AperFunction,Conductor*%
%ADD15C,0.200000*%
%TD*%
G04 APERTURE END LIST*
D10*
%TO.P,J2,1,Pin_1*%
%TO.N,GND*%
X17863500Y52600000D03*
%TO.P,J2,2,Pin_2*%
X12136500Y52600000D03*
%TO.P,J2,3,Pin_3*%
X17863500Y51800000D03*
%TO.P,J2,4,Pin_4*%
X12136500Y51800000D03*
%TO.P,J2,5,Pin_5*%
%TO.N,/Headstage Interface/B4.E_{0}*%
X17863500Y51000000D03*
%TO.P,J2,6,Pin_6*%
%TO.N,/Headstage Interface/B0.E_{0}*%
X12136500Y51000000D03*
%TO.P,J2,7,Pin_7*%
%TO.N,/Headstage Interface/B4.E_{1}*%
X17863500Y50200000D03*
%TO.P,J2,8,Pin_8*%
%TO.N,/Headstage Interface/B0.E_{1}*%
X12136500Y50200000D03*
%TO.P,J2,9,Pin_9*%
%TO.N,/Headstage Interface/B4.E_{2}*%
X17863500Y49400000D03*
%TO.P,J2,10,Pin_10*%
%TO.N,/Headstage Interface/B0.E_{2}*%
X12136500Y49400000D03*
%TO.P,J2,11,Pin_11*%
%TO.N,/Headstage Interface/B4.E_{3}*%
X17863500Y48600000D03*
%TO.P,J2,12,Pin_12*%
%TO.N,/Headstage Interface/B0.E_{3}*%
X12136500Y48600000D03*
%TO.P,J2,13,Pin_13*%
%TO.N,/Headstage Interface/B4.E_{4}*%
X17863500Y47800000D03*
%TO.P,J2,14,Pin_14*%
%TO.N,/Headstage Interface/B0.E_{4}*%
X12136500Y47800000D03*
%TO.P,J2,15,Pin_15*%
%TO.N,/Headstage Interface/B4.E_{5}*%
X17863500Y47000000D03*
%TO.P,J2,16,Pin_16*%
%TO.N,/Headstage Interface/B0.E_{5}*%
X12136500Y47000000D03*
%TO.P,J2,17,Pin_17*%
%TO.N,/Headstage Interface/B4.E_{6}*%
X17863500Y46200000D03*
%TO.P,J2,18,Pin_18*%
%TO.N,/Headstage Interface/B0.E_{6}*%
X12136500Y46200000D03*
%TO.P,J2,19,Pin_19*%
%TO.N,/Headstage Interface/B4.E_{7}*%
X17863500Y45400000D03*
%TO.P,J2,20,Pin_20*%
%TO.N,/Headstage Interface/B0.E_{7}*%
X12136500Y45400000D03*
%TO.P,J2,21,Pin_21*%
%TO.N,GND*%
X17863500Y44600000D03*
%TO.P,J2,22,Pin_22*%
X12136500Y44600000D03*
%TO.P,J2,23,Pin_23*%
%TO.N,/Headstage Interface/B5.E_{0}*%
X17863500Y43800000D03*
%TO.P,J2,24,Pin_24*%
%TO.N,/Headstage Interface/B1.E_{0}*%
X12136500Y43800000D03*
%TO.P,J2,25,Pin_25*%
%TO.N,/Headstage Interface/B5.E_{1}*%
X17863500Y43000000D03*
%TO.P,J2,26,Pin_26*%
%TO.N,/Headstage Interface/B1.E_{1}*%
X12136500Y43000000D03*
%TO.P,J2,27,Pin_27*%
%TO.N,/Headstage Interface/B5.E_{2}*%
X17863500Y42200000D03*
%TO.P,J2,28,Pin_28*%
%TO.N,/Headstage Interface/B1.E_{2}*%
X12136500Y42200000D03*
%TO.P,J2,29,Pin_29*%
%TO.N,/Headstage Interface/B5.E_{3}*%
X17863500Y41400000D03*
%TO.P,J2,30,Pin_30*%
%TO.N,/Headstage Interface/B1.E_{3}*%
X12136500Y41400000D03*
%TO.P,J2,31,Pin_31*%
%TO.N,/Headstage Interface/B5.E_{4}*%
X17863500Y40600000D03*
%TO.P,J2,32,Pin_32*%
%TO.N,/Headstage Interface/B1.E_{4}*%
X12136500Y40600000D03*
%TO.P,J2,33,Pin_33*%
%TO.N,/Headstage Interface/B5.E_{5}*%
X17863500Y39800000D03*
%TO.P,J2,34,Pin_34*%
%TO.N,/Headstage Interface/B1.E_{5}*%
X12136500Y39800000D03*
%TO.P,J2,35,Pin_35*%
%TO.N,/Headstage Interface/B5.E_{6}*%
X17863500Y39000000D03*
%TO.P,J2,36,Pin_36*%
%TO.N,/Headstage Interface/B1.E_{6}*%
X12136500Y39000000D03*
%TO.P,J2,37,Pin_37*%
%TO.N,/Headstage Interface/B5.E_{7}*%
X17863500Y38200000D03*
%TO.P,J2,38,Pin_38*%
%TO.N,/Headstage Interface/B1.E_{7}*%
X12136500Y38200000D03*
%TO.P,J2,39,Pin_39*%
%TO.N,GND*%
X17863500Y37400000D03*
%TO.P,J2,40,Pin_40*%
X12136500Y37400000D03*
%TO.P,J2,41,Pin_41*%
%TO.N,/Headstage Interface/B6.E_{0}*%
X17863500Y36600000D03*
%TO.P,J2,42,Pin_42*%
%TO.N,/Headstage Interface/B2.E_{0}*%
X12136500Y36600000D03*
%TO.P,J2,43,Pin_43*%
%TO.N,/Headstage Interface/B6.E_{1}*%
X17863500Y35800000D03*
%TO.P,J2,44,Pin_44*%
%TO.N,/Headstage Interface/B2.E_{1}*%
X12136500Y35800000D03*
%TO.P,J2,45,Pin_45*%
%TO.N,/Headstage Interface/B6.E_{2}*%
X17863500Y35000000D03*
%TO.P,J2,46,Pin_46*%
%TO.N,/Headstage Interface/B2.E_{2}*%
X12136500Y35000000D03*
%TO.P,J2,47,Pin_47*%
%TO.N,/Headstage Interface/B6.E_{3}*%
X17863500Y34200000D03*
%TO.P,J2,48,Pin_48*%
%TO.N,/Headstage Interface/B2.E_{3}*%
X12136500Y34200000D03*
%TO.P,J2,49,Pin_49*%
%TO.N,/Headstage Interface/B6.E_{4}*%
X17863500Y33400000D03*
%TO.P,J2,50,Pin_50*%
%TO.N,/Headstage Interface/B2.E_{4}*%
X12136500Y33400000D03*
%TO.P,J2,51,Pin_51*%
%TO.N,/Headstage Interface/B6.E_{5}*%
X17863500Y32600000D03*
%TO.P,J2,52,Pin_52*%
%TO.N,/Headstage Interface/B2.E_{5}*%
X12136500Y32600000D03*
%TO.P,J2,53,Pin_53*%
%TO.N,/Headstage Interface/B6.E_{6}*%
X17863500Y31800000D03*
%TO.P,J2,54,Pin_54*%
%TO.N,/Headstage Interface/B2.E_{6}*%
X12136500Y31800000D03*
%TO.P,J2,55,Pin_55*%
%TO.N,/Headstage Interface/B6.E_{7}*%
X17863500Y31000000D03*
%TO.P,J2,56,Pin_56*%
%TO.N,/Headstage Interface/B2.E_{7}*%
X12136500Y31000000D03*
%TO.P,J2,57,Pin_57*%
%TO.N,GND*%
X17863500Y30200000D03*
%TO.P,J2,58,Pin_58*%
X12136500Y30200000D03*
%TO.P,J2,59,Pin_59*%
%TO.N,/Headstage Interface/B7.E_{0}*%
X17863500Y29400000D03*
%TO.P,J2,60,Pin_60*%
%TO.N,/Headstage Interface/B3.E_{0}*%
X12136500Y29400000D03*
%TO.P,J2,61,Pin_61*%
%TO.N,/Headstage Interface/B7.E_{1}*%
X17863500Y28600000D03*
%TO.P,J2,62,Pin_62*%
%TO.N,/Headstage Interface/B3.E_{1}*%
X12136500Y28600000D03*
%TO.P,J2,63,Pin_63*%
%TO.N,/Headstage Interface/B7.E_{2}*%
X17863500Y27800000D03*
%TO.P,J2,64,Pin_64*%
%TO.N,/Headstage Interface/B3.E_{2}*%
X12136500Y27800000D03*
%TO.P,J2,65,Pin_65*%
%TO.N,/Headstage Interface/B7.E_{3}*%
X17863500Y27000000D03*
%TO.P,J2,66,Pin_66*%
%TO.N,/Headstage Interface/B3.E_{3}*%
X12136500Y27000000D03*
%TO.P,J2,67,Pin_67*%
%TO.N,/Headstage Interface/B7.E_{4}*%
X17863500Y26200000D03*
%TO.P,J2,68,Pin_68*%
%TO.N,/Headstage Interface/B3.E_{4}*%
X12136500Y26200000D03*
%TO.P,J2,69,Pin_69*%
%TO.N,/Headstage Interface/B7.E_{5}*%
X17863500Y25400000D03*
%TO.P,J2,70,Pin_70*%
%TO.N,/Headstage Interface/B3.E_{5}*%
X12136500Y25400000D03*
%TO.P,J2,71,Pin_71*%
%TO.N,/Headstage Interface/B7.E_{6}*%
X17863500Y24600000D03*
%TO.P,J2,72,Pin_72*%
%TO.N,/Headstage Interface/B3.E_{6}*%
X12136500Y24600000D03*
%TO.P,J2,73,Pin_73*%
%TO.N,/Headstage Interface/B7.E_{7}*%
X17863500Y23800000D03*
%TO.P,J2,74,Pin_74*%
%TO.N,/Headstage Interface/B3.E_{7}*%
X12136500Y23800000D03*
%TO.P,J2,75,Pin_75*%
%TO.N,GND*%
X17863500Y23000000D03*
%TO.P,J2,76,Pin_76*%
X12136500Y23000000D03*
%TO.P,J2,77,Pin_77*%
%TO.N,/Test Signal Interface/SCL*%
X17863500Y22200000D03*
%TO.P,J2,78,Pin_78*%
%TO.N,/Test Signal Interface/WP*%
X12136500Y22200000D03*
%TO.P,J2,79,Pin_79*%
%TO.N,/Test Signal Interface/SDA*%
X17863500Y21400000D03*
%TO.P,J2,80,Pin_80*%
%TO.N,VCC*%
X12136500Y21400000D03*
%TD*%
D11*
%TO.P,RN3,1,R1.1*%
%TO.N,/Headstage Interface/B5.E_{7}*%
X43050000Y37475000D03*
%TO.P,RN3,2,R2.1*%
%TO.N,/Headstage Interface/B5.E_{6}*%
X43050000Y37975000D03*
%TO.P,RN3,3,R3.1*%
%TO.N,/Headstage Interface/B5.E_{5}*%
X43050000Y38475000D03*
%TO.P,RN3,4,R4.1*%
%TO.N,/Headstage Interface/B5.E_{4}*%
X43050000Y38975000D03*
%TO.P,RN3,5,R5.1*%
%TO.N,/Headstage Interface/B5.E_{3}*%
X43050000Y39475000D03*
%TO.P,RN3,6,R6.1*%
%TO.N,/Headstage Interface/B5.E_{2}*%
X43050000Y39975000D03*
%TO.P,RN3,7,R7.1*%
%TO.N,/Headstage Interface/B5.E_{1}*%
X43050000Y40475000D03*
%TO.P,RN3,8,R8.1*%
%TO.N,/Headstage Interface/B5.E_{0}*%
X43050000Y40975000D03*
%TO.P,RN3,9,R8.2*%
%TO.N,/Headstage Interface/E46*%
X44850000Y40975000D03*
%TO.P,RN3,10,R7.2*%
%TO.N,/Headstage Interface/E44*%
X44850000Y40475000D03*
%TO.P,RN3,11,R6.2*%
%TO.N,/Headstage Interface/E42*%
X44850000Y39975000D03*
%TO.P,RN3,12,R5.2*%
%TO.N,/Headstage Interface/E40*%
X44850000Y39475000D03*
%TO.P,RN3,13,R4.2*%
%TO.N,/Headstage Interface/E38*%
X44850000Y38975000D03*
%TO.P,RN3,14,R3.2*%
%TO.N,/Headstage Interface/E36*%
X44850000Y38475000D03*
%TO.P,RN3,15,R2.2*%
%TO.N,/Headstage Interface/E34*%
X44850000Y37975000D03*
%TO.P,RN3,16,R1.2*%
%TO.N,/Headstage Interface/E32*%
X44850000Y37475000D03*
%TD*%
%TO.P,RN2,1,R1.1*%
%TO.N,/Headstage Interface/E17*%
X55050000Y32400000D03*
%TO.P,RN2,2,R2.1*%
%TO.N,/Headstage Interface/E19*%
X55050000Y32900000D03*
%TO.P,RN2,3,R3.1*%
%TO.N,/Headstage Interface/E21*%
X55050000Y33400000D03*
%TO.P,RN2,4,R4.1*%
%TO.N,/Headstage Interface/E23*%
X55050000Y33900000D03*
%TO.P,RN2,5,R5.1*%
%TO.N,/Headstage Interface/E25*%
X55050000Y34400000D03*
%TO.P,RN2,6,R6.1*%
%TO.N,/Headstage Interface/E27*%
X55050000Y34900000D03*
%TO.P,RN2,7,R7.1*%
%TO.N,/Headstage Interface/E29*%
X55050000Y35400000D03*
%TO.P,RN2,8,R8.1*%
%TO.N,/Headstage Interface/E31*%
X55050000Y35900000D03*
%TO.P,RN2,9,R8.2*%
%TO.N,/Headstage Interface/B10.E_{0}*%
X56850000Y35900000D03*
%TO.P,RN2,10,R7.2*%
%TO.N,/Headstage Interface/B10.E_{1}*%
X56850000Y35400000D03*
%TO.P,RN2,11,R6.2*%
%TO.N,/Headstage Interface/B10.E_{2}*%
X56850000Y34900000D03*
%TO.P,RN2,12,R5.2*%
%TO.N,/Headstage Interface/B10.E_{3}*%
X56850000Y34400000D03*
%TO.P,RN2,13,R4.2*%
%TO.N,/Headstage Interface/B10.E_{4}*%
X56850000Y33900000D03*
%TO.P,RN2,14,R3.2*%
%TO.N,/Headstage Interface/B10.E_{5}*%
X56850000Y33400000D03*
%TO.P,RN2,15,R2.2*%
%TO.N,/Headstage Interface/B10.E_{6}*%
X56850000Y32900000D03*
%TO.P,RN2,16,R1.2*%
%TO.N,/Headstage Interface/B10.E_{7}*%
X56850000Y32400000D03*
%TD*%
%TO.P,RN4,1,R1.1*%
%TO.N,/Headstage Interface/E33*%
X55050000Y37450000D03*
%TO.P,RN4,2,R2.1*%
%TO.N,/Headstage Interface/E35*%
X55050000Y37950000D03*
%TO.P,RN4,3,R3.1*%
%TO.N,/Headstage Interface/E37*%
X55050000Y38450000D03*
%TO.P,RN4,4,R4.1*%
%TO.N,/Headstage Interface/E39*%
X55050000Y38950000D03*
%TO.P,RN4,5,R5.1*%
%TO.N,/Headstage Interface/E41*%
X55050000Y39450000D03*
%TO.P,RN4,6,R6.1*%
%TO.N,/Headstage Interface/E43*%
X55050000Y39950000D03*
%TO.P,RN4,7,R7.1*%
%TO.N,/Headstage Interface/E45*%
X55050000Y40450000D03*
%TO.P,RN4,8,R8.1*%
%TO.N,/Headstage Interface/E47*%
X55050000Y40950000D03*
%TO.P,RN4,9,R8.2*%
%TO.N,/Headstage Interface/B9.E_{0}*%
X56850000Y40950000D03*
%TO.P,RN4,10,R7.2*%
%TO.N,/Headstage Interface/B9.E_{1}*%
X56850000Y40450000D03*
%TO.P,RN4,11,R6.2*%
%TO.N,/Headstage Interface/B9.E_{2}*%
X56850000Y39950000D03*
%TO.P,RN4,12,R5.2*%
%TO.N,/Headstage Interface/B9.E_{3}*%
X56850000Y39450000D03*
%TO.P,RN4,13,R4.2*%
%TO.N,/Headstage Interface/B9.E_{4}*%
X56850000Y38950000D03*
%TO.P,RN4,14,R3.2*%
%TO.N,/Headstage Interface/B9.E_{5}*%
X56850000Y38450000D03*
%TO.P,RN4,15,R2.2*%
%TO.N,/Headstage Interface/B9.E_{6}*%
X56850000Y37950000D03*
%TO.P,RN4,16,R1.2*%
%TO.N,/Headstage Interface/B9.E_{7}*%
X56850000Y37450000D03*
%TD*%
D10*
%TO.P,J3,1,Pin_1*%
%TO.N,GND*%
X87863500Y52600000D03*
%TO.P,J3,2,Pin_2*%
X82136500Y52600000D03*
%TO.P,J3,3,Pin_3*%
X87863500Y51800000D03*
%TO.P,J3,4,Pin_4*%
X82136500Y51800000D03*
%TO.P,J3,5,Pin_5*%
%TO.N,/Headstage Interface/B12.E_{0}*%
X87863500Y51000000D03*
%TO.P,J3,6,Pin_6*%
%TO.N,/Headstage Interface/B8.E_{0}*%
X82136500Y51000000D03*
%TO.P,J3,7,Pin_7*%
%TO.N,/Headstage Interface/B12.E_{1}*%
X87863500Y50200000D03*
%TO.P,J3,8,Pin_8*%
%TO.N,/Headstage Interface/B8.E_{1}*%
X82136500Y50200000D03*
%TO.P,J3,9,Pin_9*%
%TO.N,/Headstage Interface/B12.E_{2}*%
X87863500Y49400000D03*
%TO.P,J3,10,Pin_10*%
%TO.N,/Headstage Interface/B8.E_{2}*%
X82136500Y49400000D03*
%TO.P,J3,11,Pin_11*%
%TO.N,/Headstage Interface/B12.E_{3}*%
X87863500Y48600000D03*
%TO.P,J3,12,Pin_12*%
%TO.N,/Headstage Interface/B8.E_{3}*%
X82136500Y48600000D03*
%TO.P,J3,13,Pin_13*%
%TO.N,/Headstage Interface/B12.E_{4}*%
X87863500Y47800000D03*
%TO.P,J3,14,Pin_14*%
%TO.N,/Headstage Interface/B8.E_{4}*%
X82136500Y47800000D03*
%TO.P,J3,15,Pin_15*%
%TO.N,/Headstage Interface/B12.E_{5}*%
X87863500Y47000000D03*
%TO.P,J3,16,Pin_16*%
%TO.N,/Headstage Interface/B8.E_{5}*%
X82136500Y47000000D03*
%TO.P,J3,17,Pin_17*%
%TO.N,/Headstage Interface/B12.E_{6}*%
X87863500Y46200000D03*
%TO.P,J3,18,Pin_18*%
%TO.N,/Headstage Interface/B8.E_{6}*%
X82136500Y46200000D03*
%TO.P,J3,19,Pin_19*%
%TO.N,/Headstage Interface/B12.E_{7}*%
X87863500Y45400000D03*
%TO.P,J3,20,Pin_20*%
%TO.N,/Headstage Interface/B8.E_{7}*%
X82136500Y45400000D03*
%TO.P,J3,21,Pin_21*%
%TO.N,GND*%
X87863500Y44600000D03*
%TO.P,J3,22,Pin_22*%
X82136500Y44600000D03*
%TO.P,J3,23,Pin_23*%
%TO.N,/Headstage Interface/B13.E_{0}*%
X87863500Y43800000D03*
%TO.P,J3,24,Pin_24*%
%TO.N,/Headstage Interface/B9.E_{0}*%
X82136500Y43800000D03*
%TO.P,J3,25,Pin_25*%
%TO.N,/Headstage Interface/B13.E_{1}*%
X87863500Y43000000D03*
%TO.P,J3,26,Pin_26*%
%TO.N,/Headstage Interface/B9.E_{1}*%
X82136500Y43000000D03*
%TO.P,J3,27,Pin_27*%
%TO.N,/Headstage Interface/B13.E_{2}*%
X87863500Y42200000D03*
%TO.P,J3,28,Pin_28*%
%TO.N,/Headstage Interface/B9.E_{2}*%
X82136500Y42200000D03*
%TO.P,J3,29,Pin_29*%
%TO.N,/Headstage Interface/B13.E_{3}*%
X87863500Y41400000D03*
%TO.P,J3,30,Pin_30*%
%TO.N,/Headstage Interface/B9.E_{3}*%
X82136500Y41400000D03*
%TO.P,J3,31,Pin_31*%
%TO.N,/Headstage Interface/B13.E_{4}*%
X87863500Y40600000D03*
%TO.P,J3,32,Pin_32*%
%TO.N,/Headstage Interface/B9.E_{4}*%
X82136500Y40600000D03*
%TO.P,J3,33,Pin_33*%
%TO.N,/Headstage Interface/B13.E_{5}*%
X87863500Y39800000D03*
%TO.P,J3,34,Pin_34*%
%TO.N,/Headstage Interface/B9.E_{5}*%
X82136500Y39800000D03*
%TO.P,J3,35,Pin_35*%
%TO.N,/Headstage Interface/B13.E_{6}*%
X87863500Y39000000D03*
%TO.P,J3,36,Pin_36*%
%TO.N,/Headstage Interface/B9.E_{6}*%
X82136500Y39000000D03*
%TO.P,J3,37,Pin_37*%
%TO.N,/Headstage Interface/B13.E_{7}*%
X87863500Y38200000D03*
%TO.P,J3,38,Pin_38*%
%TO.N,/Headstage Interface/B9.E_{7}*%
X82136500Y38200000D03*
%TO.P,J3,39,Pin_39*%
%TO.N,GND*%
X87863500Y37400000D03*
%TO.P,J3,40,Pin_40*%
X82136500Y37400000D03*
%TO.P,J3,41,Pin_41*%
%TO.N,/Headstage Interface/B14.E_{0}*%
X87863500Y36600000D03*
%TO.P,J3,42,Pin_42*%
%TO.N,/Headstage Interface/B10.E_{0}*%
X82136500Y36600000D03*
%TO.P,J3,43,Pin_43*%
%TO.N,/Headstage Interface/B14.E_{1}*%
X87863500Y35800000D03*
%TO.P,J3,44,Pin_44*%
%TO.N,/Headstage Interface/B10.E_{1}*%
X82136500Y35800000D03*
%TO.P,J3,45,Pin_45*%
%TO.N,/Headstage Interface/B14.E_{2}*%
X87863500Y35000000D03*
%TO.P,J3,46,Pin_46*%
%TO.N,/Headstage Interface/B10.E_{2}*%
X82136500Y35000000D03*
%TO.P,J3,47,Pin_47*%
%TO.N,/Headstage Interface/B14.E_{3}*%
X87863500Y34200000D03*
%TO.P,J3,48,Pin_48*%
%TO.N,/Headstage Interface/B10.E_{3}*%
X82136500Y34200000D03*
%TO.P,J3,49,Pin_49*%
%TO.N,/Headstage Interface/B14.E_{4}*%
X87863500Y33400000D03*
%TO.P,J3,50,Pin_50*%
%TO.N,/Headstage Interface/B10.E_{4}*%
X82136500Y33400000D03*
%TO.P,J3,51,Pin_51*%
%TO.N,/Headstage Interface/B14.E_{5}*%
X87863500Y32600000D03*
%TO.P,J3,52,Pin_52*%
%TO.N,/Headstage Interface/B10.E_{5}*%
X82136500Y32600000D03*
%TO.P,J3,53,Pin_53*%
%TO.N,/Headstage Interface/B14.E_{6}*%
X87863500Y31800000D03*
%TO.P,J3,54,Pin_54*%
%TO.N,/Headstage Interface/B10.E_{6}*%
X82136500Y31800000D03*
%TO.P,J3,55,Pin_55*%
%TO.N,/Headstage Interface/B14.E_{7}*%
X87863500Y31000000D03*
%TO.P,J3,56,Pin_56*%
%TO.N,/Headstage Interface/B10.E_{7}*%
X82136500Y31000000D03*
%TO.P,J3,57,Pin_57*%
%TO.N,GND*%
X87863500Y30200000D03*
%TO.P,J3,58,Pin_58*%
X82136500Y30200000D03*
%TO.P,J3,59,Pin_59*%
%TO.N,/Headstage Interface/B15.E_{0}*%
X87863500Y29400000D03*
%TO.P,J3,60,Pin_60*%
%TO.N,/Headstage Interface/B11.E_{0}*%
X82136500Y29400000D03*
%TO.P,J3,61,Pin_61*%
%TO.N,/Headstage Interface/B15.E_{1}*%
X87863500Y28600000D03*
%TO.P,J3,62,Pin_62*%
%TO.N,/Headstage Interface/B11.E_{1}*%
X82136500Y28600000D03*
%TO.P,J3,63,Pin_63*%
%TO.N,/Headstage Interface/B15.E_{2}*%
X87863500Y27800000D03*
%TO.P,J3,64,Pin_64*%
%TO.N,/Headstage Interface/B11.E_{2}*%
X82136500Y27800000D03*
%TO.P,J3,65,Pin_65*%
%TO.N,/Headstage Interface/B15.E_{3}*%
X87863500Y27000000D03*
%TO.P,J3,66,Pin_66*%
%TO.N,/Headstage Interface/B11.E_{3}*%
X82136500Y27000000D03*
%TO.P,J3,67,Pin_67*%
%TO.N,/Headstage Interface/B15.E_{4}*%
X87863500Y26200000D03*
%TO.P,J3,68,Pin_68*%
%TO.N,/Headstage Interface/B11.E_{4}*%
X82136500Y26200000D03*
%TO.P,J3,69,Pin_69*%
%TO.N,/Headstage Interface/B15.E_{5}*%
X87863500Y25400000D03*
%TO.P,J3,70,Pin_70*%
%TO.N,/Headstage Interface/B11.E_{5}*%
X82136500Y25400000D03*
%TO.P,J3,71,Pin_71*%
%TO.N,/Headstage Interface/B15.E_{6}*%
X87863500Y24600000D03*
%TO.P,J3,72,Pin_72*%
%TO.N,/Headstage Interface/B11.E_{6}*%
X82136500Y24600000D03*
%TO.P,J3,73,Pin_73*%
%TO.N,/Headstage Interface/B15.E_{7}*%
X87863500Y23800000D03*
%TO.P,J3,74,Pin_74*%
%TO.N,/Headstage Interface/B11.E_{7}*%
X82136500Y23800000D03*
%TO.P,J3,75,Pin_75*%
%TO.N,GND*%
X87863500Y23000000D03*
%TO.P,J3,76,Pin_76*%
X82136500Y23000000D03*
%TO.P,J3,77,Pin_77*%
%TO.N,unconnected-(J3-Pin_77-Pad77)*%
X87863500Y22200000D03*
%TO.P,J3,78,Pin_78*%
%TO.N,unconnected-(J3-Pin_78-Pad78)*%
X82136500Y22200000D03*
%TO.P,J3,79,Pin_79*%
%TO.N,unconnected-(J3-Pin_79-Pad79)*%
X87863500Y21400000D03*
%TO.P,J3,80,Pin_80*%
%TO.N,unconnected-(J3-Pin_80-Pad80)*%
X82136500Y21400000D03*
%TD*%
D11*
%TO.P,RN1,1,R1.1*%
%TO.N,/Headstage Interface/B6.E_{7}*%
X43050000Y32400000D03*
%TO.P,RN1,2,R2.1*%
%TO.N,/Headstage Interface/B6.E_{6}*%
X43050000Y32900000D03*
%TO.P,RN1,3,R3.1*%
%TO.N,/Headstage Interface/B6.E_{5}*%
X43050000Y33400000D03*
%TO.P,RN1,4,R4.1*%
%TO.N,/Headstage Interface/B6.E_{4}*%
X43050000Y33900000D03*
%TO.P,RN1,5,R5.1*%
%TO.N,/Headstage Interface/B6.E_{3}*%
X43050000Y34400000D03*
%TO.P,RN1,6,R6.1*%
%TO.N,/Headstage Interface/B6.E_{2}*%
X43050000Y34900000D03*
%TO.P,RN1,7,R7.1*%
%TO.N,/Headstage Interface/B6.E_{1}*%
X43050000Y35400000D03*
%TO.P,RN1,8,R8.1*%
%TO.N,/Headstage Interface/B6.E_{0}*%
X43050000Y35900000D03*
%TO.P,RN1,9,R8.2*%
%TO.N,/Headstage Interface/E30*%
X44850000Y35900000D03*
%TO.P,RN1,10,R7.2*%
%TO.N,/Headstage Interface/E28*%
X44850000Y35400000D03*
%TO.P,RN1,11,R6.2*%
%TO.N,/Headstage Interface/E26*%
X44850000Y34900000D03*
%TO.P,RN1,12,R5.2*%
%TO.N,/Headstage Interface/E24*%
X44850000Y34400000D03*
%TO.P,RN1,13,R4.2*%
%TO.N,/Headstage Interface/E22*%
X44850000Y33900000D03*
%TO.P,RN1,14,R3.2*%
%TO.N,/Headstage Interface/E20*%
X44850000Y33400000D03*
%TO.P,RN1,15,R2.2*%
%TO.N,/Headstage Interface/E18*%
X44850000Y32900000D03*
%TO.P,RN1,16,R1.2*%
%TO.N,/Headstage Interface/E16*%
X44850000Y32400000D03*
%TD*%
D12*
%TO.N,GND*%
X49100000Y42950000D03*
X64150000Y20600000D03*
X6730000Y56610000D03*
X14555000Y35146000D03*
X93900000Y2250000D03*
X5825000Y31425000D03*
X45400000Y45100000D03*
X25600000Y20000000D03*
X27000000Y56200000D03*
X58475000Y29425000D03*
X40400000Y55900000D03*
X68075000Y1250000D03*
X3425000Y17625000D03*
X30700000Y30200000D03*
X85040000Y37305000D03*
X84913000Y44417000D03*
X29250000Y1975000D03*
X79850000Y23000000D03*
X95200000Y29500000D03*
X33400000Y44500000D03*
X98600000Y12350000D03*
X67300000Y30200000D03*
X79500000Y30200000D03*
X14810000Y50640000D03*
X2350000Y2925000D03*
X5100000Y42600000D03*
X90501000Y52164000D03*
X50750000Y30447000D03*
X51400000Y23800000D03*
X95000000Y56100000D03*
X76450000Y18900000D03*
X66500000Y44600000D03*
X92700000Y17800000D03*
X40100000Y24100000D03*
X63650000Y12700000D03*
X94900000Y45900000D03*
X21000000Y30000000D03*
X21000000Y44600000D03*
X76900000Y56800000D03*
X66067445Y56778348D03*
X53900000Y44500000D03*
X36650000Y13050000D03*
X79833000Y52037000D03*
X43275000Y900000D03*
%TO.N,VCC*%
X14400000Y18050000D03*
X11700000Y12800000D03*
X12125000Y15775000D03*
X11700000Y13300000D03*
X13912500Y17562500D03*
%TO.N,/Headstage Interface/REF*%
X82150000Y16200000D03*
X49450000Y30100000D03*
X50750000Y42766000D03*
%TO.N,/Test Signal Interface/SDA*%
X17095000Y15334000D03*
X17095000Y19017000D03*
%TO.N,/Test Signal Interface/SCL*%
X19700000Y21600000D03*
%TO.N,/Test Signal Interface/WP*%
X10100000Y22200000D03*
%TO.N,/Headstage Interface/E39*%
X52800000Y38829000D03*
%TO.N,/Headstage Interface/E17*%
X53418889Y31819070D03*
%TO.N,/Headstage Interface/E38*%
X46559000Y38829000D03*
%TO.N,/Headstage Interface/E33*%
X53500678Y36917199D03*
%TO.N,/Headstage Interface/E43*%
X52800000Y40099000D03*
%TO.N,/Headstage Interface/E34*%
X46559000Y37525000D03*
%TO.N,/Headstage Interface/E19*%
X52670000Y32470000D03*
%TO.N,/Headstage Interface/E37*%
X53500000Y38194000D03*
%TO.N,/Headstage Interface/E16*%
X47259000Y31844000D03*
%TO.N,/Headstage Interface/E44*%
X47389000Y40743000D03*
%TO.N,/Headstage Interface/E29*%
X53500000Y35654000D03*
%TO.N,/Headstage Interface/E23*%
X52800000Y33749000D03*
%TO.N,/Headstage Interface/E30*%
X46559000Y36289000D03*
%TO.N,/Headstage Interface/E47*%
X52800000Y41369000D03*
%TO.N,/Headstage Interface/E28*%
X47259000Y35654000D03*
%TO.N,/Headstage Interface/E46*%
X46686000Y41369000D03*
%TO.N,/Headstage Interface/E32*%
X47259000Y36924000D03*
%TO.N,/Headstage Interface/E24*%
X47259000Y34384000D03*
%TO.N,/Headstage Interface/E41*%
X53461610Y39375000D03*
%TO.N,/Headstage Interface/E25*%
X53480926Y34414181D03*
%TO.N,/Headstage Interface/E31*%
X52800000Y36289000D03*
%TO.N,/Headstage Interface/E27*%
X52800000Y35019000D03*
%TO.N,/Headstage Interface/E21*%
X53417000Y33114000D03*
%TO.N,/Headstage Interface/E35*%
X52800000Y37559000D03*
%TO.N,/Headstage Interface/E36*%
X47259000Y38194000D03*
%TO.N,/Headstage Interface/E22*%
X46559000Y33749000D03*
%TO.N,/Headstage Interface/E45*%
X53500000Y40734000D03*
%TO.N,/Headstage Interface/E40*%
X47259000Y39464000D03*
%TO.N,/Headstage Interface/E18*%
X46559000Y32479000D03*
%TO.N,/Headstage Interface/E42*%
X46642000Y40099000D03*
%TO.N,/Headstage Interface/E20*%
X47259000Y33114000D03*
%TO.N,/Headstage Interface/E26*%
X46559000Y35019000D03*
%TD*%
D13*
%TO.N,VCC*%
X11700000Y15350000D02*
X11700000Y12800000D01*
X14400000Y18050000D02*
X11700000Y15350000D01*
X14400000Y18050000D02*
X14675000Y18325000D01*
X14675000Y20025000D02*
X13300000Y21400000D01*
X14675000Y18325000D02*
X14675000Y20025000D01*
X13300000Y21400000D02*
X12136500Y21400000D01*
D14*
%TO.N,/Headstage Interface/B5.E_{0}*%
X24842000Y41369000D02*
X22411000Y43800000D01*
X22411000Y43800000D02*
X17863500Y43800000D01*
X41781000Y41369000D02*
X24842000Y41369000D01*
X43050000Y40975000D02*
X42175000Y40975000D01*
X42175000Y40975000D02*
X41781000Y41369000D01*
%TO.N,/Headstage Interface/B5.E_{2}*%
X38051000Y40100000D02*
X41575000Y40100000D01*
X41575000Y40100000D02*
X41700000Y39975000D01*
X23699000Y40099000D02*
X38050000Y40099000D01*
X17863500Y42200000D02*
X21598000Y42200000D01*
X41700000Y39975000D02*
X43050000Y39975000D01*
X38051000Y40100000D02*
X38050000Y40099000D01*
X21598000Y42200000D02*
X23699000Y40099000D01*
%TO.N,/Headstage Interface/B5.E_{5}*%
X20696000Y39800000D02*
X17863500Y39800000D01*
X43050000Y38475000D02*
X41625000Y38475000D01*
X41344000Y38194000D02*
X22302000Y38194000D01*
X22302000Y38194000D02*
X20696000Y39800000D01*
X41625000Y38475000D02*
X41344000Y38194000D01*
%TO.N,/Headstage Interface/B6.E_{2}*%
X43050000Y34900000D02*
X41500000Y34900000D01*
X41500000Y34900000D02*
X41400000Y35000000D01*
X41400000Y35000000D02*
X17863500Y35000000D01*
%TO.N,/Headstage Interface/B6.E_{5}*%
X43050000Y33400000D02*
X41750000Y33400000D01*
X21413000Y33114000D02*
X20899000Y32600000D01*
X20899000Y32600000D02*
X17863500Y32600000D01*
X41750000Y33400000D02*
X41464000Y33114000D01*
X41464000Y33114000D02*
X21413000Y33114000D01*
%TO.N,/Headstage Interface/B5.E_{7}*%
X41549000Y36924000D02*
X21032000Y36924000D01*
X21032000Y36924000D02*
X19756000Y38200000D01*
X19756000Y38200000D02*
X17863500Y38200000D01*
X42100000Y37475000D02*
X41549000Y36924000D01*
X43050000Y37475000D02*
X42100000Y37475000D01*
%TO.N,/Headstage Interface/B6.E_{7}*%
X21585000Y31000000D02*
X17863500Y31000000D01*
X42125000Y32400000D02*
X41569000Y31844000D01*
X22429000Y31844000D02*
X21585000Y31000000D01*
X43050000Y32400000D02*
X42125000Y32400000D01*
X41569000Y31844000D02*
X22429000Y31844000D01*
%TO.N,/Headstage Interface/B6.E_{0}*%
X42050000Y35900000D02*
X41661000Y36289000D01*
X43050000Y35900000D02*
X42050000Y35900000D01*
X20524000Y36289000D02*
X20213000Y36600000D01*
X20213000Y36600000D02*
X17863500Y36600000D01*
X41661000Y36289000D02*
X20524000Y36289000D01*
%TO.N,/Headstage Interface/B5.E_{1}*%
X43050000Y40475000D02*
X41950000Y40475000D01*
X41950000Y40475000D02*
X41682000Y40743000D01*
X24198000Y40743000D02*
X21941000Y43000000D01*
X41682000Y40743000D02*
X24198000Y40743000D01*
X21941000Y43000000D02*
X17863500Y43000000D01*
D13*
%TO.N,/Headstage Interface/REF*%
X49250000Y41266000D02*
X49250000Y30300000D01*
X63350000Y16200000D02*
X82150000Y16200000D01*
X50750000Y42766000D02*
X49250000Y41266000D01*
X49250000Y30300000D02*
X63350000Y16200000D01*
D14*
%TO.N,/Headstage Interface/B6.E_{6}*%
X21159000Y31800000D02*
X17863500Y31800000D01*
X21838000Y32479000D02*
X21159000Y31800000D01*
X41554000Y32479000D02*
X21838000Y32479000D01*
X43050000Y32900000D02*
X41975000Y32900000D01*
X41975000Y32900000D02*
X41554000Y32479000D01*
%TO.N,/Headstage Interface/B6.E_{1}*%
X41750000Y35400000D02*
X41496000Y35654000D01*
X18009500Y35654000D02*
X17863500Y35800000D01*
X41496000Y35654000D02*
X18009500Y35654000D01*
X43050000Y35400000D02*
X41750000Y35400000D01*
%TO.N,/Headstage Interface/B5.E_{6}*%
X20226000Y39000000D02*
X17863500Y39000000D01*
X43050000Y37975000D02*
X41862500Y37975000D01*
X41862500Y37975000D02*
X41446500Y37559000D01*
X41446500Y37559000D02*
X21667000Y37559000D01*
X21667000Y37559000D02*
X20226000Y39000000D01*
%TO.N,/Headstage Interface/B6.E_{4}*%
X20778000Y33749000D02*
X20429000Y33400000D01*
X41474000Y33749000D02*
X20778000Y33749000D01*
X43050000Y33900000D02*
X41625000Y33900000D01*
X20429000Y33400000D02*
X17863500Y33400000D01*
X41625000Y33900000D02*
X41474000Y33749000D01*
%TO.N,/Headstage Interface/B5.E_{4}*%
X41475000Y38975000D02*
X41329000Y38829000D01*
X21039000Y40600000D02*
X17863500Y40600000D01*
X43050000Y38975000D02*
X41475000Y38975000D01*
X41329000Y38829000D02*
X22810000Y38829000D01*
X22810000Y38829000D02*
X21039000Y40600000D01*
%TO.N,/Headstage Interface/B5.E_{3}*%
X23445000Y39464000D02*
X40889000Y39464000D01*
X40900000Y39475000D02*
X43050000Y39475000D01*
X40889000Y39464000D02*
X40900000Y39475000D01*
X17863500Y41400000D02*
X21509000Y41400000D01*
X21509000Y41400000D02*
X23445000Y39464000D01*
%TO.N,/Headstage Interface/B6.E_{3}*%
X40900000Y34400000D02*
X43050000Y34400000D01*
X20397000Y34384000D02*
X40884000Y34384000D01*
X17863500Y34200000D02*
X20213000Y34200000D01*
X40884000Y34384000D02*
X40900000Y34400000D01*
X20213000Y34200000D02*
X20397000Y34384000D01*
%TO.N,/Test Signal Interface/SDA*%
X17095000Y19017000D02*
X17095000Y15334000D01*
X17863500Y19785500D02*
X17863500Y21400000D01*
X17095000Y19017000D02*
X17863500Y19785500D01*
%TO.N,/Headstage Interface/B10.E_{4}*%
X58875000Y33900000D02*
X56850000Y33900000D01*
X80563000Y33400000D02*
X80214000Y33749000D01*
X82136500Y33400000D02*
X80563000Y33400000D01*
X80214000Y33749000D02*
X59026000Y33749000D01*
X59026000Y33749000D02*
X58875000Y33900000D01*
%TO.N,/Test Signal Interface/SCL*%
X17863500Y22200000D02*
X19100000Y22200000D01*
X19100000Y22200000D02*
X19700000Y21600000D01*
%TO.N,/Headstage Interface/B9.E_{1}*%
X58300000Y40450000D02*
X56850000Y40450000D01*
X82136500Y43000000D02*
X79559000Y43000000D01*
X58584000Y40734000D02*
X58300000Y40450000D01*
X77293000Y40734000D02*
X58584000Y40734000D01*
X79559000Y43000000D02*
X77293000Y40734000D01*
%TO.N,/Headstage Interface/B9.E_{0}*%
X58544000Y41369000D02*
X58125000Y40950000D01*
X82136500Y43800000D02*
X79470000Y43800000D01*
X79470000Y43800000D02*
X77039000Y41369000D01*
X77039000Y41369000D02*
X58544000Y41369000D01*
X58125000Y40950000D02*
X56850000Y40950000D01*
%TO.N,/Headstage Interface/B9.E_{5}*%
X78563000Y38194000D02*
X58606000Y38194000D01*
X58350000Y38450000D02*
X56850000Y38450000D01*
X80169000Y39800000D02*
X78563000Y38194000D01*
X82136500Y39800000D02*
X80169000Y39800000D01*
X58606000Y38194000D02*
X58350000Y38450000D01*
%TO.N,/Headstage Interface/B10.E_{3}*%
X58791000Y34384000D02*
X58775000Y34400000D01*
X80214000Y34384000D02*
X58791000Y34384000D01*
X80398000Y34200000D02*
X80214000Y34384000D01*
X82136500Y34200000D02*
X80398000Y34200000D01*
X58775000Y34400000D02*
X56850000Y34400000D01*
%TO.N,/Headstage Interface/B10.E_{1}*%
X59129000Y35654000D02*
X58875000Y35400000D01*
X81990500Y35654000D02*
X59129000Y35654000D01*
X58875000Y35400000D02*
X56850000Y35400000D01*
X82136500Y35800000D02*
X81990500Y35654000D01*
%TO.N,/Headstage Interface/B10.E_{2}*%
X82136500Y35000000D02*
X59075000Y35000000D01*
X59075000Y35000000D02*
X58975000Y34900000D01*
X58975000Y34900000D02*
X56850000Y34900000D01*
%TO.N,/Headstage Interface/B10.E_{7}*%
X58515000Y31835000D02*
X57950000Y32400000D01*
X57950000Y32400000D02*
X56850000Y32400000D01*
X80296000Y31000000D02*
X79461000Y31835000D01*
X79461000Y31835000D02*
X58515000Y31835000D01*
X82136500Y31000000D02*
X80296000Y31000000D01*
%TO.N,/Headstage Interface/B9.E_{3}*%
X58775000Y39450000D02*
X56850000Y39450000D01*
X58789000Y39464000D02*
X58775000Y39450000D01*
X82136500Y41400000D02*
X79864000Y41400000D01*
X79864000Y41400000D02*
X77928000Y39464000D01*
X77928000Y39464000D02*
X58789000Y39464000D01*
%TO.N,/Headstage Interface/B9.E_{4}*%
X58475000Y38950000D02*
X56850000Y38950000D01*
X78309000Y38829000D02*
X59546000Y38829000D01*
X59542000Y38825000D02*
X58600000Y38825000D01*
X59546000Y38829000D02*
X59542000Y38825000D01*
X58600000Y38825000D02*
X58475000Y38950000D01*
X82136500Y40600000D02*
X80080000Y40600000D01*
X80080000Y40600000D02*
X78309000Y38829000D01*
%TO.N,/Headstage Interface/B9.E_{6}*%
X80385000Y39000000D02*
X78944000Y37559000D01*
X58491000Y37559000D02*
X58100000Y37950000D01*
X82136500Y39000000D02*
X80385000Y39000000D01*
X58100000Y37950000D02*
X56850000Y37950000D01*
X78944000Y37559000D02*
X58491000Y37559000D01*
%TO.N,/Headstage Interface/B9.E_{7}*%
X80474000Y38200000D02*
X79198000Y36924000D01*
X82136500Y38200000D02*
X80474000Y38200000D01*
X79198000Y36924000D02*
X58401000Y36924000D01*
X57875000Y37450000D02*
X56850000Y37450000D01*
X58401000Y36924000D02*
X57875000Y37450000D01*
%TO.N,/Headstage Interface/B9.E_{2}*%
X58450000Y39950000D02*
X56850000Y39950000D01*
X58600000Y40100000D02*
X58450000Y39950000D01*
X79775000Y42200000D02*
X77674000Y40099000D01*
X58625000Y40100000D02*
X58600000Y40100000D01*
X77674000Y40099000D02*
X58626000Y40099000D01*
X82136500Y42200000D02*
X79775000Y42200000D01*
X58626000Y40099000D02*
X58625000Y40100000D01*
%TO.N,/Headstage Interface/B10.E_{6}*%
X58680000Y32470000D02*
X58250000Y32900000D01*
X82136500Y31800000D02*
X80385000Y31800000D01*
X79715000Y32470000D02*
X58680000Y32470000D01*
X80385000Y31800000D02*
X79715000Y32470000D01*
X58250000Y32900000D02*
X56850000Y32900000D01*
%TO.N,/Headstage Interface/B10.E_{0}*%
X59064000Y36289000D02*
X58675000Y35900000D01*
X82136500Y36600000D02*
X80271000Y36600000D01*
X79960000Y36289000D02*
X59064000Y36289000D01*
X58675000Y35900000D02*
X56850000Y35900000D01*
X80271000Y36600000D02*
X79960000Y36289000D01*
%TO.N,/Headstage Interface/B10.E_{5}*%
X80598000Y32600000D02*
X80084000Y33114000D01*
X58861000Y33114000D02*
X58575000Y33400000D01*
X58575000Y33400000D02*
X56850000Y33400000D01*
X80084000Y33114000D02*
X58861000Y33114000D01*
X82136500Y32600000D02*
X80598000Y32600000D01*
%TO.N,/Test Signal Interface/WP*%
X10100000Y22200000D02*
X12136500Y22200000D01*
%TO.N,/Headstage Interface/E39*%
X52800000Y38829000D02*
X52839000Y38790000D01*
X52839000Y38790000D02*
X53703925Y38790000D01*
X53863925Y38950000D02*
X55050000Y38950000D01*
X53703925Y38790000D02*
X53863925Y38950000D01*
D15*
%TO.N,/Headstage Interface/E17*%
X55050000Y32400000D02*
X54800000Y32400000D01*
X54219070Y31819070D02*
X53418889Y31819070D01*
X54800000Y32400000D02*
X54219070Y31819070D01*
D14*
%TO.N,/Headstage Interface/E38*%
X46559000Y38829000D02*
X46413000Y38975000D01*
X46413000Y38975000D02*
X44850000Y38975000D01*
D15*
%TO.N,/Headstage Interface/E33*%
X55050000Y37450000D02*
X54800000Y37450000D01*
X54267199Y36917199D02*
X53500678Y36917199D01*
X54800000Y37450000D02*
X54267199Y36917199D01*
%TO.N,/Headstage Interface/E43*%
X55050000Y39950000D02*
X52949000Y39950000D01*
X52949000Y39950000D02*
X52800000Y40099000D01*
D14*
%TO.N,/Headstage Interface/E34*%
X46525000Y37559000D02*
X46559000Y37525000D01*
X45891000Y37559000D02*
X46525000Y37559000D01*
X44850000Y37975000D02*
X45475000Y37975000D01*
X45475000Y37975000D02*
X45891000Y37559000D01*
%TO.N,/Headstage Interface/E19*%
X52670000Y32470000D02*
X53820000Y32470000D01*
X53820000Y32470000D02*
X54250000Y32900000D01*
X54250000Y32900000D02*
X55050000Y32900000D01*
%TO.N,/Headstage Interface/E37*%
X53701895Y38194000D02*
X53957895Y38450000D01*
X53957895Y38450000D02*
X55050000Y38450000D01*
X53500000Y38194000D02*
X53701895Y38194000D01*
D15*
%TO.N,/Headstage Interface/E16*%
X45350000Y32400000D02*
X45906000Y31844000D01*
X45906000Y31844000D02*
X47259000Y31844000D01*
X44850000Y32400000D02*
X45350000Y32400000D01*
%TO.N,/Headstage Interface/E44*%
X46125000Y40475000D02*
X46350000Y40700000D01*
X44850000Y40475000D02*
X46125000Y40475000D01*
X47346000Y40700000D02*
X47389000Y40743000D01*
X46350000Y40700000D02*
X47346000Y40700000D01*
%TO.N,/Headstage Interface/E29*%
X55050000Y35400000D02*
X53754000Y35400000D01*
X53754000Y35400000D02*
X53500000Y35654000D01*
D14*
%TO.N,/Headstage Interface/E23*%
X52800000Y33749000D02*
X53599000Y33749000D01*
X53723241Y33829181D02*
X53794060Y33900000D01*
X53599000Y33749000D02*
X53679181Y33829181D01*
X53679181Y33829181D02*
X53723241Y33829181D01*
X53794060Y33900000D02*
X55050000Y33900000D01*
%TO.N,/Headstage Interface/E30*%
X45850000Y35900000D02*
X44850000Y35900000D01*
X46559000Y36289000D02*
X46239000Y36289000D01*
X46239000Y36289000D02*
X45850000Y35900000D01*
D15*
%TO.N,/Headstage Interface/E47*%
X55050000Y40950000D02*
X54200000Y40950000D01*
X54200000Y40950000D02*
X53781000Y41369000D01*
X53781000Y41369000D02*
X52800000Y41369000D01*
%TO.N,/Headstage Interface/E28*%
X44850000Y35400000D02*
X45950000Y35400000D01*
X45950000Y35400000D02*
X46150000Y35600000D01*
X47205000Y35600000D02*
X47259000Y35654000D01*
X46150000Y35600000D02*
X47205000Y35600000D01*
D14*
%TO.N,/Headstage Interface/E46*%
X45925000Y40975000D02*
X44850000Y40975000D01*
X46686000Y41369000D02*
X46319000Y41369000D01*
X46319000Y41369000D02*
X45925000Y40975000D01*
D15*
%TO.N,/Headstage Interface/E32*%
X45100000Y37475000D02*
X45651000Y36924000D01*
X44850000Y37475000D02*
X45100000Y37475000D01*
X45651000Y36924000D02*
X47259000Y36924000D01*
%TO.N,/Headstage Interface/E24*%
X47243000Y34400000D02*
X47259000Y34384000D01*
X44850000Y34400000D02*
X47243000Y34400000D01*
%TO.N,/Headstage Interface/E41*%
X55050000Y39450000D02*
X53536610Y39450000D01*
X53536610Y39450000D02*
X53461610Y39375000D01*
%TO.N,/Headstage Interface/E25*%
X53495107Y34400000D02*
X53480926Y34414181D01*
X55050000Y34400000D02*
X53495107Y34400000D01*
D14*
%TO.N,/Headstage Interface/E31*%
X52800000Y36289000D02*
X53761000Y36289000D01*
X53761000Y36289000D02*
X54150000Y35900000D01*
X54150000Y35900000D02*
X55050000Y35900000D01*
%TO.N,/Headstage Interface/E27*%
X53555172Y35019000D02*
X53584173Y34989999D01*
X53584173Y34989999D02*
X53760000Y34990000D01*
X53850000Y34900000D02*
X55050000Y34900000D01*
X52800000Y35019000D02*
X53555172Y35019000D01*
X53760000Y34990000D02*
X53850000Y34900000D01*
D15*
%TO.N,/Headstage Interface/E21*%
X53543828Y33114000D02*
X53417000Y33114000D01*
X53829828Y33400000D02*
X53543828Y33114000D01*
X55050000Y33400000D02*
X53829828Y33400000D01*
D14*
%TO.N,/Headstage Interface/E35*%
X54378000Y37950000D02*
X55050000Y37950000D01*
X52800000Y37559000D02*
X53987000Y37559000D01*
X53987000Y37559000D02*
X54378000Y37950000D01*
D15*
%TO.N,/Headstage Interface/E36*%
X44850000Y38475000D02*
X45675000Y38475000D01*
X45675000Y38475000D02*
X46050000Y38100000D01*
X47165000Y38100000D02*
X47259000Y38194000D01*
X46050000Y38100000D02*
X47165000Y38100000D01*
D14*
%TO.N,/Headstage Interface/E22*%
X46559000Y33749000D02*
X46408000Y33900000D01*
X46408000Y33900000D02*
X44850000Y33900000D01*
%TO.N,/Headstage Interface/E45*%
X53500000Y40734000D02*
X53816000Y40734000D01*
X53816000Y40734000D02*
X54100000Y40450000D01*
X54100000Y40450000D02*
X55050000Y40450000D01*
D15*
%TO.N,/Headstage Interface/E40*%
X44850000Y39475000D02*
X47248000Y39475000D01*
X47248000Y39475000D02*
X47259000Y39464000D01*
D14*
%TO.N,/Headstage Interface/E18*%
X45871000Y32479000D02*
X45450000Y32900000D01*
X46559000Y32479000D02*
X45871000Y32479000D01*
X45450000Y32900000D02*
X44850000Y32900000D01*
%TO.N,/Headstage Interface/E42*%
X46518000Y39975000D02*
X44850000Y39975000D01*
X46642000Y40099000D02*
X46518000Y39975000D01*
D15*
%TO.N,/Headstage Interface/E20*%
X44850000Y33400000D02*
X45650000Y33400000D01*
X45650000Y33400000D02*
X45950000Y33100000D01*
X47245000Y33100000D02*
X47259000Y33114000D01*
X45950000Y33100000D02*
X47245000Y33100000D01*
D14*
%TO.N,/Headstage Interface/E26*%
X46440000Y34900000D02*
X44850000Y34900000D01*
X46559000Y35019000D02*
X46440000Y34900000D01*
%TD*%
%TA.AperFunction,Conductor*%
%TO.N,GND*%
G36*
X97002065Y59799385D02*
G01*
X97309309Y59782130D01*
X97317543Y59781201D01*
X97618855Y59730007D01*
X97626923Y59728166D01*
X97920633Y59643549D01*
X97928447Y59640815D01*
X98210817Y59523853D01*
X98218293Y59520253D01*
X98485784Y59372416D01*
X98492808Y59368003D01*
X98742086Y59191131D01*
X98748554Y59185972D01*
X98901670Y59049138D01*
X98976446Y58982314D01*
X98982313Y58976447D01*
X99065033Y58883884D01*
X99185969Y58748557D01*
X99191132Y58742085D01*
X99346337Y58523343D01*
X99368000Y58492812D01*
X99372415Y58485785D01*
X99520252Y58218294D01*
X99523852Y58210818D01*
X99640810Y57928457D01*
X99643551Y57920624D01*
X99728162Y57626935D01*
X99730008Y57618844D01*
X99781199Y57317550D01*
X99782129Y57309304D01*
X99799384Y57002066D01*
X99799500Y56997917D01*
X99799500Y3002084D01*
X99799384Y2997935D01*
X99782129Y2690697D01*
X99781199Y2682451D01*
X99730008Y2381157D01*
X99728162Y2373066D01*
X99643551Y2079377D01*
X99640810Y2071544D01*
X99523852Y1789183D01*
X99520252Y1781707D01*
X99372415Y1514216D01*
X99368000Y1507189D01*
X99191138Y1257924D01*
X99185963Y1251436D01*
X98982313Y1023554D01*
X98976446Y1017687D01*
X98748564Y814037D01*
X98742076Y808862D01*
X98492811Y632000D01*
X98485784Y627585D01*
X98218293Y479748D01*
X98210817Y476148D01*
X97928456Y359190D01*
X97920623Y356449D01*
X97626934Y271838D01*
X97618843Y269992D01*
X97317549Y218801D01*
X97309303Y217871D01*
X97002066Y200616D01*
X96997917Y200500D01*
X3002083Y200500D01*
X2997934Y200616D01*
X2690696Y217871D01*
X2682450Y218801D01*
X2381156Y269992D01*
X2373065Y271838D01*
X2079376Y356449D01*
X2071543Y359190D01*
X1789182Y476148D01*
X1781706Y479748D01*
X1514215Y627585D01*
X1507188Y632000D01*
X1363715Y733799D01*
X1257915Y808868D01*
X1251443Y814031D01*
X1062260Y983096D01*
X1023553Y1017687D01*
X1017686Y1023554D01*
X950862Y1098330D01*
X814028Y1251446D01*
X808869Y1257914D01*
X631997Y1507192D01*
X627584Y1514216D01*
X610565Y1545009D01*
X479747Y1781707D01*
X476147Y1789183D01*
X450347Y1851469D01*
X359185Y2071553D01*
X356451Y2079367D01*
X271834Y2373077D01*
X269993Y2381145D01*
X218799Y2682457D01*
X217870Y2690697D01*
X200616Y2997935D01*
X200500Y3002084D01*
X200500Y19004978D01*
X11619500Y19004978D01*
X11619500Y18865023D01*
X11646802Y18727762D01*
X11646805Y18727751D01*
X11700362Y18598453D01*
X11774859Y18486961D01*
X11778118Y18482083D01*
X11877083Y18383118D01*
X11993452Y18305363D01*
X12122755Y18251804D01*
X12260022Y18224500D01*
X12260023Y18224500D01*
X12399977Y18224500D01*
X12399978Y18224500D01*
X12537245Y18251804D01*
X12666548Y18305363D01*
X12782917Y18383118D01*
X12881882Y18482083D01*
X12959637Y18598452D01*
X13013196Y18727755D01*
X13040500Y18865022D01*
X13040500Y19004978D01*
X13013196Y19142245D01*
X12959637Y19271548D01*
X12881882Y19387917D01*
X12782917Y19486882D01*
X12666548Y19564637D01*
X12666549Y19564637D01*
X12666547Y19564638D01*
X12537249Y19618195D01*
X12537238Y19618198D01*
X12433829Y19638767D01*
X12399978Y19645500D01*
X12260022Y19645500D01*
X12232867Y19640099D01*
X12122761Y19618198D01*
X12122750Y19618195D01*
X11993452Y19564638D01*
X11877083Y19486883D01*
X11877082Y19486881D01*
X11778119Y19387918D01*
X11778117Y19387917D01*
X11700362Y19271548D01*
X11646805Y19142250D01*
X11646802Y19142239D01*
X11619500Y19004978D01*
X200500Y19004978D01*
X200500Y22259312D01*
X9649500Y22259312D01*
X9649500Y22140689D01*
X9680199Y22026118D01*
X9680201Y22026113D01*
X9739508Y21923391D01*
X9739509Y21923390D01*
X9739511Y21923387D01*
X9823387Y21839511D01*
X9823389Y21839510D01*
X9823390Y21839509D01*
X9881199Y21806133D01*
X9926114Y21780201D01*
X9926115Y21780201D01*
X9926117Y21780200D01*
X9961811Y21770636D01*
X10040688Y21749501D01*
X10040689Y21749500D01*
X10040691Y21749500D01*
X10159311Y21749500D01*
X10159311Y21749501D01*
X10273886Y21780201D01*
X10376613Y21839511D01*
X10404929Y21867827D01*
X10457254Y21889500D01*
X10789801Y21889500D01*
X10795172Y21887276D01*
X10800816Y21888676D01*
X10817767Y21877916D01*
X10842127Y21867826D01*
X10849333Y21859454D01*
X10850357Y21858067D01*
X10855448Y21850448D01*
X10856502Y21849744D01*
X10860777Y21843954D01*
X10866366Y21821435D01*
X10875245Y21800000D01*
X10873020Y21794629D01*
X10874421Y21788985D01*
X10862449Y21769110D01*
X10857430Y21756992D01*
X10859497Y21755611D01*
X10855448Y21749553D01*
X10855448Y21749552D01*
X10847528Y21737701D01*
X10811133Y21683233D01*
X10803377Y21644243D01*
X10799500Y21624748D01*
X10799500Y21175252D01*
X10807255Y21136264D01*
X10811133Y21116768D01*
X10840608Y21072657D01*
X10855448Y21050448D01*
X10899560Y21020973D01*
X10921767Y21006134D01*
X10921768Y21006134D01*
X10921769Y21006133D01*
X10980252Y20994500D01*
X13108455Y20994500D01*
X13160781Y20972826D01*
X14252826Y19880782D01*
X14274500Y19828456D01*
X14274500Y18539287D01*
X14252826Y18486961D01*
X14228822Y18470921D01*
X14226114Y18469800D01*
X14123390Y18410492D01*
X14039508Y18326610D01*
X13980201Y18223888D01*
X13980201Y18223886D01*
X13975343Y18205758D01*
X13956191Y18172585D01*
X13789915Y18006309D01*
X13756742Y17987157D01*
X13738617Y17982301D01*
X13738612Y17982299D01*
X13635890Y17922992D01*
X13552008Y17839110D01*
X13492701Y17736388D01*
X13492699Y17736383D01*
X13487843Y17718258D01*
X13468691Y17685085D01*
X12002415Y16218810D01*
X11969245Y16199658D01*
X11951113Y16194799D01*
X11951112Y16194799D01*
X11848390Y16135492D01*
X11764508Y16051610D01*
X11705201Y15948888D01*
X11705201Y15948887D01*
X11700342Y15930755D01*
X11681190Y15897585D01*
X11379518Y15595912D01*
X11326793Y15504590D01*
X11326791Y15504585D01*
X11318730Y15474501D01*
X11318731Y15474500D01*
X11302658Y15414511D01*
X11299500Y15402726D01*
X11299500Y13527142D01*
X11289586Y13490143D01*
X11280203Y13473892D01*
X11280199Y13473883D01*
X11249500Y13359312D01*
X11249500Y13240689D01*
X11280199Y13126118D01*
X11280200Y13126116D01*
X11280201Y13126114D01*
X11289585Y13109860D01*
X11299500Y13072860D01*
X11299500Y13027142D01*
X11289586Y12990143D01*
X11280203Y12973892D01*
X11280199Y12973883D01*
X11249500Y12859312D01*
X11249500Y12740689D01*
X11280199Y12626118D01*
X11280201Y12626113D01*
X11339508Y12523391D01*
X11339509Y12523390D01*
X11339511Y12523387D01*
X11423387Y12439511D01*
X11526114Y12380201D01*
X11526115Y12380201D01*
X11526117Y12380200D01*
X11583402Y12364851D01*
X11640688Y12349501D01*
X11640689Y12349500D01*
X11640691Y12349500D01*
X11759311Y12349500D01*
X11759311Y12349501D01*
X11873886Y12380201D01*
X11976613Y12439511D01*
X12060489Y12523387D01*
X12119799Y12626114D01*
X12150499Y12740689D01*
X12150500Y12740689D01*
X12150500Y12859311D01*
X12150499Y12859312D01*
X12119800Y12973883D01*
X12119796Y12973892D01*
X12110414Y12990143D01*
X12100500Y13027142D01*
X12100500Y13072860D01*
X12110414Y13109860D01*
X12119799Y13126114D01*
X12150499Y13240689D01*
X12150500Y13240689D01*
X12150500Y13359311D01*
X12150499Y13359312D01*
X12119800Y13473883D01*
X12119796Y13473892D01*
X12110414Y13490143D01*
X12100500Y13527142D01*
X12100500Y15153456D01*
X12122174Y15205782D01*
X12247585Y15331194D01*
X12280756Y15350344D01*
X12298886Y15355201D01*
X12401613Y15414511D01*
X12485489Y15498387D01*
X12544799Y15601114D01*
X12549656Y15619244D01*
X12568806Y15652415D01*
X14035083Y17118693D01*
X14068258Y17137844D01*
X14086382Y17142700D01*
X14086383Y17142700D01*
X14086383Y17142701D01*
X14086386Y17142701D01*
X14189113Y17202011D01*
X14272989Y17285887D01*
X14332299Y17388614D01*
X14337156Y17406742D01*
X14356307Y17439917D01*
X14522583Y17606193D01*
X14555758Y17625344D01*
X14573882Y17630200D01*
X14573883Y17630200D01*
X14573883Y17630201D01*
X14573886Y17630201D01*
X14676613Y17689511D01*
X14760489Y17773387D01*
X14819799Y17876114D01*
X14824656Y17894242D01*
X14843807Y17927417D01*
X14920911Y18004519D01*
X14920913Y18004520D01*
X14995480Y18079087D01*
X15048207Y18170413D01*
X15049576Y18175526D01*
X15062533Y18223876D01*
X15062535Y18223886D01*
X15075501Y18272273D01*
X15075501Y18377727D01*
X15075501Y18382256D01*
X15075500Y18382274D01*
X15075500Y19966302D01*
X15075501Y19966315D01*
X15075501Y20077729D01*
X15075500Y20077730D01*
X15048208Y20179584D01*
X15048206Y20179589D01*
X14995479Y20270914D01*
X14918334Y20348059D01*
X14918323Y20348069D01*
X14260258Y21006134D01*
X13545913Y21720480D01*
X13545910Y21720482D01*
X13545909Y21720483D01*
X13459042Y21770636D01*
X13424563Y21815570D01*
X13431956Y21871722D01*
X13434492Y21875802D01*
X13461867Y21916769D01*
X13473500Y21975252D01*
X13473500Y22424748D01*
X13461867Y22483231D01*
X13461866Y22483233D01*
X13461866Y22483234D01*
X13459077Y22489968D01*
X13462457Y22491369D01*
X13453971Y22534080D01*
X13474221Y22571956D01*
X13524785Y22622520D01*
X13570089Y22725125D01*
X13573000Y22750208D01*
X16427001Y22750208D01*
X16429908Y22725132D01*
X16429910Y22725126D01*
X16475213Y22622522D01*
X16525780Y22571955D01*
X16547454Y22519629D01*
X16538733Y22490872D01*
X16540922Y22489965D01*
X16538133Y22483233D01*
X16526500Y22424747D01*
X16526500Y21975254D01*
X16538133Y21916768D01*
X16586497Y21844389D01*
X16584430Y21843009D01*
X16602245Y21800000D01*
X16584430Y21756992D01*
X16586497Y21755611D01*
X16582448Y21749553D01*
X16582448Y21749552D01*
X16574528Y21737701D01*
X16538133Y21683233D01*
X16530377Y21644243D01*
X16526500Y21624748D01*
X16526500Y21175252D01*
X16534255Y21136264D01*
X16538133Y21116768D01*
X16567608Y21072657D01*
X16582448Y21050448D01*
X16626560Y21020973D01*
X16648767Y21006134D01*
X16648768Y21006134D01*
X16648769Y21006133D01*
X16707252Y20994500D01*
X17479000Y20994500D01*
X17531326Y20972826D01*
X17553000Y20920500D01*
X17553000Y19944766D01*
X17531326Y19892440D01*
X17128060Y19489174D01*
X17075734Y19467500D01*
X17035689Y19467500D01*
X16921117Y19436801D01*
X16921112Y19436799D01*
X16818390Y19377492D01*
X16734508Y19293610D01*
X16675201Y19190888D01*
X16675199Y19190883D01*
X16644500Y19076312D01*
X16644500Y18957689D01*
X16675199Y18843118D01*
X16675201Y18843113D01*
X16734508Y18740391D01*
X16734509Y18740390D01*
X16734511Y18740387D01*
X16762826Y18712072D01*
X16784500Y18659747D01*
X16784500Y15691254D01*
X16762827Y15638929D01*
X16734508Y15610610D01*
X16675201Y15507888D01*
X16675199Y15507883D01*
X16644500Y15393312D01*
X16644500Y15274689D01*
X16675199Y15160118D01*
X16675201Y15160113D01*
X16734508Y15057391D01*
X16734509Y15057390D01*
X16734511Y15057387D01*
X16818387Y14973511D01*
X16921114Y14914201D01*
X16921115Y14914201D01*
X16921117Y14914200D01*
X16978402Y14898851D01*
X17035688Y14883501D01*
X17035689Y14883500D01*
X17035691Y14883500D01*
X17154311Y14883500D01*
X17154311Y14883501D01*
X17268886Y14914201D01*
X17371613Y14973511D01*
X17455489Y15057387D01*
X17514799Y15160114D01*
X17545499Y15274689D01*
X17545500Y15274689D01*
X17545500Y15393311D01*
X17545499Y15393312D01*
X17514800Y15507883D01*
X17514798Y15507888D01*
X17455491Y15610610D01*
X17455490Y15610611D01*
X17455489Y15610613D01*
X17427173Y15638929D01*
X17405500Y15691254D01*
X17405500Y18659747D01*
X17427173Y18712072D01*
X17455489Y18740387D01*
X17514799Y18843114D01*
X17545499Y18957689D01*
X17545500Y18957689D01*
X17545500Y18997734D01*
X17567174Y19050060D01*
X17810727Y19293613D01*
X18111962Y19594848D01*
X18152840Y19665651D01*
X18173999Y19744619D01*
X18174000Y19744619D01*
X18174000Y20920500D01*
X18195674Y20972826D01*
X18248000Y20994500D01*
X19019746Y20994500D01*
X19019748Y20994500D01*
X19078231Y21006133D01*
X19144552Y21050448D01*
X19188867Y21116769D01*
X19200500Y21175252D01*
X19200500Y21287989D01*
X19222174Y21340315D01*
X19274500Y21361989D01*
X19326826Y21340315D01*
X19338588Y21324986D01*
X19339508Y21323391D01*
X19339511Y21323387D01*
X19423387Y21239511D01*
X19526114Y21180201D01*
X19526115Y21180201D01*
X19526117Y21180200D01*
X19583402Y21164851D01*
X19640688Y21149501D01*
X19640689Y21149500D01*
X19640691Y21149500D01*
X19759311Y21149500D01*
X19759311Y21149501D01*
X19873886Y21180201D01*
X19976613Y21239511D01*
X20060489Y21323387D01*
X20119799Y21426114D01*
X20150499Y21540689D01*
X20150500Y21540689D01*
X20150500Y21659311D01*
X20150499Y21659312D01*
X20144089Y21683233D01*
X20119799Y21773886D01*
X20116153Y21780201D01*
X20060491Y21876610D01*
X20060490Y21876611D01*
X20060489Y21876613D01*
X19976613Y21960489D01*
X19976610Y21960491D01*
X19976609Y21960492D01*
X19873887Y22019799D01*
X19873882Y22019801D01*
X19759311Y22050500D01*
X19759309Y22050500D01*
X19719266Y22050500D01*
X19666940Y22072174D01*
X19290652Y22448462D01*
X19239181Y22478179D01*
X19204702Y22523113D01*
X19212095Y22579265D01*
X19223856Y22594592D01*
X19251786Y22622522D01*
X19297089Y22725125D01*
X19300000Y22750211D01*
X19300000Y22900000D01*
X16427001Y22900000D01*
X16427001Y22750208D01*
X13573000Y22750208D01*
X13573000Y22750211D01*
X13573000Y22900000D01*
X10700001Y22900000D01*
X10700001Y22750208D01*
X10702908Y22725132D01*
X10702910Y22725126D01*
X10750983Y22616249D01*
X10748014Y22614939D01*
X10757299Y22570891D01*
X10726371Y22523443D01*
X10684561Y22510500D01*
X10457254Y22510500D01*
X10404929Y22532173D01*
X10403022Y22534080D01*
X10376613Y22560489D01*
X10376610Y22560491D01*
X10376609Y22560492D01*
X10273887Y22619799D01*
X10273882Y22619801D01*
X10159311Y22650500D01*
X10159309Y22650500D01*
X10040691Y22650500D01*
X10040689Y22650500D01*
X9926117Y22619801D01*
X9926112Y22619799D01*
X9823390Y22560492D01*
X9739508Y22476610D01*
X9680201Y22373888D01*
X9680199Y22373883D01*
X9649500Y22259312D01*
X200500Y22259312D01*
X200500Y23249790D01*
X10700000Y23249790D01*
X10700000Y23100000D01*
X13572999Y23100000D01*
X13572999Y23249790D01*
X16427000Y23249790D01*
X16427000Y23100000D01*
X19299999Y23100000D01*
X19299999Y23249793D01*
X19297091Y23274869D01*
X19297089Y23274875D01*
X19251786Y23377479D01*
X19201219Y23428046D01*
X19179545Y23480372D01*
X19188275Y23509126D01*
X19186078Y23510036D01*
X19188866Y23516768D01*
X19188865Y23516768D01*
X19188867Y23516769D01*
X19200500Y23575252D01*
X19200500Y24024748D01*
X19188867Y24083231D01*
X19144552Y24149552D01*
X19144551Y24149553D01*
X19140503Y24155611D01*
X19142569Y24156992D01*
X19124755Y24200000D01*
X19142569Y24243009D01*
X19140503Y24244389D01*
X19188866Y24316768D01*
X19188865Y24316768D01*
X19188867Y24316769D01*
X19200500Y24375252D01*
X19200500Y24824748D01*
X19188867Y24883231D01*
X19144552Y24949552D01*
X19144551Y24949553D01*
X19140503Y24955611D01*
X19142569Y24956992D01*
X19124755Y25000000D01*
X19142569Y25043009D01*
X19140503Y25044389D01*
X19188866Y25116768D01*
X19188865Y25116768D01*
X19188867Y25116769D01*
X19200500Y25175252D01*
X19200500Y25624748D01*
X19188867Y25683231D01*
X19144552Y25749552D01*
X19144551Y25749553D01*
X19140503Y25755611D01*
X19142569Y25756992D01*
X19124755Y25800000D01*
X19142569Y25843009D01*
X19140503Y25844389D01*
X19188866Y25916768D01*
X19188865Y25916768D01*
X19188867Y25916769D01*
X19200500Y25975252D01*
X19200500Y26424748D01*
X19188867Y26483231D01*
X19144552Y26549552D01*
X19144551Y26549553D01*
X19140503Y26555611D01*
X19142569Y26556992D01*
X19124755Y26600000D01*
X19142569Y26643009D01*
X19140503Y26644389D01*
X19188866Y26716768D01*
X19188865Y26716768D01*
X19188867Y26716769D01*
X19200500Y26775252D01*
X19200500Y27224748D01*
X19188867Y27283231D01*
X19144552Y27349552D01*
X19144551Y27349553D01*
X19140503Y27355611D01*
X19142569Y27356992D01*
X19124755Y27400000D01*
X19142569Y27443009D01*
X19140503Y27444389D01*
X19188866Y27516768D01*
X19188865Y27516768D01*
X19188867Y27516769D01*
X19200500Y27575252D01*
X19200500Y28024748D01*
X19188867Y28083231D01*
X19144552Y28149552D01*
X19144551Y28149553D01*
X19140503Y28155611D01*
X19142569Y28156992D01*
X19124755Y28200000D01*
X19142569Y28243009D01*
X19140503Y28244389D01*
X19188866Y28316768D01*
X19188865Y28316768D01*
X19188867Y28316769D01*
X19200500Y28375252D01*
X19200500Y28824748D01*
X19188867Y28883231D01*
X19144552Y28949552D01*
X19144551Y28949553D01*
X19140503Y28955611D01*
X19142569Y28956992D01*
X19124755Y29000000D01*
X19142569Y29043009D01*
X19140503Y29044389D01*
X19188866Y29116768D01*
X19188865Y29116768D01*
X19188867Y29116769D01*
X19200500Y29175252D01*
X19200500Y29624748D01*
X19188867Y29683231D01*
X19188866Y29683233D01*
X19188866Y29683234D01*
X19186077Y29689968D01*
X19189457Y29691369D01*
X19180971Y29734080D01*
X19201221Y29771956D01*
X19251785Y29822520D01*
X19297089Y29925125D01*
X19300000Y29950211D01*
X19300000Y30100000D01*
X16427001Y30100000D01*
X16427001Y29950208D01*
X16429908Y29925132D01*
X16429910Y29925126D01*
X16475213Y29822522D01*
X16525780Y29771955D01*
X16547454Y29719629D01*
X16538733Y29690872D01*
X16540922Y29689965D01*
X16538133Y29683233D01*
X16526500Y29624747D01*
X16526500Y29175254D01*
X16538133Y29116768D01*
X16586497Y29044389D01*
X16584430Y29043009D01*
X16602245Y29000000D01*
X16584430Y28956992D01*
X16586497Y28955611D01*
X16538133Y28883233D01*
X16526500Y28824747D01*
X16526500Y28375254D01*
X16538133Y28316768D01*
X16586497Y28244389D01*
X16584430Y28243009D01*
X16602245Y28200000D01*
X16584430Y28156992D01*
X16586497Y28155611D01*
X16538133Y28083233D01*
X16526500Y28024747D01*
X16526500Y27575254D01*
X16538133Y27516768D01*
X16586497Y27444389D01*
X16584430Y27443009D01*
X16602245Y27400000D01*
X16584430Y27356992D01*
X16586497Y27355611D01*
X16538133Y27283233D01*
X16526500Y27224747D01*
X16526500Y26775254D01*
X16538133Y26716768D01*
X16586497Y26644389D01*
X16584430Y26643009D01*
X16602245Y26600000D01*
X16584430Y26556992D01*
X16586497Y26555611D01*
X16538133Y26483233D01*
X16526500Y26424747D01*
X16526500Y25975254D01*
X16538133Y25916768D01*
X16586497Y25844389D01*
X16584430Y25843009D01*
X16602245Y25800000D01*
X16584430Y25756992D01*
X16586497Y25755611D01*
X16538133Y25683233D01*
X16526500Y25624747D01*
X16526500Y25175254D01*
X16538133Y25116768D01*
X16586497Y25044389D01*
X16584430Y25043009D01*
X16602245Y25000000D01*
X16584430Y24956992D01*
X16586497Y24955611D01*
X16538133Y24883233D01*
X16526500Y24824747D01*
X16526500Y24375254D01*
X16538133Y24316768D01*
X16586497Y24244389D01*
X16584430Y24243009D01*
X16602245Y24200000D01*
X16584430Y24156992D01*
X16586497Y24155611D01*
X16538133Y24083233D01*
X16526500Y24024747D01*
X16526500Y23575254D01*
X16538133Y23516767D01*
X16540923Y23510032D01*
X16537543Y23508633D01*
X16546026Y23465908D01*
X16525779Y23428046D01*
X16475214Y23377481D01*
X16429910Y23274876D01*
X16427000Y23249790D01*
X13572999Y23249790D01*
X13572999Y23249793D01*
X13570091Y23274869D01*
X13570089Y23274875D01*
X13524786Y23377479D01*
X13474219Y23428046D01*
X13452545Y23480372D01*
X13461275Y23509126D01*
X13459078Y23510036D01*
X13461866Y23516768D01*
X13461865Y23516768D01*
X13461867Y23516769D01*
X13473500Y23575252D01*
X13473500Y24024748D01*
X13461867Y24083231D01*
X13417552Y24149552D01*
X13417551Y24149553D01*
X13413503Y24155611D01*
X13415569Y24156992D01*
X13397755Y24200000D01*
X13415569Y24243009D01*
X13413503Y24244389D01*
X13461866Y24316768D01*
X13461865Y24316768D01*
X13461867Y24316769D01*
X13473500Y24375252D01*
X13473500Y24824748D01*
X13461867Y24883231D01*
X13417552Y24949552D01*
X13417551Y24949553D01*
X13413503Y24955611D01*
X13415569Y24956992D01*
X13397755Y25000000D01*
X13415569Y25043009D01*
X13413503Y25044389D01*
X13461866Y25116768D01*
X13461865Y25116768D01*
X13461867Y25116769D01*
X13473500Y25175252D01*
X13473500Y25624748D01*
X13461867Y25683231D01*
X13417552Y25749552D01*
X13417551Y25749553D01*
X13413503Y25755611D01*
X13415569Y25756992D01*
X13397755Y25800000D01*
X13415569Y25843009D01*
X13413503Y25844389D01*
X13461866Y25916768D01*
X13461865Y25916768D01*
X13461867Y25916769D01*
X13473500Y25975252D01*
X13473500Y26424748D01*
X13461867Y26483231D01*
X13417552Y26549552D01*
X13417551Y26549553D01*
X13413503Y26555611D01*
X13415569Y26556992D01*
X13397755Y26600000D01*
X13415569Y26643009D01*
X13413503Y26644389D01*
X13461866Y26716768D01*
X13461865Y26716768D01*
X13461867Y26716769D01*
X13473500Y26775252D01*
X13473500Y27224748D01*
X13461867Y27283231D01*
X13417552Y27349552D01*
X13417551Y27349553D01*
X13413503Y27355611D01*
X13415569Y27356992D01*
X13397755Y27400000D01*
X13415569Y27443009D01*
X13413503Y27444389D01*
X13461866Y27516768D01*
X13461865Y27516768D01*
X13461867Y27516769D01*
X13473500Y27575252D01*
X13473500Y28024748D01*
X13461867Y28083231D01*
X13417552Y28149552D01*
X13417551Y28149553D01*
X13413503Y28155611D01*
X13415569Y28156992D01*
X13397755Y28200000D01*
X13415569Y28243009D01*
X13413503Y28244389D01*
X13461866Y28316768D01*
X13461865Y28316768D01*
X13461867Y28316769D01*
X13473500Y28375252D01*
X13473500Y28824748D01*
X13461867Y28883231D01*
X13417552Y28949552D01*
X13417551Y28949553D01*
X13413503Y28955611D01*
X13415569Y28956992D01*
X13397755Y29000000D01*
X13415569Y29043009D01*
X13413503Y29044389D01*
X13461866Y29116768D01*
X13461865Y29116768D01*
X13461867Y29116769D01*
X13473500Y29175252D01*
X13473500Y29624748D01*
X13461867Y29683231D01*
X13461866Y29683233D01*
X13461866Y29683234D01*
X13459077Y29689968D01*
X13462457Y29691369D01*
X13453971Y29734080D01*
X13474221Y29771956D01*
X13524785Y29822520D01*
X13570089Y29925125D01*
X13573000Y29950211D01*
X13573000Y30100000D01*
X10700001Y30100000D01*
X10700001Y29950208D01*
X10702908Y29925132D01*
X10702910Y29925126D01*
X10748213Y29822522D01*
X10798780Y29771955D01*
X10820454Y29719629D01*
X10811733Y29690872D01*
X10813922Y29689965D01*
X10811133Y29683233D01*
X10799500Y29624747D01*
X10799500Y29175254D01*
X10811133Y29116768D01*
X10859497Y29044389D01*
X10857430Y29043009D01*
X10875245Y29000000D01*
X10857430Y28956992D01*
X10859497Y28955611D01*
X10811133Y28883233D01*
X10799500Y28824747D01*
X10799500Y28375254D01*
X10811133Y28316768D01*
X10859497Y28244389D01*
X10857430Y28243009D01*
X10875245Y28200000D01*
X10857430Y28156992D01*
X10859497Y28155611D01*
X10811133Y28083233D01*
X10799500Y28024747D01*
X10799500Y27575254D01*
X10811133Y27516768D01*
X10859497Y27444389D01*
X10857430Y27443009D01*
X10875245Y27400000D01*
X10857430Y27356992D01*
X10859497Y27355611D01*
X10811133Y27283233D01*
X10799500Y27224747D01*
X10799500Y26775254D01*
X10811133Y26716768D01*
X10859497Y26644389D01*
X10857430Y26643009D01*
X10875245Y26600000D01*
X10857430Y26556992D01*
X10859497Y26555611D01*
X10811133Y26483233D01*
X10799500Y26424747D01*
X10799500Y25975254D01*
X10811133Y25916768D01*
X10859497Y25844389D01*
X10857430Y25843009D01*
X10875245Y25800000D01*
X10857430Y25756992D01*
X10859497Y25755611D01*
X10811133Y25683233D01*
X10799500Y25624747D01*
X10799500Y25175254D01*
X10811133Y25116768D01*
X10859497Y25044389D01*
X10857430Y25043009D01*
X10875245Y25000000D01*
X10857430Y24956992D01*
X10859497Y24955611D01*
X10811133Y24883233D01*
X10799500Y24824747D01*
X10799500Y24375254D01*
X10811133Y24316768D01*
X10859497Y24244389D01*
X10857430Y24243009D01*
X10875245Y24200000D01*
X10857430Y24156992D01*
X10859497Y24155611D01*
X10811133Y24083233D01*
X10799500Y24024747D01*
X10799500Y23575254D01*
X10811133Y23516767D01*
X10813923Y23510032D01*
X10810543Y23508633D01*
X10819026Y23465908D01*
X10798779Y23428046D01*
X10748214Y23377481D01*
X10702910Y23274876D01*
X10700000Y23249790D01*
X200500Y23249790D01*
X200500Y30449790D01*
X10700000Y30449790D01*
X10700000Y30300000D01*
X13572999Y30300000D01*
X13572999Y30449793D01*
X13570091Y30474869D01*
X13570089Y30474875D01*
X13524786Y30577479D01*
X13474219Y30628046D01*
X13452545Y30680372D01*
X13461275Y30709126D01*
X13459078Y30710036D01*
X13461866Y30716768D01*
X13461865Y30716768D01*
X13461867Y30716769D01*
X13473500Y30775252D01*
X13473500Y31224748D01*
X13461867Y31283231D01*
X13417552Y31349552D01*
X13417551Y31349553D01*
X13413503Y31355611D01*
X13415569Y31356992D01*
X13397755Y31400000D01*
X13415569Y31443009D01*
X13413503Y31444389D01*
X13429164Y31467826D01*
X13461867Y31516769D01*
X13473500Y31575252D01*
X13473500Y32024748D01*
X13461867Y32083231D01*
X13460851Y32084751D01*
X13436889Y32120613D01*
X13417552Y32149552D01*
X13417551Y32149553D01*
X13413503Y32155611D01*
X13415569Y32156992D01*
X13397755Y32200000D01*
X13415569Y32243009D01*
X13413503Y32244389D01*
X13423570Y32259454D01*
X13461867Y32316769D01*
X13473500Y32375252D01*
X13473500Y32824748D01*
X13461867Y32883231D01*
X13457478Y32889799D01*
X13423858Y32940114D01*
X13417552Y32949552D01*
X13417551Y32949553D01*
X13413503Y32955611D01*
X13415569Y32956992D01*
X13397755Y33000000D01*
X13415569Y33043009D01*
X13413503Y33044389D01*
X13420386Y33054689D01*
X13461867Y33116769D01*
X13473500Y33175252D01*
X13473500Y33624748D01*
X13461867Y33683231D01*
X13457550Y33689691D01*
X13429163Y33732175D01*
X13417552Y33749552D01*
X13417551Y33749553D01*
X13413503Y33755611D01*
X13415569Y33756992D01*
X13397755Y33800000D01*
X13415569Y33843009D01*
X13413503Y33844389D01*
X13433478Y33874282D01*
X13461867Y33916769D01*
X13473500Y33975252D01*
X13473500Y34424748D01*
X13461867Y34483231D01*
X13417552Y34549552D01*
X13417551Y34549553D01*
X13413503Y34555611D01*
X13415569Y34556992D01*
X13397755Y34600000D01*
X13415569Y34643009D01*
X13413503Y34644389D01*
X13422940Y34658511D01*
X13461867Y34716769D01*
X13473500Y34775252D01*
X13473500Y35224748D01*
X13461867Y35283231D01*
X13454999Y35293509D01*
X13440896Y35314615D01*
X13417552Y35349552D01*
X13417551Y35349553D01*
X13413503Y35355611D01*
X13415569Y35356992D01*
X13397755Y35400000D01*
X13415569Y35443009D01*
X13413503Y35444389D01*
X13437374Y35480113D01*
X13461867Y35516769D01*
X13473500Y35575252D01*
X13473500Y36024748D01*
X13461867Y36083231D01*
X13417552Y36149552D01*
X13417551Y36149553D01*
X13413503Y36155611D01*
X13415569Y36156992D01*
X13397755Y36200000D01*
X13415569Y36243009D01*
X13413503Y36244389D01*
X13417587Y36250500D01*
X13461867Y36316769D01*
X13473500Y36375252D01*
X13473500Y36824748D01*
X13461867Y36883231D01*
X13461866Y36883233D01*
X13461866Y36883234D01*
X13459077Y36889968D01*
X13462457Y36891369D01*
X13453971Y36934080D01*
X13474221Y36971956D01*
X13524785Y37022520D01*
X13570089Y37125125D01*
X13573000Y37150211D01*
X13573000Y37300000D01*
X10700001Y37300000D01*
X10700001Y37150208D01*
X10702908Y37125132D01*
X10702910Y37125126D01*
X10748213Y37022522D01*
X10798780Y36971955D01*
X10820454Y36919629D01*
X10811733Y36890872D01*
X10813922Y36889965D01*
X10811133Y36883233D01*
X10799500Y36824747D01*
X10799500Y36375254D01*
X10811133Y36316768D01*
X10830113Y36288364D01*
X10855413Y36250500D01*
X10859497Y36244389D01*
X10857430Y36243009D01*
X10875245Y36200000D01*
X10857430Y36156992D01*
X10859497Y36155611D01*
X10811133Y36083233D01*
X10809257Y36073801D01*
X10802236Y36038500D01*
X10799500Y36024747D01*
X10799500Y35575254D01*
X10811133Y35516768D01*
X10859497Y35444389D01*
X10857430Y35443009D01*
X10875245Y35400000D01*
X10857430Y35356992D01*
X10859497Y35355611D01*
X10811133Y35283233D01*
X10811133Y35283231D01*
X10799500Y35224748D01*
X10799500Y34775252D01*
X10806037Y34742387D01*
X10811133Y34716768D01*
X10828489Y34690794D01*
X10850060Y34658511D01*
X10859497Y34644389D01*
X10857430Y34643009D01*
X10875245Y34600000D01*
X10857430Y34556992D01*
X10859497Y34555611D01*
X10811133Y34483233D01*
X10811133Y34483231D01*
X10799500Y34424748D01*
X10799500Y33975252D01*
X10804217Y33951538D01*
X10811133Y33916768D01*
X10859497Y33844389D01*
X10857430Y33843009D01*
X10875245Y33800000D01*
X10857430Y33756992D01*
X10859497Y33755611D01*
X10811133Y33683233D01*
X10811133Y33683231D01*
X10799500Y33624748D01*
X10799500Y33175252D01*
X10800193Y33171769D01*
X10811133Y33116768D01*
X10859497Y33044389D01*
X10857430Y33043009D01*
X10875245Y33000000D01*
X10857430Y32956992D01*
X10859497Y32955611D01*
X10855448Y32949553D01*
X10855448Y32949552D01*
X10849430Y32940546D01*
X10811133Y32883233D01*
X10799500Y32824747D01*
X10799500Y32375254D01*
X10811133Y32316768D01*
X10837094Y32277916D01*
X10847003Y32263086D01*
X10859497Y32244389D01*
X10857430Y32243009D01*
X10875245Y32200000D01*
X10857430Y32156992D01*
X10859497Y32155611D01*
X10855448Y32149553D01*
X10855448Y32149552D01*
X10852072Y32144500D01*
X10811133Y32083233D01*
X10806737Y32061133D01*
X10799500Y32024748D01*
X10799500Y31575252D01*
X10805816Y31543500D01*
X10811133Y31516768D01*
X10859497Y31444389D01*
X10857430Y31443009D01*
X10875245Y31400000D01*
X10857430Y31356992D01*
X10859497Y31355611D01*
X10811133Y31283233D01*
X10799500Y31224747D01*
X10799500Y30775254D01*
X10811133Y30716767D01*
X10813923Y30710032D01*
X10810543Y30708633D01*
X10819026Y30665908D01*
X10798779Y30628046D01*
X10748214Y30577481D01*
X10702910Y30474876D01*
X10700000Y30449790D01*
X200500Y30449790D01*
X200500Y37649790D01*
X10700000Y37649790D01*
X10700000Y37500000D01*
X13572999Y37500000D01*
X13572999Y37649790D01*
X16427000Y37649790D01*
X16427000Y37500000D01*
X17789500Y37500000D01*
X17841826Y37478326D01*
X17863500Y37426000D01*
X17863500Y37374000D01*
X17841826Y37321674D01*
X17789500Y37300000D01*
X16427001Y37300000D01*
X16427001Y37150208D01*
X16429908Y37125132D01*
X16429910Y37125126D01*
X16475213Y37022522D01*
X16525780Y36971955D01*
X16547454Y36919629D01*
X16538733Y36890872D01*
X16540922Y36889965D01*
X16538133Y36883233D01*
X16526500Y36824747D01*
X16526500Y36375254D01*
X16538133Y36316768D01*
X16557113Y36288364D01*
X16582413Y36250500D01*
X16586497Y36244389D01*
X16584430Y36243009D01*
X16602245Y36200000D01*
X16584430Y36156992D01*
X16586497Y36155611D01*
X16538133Y36083233D01*
X16536257Y36073801D01*
X16529236Y36038500D01*
X16526500Y36024747D01*
X16526500Y35575254D01*
X16538133Y35516768D01*
X16586497Y35444389D01*
X16584430Y35443009D01*
X16602245Y35400000D01*
X16584430Y35356992D01*
X16586497Y35355611D01*
X16538133Y35283233D01*
X16538133Y35283231D01*
X16526500Y35224748D01*
X16526500Y34775252D01*
X16533037Y34742387D01*
X16538133Y34716768D01*
X16555489Y34690794D01*
X16577060Y34658511D01*
X16586497Y34644389D01*
X16584430Y34643009D01*
X16602245Y34600000D01*
X16584430Y34556992D01*
X16586497Y34555611D01*
X16538133Y34483233D01*
X16538133Y34483231D01*
X16526500Y34424748D01*
X16526500Y33975252D01*
X16531217Y33951538D01*
X16538133Y33916768D01*
X16586497Y33844389D01*
X16584430Y33843009D01*
X16602245Y33800000D01*
X16584430Y33756992D01*
X16586497Y33755611D01*
X16538133Y33683233D01*
X16538133Y33683231D01*
X16526500Y33624748D01*
X16526500Y33175252D01*
X16527193Y33171769D01*
X16538133Y33116768D01*
X16586497Y33044389D01*
X16584430Y33043009D01*
X16602245Y33000000D01*
X16584430Y32956992D01*
X16586497Y32955611D01*
X16582448Y32949553D01*
X16582448Y32949552D01*
X16576430Y32940546D01*
X16538133Y32883233D01*
X16526500Y32824747D01*
X16526500Y32375254D01*
X16538133Y32316768D01*
X16564094Y32277916D01*
X16574003Y32263086D01*
X16586497Y32244389D01*
X16584430Y32243009D01*
X16602245Y32200000D01*
X16584430Y32156992D01*
X16586497Y32155611D01*
X16582448Y32149553D01*
X16582448Y32149552D01*
X16579072Y32144500D01*
X16538133Y32083233D01*
X16533737Y32061133D01*
X16526500Y32024748D01*
X16526500Y31575252D01*
X16532816Y31543500D01*
X16538133Y31516768D01*
X16586497Y31444389D01*
X16584430Y31443009D01*
X16602245Y31400000D01*
X16584430Y31356992D01*
X16586497Y31355611D01*
X16538133Y31283233D01*
X16526500Y31224747D01*
X16526500Y30775254D01*
X16538133Y30716767D01*
X16540923Y30710032D01*
X16537543Y30708633D01*
X16546026Y30665908D01*
X16525779Y30628046D01*
X16475214Y30577481D01*
X16429910Y30474876D01*
X16427000Y30449790D01*
X16427000Y30300000D01*
X19299999Y30300000D01*
X19299999Y30449793D01*
X19297091Y30474869D01*
X19297089Y30474875D01*
X19249017Y30583751D01*
X19251985Y30585062D01*
X19242701Y30629109D01*
X19273629Y30676557D01*
X19315439Y30689500D01*
X21625881Y30689500D01*
X21625881Y30689501D01*
X21704849Y30710660D01*
X21775652Y30751538D01*
X22535940Y31511826D01*
X22588266Y31533500D01*
X41609881Y31533500D01*
X41609881Y31533501D01*
X41688849Y31554660D01*
X41759652Y31595538D01*
X42231939Y32067827D01*
X42284265Y32089500D01*
X42506867Y32089500D01*
X42547979Y32077029D01*
X42571769Y32061133D01*
X42630252Y32049500D01*
X42630254Y32049500D01*
X43469746Y32049500D01*
X43469748Y32049500D01*
X43528231Y32061133D01*
X43594552Y32105448D01*
X43638867Y32171769D01*
X43650500Y32230252D01*
X43650500Y32569748D01*
X43638867Y32628231D01*
X43638866Y32628232D01*
X43637445Y32635379D01*
X43641628Y32636212D01*
X43641527Y32663809D01*
X43637445Y32664621D01*
X43643471Y32694914D01*
X43650500Y32730252D01*
X43650500Y33069748D01*
X43638867Y33128231D01*
X43638866Y33128232D01*
X43637445Y33135379D01*
X43641628Y33136212D01*
X43641527Y33163809D01*
X43637445Y33164621D01*
X43650500Y33230254D01*
X43650500Y33569747D01*
X43649432Y33575114D01*
X43638867Y33628231D01*
X43638866Y33628232D01*
X43637445Y33635379D01*
X43641628Y33636212D01*
X43641527Y33663809D01*
X43637445Y33664621D01*
X43641147Y33683233D01*
X43650500Y33730252D01*
X43650500Y34069748D01*
X43638867Y34128231D01*
X43638866Y34128232D01*
X43637445Y34135379D01*
X43641628Y34136212D01*
X43641527Y34163809D01*
X43637445Y34164621D01*
X43644383Y34199500D01*
X43650500Y34230252D01*
X43650500Y34569748D01*
X43638867Y34628231D01*
X43638866Y34628232D01*
X43637445Y34635379D01*
X43641628Y34636212D01*
X43641527Y34663809D01*
X43637445Y34664621D01*
X43650500Y34730254D01*
X43650500Y35069747D01*
X43648796Y35078312D01*
X43638867Y35128231D01*
X43638866Y35128232D01*
X43637445Y35135379D01*
X43641628Y35136212D01*
X43641527Y35163809D01*
X43637445Y35164621D01*
X43644569Y35200435D01*
X43650500Y35230252D01*
X43650500Y35569748D01*
X43638867Y35628231D01*
X43638866Y35628232D01*
X43637445Y35635379D01*
X43641628Y35636212D01*
X43641527Y35663809D01*
X43637445Y35664621D01*
X43638867Y35671769D01*
X43650500Y35730252D01*
X43650500Y36069748D01*
X43638867Y36128231D01*
X43594552Y36194552D01*
X43541967Y36229689D01*
X43528232Y36238867D01*
X43528233Y36238867D01*
X43498989Y36244684D01*
X43469748Y36250500D01*
X42630252Y36250500D01*
X42599530Y36244389D01*
X42571768Y36238867D01*
X42547979Y36222971D01*
X42506867Y36210500D01*
X42209266Y36210500D01*
X42156940Y36232174D01*
X41851652Y36537462D01*
X41776649Y36580765D01*
X41778083Y36583250D01*
X41744776Y36617738D01*
X41745763Y36674367D01*
X41761297Y36697185D01*
X42206939Y37142827D01*
X42259265Y37164500D01*
X42506867Y37164500D01*
X42547979Y37152029D01*
X42571769Y37136133D01*
X42630252Y37124500D01*
X42630254Y37124500D01*
X43469746Y37124500D01*
X43469748Y37124500D01*
X43528231Y37136133D01*
X43594552Y37180448D01*
X43638867Y37246769D01*
X43650500Y37305252D01*
X43650500Y37644748D01*
X43638867Y37703231D01*
X43638866Y37703232D01*
X43637445Y37710379D01*
X43641628Y37711212D01*
X43641527Y37738809D01*
X43637445Y37739621D01*
X43644323Y37774200D01*
X43650500Y37805252D01*
X43650500Y38144748D01*
X43638867Y38203231D01*
X43638866Y38203232D01*
X43637445Y38210379D01*
X43641628Y38211212D01*
X43641527Y38238809D01*
X43637445Y38239621D01*
X43638867Y38246769D01*
X43650500Y38305252D01*
X43650500Y38644748D01*
X43638867Y38703231D01*
X43638866Y38703232D01*
X43637445Y38710379D01*
X43641628Y38711212D01*
X43641527Y38738809D01*
X43637445Y38739621D01*
X43643426Y38769691D01*
X43650500Y38805252D01*
X43650500Y39144748D01*
X43638867Y39203231D01*
X43638866Y39203232D01*
X43637445Y39210379D01*
X43641628Y39211212D01*
X43641527Y39238809D01*
X43637445Y39239621D01*
X43641750Y39261264D01*
X43650500Y39305252D01*
X43650500Y39644748D01*
X43638867Y39703231D01*
X43638866Y39703232D01*
X43637445Y39710379D01*
X43641628Y39711212D01*
X43641527Y39738809D01*
X43637445Y39739621D01*
X43645527Y39780252D01*
X43650500Y39805252D01*
X43650500Y40144748D01*
X43638867Y40203231D01*
X43638866Y40203232D01*
X43637445Y40210379D01*
X43641628Y40211212D01*
X43641527Y40238809D01*
X43637445Y40239621D01*
X43642406Y40264561D01*
X43650500Y40305252D01*
X43650500Y40644748D01*
X43638867Y40703231D01*
X43638866Y40703232D01*
X43637445Y40710379D01*
X43641628Y40711212D01*
X43641527Y40738809D01*
X43637445Y40739621D01*
X43645527Y40780252D01*
X43650500Y40805252D01*
X43650500Y41144748D01*
X44249500Y41144748D01*
X44249500Y40805252D01*
X44254473Y40780252D01*
X44262555Y40739621D01*
X44258448Y40738805D01*
X44258448Y40711196D01*
X44262555Y40710379D01*
X44261133Y40703232D01*
X44261133Y40703231D01*
X44249500Y40644748D01*
X44249500Y40305252D01*
X44257594Y40264561D01*
X44262555Y40239621D01*
X44258448Y40238805D01*
X44258448Y40211196D01*
X44262555Y40210379D01*
X44261133Y40203232D01*
X44261133Y40203231D01*
X44249500Y40144748D01*
X44249500Y39805252D01*
X44254473Y39780252D01*
X44262555Y39739621D01*
X44258448Y39738805D01*
X44258448Y39711196D01*
X44262555Y39710379D01*
X44261133Y39703232D01*
X44261133Y39703231D01*
X44249500Y39644748D01*
X44249500Y39305252D01*
X44258250Y39261264D01*
X44262555Y39239621D01*
X44258448Y39238805D01*
X44258448Y39211196D01*
X44262555Y39210379D01*
X44261133Y39203232D01*
X44261133Y39203231D01*
X44249500Y39144748D01*
X44249500Y38805252D01*
X44256574Y38769691D01*
X44262555Y38739621D01*
X44258448Y38738805D01*
X44258448Y38711196D01*
X44262555Y38710379D01*
X44261133Y38703232D01*
X44261133Y38703231D01*
X44249500Y38644748D01*
X44249500Y38305252D01*
X44261133Y38246769D01*
X44262555Y38239621D01*
X44258448Y38238805D01*
X44258448Y38211196D01*
X44262555Y38210379D01*
X44261133Y38203232D01*
X44261133Y38203231D01*
X44249500Y38144748D01*
X44249500Y37805252D01*
X44255677Y37774200D01*
X44262555Y37739621D01*
X44258448Y37738805D01*
X44258448Y37711196D01*
X44262555Y37710379D01*
X44261133Y37703232D01*
X44261133Y37703231D01*
X44249500Y37644748D01*
X44249500Y37305252D01*
X44254473Y37280252D01*
X44261133Y37246768D01*
X44277838Y37221768D01*
X44305448Y37180448D01*
X44342860Y37155450D01*
X44371767Y37136134D01*
X44371768Y37136134D01*
X44371769Y37136133D01*
X44430252Y37124500D01*
X44994877Y37124500D01*
X45047203Y37102826D01*
X45466489Y36683540D01*
X45466491Y36683539D01*
X45466492Y36683538D01*
X45514653Y36655732D01*
X45535012Y36643978D01*
X45611438Y36623500D01*
X45955734Y36623500D01*
X46008060Y36601826D01*
X46029734Y36549500D01*
X46008060Y36497174D01*
X45743060Y36232174D01*
X45690734Y36210500D01*
X45393133Y36210500D01*
X45352021Y36222971D01*
X45328231Y36238867D01*
X45269748Y36250500D01*
X44430252Y36250500D01*
X44401010Y36244684D01*
X44371767Y36238867D01*
X44305449Y36194553D01*
X44305447Y36194551D01*
X44261133Y36128233D01*
X44255189Y36098349D01*
X44249500Y36069748D01*
X44249500Y35730252D01*
X44261133Y35671769D01*
X44262555Y35664621D01*
X44258448Y35663805D01*
X44258448Y35636196D01*
X44262555Y35635379D01*
X44261133Y35628232D01*
X44261133Y35628231D01*
X44249500Y35569748D01*
X44249500Y35230252D01*
X44255431Y35200435D01*
X44262555Y35164621D01*
X44258448Y35163805D01*
X44258448Y35136196D01*
X44262555Y35135379D01*
X44261133Y35128232D01*
X44261133Y35128231D01*
X44251204Y35078312D01*
X44249500Y35069747D01*
X44249500Y34730254D01*
X44262555Y34664621D01*
X44258448Y34663805D01*
X44258448Y34636196D01*
X44262555Y34635379D01*
X44261133Y34628232D01*
X44261133Y34628231D01*
X44249500Y34569748D01*
X44249500Y34230252D01*
X44255617Y34199500D01*
X44262555Y34164621D01*
X44258448Y34163805D01*
X44258448Y34136196D01*
X44262555Y34135379D01*
X44261133Y34128232D01*
X44261133Y34128231D01*
X44249500Y34069748D01*
X44249500Y33730252D01*
X44258853Y33683233D01*
X44262555Y33664621D01*
X44258448Y33663805D01*
X44258448Y33636196D01*
X44262555Y33635379D01*
X44261133Y33628232D01*
X44261133Y33628231D01*
X44250568Y33575114D01*
X44249500Y33569747D01*
X44249500Y33230254D01*
X44262555Y33164621D01*
X44258448Y33163805D01*
X44258448Y33136196D01*
X44262555Y33135379D01*
X44261133Y33128232D01*
X44261133Y33128231D01*
X44249500Y33069748D01*
X44249500Y32730252D01*
X44256529Y32694914D01*
X44262555Y32664621D01*
X44258448Y32663805D01*
X44258448Y32636196D01*
X44262555Y32635379D01*
X44261133Y32628232D01*
X44261133Y32628231D01*
X44249500Y32569748D01*
X44249500Y32230252D01*
X44255043Y32202387D01*
X44261133Y32171768D01*
X44286811Y32133340D01*
X44305448Y32105448D01*
X44336423Y32084751D01*
X44371767Y32061134D01*
X44371768Y32061134D01*
X44371769Y32061133D01*
X44430252Y32049500D01*
X44430254Y32049500D01*
X45244877Y32049500D01*
X45297203Y32027826D01*
X45721489Y31603540D01*
X45721491Y31603539D01*
X45721492Y31603538D01*
X45764667Y31578611D01*
X45790012Y31563978D01*
X45866438Y31543500D01*
X46891746Y31543500D01*
X46944071Y31521827D01*
X46982387Y31483511D01*
X46982389Y31483510D01*
X46982390Y31483509D01*
X47085112Y31424202D01*
X47085114Y31424201D01*
X47085115Y31424201D01*
X47085117Y31424200D01*
X47142402Y31408851D01*
X47199688Y31393501D01*
X47199689Y31393500D01*
X47199691Y31393500D01*
X47318311Y31393500D01*
X47318311Y31393501D01*
X47432886Y31424201D01*
X47535613Y31483511D01*
X47619489Y31567387D01*
X47678799Y31670114D01*
X47709499Y31784689D01*
X47709500Y31784689D01*
X47709500Y31903311D01*
X47709499Y31903312D01*
X47678800Y32017883D01*
X47678798Y32017888D01*
X47619491Y32120610D01*
X47619490Y32120611D01*
X47619489Y32120613D01*
X47535613Y32204489D01*
X47535610Y32204491D01*
X47535609Y32204492D01*
X47432887Y32263799D01*
X47432882Y32263801D01*
X47318311Y32294500D01*
X47318309Y32294500D01*
X47199691Y32294500D01*
X47146745Y32280313D01*
X47082453Y32263086D01*
X47026300Y32270479D01*
X46991821Y32315412D01*
X46991821Y32353717D01*
X47007088Y32410689D01*
X47009500Y32419690D01*
X47009500Y32538311D01*
X46991822Y32604282D01*
X46999214Y32660435D01*
X47044146Y32694914D01*
X47082453Y32694914D01*
X47085114Y32694201D01*
X47199688Y32663501D01*
X47199689Y32663500D01*
X47199691Y32663500D01*
X47318311Y32663500D01*
X47318311Y32663501D01*
X47432886Y32694201D01*
X47535613Y32753511D01*
X47619489Y32837387D01*
X47678799Y32940114D01*
X47709499Y33054689D01*
X47709500Y33054689D01*
X47709500Y33173311D01*
X47709499Y33173312D01*
X47678800Y33287883D01*
X47678798Y33287888D01*
X47619491Y33390610D01*
X47619490Y33390611D01*
X47619489Y33390613D01*
X47535613Y33474489D01*
X47535610Y33474491D01*
X47535609Y33474492D01*
X47432887Y33533799D01*
X47432882Y33533801D01*
X47318311Y33564500D01*
X47318309Y33564500D01*
X47199691Y33564500D01*
X47110044Y33540479D01*
X47082453Y33533086D01*
X47026300Y33540479D01*
X46991821Y33585412D01*
X46991821Y33623717D01*
X47007770Y33683233D01*
X47009500Y33689690D01*
X47009500Y33808311D01*
X46991822Y33874282D01*
X46999214Y33930435D01*
X47044146Y33964914D01*
X47082453Y33964914D01*
X47085114Y33964201D01*
X47199688Y33933501D01*
X47199689Y33933500D01*
X47199691Y33933500D01*
X47318311Y33933500D01*
X47318311Y33933501D01*
X47432886Y33964201D01*
X47535613Y34023511D01*
X47619489Y34107387D01*
X47678799Y34210114D01*
X47709499Y34324689D01*
X47709500Y34324689D01*
X47709500Y34443311D01*
X47709499Y34443312D01*
X47678800Y34557883D01*
X47678798Y34557888D01*
X47619491Y34660610D01*
X47619490Y34660611D01*
X47619489Y34660613D01*
X47535613Y34744489D01*
X47535610Y34744491D01*
X47535609Y34744492D01*
X47432887Y34803799D01*
X47432882Y34803801D01*
X47318311Y34834500D01*
X47318309Y34834500D01*
X47199691Y34834500D01*
X47110044Y34810479D01*
X47082453Y34803086D01*
X47026300Y34810479D01*
X46991821Y34855412D01*
X46991821Y34893717D01*
X47004842Y34942311D01*
X47009500Y34959690D01*
X47009500Y35078311D01*
X46993989Y35136196D01*
X46991822Y35144284D01*
X46999214Y35200435D01*
X47044146Y35234914D01*
X47082453Y35234914D01*
X47085114Y35234201D01*
X47199688Y35203501D01*
X47199689Y35203500D01*
X47199691Y35203500D01*
X47318311Y35203500D01*
X47318311Y35203501D01*
X47432886Y35234201D01*
X47535613Y35293511D01*
X47619489Y35377387D01*
X47678799Y35480114D01*
X47709499Y35594689D01*
X47709500Y35594689D01*
X47709500Y35713311D01*
X47709499Y35713312D01*
X47704959Y35730254D01*
X47678799Y35827886D01*
X47672671Y35838500D01*
X47619491Y35930610D01*
X47619490Y35930611D01*
X47619489Y35930613D01*
X47535613Y36014489D01*
X47535610Y36014491D01*
X47535609Y36014492D01*
X47432887Y36073799D01*
X47432882Y36073801D01*
X47318311Y36104500D01*
X47318309Y36104500D01*
X47199691Y36104500D01*
X47110044Y36080479D01*
X47082453Y36073086D01*
X47026300Y36080479D01*
X46991821Y36125412D01*
X46991821Y36163717D01*
X47004842Y36212311D01*
X47009500Y36229690D01*
X47009500Y36348311D01*
X46991822Y36414282D01*
X46999214Y36470435D01*
X47044146Y36504914D01*
X47082453Y36504914D01*
X47085114Y36504201D01*
X47199688Y36473501D01*
X47199689Y36473500D01*
X47199691Y36473500D01*
X47318311Y36473500D01*
X47318311Y36473501D01*
X47432886Y36504201D01*
X47535613Y36563511D01*
X47619489Y36647387D01*
X47678799Y36750114D01*
X47709499Y36864689D01*
X47709500Y36864689D01*
X47709500Y36983311D01*
X47709499Y36983312D01*
X47678800Y37097883D01*
X47678798Y37097888D01*
X47619491Y37200610D01*
X47619490Y37200611D01*
X47619489Y37200613D01*
X47535613Y37284489D01*
X47535610Y37284491D01*
X47535609Y37284492D01*
X47432887Y37343799D01*
X47432882Y37343801D01*
X47318311Y37374500D01*
X47318309Y37374500D01*
X47199691Y37374500D01*
X47092267Y37345716D01*
X47036115Y37353109D01*
X47001636Y37398043D01*
X47001636Y37436347D01*
X47009500Y37465691D01*
X47009500Y37584309D01*
X47009500Y37584311D01*
X47009499Y37584312D01*
X46991953Y37649793D01*
X46985233Y37674875D01*
X46981664Y37688194D01*
X46989056Y37744347D01*
X47033989Y37778825D01*
X47081459Y37775715D01*
X47085112Y37774202D01*
X47085114Y37774201D01*
X47085115Y37774201D01*
X47085117Y37774200D01*
X47142402Y37758851D01*
X47199688Y37743501D01*
X47199689Y37743500D01*
X47199691Y37743500D01*
X47318311Y37743500D01*
X47318311Y37743501D01*
X47432886Y37774201D01*
X47535613Y37833511D01*
X47619489Y37917387D01*
X47678799Y38020114D01*
X47709499Y38134689D01*
X47709500Y38134689D01*
X47709500Y38253311D01*
X47709499Y38253312D01*
X47702280Y38280252D01*
X47678799Y38367886D01*
X47672671Y38378500D01*
X47619491Y38470610D01*
X47619490Y38470611D01*
X47619489Y38470613D01*
X47535613Y38554489D01*
X47535610Y38554491D01*
X47535609Y38554492D01*
X47432887Y38613799D01*
X47432882Y38613801D01*
X47318311Y38644500D01*
X47318309Y38644500D01*
X47199691Y38644500D01*
X47110044Y38620479D01*
X47082453Y38613086D01*
X47026300Y38620479D01*
X46991821Y38665412D01*
X46991821Y38703717D01*
X47004842Y38752311D01*
X47009500Y38769690D01*
X47009500Y38888311D01*
X46991822Y38954282D01*
X46999214Y39010435D01*
X47044146Y39044914D01*
X47082453Y39044914D01*
X47085114Y39044201D01*
X47199688Y39013501D01*
X47199689Y39013500D01*
X47199691Y39013500D01*
X47318311Y39013500D01*
X47318311Y39013501D01*
X47432886Y39044201D01*
X47535613Y39103511D01*
X47619489Y39187387D01*
X47678799Y39290114D01*
X47709499Y39404689D01*
X47709500Y39404689D01*
X47709500Y39523311D01*
X47709499Y39523312D01*
X47678800Y39637883D01*
X47678798Y39637888D01*
X47619491Y39740610D01*
X47619490Y39740611D01*
X47619489Y39740613D01*
X47535613Y39824489D01*
X47535610Y39824491D01*
X47535609Y39824492D01*
X47432887Y39883799D01*
X47432882Y39883801D01*
X47318311Y39914500D01*
X47318309Y39914500D01*
X47199691Y39914500D01*
X47199689Y39914500D01*
X47171874Y39907047D01*
X47115721Y39914439D01*
X47081243Y39959372D01*
X47081243Y39997678D01*
X47092499Y40039689D01*
X47092500Y40039689D01*
X47092500Y40158311D01*
X47092499Y40158312D01*
X47064030Y40264561D01*
X47071422Y40320714D01*
X47116355Y40355192D01*
X47172508Y40347800D01*
X47215114Y40323201D01*
X47215116Y40323201D01*
X47215117Y40323200D01*
X47239118Y40316769D01*
X47329688Y40292501D01*
X47329689Y40292500D01*
X47329691Y40292500D01*
X47448311Y40292500D01*
X47448311Y40292501D01*
X47562886Y40323201D01*
X47665613Y40382511D01*
X47749489Y40466387D01*
X47808799Y40569114D01*
X47839499Y40683689D01*
X47839500Y40683689D01*
X47839500Y40802311D01*
X47839499Y40802312D01*
X47808800Y40916883D01*
X47808798Y40916888D01*
X47749491Y41019610D01*
X47749490Y41019611D01*
X47749489Y41019613D01*
X47665613Y41103489D01*
X47665610Y41103491D01*
X47665609Y41103492D01*
X47562887Y41162799D01*
X47562882Y41162801D01*
X47448311Y41193500D01*
X47448309Y41193500D01*
X47329691Y41193500D01*
X47215114Y41162799D01*
X47211819Y41161916D01*
X47194970Y41164135D01*
X47178310Y41160801D01*
X47167977Y41167689D01*
X47155666Y41169309D01*
X47145321Y41182790D01*
X47131183Y41192214D01*
X47129281Y41203694D01*
X47121187Y41214242D01*
X47120072Y41247751D01*
X47120547Y41250157D01*
X47136500Y41309691D01*
X47136500Y41318727D01*
X48849500Y41318727D01*
X48849500Y30352727D01*
X48849500Y30247273D01*
X48856115Y30222585D01*
X48876793Y30145412D01*
X48876795Y30145408D01*
X48929517Y30054091D01*
X48929518Y30054090D01*
X48929520Y30054087D01*
X49006190Y29977417D01*
X49025342Y29944246D01*
X49030200Y29926115D01*
X49030201Y29926113D01*
X49089508Y29823391D01*
X49089509Y29823390D01*
X49089511Y29823387D01*
X49173387Y29739511D01*
X49173389Y29739510D01*
X49173390Y29739509D01*
X49207823Y29719629D01*
X49276114Y29680201D01*
X49294242Y29675344D01*
X49327415Y29656192D01*
X63104087Y15879520D01*
X63195412Y15826793D01*
X63297273Y15799500D01*
X63402727Y15799500D01*
X81922859Y15799500D01*
X81959860Y15789585D01*
X81976109Y15780203D01*
X81976117Y15780200D01*
X82033402Y15764851D01*
X82090688Y15749501D01*
X82090689Y15749500D01*
X82090691Y15749500D01*
X82209311Y15749500D01*
X82209311Y15749501D01*
X82323886Y15780201D01*
X82426613Y15839511D01*
X82510489Y15923387D01*
X82569799Y16026114D01*
X82600499Y16140689D01*
X82600500Y16140689D01*
X82600500Y16259311D01*
X82600499Y16259312D01*
X82569800Y16373883D01*
X82569798Y16373888D01*
X82510491Y16476610D01*
X82510490Y16476611D01*
X82510489Y16476613D01*
X82426613Y16560489D01*
X82426610Y16560491D01*
X82426609Y16560492D01*
X82323887Y16619799D01*
X82323882Y16619801D01*
X82209311Y16650500D01*
X82209309Y16650500D01*
X82090691Y16650500D01*
X82090689Y16650500D01*
X81976117Y16619801D01*
X81976109Y16619798D01*
X81959860Y16610415D01*
X81922859Y16600500D01*
X63546545Y16600500D01*
X63494219Y16622174D01*
X61111415Y19004978D01*
X81619500Y19004978D01*
X81619500Y18865023D01*
X81646802Y18727762D01*
X81646805Y18727751D01*
X81700362Y18598453D01*
X81774859Y18486961D01*
X81778118Y18482083D01*
X81877083Y18383118D01*
X81993452Y18305363D01*
X82122755Y18251804D01*
X82260022Y18224500D01*
X82260023Y18224500D01*
X82399977Y18224500D01*
X82399978Y18224500D01*
X82537245Y18251804D01*
X82666548Y18305363D01*
X82782917Y18383118D01*
X82881882Y18482083D01*
X82959637Y18598452D01*
X83013196Y18727755D01*
X83040500Y18865022D01*
X83040500Y19004978D01*
X83013196Y19142245D01*
X82959637Y19271548D01*
X82881882Y19387917D01*
X82782917Y19486882D01*
X82666548Y19564637D01*
X82666549Y19564637D01*
X82666547Y19564638D01*
X82537249Y19618195D01*
X82537238Y19618198D01*
X82433829Y19638767D01*
X82399978Y19645500D01*
X82260022Y19645500D01*
X82232867Y19640099D01*
X82122761Y19618198D01*
X82122750Y19618195D01*
X81993452Y19564638D01*
X81877083Y19486883D01*
X81877082Y19486881D01*
X81778119Y19387918D01*
X81778117Y19387917D01*
X81700362Y19271548D01*
X81646805Y19142250D01*
X81646802Y19142239D01*
X81619500Y19004978D01*
X61111415Y19004978D01*
X57366185Y22750208D01*
X80700001Y22750208D01*
X80702908Y22725132D01*
X80702910Y22725126D01*
X80748213Y22622522D01*
X80798780Y22571955D01*
X80820454Y22519629D01*
X80811733Y22490872D01*
X80813922Y22489965D01*
X80811133Y22483233D01*
X80799500Y22424747D01*
X80799500Y21975254D01*
X80811133Y21916768D01*
X80859497Y21844389D01*
X80857430Y21843009D01*
X80875245Y21800000D01*
X80857430Y21756992D01*
X80859497Y21755611D01*
X80855448Y21749553D01*
X80855448Y21749552D01*
X80847528Y21737701D01*
X80811133Y21683233D01*
X80803377Y21644243D01*
X80799500Y21624748D01*
X80799500Y21175252D01*
X80807255Y21136264D01*
X80811133Y21116768D01*
X80840608Y21072657D01*
X80855448Y21050448D01*
X80899560Y21020973D01*
X80921767Y21006134D01*
X80921768Y21006134D01*
X80921769Y21006133D01*
X80980252Y20994500D01*
X80980254Y20994500D01*
X83292746Y20994500D01*
X83292748Y20994500D01*
X83351231Y21006133D01*
X83417552Y21050448D01*
X83461867Y21116769D01*
X83473500Y21175252D01*
X83473500Y21624748D01*
X83461867Y21683231D01*
X83417552Y21749552D01*
X83417551Y21749553D01*
X83413503Y21755611D01*
X83415569Y21756992D01*
X83397755Y21800000D01*
X83415569Y21843009D01*
X83413503Y21844389D01*
X83423570Y21859454D01*
X83461867Y21916769D01*
X83473500Y21975252D01*
X83473500Y22424748D01*
X83461867Y22483231D01*
X83461866Y22483233D01*
X83461866Y22483234D01*
X83459077Y22489968D01*
X83462457Y22491369D01*
X83453971Y22534080D01*
X83474221Y22571956D01*
X83524785Y22622520D01*
X83570089Y22725125D01*
X83573000Y22750208D01*
X86427001Y22750208D01*
X86429908Y22725132D01*
X86429910Y22725126D01*
X86475213Y22622522D01*
X86525780Y22571955D01*
X86547454Y22519629D01*
X86538733Y22490872D01*
X86540922Y22489965D01*
X86538133Y22483233D01*
X86526500Y22424747D01*
X86526500Y21975254D01*
X86538133Y21916768D01*
X86586497Y21844389D01*
X86584430Y21843009D01*
X86602245Y21800000D01*
X86584430Y21756992D01*
X86586497Y21755611D01*
X86582448Y21749553D01*
X86582448Y21749552D01*
X86574528Y21737701D01*
X86538133Y21683233D01*
X86530377Y21644243D01*
X86526500Y21624748D01*
X86526500Y21175252D01*
X86534255Y21136264D01*
X86538133Y21116768D01*
X86567608Y21072657D01*
X86582448Y21050448D01*
X86626560Y21020973D01*
X86648767Y21006134D01*
X86648768Y21006134D01*
X86648769Y21006133D01*
X86707252Y20994500D01*
X86707254Y20994500D01*
X89019746Y20994500D01*
X89019748Y20994500D01*
X89078231Y21006133D01*
X89144552Y21050448D01*
X89188867Y21116769D01*
X89200500Y21175252D01*
X89200500Y21624748D01*
X89188867Y21683231D01*
X89144552Y21749552D01*
X89144551Y21749553D01*
X89140503Y21755611D01*
X89142569Y21756992D01*
X89124755Y21800000D01*
X89142569Y21843009D01*
X89140503Y21844389D01*
X89150570Y21859454D01*
X89188867Y21916769D01*
X89200500Y21975252D01*
X89200500Y22424748D01*
X89188867Y22483231D01*
X89188866Y22483233D01*
X89188866Y22483234D01*
X89186077Y22489968D01*
X89189457Y22491369D01*
X89180971Y22534080D01*
X89201221Y22571956D01*
X89251785Y22622520D01*
X89297089Y22725125D01*
X89300000Y22750211D01*
X89300000Y22900000D01*
X86427001Y22900000D01*
X86427001Y22750208D01*
X83573000Y22750208D01*
X83573000Y22750211D01*
X83573000Y22900000D01*
X80700001Y22900000D01*
X80700001Y22750208D01*
X57366185Y22750208D01*
X56866603Y23249790D01*
X80700000Y23249790D01*
X80700000Y23100000D01*
X83572999Y23100000D01*
X83572999Y23249790D01*
X86427000Y23249790D01*
X86427000Y23100000D01*
X89299999Y23100000D01*
X89299999Y23249793D01*
X89297091Y23274869D01*
X89297089Y23274875D01*
X89251786Y23377479D01*
X89201219Y23428046D01*
X89179545Y23480372D01*
X89188275Y23509126D01*
X89186078Y23510036D01*
X89188866Y23516768D01*
X89188865Y23516768D01*
X89188867Y23516769D01*
X89200500Y23575252D01*
X89200500Y24024748D01*
X89188867Y24083231D01*
X89144552Y24149552D01*
X89144551Y24149553D01*
X89140503Y24155611D01*
X89142569Y24156992D01*
X89124755Y24200000D01*
X89142569Y24243009D01*
X89140503Y24244389D01*
X89188866Y24316768D01*
X89188865Y24316768D01*
X89188867Y24316769D01*
X89200500Y24375252D01*
X89200500Y24824748D01*
X89188867Y24883231D01*
X89144552Y24949552D01*
X89144551Y24949553D01*
X89140503Y24955611D01*
X89142569Y24956992D01*
X89124755Y25000000D01*
X89142569Y25043009D01*
X89140503Y25044389D01*
X89188866Y25116768D01*
X89188865Y25116768D01*
X89188867Y25116769D01*
X89200500Y25175252D01*
X89200500Y25624748D01*
X89188867Y25683231D01*
X89144552Y25749552D01*
X89144551Y25749553D01*
X89140503Y25755611D01*
X89142569Y25756992D01*
X89124755Y25800000D01*
X89142569Y25843009D01*
X89140503Y25844389D01*
X89188866Y25916768D01*
X89188865Y25916768D01*
X89188867Y25916769D01*
X89200500Y25975252D01*
X89200500Y26424748D01*
X89188867Y26483231D01*
X89144552Y26549552D01*
X89144551Y26549553D01*
X89140503Y26555611D01*
X89142569Y26556992D01*
X89124755Y26600000D01*
X89142569Y26643009D01*
X89140503Y26644389D01*
X89188866Y26716768D01*
X89188865Y26716768D01*
X89188867Y26716769D01*
X89200500Y26775252D01*
X89200500Y27224748D01*
X89188867Y27283231D01*
X89144552Y27349552D01*
X89144551Y27349553D01*
X89140503Y27355611D01*
X89142569Y27356992D01*
X89124755Y27400000D01*
X89142569Y27443009D01*
X89140503Y27444389D01*
X89188866Y27516768D01*
X89188865Y27516768D01*
X89188867Y27516769D01*
X89200500Y27575252D01*
X89200500Y28024748D01*
X89188867Y28083231D01*
X89144552Y28149552D01*
X89144551Y28149553D01*
X89140503Y28155611D01*
X89142569Y28156992D01*
X89124755Y28200000D01*
X89142569Y28243009D01*
X89140503Y28244389D01*
X89188866Y28316768D01*
X89188865Y28316768D01*
X89188867Y28316769D01*
X89200500Y28375252D01*
X89200500Y28824748D01*
X89188867Y28883231D01*
X89144552Y28949552D01*
X89144551Y28949553D01*
X89140503Y28955611D01*
X89142569Y28956992D01*
X89124755Y29000000D01*
X89142569Y29043009D01*
X89140503Y29044389D01*
X89188866Y29116768D01*
X89188865Y29116768D01*
X89188867Y29116769D01*
X89200500Y29175252D01*
X89200500Y29624748D01*
X89188867Y29683231D01*
X89188866Y29683233D01*
X89188866Y29683234D01*
X89186077Y29689968D01*
X89189457Y29691369D01*
X89180971Y29734080D01*
X89201221Y29771956D01*
X89251785Y29822520D01*
X89297089Y29925125D01*
X89300000Y29950211D01*
X89300000Y30100000D01*
X86427001Y30100000D01*
X86427001Y29950208D01*
X86429908Y29925132D01*
X86429910Y29925126D01*
X86475213Y29822522D01*
X86525780Y29771955D01*
X86547454Y29719629D01*
X86538733Y29690872D01*
X86540922Y29689965D01*
X86538133Y29683233D01*
X86526500Y29624747D01*
X86526500Y29175254D01*
X86538133Y29116768D01*
X86586497Y29044389D01*
X86584430Y29043009D01*
X86602245Y29000000D01*
X86584430Y28956992D01*
X86586497Y28955611D01*
X86538133Y28883233D01*
X86526500Y28824747D01*
X86526500Y28375254D01*
X86538133Y28316768D01*
X86586497Y28244389D01*
X86584430Y28243009D01*
X86602245Y28200000D01*
X86584430Y28156992D01*
X86586497Y28155611D01*
X86538133Y28083233D01*
X86526500Y28024747D01*
X86526500Y27575254D01*
X86538133Y27516768D01*
X86586497Y27444389D01*
X86584430Y27443009D01*
X86602245Y27400000D01*
X86584430Y27356992D01*
X86586497Y27355611D01*
X86538133Y27283233D01*
X86526500Y27224747D01*
X86526500Y26775254D01*
X86538133Y26716768D01*
X86586497Y26644389D01*
X86584430Y26643009D01*
X86602245Y26600000D01*
X86584430Y26556992D01*
X86586497Y26555611D01*
X86538133Y26483233D01*
X86526500Y26424747D01*
X86526500Y25975254D01*
X86538133Y25916768D01*
X86586497Y25844389D01*
X86584430Y25843009D01*
X86602245Y25800000D01*
X86584430Y25756992D01*
X86586497Y25755611D01*
X86538133Y25683233D01*
X86526500Y25624747D01*
X86526500Y25175254D01*
X86538133Y25116768D01*
X86586497Y25044389D01*
X86584430Y25043009D01*
X86602245Y25000000D01*
X86584430Y24956992D01*
X86586497Y24955611D01*
X86538133Y24883233D01*
X86526500Y24824747D01*
X86526500Y24375254D01*
X86538133Y24316768D01*
X86586497Y24244389D01*
X86584430Y24243009D01*
X86602245Y24200000D01*
X86584430Y24156992D01*
X86586497Y24155611D01*
X86538133Y24083233D01*
X86526500Y24024747D01*
X86526500Y23575254D01*
X86538133Y23516767D01*
X86540923Y23510032D01*
X86537543Y23508633D01*
X86546026Y23465908D01*
X86525779Y23428046D01*
X86475214Y23377481D01*
X86429910Y23274876D01*
X86427000Y23249790D01*
X83572999Y23249790D01*
X83572999Y23249793D01*
X83570091Y23274869D01*
X83570089Y23274875D01*
X83524786Y23377479D01*
X83474219Y23428046D01*
X83452545Y23480372D01*
X83461275Y23509126D01*
X83459078Y23510036D01*
X83461866Y23516768D01*
X83461865Y23516768D01*
X83461867Y23516769D01*
X83473500Y23575252D01*
X83473500Y24024748D01*
X83461867Y24083231D01*
X83417552Y24149552D01*
X83417551Y24149553D01*
X83413503Y24155611D01*
X83415569Y24156992D01*
X83397755Y24200000D01*
X83415569Y24243009D01*
X83413503Y24244389D01*
X83461866Y24316768D01*
X83461865Y24316768D01*
X83461867Y24316769D01*
X83473500Y24375252D01*
X83473500Y24824748D01*
X83461867Y24883231D01*
X83417552Y24949552D01*
X83417551Y24949553D01*
X83413503Y24955611D01*
X83415569Y24956992D01*
X83397755Y25000000D01*
X83415569Y25043009D01*
X83413503Y25044389D01*
X83461866Y25116768D01*
X83461865Y25116768D01*
X83461867Y25116769D01*
X83473500Y25175252D01*
X83473500Y25624748D01*
X83461867Y25683231D01*
X83417552Y25749552D01*
X83417551Y25749553D01*
X83413503Y25755611D01*
X83415569Y25756992D01*
X83397755Y25800000D01*
X83415569Y25843009D01*
X83413503Y25844389D01*
X83461866Y25916768D01*
X83461865Y25916768D01*
X83461867Y25916769D01*
X83473500Y25975252D01*
X83473500Y26424748D01*
X83461867Y26483231D01*
X83417552Y26549552D01*
X83417551Y26549553D01*
X83413503Y26555611D01*
X83415569Y26556992D01*
X83397755Y26600000D01*
X83415569Y26643009D01*
X83413503Y26644389D01*
X83461866Y26716768D01*
X83461865Y26716768D01*
X83461867Y26716769D01*
X83473500Y26775252D01*
X83473500Y27224748D01*
X83461867Y27283231D01*
X83417552Y27349552D01*
X83417551Y27349553D01*
X83413503Y27355611D01*
X83415569Y27356992D01*
X83397755Y27400000D01*
X83415569Y27443009D01*
X83413503Y27444389D01*
X83461866Y27516768D01*
X83461865Y27516768D01*
X83461867Y27516769D01*
X83473500Y27575252D01*
X83473500Y28024748D01*
X83461867Y28083231D01*
X83417552Y28149552D01*
X83417551Y28149553D01*
X83413503Y28155611D01*
X83415569Y28156992D01*
X83397755Y28200000D01*
X83415569Y28243009D01*
X83413503Y28244389D01*
X83461866Y28316768D01*
X83461865Y28316768D01*
X83461867Y28316769D01*
X83473500Y28375252D01*
X83473500Y28824748D01*
X83461867Y28883231D01*
X83417552Y28949552D01*
X83417551Y28949553D01*
X83413503Y28955611D01*
X83415569Y28956992D01*
X83397755Y29000000D01*
X83415569Y29043009D01*
X83413503Y29044389D01*
X83461866Y29116768D01*
X83461865Y29116768D01*
X83461867Y29116769D01*
X83473500Y29175252D01*
X83473500Y29624748D01*
X83461867Y29683231D01*
X83461866Y29683233D01*
X83461866Y29683234D01*
X83459077Y29689968D01*
X83462457Y29691369D01*
X83453971Y29734080D01*
X83474221Y29771956D01*
X83524785Y29822520D01*
X83570089Y29925125D01*
X83573000Y29950211D01*
X83573000Y30100000D01*
X80700001Y30100000D01*
X80700001Y29950208D01*
X80702908Y29925132D01*
X80702910Y29925126D01*
X80748213Y29822522D01*
X80798780Y29771955D01*
X80820454Y29719629D01*
X80811733Y29690872D01*
X80813922Y29689965D01*
X80811133Y29683233D01*
X80799500Y29624747D01*
X80799500Y29175254D01*
X80811133Y29116768D01*
X80859497Y29044389D01*
X80857430Y29043009D01*
X80875245Y29000000D01*
X80857430Y28956992D01*
X80859497Y28955611D01*
X80811133Y28883233D01*
X80799500Y28824747D01*
X80799500Y28375254D01*
X80811133Y28316768D01*
X80859497Y28244389D01*
X80857430Y28243009D01*
X80875245Y28200000D01*
X80857430Y28156992D01*
X80859497Y28155611D01*
X80811133Y28083233D01*
X80799500Y28024747D01*
X80799500Y27575254D01*
X80811133Y27516768D01*
X80859497Y27444389D01*
X80857430Y27443009D01*
X80875245Y27400000D01*
X80857430Y27356992D01*
X80859497Y27355611D01*
X80811133Y27283233D01*
X80799500Y27224747D01*
X80799500Y26775254D01*
X80811133Y26716768D01*
X80859497Y26644389D01*
X80857430Y26643009D01*
X80875245Y26600000D01*
X80857430Y26556992D01*
X80859497Y26555611D01*
X80811133Y26483233D01*
X80799500Y26424747D01*
X80799500Y25975254D01*
X80811133Y25916768D01*
X80859497Y25844389D01*
X80857430Y25843009D01*
X80875245Y25800000D01*
X80857430Y25756992D01*
X80859497Y25755611D01*
X80811133Y25683233D01*
X80799500Y25624747D01*
X80799500Y25175254D01*
X80811133Y25116768D01*
X80859497Y25044389D01*
X80857430Y25043009D01*
X80875245Y25000000D01*
X80857430Y24956992D01*
X80859497Y24955611D01*
X80811133Y24883233D01*
X80799500Y24824747D01*
X80799500Y24375254D01*
X80811133Y24316768D01*
X80859497Y24244389D01*
X80857430Y24243009D01*
X80875245Y24200000D01*
X80857430Y24156992D01*
X80859497Y24155611D01*
X80811133Y24083233D01*
X80799500Y24024747D01*
X80799500Y23575254D01*
X80811133Y23516767D01*
X80813923Y23510032D01*
X80810543Y23508633D01*
X80819026Y23465908D01*
X80798779Y23428046D01*
X80748214Y23377481D01*
X80702910Y23274876D01*
X80700000Y23249790D01*
X56866603Y23249790D01*
X49893808Y30222585D01*
X49874656Y30255758D01*
X49869799Y30273886D01*
X49810489Y30376613D01*
X49726613Y30460489D01*
X49701707Y30474869D01*
X49687498Y30483073D01*
X49653021Y30528007D01*
X49650500Y30547158D01*
X49650500Y32529312D01*
X52219500Y32529312D01*
X52219500Y32410689D01*
X52250199Y32296118D01*
X52250201Y32296113D01*
X52309508Y32193391D01*
X52309509Y32193390D01*
X52309511Y32193387D01*
X52393387Y32109511D01*
X52393389Y32109510D01*
X52393390Y32109509D01*
X52477179Y32061133D01*
X52496114Y32050201D01*
X52496115Y32050201D01*
X52496117Y32050200D01*
X52526071Y32042174D01*
X52610688Y32019501D01*
X52610689Y32019500D01*
X52610691Y32019500D01*
X52729311Y32019500D01*
X52729311Y32019501D01*
X52843886Y32050201D01*
X52890923Y32077358D01*
X52947075Y32084751D01*
X52992009Y32050272D01*
X52999402Y31994120D01*
X52999401Y31994119D01*
X52968389Y31878382D01*
X52968389Y31759759D01*
X52999088Y31645188D01*
X52999090Y31645183D01*
X53058397Y31542461D01*
X53058398Y31542460D01*
X53058400Y31542457D01*
X53142276Y31458581D01*
X53142278Y31458580D01*
X53142279Y31458579D01*
X53234436Y31405372D01*
X53245003Y31399271D01*
X53245004Y31399271D01*
X53245006Y31399270D01*
X53302291Y31383921D01*
X53359577Y31368571D01*
X53359578Y31368570D01*
X53359580Y31368570D01*
X53478200Y31368570D01*
X53478200Y31368571D01*
X53592775Y31399271D01*
X53695502Y31458581D01*
X53733818Y31496897D01*
X53786143Y31518570D01*
X54258634Y31518570D01*
X54258634Y31518571D01*
X54335059Y31539049D01*
X54403581Y31578610D01*
X54459530Y31634559D01*
X54852797Y32027826D01*
X54905123Y32049500D01*
X55469746Y32049500D01*
X55469748Y32049500D01*
X55528231Y32061133D01*
X55594552Y32105448D01*
X55638867Y32171769D01*
X55650500Y32230252D01*
X55650500Y32569748D01*
X55638867Y32628231D01*
X55638866Y32628232D01*
X55637445Y32635379D01*
X55641628Y32636212D01*
X55641527Y32663809D01*
X55637445Y32664621D01*
X55643471Y32694914D01*
X55650500Y32730252D01*
X55650500Y33069748D01*
X55638867Y33128231D01*
X55638866Y33128232D01*
X55637445Y33135379D01*
X55641628Y33136212D01*
X55641527Y33163809D01*
X55637445Y33164621D01*
X55650500Y33230254D01*
X55650500Y33569747D01*
X55649432Y33575114D01*
X55638867Y33628231D01*
X55638866Y33628232D01*
X55637445Y33635379D01*
X55641628Y33636212D01*
X55641527Y33663809D01*
X55637445Y33664621D01*
X55641147Y33683233D01*
X55650500Y33730252D01*
X55650500Y34069748D01*
X55638867Y34128231D01*
X55638866Y34128232D01*
X55637445Y34135379D01*
X55641628Y34136212D01*
X55641527Y34163809D01*
X55637445Y34164621D01*
X55644383Y34199500D01*
X55650500Y34230252D01*
X55650500Y34569748D01*
X55638867Y34628231D01*
X55638866Y34628232D01*
X55637445Y34635379D01*
X55641628Y34636212D01*
X55641527Y34663809D01*
X55637445Y34664621D01*
X55650500Y34730254D01*
X55650500Y35069747D01*
X55648796Y35078312D01*
X55638867Y35128231D01*
X55638866Y35128232D01*
X55637445Y35135379D01*
X55641628Y35136212D01*
X55641527Y35163809D01*
X55637445Y35164621D01*
X55644569Y35200435D01*
X55650500Y35230252D01*
X55650500Y35569748D01*
X55638867Y35628231D01*
X55638866Y35628232D01*
X55637445Y35635379D01*
X55641628Y35636212D01*
X55641527Y35663809D01*
X55637445Y35664621D01*
X55638867Y35671769D01*
X55650500Y35730252D01*
X55650500Y36069748D01*
X55638867Y36128231D01*
X55594552Y36194552D01*
X55541967Y36229689D01*
X55528232Y36238867D01*
X55528233Y36238867D01*
X55498989Y36244684D01*
X55469748Y36250500D01*
X54630252Y36250500D01*
X54599530Y36244389D01*
X54571768Y36238867D01*
X54547979Y36222971D01*
X54506867Y36210500D01*
X54309266Y36210500D01*
X54256940Y36232174D01*
X53998741Y36490373D01*
X53977067Y36542699D01*
X53998741Y36595025D01*
X54051067Y36616699D01*
X54306763Y36616699D01*
X54306763Y36616700D01*
X54383188Y36637178D01*
X54451710Y36676739D01*
X54507659Y36732688D01*
X54852797Y37077826D01*
X54905123Y37099500D01*
X55469746Y37099500D01*
X55469748Y37099500D01*
X55528231Y37111133D01*
X55594552Y37155448D01*
X55638867Y37221769D01*
X55650500Y37280252D01*
X55650500Y37619748D01*
X55638867Y37678231D01*
X55638866Y37678232D01*
X55637445Y37685379D01*
X55641628Y37686212D01*
X55641527Y37713809D01*
X55637445Y37714621D01*
X55638867Y37721769D01*
X55650500Y37780252D01*
X55650500Y38119748D01*
X55638867Y38178231D01*
X55638866Y38178232D01*
X55637445Y38185379D01*
X55641628Y38186212D01*
X55641527Y38213809D01*
X55637445Y38214621D01*
X55638867Y38221769D01*
X55650500Y38280252D01*
X55650500Y38619748D01*
X55638867Y38678231D01*
X55638866Y38678232D01*
X55637445Y38685379D01*
X55641628Y38686212D01*
X55641527Y38713809D01*
X55637445Y38714621D01*
X55638867Y38721769D01*
X55650500Y38780252D01*
X55650500Y39119748D01*
X55638867Y39178231D01*
X55638866Y39178232D01*
X55637445Y39185379D01*
X55641628Y39186212D01*
X55641527Y39213809D01*
X55637445Y39214621D01*
X55639459Y39224747D01*
X55650500Y39280252D01*
X55650500Y39619748D01*
X55638867Y39678231D01*
X55638866Y39678232D01*
X55637445Y39685379D01*
X55641628Y39686212D01*
X55641527Y39713809D01*
X55637445Y39714621D01*
X55638867Y39721769D01*
X55650500Y39780252D01*
X55650500Y40119748D01*
X55638867Y40178231D01*
X55638866Y40178232D01*
X55637445Y40185379D01*
X55641628Y40186212D01*
X55641527Y40213809D01*
X55637445Y40214621D01*
X55638867Y40221769D01*
X55650500Y40280252D01*
X55650500Y40619748D01*
X55638867Y40678231D01*
X55638866Y40678232D01*
X55637445Y40685379D01*
X55641628Y40686212D01*
X55641527Y40713809D01*
X55637445Y40714621D01*
X55638867Y40721769D01*
X55650500Y40780252D01*
X55650500Y41119748D01*
X56249500Y41119748D01*
X56249500Y40780252D01*
X56261133Y40721769D01*
X56262555Y40714621D01*
X56258448Y40713805D01*
X56258448Y40686196D01*
X56262555Y40685379D01*
X56261133Y40678232D01*
X56261133Y40678231D01*
X56249500Y40619748D01*
X56249500Y40280252D01*
X56261133Y40221769D01*
X56262555Y40214621D01*
X56258448Y40213805D01*
X56258448Y40186196D01*
X56262555Y40185379D01*
X56261133Y40178232D01*
X56261133Y40178231D01*
X56249500Y40119748D01*
X56249500Y39780252D01*
X56261133Y39721769D01*
X56262555Y39714621D01*
X56258448Y39713805D01*
X56258448Y39686196D01*
X56262555Y39685379D01*
X56261133Y39678232D01*
X56261133Y39678231D01*
X56249500Y39619748D01*
X56249500Y39280252D01*
X56260541Y39224747D01*
X56262555Y39214621D01*
X56258448Y39213805D01*
X56258448Y39186196D01*
X56262555Y39185379D01*
X56261133Y39178232D01*
X56261133Y39178231D01*
X56249500Y39119748D01*
X56249500Y38780252D01*
X56261133Y38721769D01*
X56262555Y38714621D01*
X56258448Y38713805D01*
X56258448Y38686196D01*
X56262555Y38685379D01*
X56261133Y38678232D01*
X56261133Y38678231D01*
X56249500Y38619748D01*
X56249500Y38280252D01*
X56261133Y38221769D01*
X56262555Y38214621D01*
X56258448Y38213805D01*
X56258448Y38186196D01*
X56262555Y38185379D01*
X56261133Y38178232D01*
X56261133Y38178231D01*
X56249500Y38119748D01*
X56249500Y37780252D01*
X56261133Y37721769D01*
X56262555Y37714621D01*
X56258448Y37713805D01*
X56258448Y37686196D01*
X56262555Y37685379D01*
X56261133Y37678232D01*
X56261133Y37678231D01*
X56249500Y37619748D01*
X56249500Y37280252D01*
X56255816Y37248500D01*
X56261133Y37221768D01*
X56288742Y37180450D01*
X56305448Y37155448D01*
X56347979Y37127029D01*
X56371767Y37111134D01*
X56371768Y37111134D01*
X56371769Y37111133D01*
X56430252Y37099500D01*
X56430254Y37099500D01*
X57269746Y37099500D01*
X57269748Y37099500D01*
X57328231Y37111133D01*
X57352021Y37127029D01*
X57393133Y37139500D01*
X57715734Y37139500D01*
X57768060Y37117826D01*
X58210348Y36675538D01*
X58251226Y36651938D01*
X58281152Y36634660D01*
X58322802Y36623500D01*
X58360121Y36613500D01*
X58770734Y36613500D01*
X58823060Y36591826D01*
X58844734Y36539500D01*
X58823060Y36487174D01*
X58568060Y36232174D01*
X58515734Y36210500D01*
X57393133Y36210500D01*
X57352021Y36222971D01*
X57328231Y36238867D01*
X57269748Y36250500D01*
X56430252Y36250500D01*
X56401010Y36244684D01*
X56371767Y36238867D01*
X56305449Y36194553D01*
X56305447Y36194551D01*
X56261133Y36128233D01*
X56255189Y36098349D01*
X56249500Y36069748D01*
X56249500Y35730252D01*
X56261133Y35671769D01*
X56262555Y35664621D01*
X56258448Y35663805D01*
X56258448Y35636196D01*
X56262555Y35635379D01*
X56261133Y35628232D01*
X56261133Y35628231D01*
X56249500Y35569748D01*
X56249500Y35230252D01*
X56255431Y35200435D01*
X56262555Y35164621D01*
X56258448Y35163805D01*
X56258448Y35136196D01*
X56262555Y35135379D01*
X56261133Y35128232D01*
X56261133Y35128231D01*
X56251204Y35078312D01*
X56249500Y35069747D01*
X56249500Y34730254D01*
X56262555Y34664621D01*
X56258448Y34663805D01*
X56258448Y34636196D01*
X56262555Y34635379D01*
X56261133Y34628232D01*
X56261133Y34628231D01*
X56249500Y34569748D01*
X56249500Y34230252D01*
X56255617Y34199500D01*
X56262555Y34164621D01*
X56258448Y34163805D01*
X56258448Y34136196D01*
X56262555Y34135379D01*
X56261133Y34128232D01*
X56261133Y34128231D01*
X56249500Y34069748D01*
X56249500Y33730252D01*
X56258853Y33683233D01*
X56262555Y33664621D01*
X56258448Y33663805D01*
X56258448Y33636196D01*
X56262555Y33635379D01*
X56261133Y33628232D01*
X56261133Y33628231D01*
X56250568Y33575114D01*
X56249500Y33569747D01*
X56249500Y33230254D01*
X56262555Y33164621D01*
X56258448Y33163805D01*
X56258448Y33136196D01*
X56262555Y33135379D01*
X56261133Y33128232D01*
X56261133Y33128231D01*
X56249500Y33069748D01*
X56249500Y32730252D01*
X56256529Y32694914D01*
X56262555Y32664621D01*
X56258448Y32663805D01*
X56258448Y32636196D01*
X56262555Y32635379D01*
X56261133Y32628232D01*
X56261133Y32628231D01*
X56249500Y32569748D01*
X56249500Y32230252D01*
X56255043Y32202387D01*
X56261133Y32171768D01*
X56286811Y32133340D01*
X56305448Y32105448D01*
X56336423Y32084751D01*
X56371767Y32061134D01*
X56371768Y32061134D01*
X56371769Y32061133D01*
X56430252Y32049500D01*
X56430254Y32049500D01*
X57269746Y32049500D01*
X57269748Y32049500D01*
X57328231Y32061133D01*
X57352021Y32077029D01*
X57393133Y32089500D01*
X57790734Y32089500D01*
X57843060Y32067826D01*
X58324349Y31586538D01*
X58324351Y31586537D01*
X58324352Y31586536D01*
X58379564Y31554659D01*
X58395151Y31545660D01*
X58395152Y31545660D01*
X58395154Y31545659D01*
X58434636Y31535080D01*
X58474119Y31524501D01*
X58474120Y31524500D01*
X58474122Y31524500D01*
X79301734Y31524500D01*
X79354060Y31502826D01*
X80105348Y30751538D01*
X80146226Y30727938D01*
X80176152Y30710660D01*
X80214070Y30700500D01*
X80255121Y30689500D01*
X80255122Y30689500D01*
X80684561Y30689500D01*
X80736887Y30667826D01*
X80758561Y30615500D01*
X80749003Y30584626D01*
X80750983Y30583751D01*
X80702910Y30474876D01*
X80700000Y30449790D01*
X80700000Y30300000D01*
X83572999Y30300000D01*
X83572999Y30449790D01*
X86427000Y30449790D01*
X86427000Y30300000D01*
X89299999Y30300000D01*
X89299999Y30449793D01*
X89297091Y30474869D01*
X89297089Y30474875D01*
X89251786Y30577479D01*
X89201219Y30628046D01*
X89179545Y30680372D01*
X89188275Y30709126D01*
X89186078Y30710036D01*
X89188866Y30716768D01*
X89188865Y30716768D01*
X89188867Y30716769D01*
X89200500Y30775252D01*
X89200500Y31224748D01*
X89188867Y31283231D01*
X89144552Y31349552D01*
X89144551Y31349553D01*
X89140503Y31355611D01*
X89142569Y31356992D01*
X89124755Y31400000D01*
X89142569Y31443009D01*
X89140503Y31444389D01*
X89156164Y31467826D01*
X89188867Y31516769D01*
X89200500Y31575252D01*
X89200500Y32024748D01*
X89188867Y32083231D01*
X89187851Y32084751D01*
X89163889Y32120613D01*
X89144552Y32149552D01*
X89144551Y32149553D01*
X89140503Y32155611D01*
X89142569Y32156992D01*
X89124755Y32200000D01*
X89142569Y32243009D01*
X89140503Y32244389D01*
X89150570Y32259454D01*
X89188867Y32316769D01*
X89200500Y32375252D01*
X89200500Y32824748D01*
X89188867Y32883231D01*
X89184478Y32889799D01*
X89150858Y32940114D01*
X89144552Y32949552D01*
X89144551Y32949553D01*
X89140503Y32955611D01*
X89142569Y32956992D01*
X89124755Y33000000D01*
X89142569Y33043009D01*
X89140503Y33044389D01*
X89147386Y33054689D01*
X89188867Y33116769D01*
X89200500Y33175252D01*
X89200500Y33624748D01*
X89188867Y33683231D01*
X89184550Y33689691D01*
X89156163Y33732175D01*
X89144552Y33749552D01*
X89144551Y33749553D01*
X89140503Y33755611D01*
X89142569Y33756992D01*
X89124755Y33800000D01*
X89142569Y33843009D01*
X89140503Y33844389D01*
X89160478Y33874282D01*
X89188867Y33916769D01*
X89200500Y33975252D01*
X89200500Y34424748D01*
X89188867Y34483231D01*
X89144552Y34549552D01*
X89144551Y34549553D01*
X89140503Y34555611D01*
X89142569Y34556992D01*
X89124755Y34600000D01*
X89142569Y34643009D01*
X89140503Y34644389D01*
X89149940Y34658511D01*
X89188867Y34716769D01*
X89200500Y34775252D01*
X89200500Y35224748D01*
X89188867Y35283231D01*
X89181999Y35293509D01*
X89167896Y35314615D01*
X89144552Y35349552D01*
X89144551Y35349553D01*
X89140503Y35355611D01*
X89142569Y35356992D01*
X89124755Y35400000D01*
X89142569Y35443009D01*
X89140503Y35444389D01*
X89164374Y35480113D01*
X89188867Y35516769D01*
X89200500Y35575252D01*
X89200500Y36024748D01*
X89188867Y36083231D01*
X89144552Y36149552D01*
X89144551Y36149553D01*
X89140503Y36155611D01*
X89142569Y36156992D01*
X89124755Y36200000D01*
X89142569Y36243009D01*
X89140503Y36244389D01*
X89144587Y36250500D01*
X89188867Y36316769D01*
X89200500Y36375252D01*
X89200500Y36824748D01*
X89188867Y36883231D01*
X89188866Y36883233D01*
X89188866Y36883234D01*
X89186077Y36889968D01*
X89189457Y36891369D01*
X89180971Y36934080D01*
X89201221Y36971956D01*
X89251785Y37022520D01*
X89297089Y37125125D01*
X89300000Y37150211D01*
X89300000Y37300000D01*
X86427001Y37300000D01*
X86427001Y37150208D01*
X86429908Y37125132D01*
X86429910Y37125126D01*
X86475213Y37022522D01*
X86525780Y36971955D01*
X86547454Y36919629D01*
X86538733Y36890872D01*
X86540922Y36889965D01*
X86538133Y36883233D01*
X86526500Y36824747D01*
X86526500Y36375254D01*
X86538133Y36316768D01*
X86557113Y36288364D01*
X86582413Y36250500D01*
X86586497Y36244389D01*
X86584430Y36243009D01*
X86602245Y36200000D01*
X86584430Y36156992D01*
X86586497Y36155611D01*
X86538133Y36083233D01*
X86536257Y36073801D01*
X86529236Y36038500D01*
X86526500Y36024747D01*
X86526500Y35575254D01*
X86538133Y35516768D01*
X86586497Y35444389D01*
X86584430Y35443009D01*
X86602245Y35400000D01*
X86584430Y35356992D01*
X86586497Y35355611D01*
X86538133Y35283233D01*
X86538133Y35283231D01*
X86526500Y35224748D01*
X86526500Y34775252D01*
X86533037Y34742387D01*
X86538133Y34716768D01*
X86555489Y34690794D01*
X86577060Y34658511D01*
X86586497Y34644389D01*
X86584430Y34643009D01*
X86602245Y34600000D01*
X86584430Y34556992D01*
X86586497Y34555611D01*
X86538133Y34483233D01*
X86538133Y34483231D01*
X86526500Y34424748D01*
X86526500Y33975252D01*
X86531217Y33951538D01*
X86538133Y33916768D01*
X86586497Y33844389D01*
X86584430Y33843009D01*
X86602245Y33800000D01*
X86584430Y33756992D01*
X86586497Y33755611D01*
X86538133Y33683233D01*
X86538133Y33683231D01*
X86526500Y33624748D01*
X86526500Y33175252D01*
X86527193Y33171769D01*
X86538133Y33116768D01*
X86586497Y33044389D01*
X86584430Y33043009D01*
X86602245Y33000000D01*
X86584430Y32956992D01*
X86586497Y32955611D01*
X86582448Y32949553D01*
X86582448Y32949552D01*
X86576430Y32940546D01*
X86538133Y32883233D01*
X86526500Y32824747D01*
X86526500Y32375254D01*
X86538133Y32316768D01*
X86564094Y32277916D01*
X86574003Y32263086D01*
X86586497Y32244389D01*
X86584430Y32243009D01*
X86602245Y32200000D01*
X86584430Y32156992D01*
X86586497Y32155611D01*
X86582448Y32149553D01*
X86582448Y32149552D01*
X86579072Y32144500D01*
X86538133Y32083233D01*
X86533737Y32061133D01*
X86526500Y32024748D01*
X86526500Y31575252D01*
X86532816Y31543500D01*
X86538133Y31516768D01*
X86586497Y31444389D01*
X86584430Y31443009D01*
X86602245Y31400000D01*
X86584430Y31356992D01*
X86586497Y31355611D01*
X86538133Y31283233D01*
X86526500Y31224747D01*
X86526500Y30775254D01*
X86538133Y30716767D01*
X86540923Y30710032D01*
X86537543Y30708633D01*
X86546026Y30665908D01*
X86525779Y30628046D01*
X86475214Y30577481D01*
X86429910Y30474876D01*
X86427000Y30449790D01*
X83572999Y30449790D01*
X83572999Y30449793D01*
X83570091Y30474869D01*
X83570089Y30474875D01*
X83524786Y30577479D01*
X83474219Y30628046D01*
X83452545Y30680372D01*
X83461275Y30709126D01*
X83459078Y30710036D01*
X83461866Y30716768D01*
X83461865Y30716768D01*
X83461867Y30716769D01*
X83473500Y30775252D01*
X83473500Y31224748D01*
X83461867Y31283231D01*
X83417552Y31349552D01*
X83417551Y31349553D01*
X83413503Y31355611D01*
X83415569Y31356992D01*
X83397755Y31400000D01*
X83415569Y31443009D01*
X83413503Y31444389D01*
X83429164Y31467826D01*
X83461867Y31516769D01*
X83473500Y31575252D01*
X83473500Y32024748D01*
X83461867Y32083231D01*
X83460851Y32084751D01*
X83436889Y32120613D01*
X83417552Y32149552D01*
X83417551Y32149553D01*
X83413503Y32155611D01*
X83415569Y32156992D01*
X83397755Y32200000D01*
X83415569Y32243009D01*
X83413503Y32244389D01*
X83423570Y32259454D01*
X83461867Y32316769D01*
X83473500Y32375252D01*
X83473500Y32824748D01*
X83461867Y32883231D01*
X83457478Y32889799D01*
X83423858Y32940114D01*
X83417552Y32949552D01*
X83417551Y32949553D01*
X83413503Y32955611D01*
X83415569Y32956992D01*
X83397755Y33000000D01*
X83415569Y33043009D01*
X83413503Y33044389D01*
X83420386Y33054689D01*
X83461867Y33116769D01*
X83473500Y33175252D01*
X83473500Y33624748D01*
X83461867Y33683231D01*
X83457550Y33689691D01*
X83429163Y33732175D01*
X83417552Y33749552D01*
X83417551Y33749553D01*
X83413503Y33755611D01*
X83415569Y33756992D01*
X83397755Y33800000D01*
X83415569Y33843009D01*
X83413503Y33844389D01*
X83433478Y33874282D01*
X83461867Y33916769D01*
X83473500Y33975252D01*
X83473500Y34424748D01*
X83461867Y34483231D01*
X83417552Y34549552D01*
X83417551Y34549553D01*
X83413503Y34555611D01*
X83415569Y34556992D01*
X83397755Y34600000D01*
X83415569Y34643009D01*
X83413503Y34644389D01*
X83422940Y34658511D01*
X83461867Y34716769D01*
X83473500Y34775252D01*
X83473500Y35224748D01*
X83461867Y35283231D01*
X83454999Y35293509D01*
X83440896Y35314615D01*
X83417552Y35349552D01*
X83417551Y35349553D01*
X83413503Y35355611D01*
X83415569Y35356992D01*
X83397755Y35400000D01*
X83415569Y35443009D01*
X83413503Y35444389D01*
X83437374Y35480113D01*
X83461867Y35516769D01*
X83473500Y35575252D01*
X83473500Y36024748D01*
X83461867Y36083231D01*
X83417552Y36149552D01*
X83417551Y36149553D01*
X83413503Y36155611D01*
X83415569Y36156992D01*
X83397755Y36200000D01*
X83415569Y36243009D01*
X83413503Y36244389D01*
X83417587Y36250500D01*
X83461867Y36316769D01*
X83473500Y36375252D01*
X83473500Y36824748D01*
X83461867Y36883231D01*
X83461866Y36883233D01*
X83461866Y36883234D01*
X83459077Y36889968D01*
X83462457Y36891369D01*
X83453971Y36934080D01*
X83474221Y36971956D01*
X83524785Y37022520D01*
X83570089Y37125125D01*
X83573000Y37150211D01*
X83573000Y37300000D01*
X82210500Y37300000D01*
X82158174Y37321674D01*
X82136500Y37374000D01*
X82136500Y37426000D01*
X82158174Y37478326D01*
X82210500Y37500000D01*
X83572999Y37500000D01*
X83572999Y37649790D01*
X86427000Y37649790D01*
X86427000Y37500000D01*
X89299999Y37500000D01*
X89299999Y37649793D01*
X89297091Y37674869D01*
X89297089Y37674875D01*
X89251786Y37777479D01*
X89201219Y37828046D01*
X89179545Y37880372D01*
X89188275Y37909126D01*
X89186078Y37910036D01*
X89188866Y37916768D01*
X89188865Y37916768D01*
X89188867Y37916769D01*
X89200500Y37975252D01*
X89200500Y38424748D01*
X89188867Y38483231D01*
X89144552Y38549552D01*
X89144551Y38549553D01*
X89140503Y38555611D01*
X89142569Y38556992D01*
X89124755Y38600000D01*
X89142569Y38643009D01*
X89140503Y38644389D01*
X89147670Y38655114D01*
X89188867Y38716769D01*
X89200500Y38775252D01*
X89200500Y39224748D01*
X89188867Y39283231D01*
X89174151Y39305254D01*
X89154099Y39335264D01*
X89144552Y39349552D01*
X89144551Y39349553D01*
X89140503Y39355611D01*
X89142569Y39356992D01*
X89124755Y39400000D01*
X89142569Y39443009D01*
X89140503Y39444389D01*
X89156164Y39467826D01*
X89188867Y39516769D01*
X89200500Y39575252D01*
X89200500Y40024748D01*
X89188867Y40083231D01*
X89144552Y40149552D01*
X89144551Y40149553D01*
X89140503Y40155611D01*
X89142569Y40156992D01*
X89124755Y40200000D01*
X89142569Y40243009D01*
X89140503Y40244389D01*
X89144587Y40250500D01*
X89188867Y40316769D01*
X89200500Y40375252D01*
X89200500Y40824748D01*
X89188867Y40883231D01*
X89172393Y40907885D01*
X89156164Y40932174D01*
X89144552Y40949552D01*
X89144551Y40949553D01*
X89140503Y40955611D01*
X89142569Y40956992D01*
X89124755Y41000000D01*
X89142569Y41043009D01*
X89140503Y41044389D01*
X89153722Y41064171D01*
X89188867Y41116769D01*
X89200500Y41175252D01*
X89200500Y41624748D01*
X89188867Y41683231D01*
X89144552Y41749552D01*
X89144551Y41749553D01*
X89140503Y41755611D01*
X89142569Y41756992D01*
X89124755Y41800000D01*
X89142569Y41843009D01*
X89140503Y41844389D01*
X89156164Y41867826D01*
X89188867Y41916769D01*
X89200500Y41975252D01*
X89200500Y42424748D01*
X89188867Y42483231D01*
X89144552Y42549552D01*
X89144551Y42549553D01*
X89140503Y42555611D01*
X89142569Y42556992D01*
X89124755Y42600000D01*
X89142569Y42643009D01*
X89140503Y42644389D01*
X89156164Y42667826D01*
X89188867Y42716769D01*
X89200500Y42775252D01*
X89200500Y43224748D01*
X89188867Y43283231D01*
X89144552Y43349552D01*
X89144551Y43349553D01*
X89140503Y43355611D01*
X89142569Y43356992D01*
X89124755Y43400000D01*
X89142569Y43443009D01*
X89140503Y43444389D01*
X89156164Y43467826D01*
X89188867Y43516769D01*
X89200500Y43575252D01*
X89200500Y44024748D01*
X89188867Y44083231D01*
X89188866Y44083233D01*
X89188866Y44083234D01*
X89186077Y44089968D01*
X89189457Y44091369D01*
X89180971Y44134080D01*
X89201221Y44171956D01*
X89251785Y44222520D01*
X89297089Y44325125D01*
X89300000Y44350211D01*
X89300000Y44500000D01*
X86427001Y44500000D01*
X86427001Y44350208D01*
X86429908Y44325132D01*
X86429910Y44325126D01*
X86475213Y44222522D01*
X86525780Y44171955D01*
X86547454Y44119629D01*
X86538733Y44090872D01*
X86540922Y44089965D01*
X86538133Y44083233D01*
X86526500Y44024747D01*
X86526500Y43575254D01*
X86538133Y43516768D01*
X86586497Y43444389D01*
X86584430Y43443009D01*
X86602245Y43400000D01*
X86584430Y43356992D01*
X86586497Y43355611D01*
X86538133Y43283233D01*
X86526500Y43224747D01*
X86526500Y42775254D01*
X86538133Y42716768D01*
X86586497Y42644389D01*
X86584430Y42643009D01*
X86602245Y42600000D01*
X86584430Y42556992D01*
X86586497Y42555611D01*
X86538133Y42483233D01*
X86526500Y42424747D01*
X86526500Y41975254D01*
X86538133Y41916768D01*
X86586497Y41844389D01*
X86584430Y41843009D01*
X86602245Y41800000D01*
X86584430Y41756992D01*
X86586497Y41755611D01*
X86538133Y41683233D01*
X86533182Y41658342D01*
X86526500Y41624748D01*
X86526500Y41175252D01*
X86532568Y41144748D01*
X86538133Y41116768D01*
X86549266Y41100107D01*
X86573278Y41064171D01*
X86586497Y41044389D01*
X86584430Y41043009D01*
X86602245Y41000000D01*
X86584430Y40956992D01*
X86586497Y40955611D01*
X86582448Y40949553D01*
X86582448Y40949552D01*
X86582213Y40949200D01*
X86538133Y40883233D01*
X86538133Y40883231D01*
X86526500Y40824748D01*
X86526500Y40375252D01*
X86529703Y40359150D01*
X86538133Y40316768D01*
X86554349Y40292500D01*
X86582413Y40250500D01*
X86586497Y40244389D01*
X86584430Y40243009D01*
X86602245Y40200000D01*
X86584430Y40156992D01*
X86586497Y40155611D01*
X86582448Y40149553D01*
X86582448Y40149552D01*
X86576430Y40140546D01*
X86538133Y40083233D01*
X86538133Y40083231D01*
X86526500Y40024748D01*
X86526500Y39575252D01*
X86527064Y39572418D01*
X86538133Y39516768D01*
X86586497Y39444389D01*
X86584430Y39443009D01*
X86602245Y39400000D01*
X86584430Y39356992D01*
X86586497Y39355611D01*
X86538133Y39283233D01*
X86536167Y39273349D01*
X86526500Y39224748D01*
X86526500Y38775252D01*
X86527607Y38769689D01*
X86538133Y38716768D01*
X86559107Y38685379D01*
X86579330Y38655114D01*
X86586497Y38644389D01*
X86584430Y38643009D01*
X86602245Y38600000D01*
X86584430Y38556992D01*
X86586497Y38555611D01*
X86538133Y38483233D01*
X86526500Y38424747D01*
X86526500Y37975254D01*
X86538133Y37916767D01*
X86540923Y37910032D01*
X86537543Y37908633D01*
X86546026Y37865908D01*
X86525779Y37828046D01*
X86475214Y37777481D01*
X86429910Y37674876D01*
X86427000Y37649790D01*
X83572999Y37649790D01*
X83572999Y37649793D01*
X83570091Y37674869D01*
X83570089Y37674875D01*
X83524786Y37777479D01*
X83474219Y37828046D01*
X83452545Y37880372D01*
X83461275Y37909126D01*
X83459078Y37910036D01*
X83461866Y37916768D01*
X83461865Y37916768D01*
X83461867Y37916769D01*
X83473500Y37975252D01*
X83473500Y38424748D01*
X83461867Y38483231D01*
X83417552Y38549552D01*
X83417551Y38549553D01*
X83413503Y38555611D01*
X83415569Y38556992D01*
X83397755Y38600000D01*
X83415569Y38643009D01*
X83413503Y38644389D01*
X83420670Y38655114D01*
X83461867Y38716769D01*
X83473500Y38775252D01*
X83473500Y39224748D01*
X83461867Y39283231D01*
X83447151Y39305254D01*
X83427099Y39335264D01*
X83417552Y39349552D01*
X83417551Y39349553D01*
X83413503Y39355611D01*
X83415569Y39356992D01*
X83397755Y39400000D01*
X83415569Y39443009D01*
X83413503Y39444389D01*
X83429164Y39467826D01*
X83461867Y39516769D01*
X83473500Y39575252D01*
X83473500Y40024748D01*
X83461867Y40083231D01*
X83417552Y40149552D01*
X83417551Y40149553D01*
X83413503Y40155611D01*
X83415569Y40156992D01*
X83397755Y40200000D01*
X83415569Y40243009D01*
X83413503Y40244389D01*
X83417587Y40250500D01*
X83461867Y40316769D01*
X83473500Y40375252D01*
X83473500Y40824748D01*
X83461867Y40883231D01*
X83445393Y40907885D01*
X83429164Y40932174D01*
X83417552Y40949552D01*
X83417551Y40949553D01*
X83413503Y40955611D01*
X83415569Y40956992D01*
X83397755Y41000000D01*
X83415569Y41043009D01*
X83413503Y41044389D01*
X83426722Y41064171D01*
X83461867Y41116769D01*
X83473500Y41175252D01*
X83473500Y41624748D01*
X83461867Y41683231D01*
X83417552Y41749552D01*
X83417551Y41749553D01*
X83413503Y41755611D01*
X83415569Y41756992D01*
X83397755Y41800000D01*
X83415569Y41843009D01*
X83413503Y41844389D01*
X83429164Y41867826D01*
X83461867Y41916769D01*
X83473500Y41975252D01*
X83473500Y42424748D01*
X83461867Y42483231D01*
X83417552Y42549552D01*
X83417551Y42549553D01*
X83413503Y42555611D01*
X83415569Y42556992D01*
X83397755Y42600000D01*
X83415569Y42643009D01*
X83413503Y42644389D01*
X83429164Y42667826D01*
X83461867Y42716769D01*
X83473500Y42775252D01*
X83473500Y43224748D01*
X83461867Y43283231D01*
X83417552Y43349552D01*
X83417551Y43349553D01*
X83413503Y43355611D01*
X83415569Y43356992D01*
X83397755Y43400000D01*
X83415569Y43443009D01*
X83413503Y43444389D01*
X83429164Y43467826D01*
X83461867Y43516769D01*
X83473500Y43575252D01*
X83473500Y44024748D01*
X83461867Y44083231D01*
X83461866Y44083233D01*
X83461866Y44083234D01*
X83459077Y44089968D01*
X83462457Y44091369D01*
X83453971Y44134080D01*
X83474221Y44171956D01*
X83524785Y44222520D01*
X83570089Y44325125D01*
X83573000Y44350211D01*
X83573000Y44500000D01*
X80700001Y44500000D01*
X80700001Y44350208D01*
X80702908Y44325132D01*
X80702910Y44325126D01*
X80750983Y44216249D01*
X80748014Y44214939D01*
X80757299Y44170891D01*
X80726371Y44123443D01*
X80684561Y44110500D01*
X79510878Y44110500D01*
X79429121Y44110500D01*
X79407961Y44104830D01*
X79350152Y44089340D01*
X79339571Y44083231D01*
X79333169Y44079536D01*
X79333166Y44079534D01*
X79279347Y44048462D01*
X76932060Y41701174D01*
X76879734Y41679500D01*
X58503120Y41679500D01*
X58424155Y41658342D01*
X58424150Y41658340D01*
X58353348Y41617462D01*
X58353348Y41617461D01*
X58018060Y41282174D01*
X57965734Y41260500D01*
X57393133Y41260500D01*
X57352021Y41272971D01*
X57328231Y41288867D01*
X57269748Y41300500D01*
X56430252Y41300500D01*
X56401010Y41294684D01*
X56371767Y41288867D01*
X56305449Y41244553D01*
X56305447Y41244551D01*
X56261133Y41178233D01*
X56260540Y41175252D01*
X56249500Y41119748D01*
X55650500Y41119748D01*
X55638867Y41178231D01*
X55637801Y41179826D01*
X55614805Y41214242D01*
X55594552Y41244552D01*
X55557139Y41269551D01*
X55528232Y41288867D01*
X55528233Y41288867D01*
X55498989Y41294684D01*
X55469748Y41300500D01*
X54630252Y41300500D01*
X54601010Y41294684D01*
X54571767Y41288867D01*
X54533015Y41262972D01*
X54491902Y41250500D01*
X54355123Y41250500D01*
X54302797Y41272174D01*
X53965511Y41609460D01*
X53913987Y41639207D01*
X53913985Y41639210D01*
X53896994Y41649019D01*
X53896985Y41649023D01*
X53820564Y41669500D01*
X53820562Y41669500D01*
X53167254Y41669500D01*
X53114929Y41691173D01*
X53104928Y41701174D01*
X53076613Y41729489D01*
X53076610Y41729491D01*
X53076609Y41729492D01*
X52973887Y41788799D01*
X52973882Y41788801D01*
X52859311Y41819500D01*
X52859309Y41819500D01*
X52740691Y41819500D01*
X52740689Y41819500D01*
X52626117Y41788801D01*
X52626112Y41788799D01*
X52523390Y41729492D01*
X52439508Y41645610D01*
X52380201Y41542888D01*
X52380199Y41542883D01*
X52349500Y41428312D01*
X52349500Y41309689D01*
X52380199Y41195118D01*
X52380201Y41195113D01*
X52439508Y41092391D01*
X52439509Y41092390D01*
X52439511Y41092387D01*
X52523387Y41008511D01*
X52523389Y41008510D01*
X52523390Y41008509D01*
X52624879Y40949914D01*
X52626114Y40949201D01*
X52626115Y40949201D01*
X52626117Y40949200D01*
X52683402Y40933851D01*
X52740688Y40918501D01*
X52740689Y40918500D01*
X52740691Y40918500D01*
X52859311Y40918500D01*
X52859311Y40918501D01*
X52973886Y40949201D01*
X52973886Y40949202D01*
X52976546Y40949914D01*
X53032698Y40942522D01*
X53067177Y40897589D01*
X53067177Y40859284D01*
X53051913Y40802312D01*
X53049500Y40793308D01*
X53049500Y40674689D01*
X53067177Y40608718D01*
X53059785Y40552565D01*
X53014852Y40518087D01*
X52976546Y40518087D01*
X52859311Y40549500D01*
X52859309Y40549500D01*
X52740691Y40549500D01*
X52740689Y40549500D01*
X52626117Y40518801D01*
X52626112Y40518799D01*
X52523390Y40459492D01*
X52439508Y40375610D01*
X52380201Y40272888D01*
X52380199Y40272883D01*
X52349500Y40158312D01*
X52349500Y40039689D01*
X52380199Y39925118D01*
X52380201Y39925113D01*
X52439508Y39822391D01*
X52439509Y39822390D01*
X52439511Y39822387D01*
X52523387Y39738511D01*
X52523389Y39738510D01*
X52523390Y39738509D01*
X52613998Y39686196D01*
X52626114Y39679201D01*
X52626115Y39679201D01*
X52626117Y39679200D01*
X52683402Y39663851D01*
X52740688Y39648501D01*
X52740689Y39648500D01*
X52740691Y39648500D01*
X52859308Y39648500D01*
X52859309Y39648500D01*
X52867082Y39650584D01*
X52889319Y39653042D01*
X52897492Y39652702D01*
X52909438Y39649500D01*
X52974285Y39649500D01*
X52975820Y39649436D01*
X53000216Y39638119D01*
X53025064Y39627826D01*
X53025697Y39626298D01*
X53027198Y39625601D01*
X53036446Y39600345D01*
X53046738Y39575500D01*
X53046318Y39573390D01*
X53046674Y39572418D01*
X53045712Y39570346D01*
X53042410Y39553747D01*
X53043066Y39553571D01*
X53011110Y39434312D01*
X53011110Y39335264D01*
X52989436Y39282938D01*
X52937110Y39261264D01*
X52917958Y39263785D01*
X52859309Y39279500D01*
X52740691Y39279500D01*
X52740689Y39279500D01*
X52626117Y39248801D01*
X52626112Y39248799D01*
X52523390Y39189492D01*
X52439508Y39105610D01*
X52380201Y39002888D01*
X52380199Y39002883D01*
X52349500Y38888312D01*
X52349500Y38769689D01*
X52380199Y38655118D01*
X52380201Y38655113D01*
X52439508Y38552391D01*
X52439509Y38552390D01*
X52439511Y38552387D01*
X52523387Y38468511D01*
X52523389Y38468510D01*
X52523390Y38468509D01*
X52624879Y38409914D01*
X52626114Y38409201D01*
X52626115Y38409201D01*
X52626117Y38409200D01*
X52651040Y38402522D01*
X52740688Y38378501D01*
X52740689Y38378500D01*
X52740691Y38378500D01*
X52859311Y38378500D01*
X52859311Y38378501D01*
X52973886Y38409201D01*
X52973886Y38409202D01*
X52976546Y38409914D01*
X53032698Y38402522D01*
X53067177Y38357589D01*
X53067177Y38319284D01*
X53056720Y38280252D01*
X53049500Y38253308D01*
X53049500Y38134689D01*
X53067177Y38068718D01*
X53059785Y38012565D01*
X53014852Y37978087D01*
X52976546Y37978087D01*
X52859311Y38009500D01*
X52859309Y38009500D01*
X52740691Y38009500D01*
X52740689Y38009500D01*
X52626117Y37978801D01*
X52626112Y37978799D01*
X52523390Y37919492D01*
X52439508Y37835610D01*
X52380201Y37732888D01*
X52380199Y37732883D01*
X52349500Y37618312D01*
X52349500Y37499689D01*
X52380199Y37385118D01*
X52380201Y37385113D01*
X52439508Y37282391D01*
X52439509Y37282390D01*
X52439511Y37282387D01*
X52523387Y37198511D01*
X52523389Y37198510D01*
X52523390Y37198509D01*
X52603895Y37152029D01*
X52626114Y37139201D01*
X52626115Y37139201D01*
X52626117Y37139200D01*
X52671540Y37127029D01*
X52740688Y37108501D01*
X52740689Y37108500D01*
X52740691Y37108500D01*
X52859311Y37108500D01*
X52859311Y37108501D01*
X52928460Y37127029D01*
X52978571Y37140456D01*
X52979332Y37137615D01*
X53026667Y37137665D01*
X53066759Y37097660D01*
X53069901Y37050116D01*
X53050178Y36976508D01*
X53050178Y36857890D01*
X53059059Y36824747D01*
X53065945Y36799048D01*
X53058552Y36742895D01*
X53013619Y36708416D01*
X52975313Y36708417D01*
X52859311Y36739500D01*
X52859309Y36739500D01*
X52740691Y36739500D01*
X52740689Y36739500D01*
X52626117Y36708801D01*
X52626112Y36708799D01*
X52523390Y36649492D01*
X52439508Y36565610D01*
X52380201Y36462888D01*
X52380199Y36462883D01*
X52349500Y36348312D01*
X52349500Y36229689D01*
X52380199Y36115118D01*
X52380201Y36115113D01*
X52439508Y36012391D01*
X52439509Y36012390D01*
X52439511Y36012387D01*
X52523387Y35928511D01*
X52523389Y35928510D01*
X52523390Y35928509D01*
X52571903Y35900500D01*
X52626114Y35869201D01*
X52626115Y35869201D01*
X52626117Y35869200D01*
X52651040Y35862522D01*
X52740688Y35838501D01*
X52740689Y35838500D01*
X52740691Y35838500D01*
X52859311Y35838500D01*
X52859311Y35838501D01*
X52973886Y35869201D01*
X52973886Y35869202D01*
X52976546Y35869914D01*
X53032698Y35862522D01*
X53067177Y35817589D01*
X53067177Y35779284D01*
X53054041Y35730254D01*
X53049500Y35713308D01*
X53049500Y35594689D01*
X53067177Y35528718D01*
X53059785Y35472565D01*
X53014852Y35438087D01*
X52976546Y35438087D01*
X52859311Y35469500D01*
X52859309Y35469500D01*
X52740691Y35469500D01*
X52740689Y35469500D01*
X52626117Y35438801D01*
X52626112Y35438799D01*
X52523390Y35379492D01*
X52439508Y35295610D01*
X52380201Y35192888D01*
X52380199Y35192883D01*
X52349500Y35078312D01*
X52349500Y34959689D01*
X52380199Y34845118D01*
X52380201Y34845113D01*
X52439508Y34742391D01*
X52439509Y34742390D01*
X52439511Y34742387D01*
X52523387Y34658511D01*
X52523389Y34658510D01*
X52523390Y34658509D01*
X52624730Y34600000D01*
X52626114Y34599201D01*
X52626115Y34599201D01*
X52626117Y34599200D01*
X52652716Y34592073D01*
X52740688Y34568501D01*
X52740689Y34568500D01*
X52740691Y34568500D01*
X52859311Y34568500D01*
X52859311Y34568501D01*
X52947284Y34592073D01*
X53003436Y34584681D01*
X53037915Y34539748D01*
X53037916Y34501443D01*
X53030426Y34473490D01*
X53030426Y34354870D01*
X53055340Y34261890D01*
X53047948Y34205737D01*
X53003015Y34171259D01*
X52964710Y34171258D01*
X52859309Y34199500D01*
X52740691Y34199500D01*
X52740689Y34199500D01*
X52626117Y34168801D01*
X52626112Y34168799D01*
X52523390Y34109492D01*
X52439508Y34025610D01*
X52380201Y33922888D01*
X52380199Y33922883D01*
X52349500Y33808312D01*
X52349500Y33689689D01*
X52380199Y33575118D01*
X52380201Y33575113D01*
X52439508Y33472391D01*
X52439509Y33472390D01*
X52439511Y33472387D01*
X52523387Y33388511D01*
X52523389Y33388510D01*
X52523390Y33388509D01*
X52626112Y33329202D01*
X52626114Y33329201D01*
X52626115Y33329201D01*
X52626117Y33329200D01*
X52683402Y33313851D01*
X52740688Y33298501D01*
X52740689Y33298500D01*
X52740691Y33298500D01*
X52859311Y33298500D01*
X52859311Y33298501D01*
X52875779Y33302914D01*
X52887125Y33305953D01*
X52943277Y33298561D01*
X52977756Y33253628D01*
X52977757Y33215323D01*
X52967021Y33175254D01*
X52966500Y33173309D01*
X52966500Y33054691D01*
X52969630Y33043009D01*
X52994970Y32948439D01*
X52987577Y32892287D01*
X52942643Y32857808D01*
X52886491Y32865201D01*
X52843887Y32889799D01*
X52843882Y32889801D01*
X52729311Y32920500D01*
X52729309Y32920500D01*
X52610691Y32920500D01*
X52610689Y32920500D01*
X52496117Y32889801D01*
X52496112Y32889799D01*
X52393390Y32830492D01*
X52309508Y32746610D01*
X52250201Y32643888D01*
X52250199Y32643883D01*
X52219500Y32529312D01*
X49650500Y32529312D01*
X49650500Y41069456D01*
X49672173Y41121781D01*
X50872585Y42322194D01*
X50905756Y42341344D01*
X50923886Y42346201D01*
X51026613Y42405511D01*
X51110489Y42489387D01*
X51169799Y42592114D01*
X51200499Y42706689D01*
X51200500Y42706689D01*
X51200500Y42825311D01*
X51200499Y42825312D01*
X51169800Y42939883D01*
X51169798Y42939888D01*
X51110491Y43042610D01*
X51110490Y43042611D01*
X51110489Y43042613D01*
X51026613Y43126489D01*
X51026610Y43126491D01*
X51026609Y43126492D01*
X50923887Y43185799D01*
X50923882Y43185801D01*
X50809311Y43216500D01*
X50809309Y43216500D01*
X50690691Y43216500D01*
X50690689Y43216500D01*
X50576117Y43185801D01*
X50576112Y43185799D01*
X50473390Y43126492D01*
X50389508Y43042610D01*
X50330201Y42939888D01*
X50330201Y42939887D01*
X50325342Y42921755D01*
X50306190Y42888585D01*
X48929517Y41511910D01*
X48882525Y41430518D01*
X48876793Y41420588D01*
X48873571Y41408562D01*
X48849500Y41318727D01*
X47136500Y41318727D01*
X47136500Y41428309D01*
X47136500Y41428311D01*
X47136499Y41428312D01*
X47105800Y41542883D01*
X47105798Y41542888D01*
X47046491Y41645610D01*
X47046490Y41645611D01*
X47046489Y41645613D01*
X46962613Y41729489D01*
X46962610Y41729491D01*
X46962609Y41729492D01*
X46859887Y41788799D01*
X46859882Y41788801D01*
X46745311Y41819500D01*
X46745309Y41819500D01*
X46626691Y41819500D01*
X46626689Y41819500D01*
X46512117Y41788801D01*
X46512112Y41788799D01*
X46409390Y41729492D01*
X46381071Y41701173D01*
X46328746Y41679500D01*
X46278119Y41679500D01*
X46199154Y41658342D01*
X46199149Y41658340D01*
X46128347Y41617462D01*
X45818060Y41307174D01*
X45765734Y41285500D01*
X45393133Y41285500D01*
X45352021Y41297971D01*
X45328231Y41313867D01*
X45269748Y41325500D01*
X44430252Y41325500D01*
X44401010Y41319684D01*
X44371767Y41313867D01*
X44305449Y41269553D01*
X44305447Y41269551D01*
X44261133Y41203233D01*
X44256160Y41178231D01*
X44249500Y41144748D01*
X43650500Y41144748D01*
X43638867Y41203231D01*
X43594552Y41269552D01*
X43538248Y41307174D01*
X43528232Y41313867D01*
X43528233Y41313867D01*
X43498989Y41319684D01*
X43469748Y41325500D01*
X42630252Y41325500D01*
X42596202Y41318727D01*
X42571768Y41313867D01*
X42547979Y41297971D01*
X42506867Y41285500D01*
X42334266Y41285500D01*
X42281940Y41307174D01*
X41971652Y41617462D01*
X41900850Y41658340D01*
X41900845Y41658342D01*
X41821881Y41679500D01*
X41821879Y41679500D01*
X41821878Y41679500D01*
X25001266Y41679500D01*
X24948940Y41701174D01*
X22601652Y44048462D01*
X22530850Y44089340D01*
X22530845Y44089342D01*
X22451881Y44110500D01*
X22451879Y44110500D01*
X22451878Y44110500D01*
X19315439Y44110500D01*
X19263113Y44132174D01*
X19241439Y44184500D01*
X19250996Y44215375D01*
X19249017Y44216249D01*
X19297089Y44325125D01*
X19300000Y44350211D01*
X19300000Y44500000D01*
X16427001Y44500000D01*
X16427001Y44350208D01*
X16429908Y44325132D01*
X16429910Y44325126D01*
X16475213Y44222522D01*
X16525780Y44171955D01*
X16547454Y44119629D01*
X16538733Y44090872D01*
X16540922Y44089965D01*
X16538133Y44083233D01*
X16526500Y44024747D01*
X16526500Y43575254D01*
X16538133Y43516768D01*
X16586497Y43444389D01*
X16584430Y43443009D01*
X16602245Y43400000D01*
X16584430Y43356992D01*
X16586497Y43355611D01*
X16538133Y43283233D01*
X16526500Y43224747D01*
X16526500Y42775254D01*
X16538133Y42716768D01*
X16586497Y42644389D01*
X16584430Y42643009D01*
X16602245Y42600000D01*
X16584430Y42556992D01*
X16586497Y42555611D01*
X16538133Y42483233D01*
X16526500Y42424747D01*
X16526500Y41975254D01*
X16538133Y41916768D01*
X16586497Y41844389D01*
X16584430Y41843009D01*
X16602245Y41800000D01*
X16584430Y41756992D01*
X16586497Y41755611D01*
X16538133Y41683233D01*
X16533182Y41658342D01*
X16526500Y41624748D01*
X16526500Y41175252D01*
X16532568Y41144748D01*
X16538133Y41116768D01*
X16549266Y41100107D01*
X16573278Y41064171D01*
X16586497Y41044389D01*
X16584430Y41043009D01*
X16602245Y41000000D01*
X16584430Y40956992D01*
X16586497Y40955611D01*
X16582448Y40949553D01*
X16582448Y40949552D01*
X16582213Y40949200D01*
X16538133Y40883233D01*
X16538133Y40883231D01*
X16526500Y40824748D01*
X16526500Y40375252D01*
X16529703Y40359150D01*
X16538133Y40316768D01*
X16554349Y40292500D01*
X16582413Y40250500D01*
X16586497Y40244389D01*
X16584430Y40243009D01*
X16602245Y40200000D01*
X16584430Y40156992D01*
X16586497Y40155611D01*
X16582448Y40149553D01*
X16582448Y40149552D01*
X16576430Y40140546D01*
X16538133Y40083233D01*
X16538133Y40083231D01*
X16526500Y40024748D01*
X16526500Y39575252D01*
X16527064Y39572418D01*
X16538133Y39516768D01*
X16586497Y39444389D01*
X16584430Y39443009D01*
X16602245Y39400000D01*
X16584430Y39356992D01*
X16586497Y39355611D01*
X16538133Y39283233D01*
X16536167Y39273349D01*
X16526500Y39224748D01*
X16526500Y38775252D01*
X16527607Y38769689D01*
X16538133Y38716768D01*
X16559107Y38685379D01*
X16579330Y38655114D01*
X16586497Y38644389D01*
X16584430Y38643009D01*
X16602245Y38600000D01*
X16584430Y38556992D01*
X16586497Y38555611D01*
X16538133Y38483233D01*
X16526500Y38424747D01*
X16526500Y37975254D01*
X16538133Y37916767D01*
X16540923Y37910032D01*
X16537543Y37908633D01*
X16546026Y37865908D01*
X16525779Y37828046D01*
X16475214Y37777481D01*
X16429910Y37674876D01*
X16427000Y37649790D01*
X13572999Y37649790D01*
X13572999Y37649793D01*
X13570091Y37674869D01*
X13570089Y37674875D01*
X13524786Y37777479D01*
X13474219Y37828046D01*
X13452545Y37880372D01*
X13461275Y37909126D01*
X13459078Y37910036D01*
X13461866Y37916768D01*
X13461865Y37916768D01*
X13461867Y37916769D01*
X13473500Y37975252D01*
X13473500Y38424748D01*
X13461867Y38483231D01*
X13417552Y38549552D01*
X13417551Y38549553D01*
X13413503Y38555611D01*
X13415569Y38556992D01*
X13397755Y38600000D01*
X13415569Y38643009D01*
X13413503Y38644389D01*
X13420670Y38655114D01*
X13461867Y38716769D01*
X13473500Y38775252D01*
X13473500Y39224748D01*
X13461867Y39283231D01*
X13447151Y39305254D01*
X13427099Y39335264D01*
X13417552Y39349552D01*
X13417551Y39349553D01*
X13413503Y39355611D01*
X13415569Y39356992D01*
X13397755Y39400000D01*
X13415569Y39443009D01*
X13413503Y39444389D01*
X13429164Y39467826D01*
X13461867Y39516769D01*
X13473500Y39575252D01*
X13473500Y40024748D01*
X13461867Y40083231D01*
X13417552Y40149552D01*
X13417551Y40149553D01*
X13413503Y40155611D01*
X13415569Y40156992D01*
X13397755Y40200000D01*
X13415569Y40243009D01*
X13413503Y40244389D01*
X13417587Y40250500D01*
X13461867Y40316769D01*
X13473500Y40375252D01*
X13473500Y40824748D01*
X13461867Y40883231D01*
X13445393Y40907885D01*
X13429164Y40932174D01*
X13417552Y40949552D01*
X13417551Y40949553D01*
X13413503Y40955611D01*
X13415569Y40956992D01*
X13397755Y41000000D01*
X13415569Y41043009D01*
X13413503Y41044389D01*
X13426722Y41064171D01*
X13461867Y41116769D01*
X13473500Y41175252D01*
X13473500Y41624748D01*
X13461867Y41683231D01*
X13417552Y41749552D01*
X13417551Y41749553D01*
X13413503Y41755611D01*
X13415569Y41756992D01*
X13397755Y41800000D01*
X13415569Y41843009D01*
X13413503Y41844389D01*
X13429164Y41867826D01*
X13461867Y41916769D01*
X13473500Y41975252D01*
X13473500Y42424748D01*
X13461867Y42483231D01*
X13417552Y42549552D01*
X13417551Y42549553D01*
X13413503Y42555611D01*
X13415569Y42556992D01*
X13397755Y42600000D01*
X13415569Y42643009D01*
X13413503Y42644389D01*
X13429164Y42667826D01*
X13461867Y42716769D01*
X13473500Y42775252D01*
X13473500Y43224748D01*
X13461867Y43283231D01*
X13417552Y43349552D01*
X13417551Y43349553D01*
X13413503Y43355611D01*
X13415569Y43356992D01*
X13397755Y43400000D01*
X13415569Y43443009D01*
X13413503Y43444389D01*
X13429164Y43467826D01*
X13461867Y43516769D01*
X13473500Y43575252D01*
X13473500Y44024748D01*
X13461867Y44083231D01*
X13461866Y44083233D01*
X13461866Y44083234D01*
X13459077Y44089968D01*
X13462457Y44091369D01*
X13453971Y44134080D01*
X13474221Y44171956D01*
X13524785Y44222520D01*
X13570089Y44325125D01*
X13573000Y44350211D01*
X13573000Y44500000D01*
X10700001Y44500000D01*
X10700001Y44350208D01*
X10702908Y44325132D01*
X10702910Y44325126D01*
X10748213Y44222522D01*
X10798780Y44171955D01*
X10820454Y44119629D01*
X10811733Y44090872D01*
X10813922Y44089965D01*
X10811133Y44083233D01*
X10799500Y44024747D01*
X10799500Y43575254D01*
X10811133Y43516768D01*
X10859497Y43444389D01*
X10857430Y43443009D01*
X10875245Y43400000D01*
X10857430Y43356992D01*
X10859497Y43355611D01*
X10811133Y43283233D01*
X10799500Y43224747D01*
X10799500Y42775254D01*
X10811133Y42716768D01*
X10859497Y42644389D01*
X10857430Y42643009D01*
X10875245Y42600000D01*
X10857430Y42556992D01*
X10859497Y42555611D01*
X10811133Y42483233D01*
X10799500Y42424747D01*
X10799500Y41975254D01*
X10811133Y41916768D01*
X10859497Y41844389D01*
X10857430Y41843009D01*
X10875245Y41800000D01*
X10857430Y41756992D01*
X10859497Y41755611D01*
X10811133Y41683233D01*
X10806182Y41658342D01*
X10799500Y41624748D01*
X10799500Y41175252D01*
X10805568Y41144748D01*
X10811133Y41116768D01*
X10822266Y41100107D01*
X10846278Y41064171D01*
X10859497Y41044389D01*
X10857430Y41043009D01*
X10875245Y41000000D01*
X10857430Y40956992D01*
X10859497Y40955611D01*
X10855448Y40949553D01*
X10855448Y40949552D01*
X10855213Y40949200D01*
X10811133Y40883233D01*
X10811133Y40883231D01*
X10799500Y40824748D01*
X10799500Y40375252D01*
X10802703Y40359150D01*
X10811133Y40316768D01*
X10827349Y40292500D01*
X10855413Y40250500D01*
X10859497Y40244389D01*
X10857430Y40243009D01*
X10875245Y40200000D01*
X10857430Y40156992D01*
X10859497Y40155611D01*
X10855448Y40149553D01*
X10855448Y40149552D01*
X10849430Y40140546D01*
X10811133Y40083233D01*
X10811133Y40083231D01*
X10799500Y40024748D01*
X10799500Y39575252D01*
X10800064Y39572418D01*
X10811133Y39516768D01*
X10859497Y39444389D01*
X10857430Y39443009D01*
X10875245Y39400000D01*
X10857430Y39356992D01*
X10859497Y39355611D01*
X10811133Y39283233D01*
X10809167Y39273349D01*
X10799500Y39224748D01*
X10799500Y38775252D01*
X10800607Y38769689D01*
X10811133Y38716768D01*
X10832107Y38685379D01*
X10852330Y38655114D01*
X10859497Y38644389D01*
X10857430Y38643009D01*
X10875245Y38600000D01*
X10857430Y38556992D01*
X10859497Y38555611D01*
X10811133Y38483233D01*
X10799500Y38424747D01*
X10799500Y37975254D01*
X10811133Y37916767D01*
X10813923Y37910032D01*
X10810543Y37908633D01*
X10819026Y37865908D01*
X10798779Y37828046D01*
X10748214Y37777481D01*
X10702910Y37674876D01*
X10700000Y37649790D01*
X200500Y37649790D01*
X200500Y44849790D01*
X10700000Y44849790D01*
X10700000Y44700000D01*
X13572999Y44700000D01*
X13572999Y44849790D01*
X16427000Y44849790D01*
X16427000Y44700000D01*
X19299999Y44700000D01*
X19299999Y44849790D01*
X80700000Y44849790D01*
X80700000Y44700000D01*
X83572999Y44700000D01*
X83572999Y44849790D01*
X86427000Y44849790D01*
X86427000Y44700000D01*
X89299999Y44700000D01*
X89299999Y44849793D01*
X89297091Y44874869D01*
X89297089Y44874875D01*
X89251786Y44977479D01*
X89201219Y45028046D01*
X89179545Y45080372D01*
X89188275Y45109126D01*
X89186078Y45110036D01*
X89188866Y45116768D01*
X89188865Y45116768D01*
X89188867Y45116769D01*
X89200500Y45175252D01*
X89200500Y45624748D01*
X89188867Y45683231D01*
X89144552Y45749552D01*
X89144551Y45749553D01*
X89140503Y45755611D01*
X89142569Y45756992D01*
X89124755Y45800000D01*
X89142569Y45843009D01*
X89140503Y45844389D01*
X89188866Y45916768D01*
X89188865Y45916768D01*
X89188867Y45916769D01*
X89200500Y45975252D01*
X89200500Y46424748D01*
X89188867Y46483231D01*
X89144552Y46549552D01*
X89144551Y46549553D01*
X89140503Y46555611D01*
X89142569Y46556992D01*
X89124755Y46600000D01*
X89142569Y46643009D01*
X89140503Y46644389D01*
X89188866Y46716768D01*
X89188865Y46716768D01*
X89188867Y46716769D01*
X89200500Y46775252D01*
X89200500Y47224748D01*
X89188867Y47283231D01*
X89144552Y47349552D01*
X89144551Y47349553D01*
X89140503Y47355611D01*
X89142569Y47356992D01*
X89124755Y47400000D01*
X89142569Y47443009D01*
X89140503Y47444389D01*
X89188866Y47516768D01*
X89188865Y47516768D01*
X89188867Y47516769D01*
X89200500Y47575252D01*
X89200500Y48024748D01*
X89188867Y48083231D01*
X89144552Y48149552D01*
X89144551Y48149553D01*
X89140503Y48155611D01*
X89142569Y48156992D01*
X89124755Y48200000D01*
X89142569Y48243009D01*
X89140503Y48244389D01*
X89188866Y48316768D01*
X89188865Y48316768D01*
X89188867Y48316769D01*
X89200500Y48375252D01*
X89200500Y48824748D01*
X89188867Y48883231D01*
X89144552Y48949552D01*
X89144551Y48949553D01*
X89140503Y48955611D01*
X89142569Y48956992D01*
X89124755Y49000000D01*
X89142569Y49043009D01*
X89140503Y49044389D01*
X89188866Y49116768D01*
X89188865Y49116768D01*
X89188867Y49116769D01*
X89200500Y49175252D01*
X89200500Y49624748D01*
X89188867Y49683231D01*
X89144552Y49749552D01*
X89144551Y49749553D01*
X89140503Y49755611D01*
X89142569Y49756992D01*
X89124755Y49800000D01*
X89142569Y49843009D01*
X89140503Y49844389D01*
X89188866Y49916768D01*
X89188865Y49916768D01*
X89188867Y49916769D01*
X89200500Y49975252D01*
X89200500Y50424748D01*
X89188867Y50483231D01*
X89144552Y50549552D01*
X89144551Y50549553D01*
X89140503Y50555611D01*
X89142569Y50556992D01*
X89124755Y50600000D01*
X89142569Y50643009D01*
X89140503Y50644389D01*
X89188866Y50716768D01*
X89188865Y50716768D01*
X89188867Y50716769D01*
X89200500Y50775252D01*
X89200500Y51224748D01*
X89188867Y51283231D01*
X89188866Y51283233D01*
X89188866Y51283234D01*
X89186077Y51289968D01*
X89189457Y51291369D01*
X89180971Y51334080D01*
X89201221Y51371956D01*
X89251785Y51422520D01*
X89297089Y51525125D01*
X89300000Y51550211D01*
X89300000Y51700000D01*
X86427001Y51700000D01*
X86427001Y51550208D01*
X86429908Y51525132D01*
X86429910Y51525126D01*
X86475213Y51422522D01*
X86525780Y51371955D01*
X86547454Y51319629D01*
X86538733Y51290872D01*
X86540922Y51289965D01*
X86538133Y51283233D01*
X86526500Y51224747D01*
X86526500Y50775254D01*
X86538133Y50716768D01*
X86586497Y50644389D01*
X86584430Y50643009D01*
X86602245Y50600000D01*
X86584430Y50556992D01*
X86586497Y50555611D01*
X86538133Y50483233D01*
X86526500Y50424747D01*
X86526500Y49975254D01*
X86538133Y49916768D01*
X86586497Y49844389D01*
X86584430Y49843009D01*
X86602245Y49800000D01*
X86584430Y49756992D01*
X86586497Y49755611D01*
X86538133Y49683233D01*
X86526500Y49624747D01*
X86526500Y49175254D01*
X86538133Y49116768D01*
X86586497Y49044389D01*
X86584430Y49043009D01*
X86602245Y49000000D01*
X86584430Y48956992D01*
X86586497Y48955611D01*
X86538133Y48883233D01*
X86526500Y48824747D01*
X86526500Y48375254D01*
X86538133Y48316768D01*
X86586497Y48244389D01*
X86584430Y48243009D01*
X86602245Y48200000D01*
X86584430Y48156992D01*
X86586497Y48155611D01*
X86538133Y48083233D01*
X86526500Y48024747D01*
X86526500Y47575254D01*
X86538133Y47516768D01*
X86586497Y47444389D01*
X86584430Y47443009D01*
X86602245Y47400000D01*
X86584430Y47356992D01*
X86586497Y47355611D01*
X86538133Y47283233D01*
X86526500Y47224747D01*
X86526500Y46775254D01*
X86538133Y46716768D01*
X86586497Y46644389D01*
X86584430Y46643009D01*
X86602245Y46600000D01*
X86584430Y46556992D01*
X86586497Y46555611D01*
X86538133Y46483233D01*
X86526500Y46424747D01*
X86526500Y45975254D01*
X86538133Y45916768D01*
X86586497Y45844389D01*
X86584430Y45843009D01*
X86602245Y45800000D01*
X86584430Y45756992D01*
X86586497Y45755611D01*
X86538133Y45683233D01*
X86526500Y45624747D01*
X86526500Y45175254D01*
X86538133Y45116767D01*
X86540923Y45110032D01*
X86537543Y45108633D01*
X86546026Y45065908D01*
X86525779Y45028046D01*
X86475214Y44977481D01*
X86429910Y44874876D01*
X86427000Y44849790D01*
X83572999Y44849790D01*
X83572999Y44849793D01*
X83570091Y44874869D01*
X83570089Y44874875D01*
X83524786Y44977479D01*
X83474219Y45028046D01*
X83452545Y45080372D01*
X83461275Y45109126D01*
X83459078Y45110036D01*
X83461866Y45116768D01*
X83461865Y45116768D01*
X83461867Y45116769D01*
X83473500Y45175252D01*
X83473500Y45624748D01*
X83461867Y45683231D01*
X83417552Y45749552D01*
X83417551Y45749553D01*
X83413503Y45755611D01*
X83415569Y45756992D01*
X83397755Y45800000D01*
X83415569Y45843009D01*
X83413503Y45844389D01*
X83461866Y45916768D01*
X83461865Y45916768D01*
X83461867Y45916769D01*
X83473500Y45975252D01*
X83473500Y46424748D01*
X83461867Y46483231D01*
X83417552Y46549552D01*
X83417551Y46549553D01*
X83413503Y46555611D01*
X83415569Y46556992D01*
X83397755Y46600000D01*
X83415569Y46643009D01*
X83413503Y46644389D01*
X83461866Y46716768D01*
X83461865Y46716768D01*
X83461867Y46716769D01*
X83473500Y46775252D01*
X83473500Y47224748D01*
X83461867Y47283231D01*
X83417552Y47349552D01*
X83417551Y47349553D01*
X83413503Y47355611D01*
X83415569Y47356992D01*
X83397755Y47400000D01*
X83415569Y47443009D01*
X83413503Y47444389D01*
X83461866Y47516768D01*
X83461865Y47516768D01*
X83461867Y47516769D01*
X83473500Y47575252D01*
X83473500Y48024748D01*
X83461867Y48083231D01*
X83417552Y48149552D01*
X83417551Y48149553D01*
X83413503Y48155611D01*
X83415569Y48156992D01*
X83397755Y48200000D01*
X83415569Y48243009D01*
X83413503Y48244389D01*
X83461866Y48316768D01*
X83461865Y48316768D01*
X83461867Y48316769D01*
X83473500Y48375252D01*
X83473500Y48824748D01*
X83461867Y48883231D01*
X83417552Y48949552D01*
X83417551Y48949553D01*
X83413503Y48955611D01*
X83415569Y48956992D01*
X83397755Y49000000D01*
X83415569Y49043009D01*
X83413503Y49044389D01*
X83461866Y49116768D01*
X83461865Y49116768D01*
X83461867Y49116769D01*
X83473500Y49175252D01*
X83473500Y49624748D01*
X83461867Y49683231D01*
X83417552Y49749552D01*
X83417551Y49749553D01*
X83413503Y49755611D01*
X83415569Y49756992D01*
X83397755Y49800000D01*
X83415569Y49843009D01*
X83413503Y49844389D01*
X83461866Y49916768D01*
X83461865Y49916768D01*
X83461867Y49916769D01*
X83473500Y49975252D01*
X83473500Y50424748D01*
X83461867Y50483231D01*
X83417552Y50549552D01*
X83417551Y50549553D01*
X83413503Y50555611D01*
X83415569Y50556992D01*
X83397755Y50600000D01*
X83415569Y50643009D01*
X83413503Y50644389D01*
X83461866Y50716768D01*
X83461865Y50716768D01*
X83461867Y50716769D01*
X83473500Y50775252D01*
X83473500Y51224748D01*
X83461867Y51283231D01*
X83461866Y51283233D01*
X83461866Y51283234D01*
X83459077Y51289968D01*
X83462457Y51291369D01*
X83453971Y51334080D01*
X83474221Y51371956D01*
X83524785Y51422520D01*
X83570089Y51525125D01*
X83573000Y51550211D01*
X83573000Y51700000D01*
X80700001Y51700000D01*
X80700001Y51550208D01*
X80702908Y51525132D01*
X80702910Y51525126D01*
X80748213Y51422522D01*
X80798780Y51371955D01*
X80820454Y51319629D01*
X80811733Y51290872D01*
X80813922Y51289965D01*
X80811133Y51283233D01*
X80799500Y51224747D01*
X80799500Y50775254D01*
X80811133Y50716768D01*
X80859497Y50644389D01*
X80857430Y50643009D01*
X80875245Y50600000D01*
X80857430Y50556992D01*
X80859497Y50555611D01*
X80811133Y50483233D01*
X80799500Y50424747D01*
X80799500Y49975254D01*
X80811133Y49916768D01*
X80859497Y49844389D01*
X80857430Y49843009D01*
X80875245Y49800000D01*
X80857430Y49756992D01*
X80859497Y49755611D01*
X80811133Y49683233D01*
X80799500Y49624747D01*
X80799500Y49175254D01*
X80811133Y49116768D01*
X80859497Y49044389D01*
X80857430Y49043009D01*
X80875245Y49000000D01*
X80857430Y48956992D01*
X80859497Y48955611D01*
X80811133Y48883233D01*
X80799500Y48824747D01*
X80799500Y48375254D01*
X80811133Y48316768D01*
X80859497Y48244389D01*
X80857430Y48243009D01*
X80875245Y48200000D01*
X80857430Y48156992D01*
X80859497Y48155611D01*
X80811133Y48083233D01*
X80799500Y48024747D01*
X80799500Y47575254D01*
X80811133Y47516768D01*
X80859497Y47444389D01*
X80857430Y47443009D01*
X80875245Y47400000D01*
X80857430Y47356992D01*
X80859497Y47355611D01*
X80811133Y47283233D01*
X80799500Y47224747D01*
X80799500Y46775254D01*
X80811133Y46716768D01*
X80859497Y46644389D01*
X80857430Y46643009D01*
X80875245Y46600000D01*
X80857430Y46556992D01*
X80859497Y46555611D01*
X80811133Y46483233D01*
X80799500Y46424747D01*
X80799500Y45975254D01*
X80811133Y45916768D01*
X80859497Y45844389D01*
X80857430Y45843009D01*
X80875245Y45800000D01*
X80857430Y45756992D01*
X80859497Y45755611D01*
X80811133Y45683233D01*
X80799500Y45624747D01*
X80799500Y45175254D01*
X80811133Y45116767D01*
X80813923Y45110032D01*
X80810543Y45108633D01*
X80819026Y45065908D01*
X80798779Y45028046D01*
X80748214Y44977481D01*
X80702910Y44874876D01*
X80700000Y44849790D01*
X19299999Y44849790D01*
X19299999Y44849793D01*
X19297091Y44874869D01*
X19297089Y44874875D01*
X19251786Y44977479D01*
X19201219Y45028046D01*
X19179545Y45080372D01*
X19188275Y45109126D01*
X19186078Y45110036D01*
X19188866Y45116768D01*
X19188865Y45116768D01*
X19188867Y45116769D01*
X19200500Y45175252D01*
X19200500Y45624748D01*
X19188867Y45683231D01*
X19144552Y45749552D01*
X19144551Y45749553D01*
X19140503Y45755611D01*
X19142569Y45756992D01*
X19124755Y45800000D01*
X19142569Y45843009D01*
X19140503Y45844389D01*
X19188866Y45916768D01*
X19188865Y45916768D01*
X19188867Y45916769D01*
X19200500Y45975252D01*
X19200500Y46424748D01*
X19188867Y46483231D01*
X19144552Y46549552D01*
X19144551Y46549553D01*
X19140503Y46555611D01*
X19142569Y46556992D01*
X19124755Y46600000D01*
X19142569Y46643009D01*
X19140503Y46644389D01*
X19188866Y46716768D01*
X19188865Y46716768D01*
X19188867Y46716769D01*
X19200500Y46775252D01*
X19200500Y47224748D01*
X19188867Y47283231D01*
X19144552Y47349552D01*
X19144551Y47349553D01*
X19140503Y47355611D01*
X19142569Y47356992D01*
X19124755Y47400000D01*
X19142569Y47443009D01*
X19140503Y47444389D01*
X19188866Y47516768D01*
X19188865Y47516768D01*
X19188867Y47516769D01*
X19200500Y47575252D01*
X19200500Y48024748D01*
X19188867Y48083231D01*
X19144552Y48149552D01*
X19144551Y48149553D01*
X19140503Y48155611D01*
X19142569Y48156992D01*
X19124755Y48200000D01*
X19142569Y48243009D01*
X19140503Y48244389D01*
X19188866Y48316768D01*
X19188865Y48316768D01*
X19188867Y48316769D01*
X19200500Y48375252D01*
X19200500Y48824748D01*
X19188867Y48883231D01*
X19144552Y48949552D01*
X19144551Y48949553D01*
X19140503Y48955611D01*
X19142569Y48956992D01*
X19124755Y49000000D01*
X19142569Y49043009D01*
X19140503Y49044389D01*
X19188866Y49116768D01*
X19188865Y49116768D01*
X19188867Y49116769D01*
X19200500Y49175252D01*
X19200500Y49624748D01*
X19188867Y49683231D01*
X19144552Y49749552D01*
X19144551Y49749553D01*
X19140503Y49755611D01*
X19142569Y49756992D01*
X19124755Y49800000D01*
X19142569Y49843009D01*
X19140503Y49844389D01*
X19188866Y49916768D01*
X19188865Y49916768D01*
X19188867Y49916769D01*
X19200500Y49975252D01*
X19200500Y50424748D01*
X19188867Y50483231D01*
X19144552Y50549552D01*
X19144551Y50549553D01*
X19140503Y50555611D01*
X19142569Y50556992D01*
X19124755Y50600000D01*
X19142569Y50643009D01*
X19140503Y50644389D01*
X19188866Y50716768D01*
X19188865Y50716768D01*
X19188867Y50716769D01*
X19200500Y50775252D01*
X19200500Y51224748D01*
X19188867Y51283231D01*
X19188866Y51283233D01*
X19188866Y51283234D01*
X19186077Y51289968D01*
X19189457Y51291369D01*
X19180971Y51334080D01*
X19201221Y51371956D01*
X19251785Y51422520D01*
X19297089Y51525125D01*
X19300000Y51550211D01*
X19300000Y51700000D01*
X16427001Y51700000D01*
X16427001Y51550208D01*
X16429908Y51525132D01*
X16429910Y51525126D01*
X16475213Y51422522D01*
X16525780Y51371955D01*
X16547454Y51319629D01*
X16538733Y51290872D01*
X16540922Y51289965D01*
X16538133Y51283233D01*
X16526500Y51224747D01*
X16526500Y50775254D01*
X16538133Y50716768D01*
X16586497Y50644389D01*
X16584430Y50643009D01*
X16602245Y50600000D01*
X16584430Y50556992D01*
X16586497Y50555611D01*
X16538133Y50483233D01*
X16526500Y50424747D01*
X16526500Y49975254D01*
X16538133Y49916768D01*
X16586497Y49844389D01*
X16584430Y49843009D01*
X16602245Y49800000D01*
X16584430Y49756992D01*
X16586497Y49755611D01*
X16538133Y49683233D01*
X16526500Y49624747D01*
X16526500Y49175254D01*
X16538133Y49116768D01*
X16586497Y49044389D01*
X16584430Y49043009D01*
X16602245Y49000000D01*
X16584430Y48956992D01*
X16586497Y48955611D01*
X16538133Y48883233D01*
X16526500Y48824747D01*
X16526500Y48375254D01*
X16538133Y48316768D01*
X16586497Y48244389D01*
X16584430Y48243009D01*
X16602245Y48200000D01*
X16584430Y48156992D01*
X16586497Y48155611D01*
X16538133Y48083233D01*
X16526500Y48024747D01*
X16526500Y47575254D01*
X16538133Y47516768D01*
X16586497Y47444389D01*
X16584430Y47443009D01*
X16602245Y47400000D01*
X16584430Y47356992D01*
X16586497Y47355611D01*
X16538133Y47283233D01*
X16526500Y47224747D01*
X16526500Y46775254D01*
X16538133Y46716768D01*
X16586497Y46644389D01*
X16584430Y46643009D01*
X16602245Y46600000D01*
X16584430Y46556992D01*
X16586497Y46555611D01*
X16538133Y46483233D01*
X16526500Y46424747D01*
X16526500Y45975254D01*
X16538133Y45916768D01*
X16586497Y45844389D01*
X16584430Y45843009D01*
X16602245Y45800000D01*
X16584430Y45756992D01*
X16586497Y45755611D01*
X16538133Y45683233D01*
X16526500Y45624747D01*
X16526500Y45175254D01*
X16538133Y45116767D01*
X16540923Y45110032D01*
X16537543Y45108633D01*
X16546026Y45065908D01*
X16525779Y45028046D01*
X16475214Y44977481D01*
X16429910Y44874876D01*
X16427000Y44849790D01*
X13572999Y44849790D01*
X13572999Y44849793D01*
X13570091Y44874869D01*
X13570089Y44874875D01*
X13524786Y44977479D01*
X13474219Y45028046D01*
X13452545Y45080372D01*
X13461275Y45109126D01*
X13459078Y45110036D01*
X13461866Y45116768D01*
X13461865Y45116768D01*
X13461867Y45116769D01*
X13473500Y45175252D01*
X13473500Y45624748D01*
X13461867Y45683231D01*
X13417552Y45749552D01*
X13417551Y45749553D01*
X13413503Y45755611D01*
X13415569Y45756992D01*
X13397755Y45800000D01*
X13415569Y45843009D01*
X13413503Y45844389D01*
X13461866Y45916768D01*
X13461865Y45916768D01*
X13461867Y45916769D01*
X13473500Y45975252D01*
X13473500Y46424748D01*
X13461867Y46483231D01*
X13417552Y46549552D01*
X13417551Y46549553D01*
X13413503Y46555611D01*
X13415569Y46556992D01*
X13397755Y46600000D01*
X13415569Y46643009D01*
X13413503Y46644389D01*
X13461866Y46716768D01*
X13461865Y46716768D01*
X13461867Y46716769D01*
X13473500Y46775252D01*
X13473500Y47224748D01*
X13461867Y47283231D01*
X13417552Y47349552D01*
X13417551Y47349553D01*
X13413503Y47355611D01*
X13415569Y47356992D01*
X13397755Y47400000D01*
X13415569Y47443009D01*
X13413503Y47444389D01*
X13461866Y47516768D01*
X13461865Y47516768D01*
X13461867Y47516769D01*
X13473500Y47575252D01*
X13473500Y48024748D01*
X13461867Y48083231D01*
X13417552Y48149552D01*
X13417551Y48149553D01*
X13413503Y48155611D01*
X13415569Y48156992D01*
X13397755Y48200000D01*
X13415569Y48243009D01*
X13413503Y48244389D01*
X13461866Y48316768D01*
X13461865Y48316768D01*
X13461867Y48316769D01*
X13473500Y48375252D01*
X13473500Y48824748D01*
X13461867Y48883231D01*
X13417552Y48949552D01*
X13417551Y48949553D01*
X13413503Y48955611D01*
X13415569Y48956992D01*
X13397755Y49000000D01*
X13415569Y49043009D01*
X13413503Y49044389D01*
X13461866Y49116768D01*
X13461865Y49116768D01*
X13461867Y49116769D01*
X13473500Y49175252D01*
X13473500Y49624748D01*
X13461867Y49683231D01*
X13417552Y49749552D01*
X13417551Y49749553D01*
X13413503Y49755611D01*
X13415569Y49756992D01*
X13397755Y49800000D01*
X13415569Y49843009D01*
X13413503Y49844389D01*
X13461866Y49916768D01*
X13461865Y49916768D01*
X13461867Y49916769D01*
X13473500Y49975252D01*
X13473500Y50424748D01*
X13461867Y50483231D01*
X13417552Y50549552D01*
X13417551Y50549553D01*
X13413503Y50555611D01*
X13415569Y50556992D01*
X13397755Y50600000D01*
X13415569Y50643009D01*
X13413503Y50644389D01*
X13461866Y50716768D01*
X13461865Y50716768D01*
X13461867Y50716769D01*
X13473500Y50775252D01*
X13473500Y51224748D01*
X13461867Y51283231D01*
X13461866Y51283233D01*
X13461866Y51283234D01*
X13459077Y51289968D01*
X13462457Y51291369D01*
X13453971Y51334080D01*
X13474221Y51371956D01*
X13524785Y51422520D01*
X13570089Y51525125D01*
X13573000Y51550211D01*
X13573000Y51700000D01*
X10700001Y51700000D01*
X10700001Y51550208D01*
X10702908Y51525132D01*
X10702910Y51525126D01*
X10748213Y51422522D01*
X10798780Y51371955D01*
X10820454Y51319629D01*
X10811733Y51290872D01*
X10813922Y51289965D01*
X10811133Y51283233D01*
X10799500Y51224747D01*
X10799500Y50775254D01*
X10811133Y50716768D01*
X10859497Y50644389D01*
X10857430Y50643009D01*
X10875245Y50600000D01*
X10857430Y50556992D01*
X10859497Y50555611D01*
X10811133Y50483233D01*
X10799500Y50424747D01*
X10799500Y49975254D01*
X10811133Y49916768D01*
X10859497Y49844389D01*
X10857430Y49843009D01*
X10875245Y49800000D01*
X10857430Y49756992D01*
X10859497Y49755611D01*
X10811133Y49683233D01*
X10799500Y49624747D01*
X10799500Y49175254D01*
X10811133Y49116768D01*
X10859497Y49044389D01*
X10857430Y49043009D01*
X10875245Y49000000D01*
X10857430Y48956992D01*
X10859497Y48955611D01*
X10811133Y48883233D01*
X10799500Y48824747D01*
X10799500Y48375254D01*
X10811133Y48316768D01*
X10859497Y48244389D01*
X10857430Y48243009D01*
X10875245Y48200000D01*
X10857430Y48156992D01*
X10859497Y48155611D01*
X10811133Y48083233D01*
X10799500Y48024747D01*
X10799500Y47575254D01*
X10811133Y47516768D01*
X10859497Y47444389D01*
X10857430Y47443009D01*
X10875245Y47400000D01*
X10857430Y47356992D01*
X10859497Y47355611D01*
X10811133Y47283233D01*
X10799500Y47224747D01*
X10799500Y46775254D01*
X10811133Y46716768D01*
X10859497Y46644389D01*
X10857430Y46643009D01*
X10875245Y46600000D01*
X10857430Y46556992D01*
X10859497Y46555611D01*
X10811133Y46483233D01*
X10799500Y46424747D01*
X10799500Y45975254D01*
X10811133Y45916768D01*
X10859497Y45844389D01*
X10857430Y45843009D01*
X10875245Y45800000D01*
X10857430Y45756992D01*
X10859497Y45755611D01*
X10811133Y45683233D01*
X10799500Y45624747D01*
X10799500Y45175254D01*
X10811133Y45116767D01*
X10813923Y45110032D01*
X10810543Y45108633D01*
X10819026Y45065908D01*
X10798779Y45028046D01*
X10748214Y44977481D01*
X10702910Y44874876D01*
X10700000Y44849790D01*
X200500Y44849790D01*
X200500Y52049790D01*
X10700000Y52049790D01*
X10700000Y51900000D01*
X12036500Y51900000D01*
X12236500Y51900000D01*
X13572999Y51900000D01*
X13572999Y52049790D01*
X16427000Y52049790D01*
X16427000Y51900000D01*
X17763500Y51900000D01*
X17963500Y51900000D01*
X19299999Y51900000D01*
X19299999Y52049790D01*
X80700000Y52049790D01*
X80700000Y51900000D01*
X82036500Y51900000D01*
X82236500Y51900000D01*
X83572999Y51900000D01*
X83572999Y52049790D01*
X86427000Y52049790D01*
X86427000Y51900000D01*
X87763500Y51900000D01*
X87963500Y51900000D01*
X89299999Y51900000D01*
X89299999Y52049793D01*
X89297091Y52074869D01*
X89297089Y52074874D01*
X89255039Y52170110D01*
X89253731Y52226732D01*
X89255039Y52229890D01*
X89297089Y52325125D01*
X89300000Y52350211D01*
X89300000Y52500000D01*
X87963500Y52500000D01*
X87963500Y51900000D01*
X87763500Y51900000D01*
X87763500Y52500000D01*
X86427001Y52500000D01*
X86427001Y52350208D01*
X86429908Y52325132D01*
X86429910Y52325126D01*
X86471960Y52229891D01*
X86473268Y52173269D01*
X86471960Y52170111D01*
X86429910Y52074877D01*
X86427000Y52049790D01*
X83572999Y52049790D01*
X83572999Y52049793D01*
X83570091Y52074869D01*
X83570089Y52074874D01*
X83528039Y52170110D01*
X83526731Y52226732D01*
X83528039Y52229890D01*
X83570089Y52325125D01*
X83573000Y52350211D01*
X83573000Y52500000D01*
X82236500Y52500000D01*
X82236500Y51900000D01*
X82036500Y51900000D01*
X82036500Y52500000D01*
X80700001Y52500000D01*
X80700001Y52350208D01*
X80702908Y52325132D01*
X80702910Y52325126D01*
X80744960Y52229891D01*
X80746268Y52173269D01*
X80744960Y52170111D01*
X80702910Y52074877D01*
X80700000Y52049790D01*
X19299999Y52049790D01*
X19299999Y52049793D01*
X19297091Y52074869D01*
X19297089Y52074874D01*
X19255039Y52170110D01*
X19253731Y52226732D01*
X19255039Y52229890D01*
X19297089Y52325125D01*
X19300000Y52350211D01*
X19300000Y52500000D01*
X17963500Y52500000D01*
X17963500Y51900000D01*
X17763500Y51900000D01*
X17763500Y52500000D01*
X16427001Y52500000D01*
X16427001Y52350208D01*
X16429908Y52325132D01*
X16429910Y52325126D01*
X16471960Y52229891D01*
X16473268Y52173269D01*
X16471960Y52170111D01*
X16429910Y52074877D01*
X16427000Y52049790D01*
X13572999Y52049790D01*
X13572999Y52049793D01*
X13570091Y52074869D01*
X13570089Y52074874D01*
X13528039Y52170110D01*
X13526731Y52226732D01*
X13528039Y52229890D01*
X13570089Y52325125D01*
X13573000Y52350211D01*
X13573000Y52500000D01*
X12236500Y52500000D01*
X12236500Y51900000D01*
X12036500Y51900000D01*
X12036500Y52500000D01*
X10700001Y52500000D01*
X10700001Y52350208D01*
X10702908Y52325132D01*
X10702910Y52325126D01*
X10744960Y52229891D01*
X10746268Y52173269D01*
X10744960Y52170111D01*
X10702910Y52074877D01*
X10700000Y52049790D01*
X200500Y52049790D01*
X200500Y52849790D01*
X10700000Y52849790D01*
X10700000Y52700000D01*
X12036500Y52700000D01*
X12236500Y52700000D01*
X13572999Y52700000D01*
X13572999Y52849790D01*
X16427000Y52849790D01*
X16427000Y52700000D01*
X17763500Y52700000D01*
X17963500Y52700000D01*
X19299999Y52700000D01*
X19299999Y52849790D01*
X80700000Y52849790D01*
X80700000Y52700000D01*
X82036500Y52700000D01*
X82236500Y52700000D01*
X83572999Y52700000D01*
X83572999Y52849790D01*
X86427000Y52849790D01*
X86427000Y52700000D01*
X87763500Y52700000D01*
X87963500Y52700000D01*
X89299999Y52700000D01*
X89299999Y52849793D01*
X89297091Y52874869D01*
X89297089Y52874875D01*
X89251786Y52977479D01*
X89172478Y53056787D01*
X89069875Y53102090D01*
X89069876Y53102090D01*
X89044789Y53105000D01*
X87963500Y53105000D01*
X87963500Y52700000D01*
X87763500Y52700000D01*
X87763500Y53105000D01*
X86682207Y53105000D01*
X86657131Y53102092D01*
X86657125Y53102090D01*
X86554521Y53056787D01*
X86475213Y52977479D01*
X86429910Y52874876D01*
X86427000Y52849790D01*
X83572999Y52849790D01*
X83572999Y52849793D01*
X83570091Y52874869D01*
X83570089Y52874875D01*
X83524786Y52977479D01*
X83445478Y53056787D01*
X83342875Y53102090D01*
X83342876Y53102090D01*
X83317789Y53105000D01*
X82236500Y53105000D01*
X82236500Y52700000D01*
X82036500Y52700000D01*
X82036500Y53105000D01*
X80955207Y53105000D01*
X80930131Y53102092D01*
X80930125Y53102090D01*
X80827521Y53056787D01*
X80748213Y52977479D01*
X80702910Y52874876D01*
X80700000Y52849790D01*
X19299999Y52849790D01*
X19299999Y52849793D01*
X19297091Y52874869D01*
X19297089Y52874875D01*
X19251786Y52977479D01*
X19172478Y53056787D01*
X19069875Y53102090D01*
X19069876Y53102090D01*
X19044789Y53105000D01*
X17963500Y53105000D01*
X17963500Y52700000D01*
X17763500Y52700000D01*
X17763500Y53105000D01*
X16682207Y53105000D01*
X16657131Y53102092D01*
X16657125Y53102090D01*
X16554521Y53056787D01*
X16475213Y52977479D01*
X16429910Y52874876D01*
X16427000Y52849790D01*
X13572999Y52849790D01*
X13572999Y52849793D01*
X13570091Y52874869D01*
X13570089Y52874875D01*
X13524786Y52977479D01*
X13445478Y53056787D01*
X13342875Y53102090D01*
X13342876Y53102090D01*
X13317789Y53105000D01*
X12236500Y53105000D01*
X12236500Y52700000D01*
X12036500Y52700000D01*
X12036500Y53105000D01*
X10955207Y53105000D01*
X10930131Y53102092D01*
X10930125Y53102090D01*
X10827521Y53056787D01*
X10748213Y52977479D01*
X10702910Y52874876D01*
X10700000Y52849790D01*
X200500Y52849790D01*
X200500Y55134978D01*
X11619500Y55134978D01*
X11619500Y54995023D01*
X11646802Y54857762D01*
X11646805Y54857751D01*
X11700362Y54728453D01*
X11700363Y54728452D01*
X11778118Y54612083D01*
X11877083Y54513118D01*
X11993452Y54435363D01*
X12122755Y54381804D01*
X12260022Y54354500D01*
X12260023Y54354500D01*
X12399977Y54354500D01*
X12399978Y54354500D01*
X12537245Y54381804D01*
X12666548Y54435363D01*
X12782917Y54513118D01*
X12881882Y54612083D01*
X12959637Y54728452D01*
X13013196Y54857755D01*
X13040500Y54995022D01*
X13040500Y55134978D01*
X81619500Y55134978D01*
X81619500Y54995023D01*
X81646802Y54857762D01*
X81646805Y54857751D01*
X81700362Y54728453D01*
X81700363Y54728452D01*
X81778118Y54612083D01*
X81877083Y54513118D01*
X81993452Y54435363D01*
X82122755Y54381804D01*
X82260022Y54354500D01*
X82260023Y54354500D01*
X82399977Y54354500D01*
X82399978Y54354500D01*
X82537245Y54381804D01*
X82666548Y54435363D01*
X82782917Y54513118D01*
X82881882Y54612083D01*
X82959637Y54728452D01*
X83013196Y54857755D01*
X83040500Y54995022D01*
X83040500Y55134978D01*
X83013196Y55272245D01*
X82959637Y55401548D01*
X82881882Y55517917D01*
X82782917Y55616882D01*
X82666548Y55694637D01*
X82666549Y55694637D01*
X82666547Y55694638D01*
X82537249Y55748195D01*
X82537238Y55748198D01*
X82433829Y55768767D01*
X82399978Y55775500D01*
X82260022Y55775500D01*
X82232867Y55770099D01*
X82122761Y55748198D01*
X82122750Y55748195D01*
X81993452Y55694638D01*
X81877083Y55616883D01*
X81877082Y55616881D01*
X81778119Y55517918D01*
X81778117Y55517917D01*
X81700362Y55401548D01*
X81646805Y55272250D01*
X81646802Y55272239D01*
X81619500Y55134978D01*
X13040500Y55134978D01*
X13013196Y55272245D01*
X12959637Y55401548D01*
X12881882Y55517917D01*
X12782917Y55616882D01*
X12666548Y55694637D01*
X12666549Y55694637D01*
X12666547Y55694638D01*
X12537249Y55748195D01*
X12537238Y55748198D01*
X12433829Y55768767D01*
X12399978Y55775500D01*
X12260022Y55775500D01*
X12232867Y55770099D01*
X12122761Y55748198D01*
X12122750Y55748195D01*
X11993452Y55694638D01*
X11877083Y55616883D01*
X11877082Y55616881D01*
X11778119Y55517918D01*
X11778117Y55517917D01*
X11700362Y55401548D01*
X11646805Y55272250D01*
X11646802Y55272239D01*
X11619500Y55134978D01*
X200500Y55134978D01*
X200500Y56997917D01*
X200616Y57002066D01*
X202740Y57039882D01*
X217870Y57309312D01*
X218800Y57317550D01*
X269994Y57618860D01*
X271833Y57626920D01*
X356453Y57920639D01*
X359183Y57928442D01*
X476150Y58210825D01*
X479743Y58218287D01*
X627590Y58485796D01*
X631991Y58492801D01*
X808875Y58742096D01*
X814020Y58748547D01*
X1017690Y58976452D01*
X1023553Y58982314D01*
X1251453Y59185980D01*
X1257904Y59191125D01*
X1507199Y59368009D01*
X1514204Y59372410D01*
X1781713Y59520257D01*
X1789175Y59523850D01*
X2071558Y59640817D01*
X2079361Y59643547D01*
X2373080Y59728167D01*
X2381140Y59730006D01*
X2682458Y59781201D01*
X2690688Y59782130D01*
X2997934Y59799385D01*
X3002083Y59799500D01*
X3039882Y59799500D01*
X96960118Y59799500D01*
X96997917Y59799500D01*
X97002065Y59799385D01*
G37*
%TD.AperFunction*%
%TD*%
M02*
