%TF.GenerationSoftware,KiCad,Pcbnew,9.0.6*%
%TF.CreationDate,2026-04-20T13:32:16-04:00*%
%TF.ProjectId,ephys-test-module-32,65706879-732d-4746-9573-742d6d6f6475,B*%
%TF.SameCoordinates,PX66ff300PY82a7440*%
%TF.FileFunction,Drillmap*%
%TF.FilePolarity,Positive*%
%FSLAX45Y45*%
G04 Gerber Fmt 4.5, Leading zero omitted, Abs format (unit mm)*
G04 Created by KiCad (PCBNEW 9.0.6) date 2026-04-20 13:32:16*
%MOMM*%
%LPD*%
G01*
G04 APERTURE LIST*
%ADD10C,0.050000*%
%ADD11C,0.200000*%
%ADD12C,0.100000*%
G04 APERTURE END LIST*
D10*
X9700000Y0D02*
X300000Y0D01*
X0Y300000D02*
X0Y5700000D01*
X300000Y0D02*
G75*
G02*
X0Y300000I0J300000D01*
G01*
X0Y5700000D02*
G75*
G02*
X300000Y6000000I300000J0D01*
G01*
X9700000Y6000000D02*
G75*
G02*
X10000000Y5700000I0J-300000D01*
G01*
X10000000Y300000D02*
G75*
G02*
X9700000Y0I-300000J0D01*
G01*
X300000Y6000000D02*
X9700000Y6000000D01*
X10000000Y5700000D02*
X10000000Y300000D01*
D11*
D12*
X225000Y302500D02*
X245000Y282500D01*
X245000Y302500D02*
X225000Y282500D01*
X332500Y1772500D02*
X352500Y1752500D01*
X352500Y1772500D02*
X332500Y1752500D01*
X500000Y4270000D02*
X520000Y4250000D01*
X520000Y4270000D02*
X500000Y4250000D01*
X572500Y3152500D02*
X592500Y3132500D01*
X592500Y3152500D02*
X572500Y3132500D01*
X663000Y5671000D02*
X683000Y5651000D01*
X683000Y5671000D02*
X663000Y5651000D01*
X1000000Y2230000D02*
X1020000Y2210000D01*
X1020000Y2230000D02*
X1000000Y2210000D01*
X1160000Y1340000D02*
X1180000Y1320000D01*
X1180000Y1340000D02*
X1160000Y1320000D01*
X1160000Y1290000D02*
X1180000Y1270000D01*
X1180000Y1290000D02*
X1160000Y1270000D01*
X1202500Y1587500D02*
X1222500Y1567500D01*
X1222500Y1587500D02*
X1202500Y1567500D01*
X1381250Y1766250D02*
X1401250Y1746250D01*
X1401250Y1766250D02*
X1381250Y1746250D01*
X1430000Y1815000D02*
X1450000Y1795000D01*
X1450000Y1815000D02*
X1430000Y1795000D01*
X1445500Y3524600D02*
X1465500Y3504600D01*
X1465500Y3524600D02*
X1445500Y3504600D01*
X1471000Y5074000D02*
X1491000Y5054000D01*
X1491000Y5074000D02*
X1471000Y5054000D01*
X1699500Y1911700D02*
X1719500Y1891700D01*
X1719500Y1911700D02*
X1699500Y1891700D01*
X1699500Y1543400D02*
X1719500Y1523400D01*
X1719500Y1543400D02*
X1699500Y1523400D01*
X1960000Y2170000D02*
X1980000Y2150000D01*
X1980000Y2170000D02*
X1960000Y2150000D01*
X2090000Y4470000D02*
X2110000Y4450000D01*
X2110000Y4470000D02*
X2090000Y4450000D01*
X2090000Y3010000D02*
X2110000Y2990000D01*
X2110000Y3010000D02*
X2090000Y2990000D01*
X2550000Y2010000D02*
X2570000Y1990000D01*
X2570000Y2010000D02*
X2550000Y1990000D01*
X2690000Y5630000D02*
X2710000Y5610000D01*
X2710000Y5630000D02*
X2690000Y5610000D01*
X2915000Y207500D02*
X2935000Y187500D01*
X2935000Y207500D02*
X2915000Y187500D01*
X3060000Y3030000D02*
X3080000Y3010000D01*
X3080000Y3030000D02*
X3060000Y3010000D01*
X3330000Y4460000D02*
X3350000Y4440000D01*
X3350000Y4460000D02*
X3330000Y4440000D01*
X3655000Y1315000D02*
X3675000Y1295000D01*
X3675000Y1315000D02*
X3655000Y1295000D01*
X4000000Y2420000D02*
X4020000Y2400000D01*
X4020000Y2420000D02*
X4000000Y2400000D01*
X4030000Y5600000D02*
X4050000Y5580000D01*
X4050000Y5600000D02*
X4030000Y5580000D01*
X4317500Y100000D02*
X4337500Y80000D01*
X4337500Y100000D02*
X4317500Y80000D01*
X4530000Y4520000D02*
X4550000Y4500000D01*
X4550000Y4520000D02*
X4530000Y4500000D01*
X4645900Y3892900D02*
X4665900Y3872900D01*
X4665900Y3892900D02*
X4645900Y3872900D01*
X4645900Y3762500D02*
X4665900Y3742500D01*
X4665900Y3762500D02*
X4645900Y3742500D01*
X4645900Y3638900D02*
X4665900Y3618900D01*
X4665900Y3638900D02*
X4645900Y3618900D01*
X4645900Y3511900D02*
X4665900Y3491900D01*
X4665900Y3511900D02*
X4645900Y3491900D01*
X4645900Y3384900D02*
X4665900Y3364900D01*
X4665900Y3384900D02*
X4645900Y3364900D01*
X4645900Y3257900D02*
X4665900Y3237900D01*
X4665900Y3257900D02*
X4645900Y3237900D01*
X4654200Y4019900D02*
X4674200Y3999900D01*
X4674200Y4019900D02*
X4654200Y3999900D01*
X4658600Y4146900D02*
X4678600Y4126900D01*
X4678600Y4146900D02*
X4658600Y4126900D01*
X4715900Y3956400D02*
X4735900Y3936400D01*
X4735900Y3956400D02*
X4715900Y3936400D01*
X4715900Y3829400D02*
X4735900Y3809400D01*
X4735900Y3829400D02*
X4715900Y3809400D01*
X4715900Y3702400D02*
X4735900Y3682400D01*
X4735900Y3702400D02*
X4715900Y3682400D01*
X4715900Y3575400D02*
X4735900Y3555400D01*
X4735900Y3575400D02*
X4715900Y3555400D01*
X4715900Y3448400D02*
X4735900Y3428400D01*
X4735900Y3448400D02*
X4715900Y3428400D01*
X4715900Y3321400D02*
X4735900Y3301400D01*
X4735900Y3321400D02*
X4715900Y3301400D01*
X4715900Y3194400D02*
X4735900Y3174400D01*
X4735900Y3194400D02*
X4715900Y3174400D01*
X4728900Y4084300D02*
X4748900Y4064300D01*
X4748900Y4084300D02*
X4728900Y4064300D01*
X4900000Y4305000D02*
X4920000Y4285000D01*
X4920000Y4305000D02*
X4900000Y4285000D01*
X4935000Y3020000D02*
X4955000Y3000000D01*
X4955000Y3020000D02*
X4935000Y3000000D01*
X5065000Y4286600D02*
X5085000Y4266600D01*
X5085000Y4286600D02*
X5065000Y4266600D01*
X5065000Y3054700D02*
X5085000Y3034700D01*
X5085000Y3054700D02*
X5065000Y3034700D01*
X5130000Y2390000D02*
X5150000Y2370000D01*
X5150000Y2390000D02*
X5130000Y2370000D01*
X5257000Y3257000D02*
X5277000Y3237000D01*
X5277000Y3257000D02*
X5257000Y3237000D01*
X5270000Y4146900D02*
X5290000Y4126900D01*
X5290000Y4146900D02*
X5270000Y4126900D01*
X5270000Y4019900D02*
X5290000Y3999900D01*
X5290000Y4019900D02*
X5270000Y3999900D01*
X5270000Y3892900D02*
X5290000Y3872900D01*
X5290000Y3892900D02*
X5270000Y3872900D01*
X5270000Y3765900D02*
X5290000Y3745900D01*
X5290000Y3765900D02*
X5270000Y3745900D01*
X5270000Y3638900D02*
X5290000Y3618900D01*
X5290000Y3638900D02*
X5270000Y3618900D01*
X5270000Y3511900D02*
X5290000Y3491900D01*
X5290000Y3511900D02*
X5270000Y3491900D01*
X5270000Y3384900D02*
X5290000Y3364900D01*
X5290000Y3384900D02*
X5270000Y3364900D01*
X5331700Y3321400D02*
X5351700Y3301400D01*
X5351700Y3321400D02*
X5331700Y3301400D01*
X5331889Y3191907D02*
X5351889Y3171907D01*
X5351889Y3191907D02*
X5331889Y3171907D01*
X5336161Y3947500D02*
X5356161Y3927500D01*
X5356161Y3947500D02*
X5336161Y3927500D01*
X5338093Y3451418D02*
X5358093Y3431418D01*
X5358093Y3451418D02*
X5338093Y3431418D01*
X5340000Y4083400D02*
X5360000Y4063400D01*
X5360000Y4083400D02*
X5340000Y4063400D01*
X5340000Y3829400D02*
X5360000Y3809400D01*
X5360000Y3829400D02*
X5340000Y3809400D01*
X5340000Y3575400D02*
X5360000Y3555400D01*
X5360000Y3575400D02*
X5340000Y3555400D01*
X5340068Y3701720D02*
X5360068Y3681720D01*
X5360068Y3701720D02*
X5340068Y3681720D01*
X5380000Y4460000D02*
X5400000Y4440000D01*
X5400000Y4460000D02*
X5380000Y4440000D01*
X5837500Y2952500D02*
X5857500Y2932500D01*
X5857500Y2952500D02*
X5837500Y2932500D01*
X6355000Y1280000D02*
X6375000Y1260000D01*
X6375000Y1280000D02*
X6355000Y1260000D01*
X6405000Y2070000D02*
X6425000Y2050000D01*
X6425000Y2070000D02*
X6405000Y2050000D01*
X6596744Y5687835D02*
X6616744Y5667835D01*
X6616744Y5687835D02*
X6596744Y5667835D01*
X6640000Y4470000D02*
X6660000Y4450000D01*
X6660000Y4470000D02*
X6640000Y4450000D01*
X6720000Y3030000D02*
X6740000Y3010000D01*
X6740000Y3030000D02*
X6720000Y3010000D01*
X6797500Y135000D02*
X6817500Y115000D01*
X6817500Y135000D02*
X6797500Y115000D01*
X7635000Y1900000D02*
X7655000Y1880000D01*
X7655000Y1900000D02*
X7635000Y1880000D01*
X7680000Y5690000D02*
X7700000Y5670000D01*
X7700000Y5690000D02*
X7680000Y5670000D01*
X7940000Y3030000D02*
X7960000Y3010000D01*
X7960000Y3030000D02*
X7940000Y3010000D01*
X7973300Y5213700D02*
X7993300Y5193700D01*
X7993300Y5213700D02*
X7973300Y5193700D01*
X7975000Y2310000D02*
X7995000Y2290000D01*
X7995000Y2310000D02*
X7975000Y2290000D01*
X8205000Y1630000D02*
X8225000Y1610000D01*
X8225000Y1630000D02*
X8205000Y1610000D01*
X8481300Y4451700D02*
X8501300Y4431700D01*
X8501300Y4451700D02*
X8481300Y4431700D01*
X8494000Y3740500D02*
X8514000Y3720500D01*
X8514000Y3740500D02*
X8494000Y3720500D01*
X9040100Y5226400D02*
X9060100Y5206400D01*
X9060100Y5226400D02*
X9040100Y5206400D01*
X9260000Y1790000D02*
X9280000Y1770000D01*
X9280000Y1790000D02*
X9260000Y1770000D01*
X9380000Y235000D02*
X9400000Y215000D01*
X9400000Y235000D02*
X9380000Y215000D01*
X9480000Y4600000D02*
X9500000Y4580000D01*
X9500000Y4600000D02*
X9480000Y4580000D01*
X9490000Y5620000D02*
X9510000Y5600000D01*
X9510000Y5620000D02*
X9490000Y5600000D01*
X9510000Y2960000D02*
X9530000Y2940000D01*
X9530000Y2960000D02*
X9510000Y2940000D01*
X9850000Y1245000D02*
X9870000Y1225000D01*
X9870000Y1245000D02*
X9850000Y1225000D01*
D11*
X258277Y-313984D02*
X258277Y-113984D01*
X258277Y-113984D02*
X305896Y-113984D01*
X305896Y-113984D02*
X334467Y-123508D01*
X334467Y-123508D02*
X353515Y-142555D01*
X353515Y-142555D02*
X363039Y-161603D01*
X363039Y-161603D02*
X372562Y-199698D01*
X372562Y-199698D02*
X372562Y-228269D01*
X372562Y-228269D02*
X363039Y-266365D01*
X363039Y-266365D02*
X353515Y-285412D01*
X353515Y-285412D02*
X334467Y-304460D01*
X334467Y-304460D02*
X305896Y-313984D01*
X305896Y-313984D02*
X258277Y-313984D01*
X458277Y-313984D02*
X458277Y-180650D01*
X458277Y-218746D02*
X467801Y-199698D01*
X467801Y-199698D02*
X477324Y-190174D01*
X477324Y-190174D02*
X496372Y-180650D01*
X496372Y-180650D02*
X515420Y-180650D01*
X582086Y-313984D02*
X582086Y-180650D01*
X582086Y-113984D02*
X572563Y-123508D01*
X572563Y-123508D02*
X582086Y-133031D01*
X582086Y-133031D02*
X591610Y-123508D01*
X591610Y-123508D02*
X582086Y-113984D01*
X582086Y-113984D02*
X582086Y-133031D01*
X705896Y-313984D02*
X686848Y-304460D01*
X686848Y-304460D02*
X677324Y-285412D01*
X677324Y-285412D02*
X677324Y-113984D01*
X810658Y-313984D02*
X791610Y-304460D01*
X791610Y-304460D02*
X782086Y-285412D01*
X782086Y-285412D02*
X782086Y-113984D01*
X1039229Y-313984D02*
X1039229Y-113984D01*
X1039229Y-113984D02*
X1105896Y-256841D01*
X1105896Y-256841D02*
X1172563Y-113984D01*
X1172563Y-113984D02*
X1172563Y-313984D01*
X1353515Y-313984D02*
X1353515Y-209222D01*
X1353515Y-209222D02*
X1343991Y-190174D01*
X1343991Y-190174D02*
X1324944Y-180650D01*
X1324944Y-180650D02*
X1286848Y-180650D01*
X1286848Y-180650D02*
X1267801Y-190174D01*
X1353515Y-304460D02*
X1334467Y-313984D01*
X1334467Y-313984D02*
X1286848Y-313984D01*
X1286848Y-313984D02*
X1267801Y-304460D01*
X1267801Y-304460D02*
X1258277Y-285412D01*
X1258277Y-285412D02*
X1258277Y-266365D01*
X1258277Y-266365D02*
X1267801Y-247317D01*
X1267801Y-247317D02*
X1286848Y-237793D01*
X1286848Y-237793D02*
X1334467Y-237793D01*
X1334467Y-237793D02*
X1353515Y-228269D01*
X1448753Y-180650D02*
X1448753Y-380650D01*
X1448753Y-190174D02*
X1467801Y-180650D01*
X1467801Y-180650D02*
X1505896Y-180650D01*
X1505896Y-180650D02*
X1524943Y-190174D01*
X1524943Y-190174D02*
X1534467Y-199698D01*
X1534467Y-199698D02*
X1543991Y-218746D01*
X1543991Y-218746D02*
X1543991Y-275889D01*
X1543991Y-275889D02*
X1534467Y-294936D01*
X1534467Y-294936D02*
X1524943Y-304460D01*
X1524943Y-304460D02*
X1505896Y-313984D01*
X1505896Y-313984D02*
X1467801Y-313984D01*
X1467801Y-313984D02*
X1448753Y-304460D01*
X1629705Y-294936D02*
X1639229Y-304460D01*
X1639229Y-304460D02*
X1629705Y-313984D01*
X1629705Y-313984D02*
X1620182Y-304460D01*
X1620182Y-304460D02*
X1629705Y-294936D01*
X1629705Y-294936D02*
X1629705Y-313984D01*
X1629705Y-190174D02*
X1639229Y-199698D01*
X1639229Y-199698D02*
X1629705Y-209222D01*
X1629705Y-209222D02*
X1620182Y-199698D01*
X1620182Y-199698D02*
X1629705Y-190174D01*
X1629705Y-190174D02*
X1629705Y-209222D01*
D12*
X-22500Y-632500D02*
X-2500Y-652500D01*
X-2500Y-632500D02*
X-22500Y-652500D01*
D11*
X296372Y-533984D02*
X315420Y-533984D01*
X315420Y-533984D02*
X334467Y-543508D01*
X334467Y-543508D02*
X343991Y-553031D01*
X343991Y-553031D02*
X353515Y-572079D01*
X353515Y-572079D02*
X363039Y-610174D01*
X363039Y-610174D02*
X363039Y-657793D01*
X363039Y-657793D02*
X353515Y-695889D01*
X353515Y-695889D02*
X343991Y-714936D01*
X343991Y-714936D02*
X334467Y-724460D01*
X334467Y-724460D02*
X315420Y-733984D01*
X315420Y-733984D02*
X296372Y-733984D01*
X296372Y-733984D02*
X277324Y-724460D01*
X277324Y-724460D02*
X267801Y-714936D01*
X267801Y-714936D02*
X258277Y-695889D01*
X258277Y-695889D02*
X248753Y-657793D01*
X248753Y-657793D02*
X248753Y-610174D01*
X248753Y-610174D02*
X258277Y-572079D01*
X258277Y-572079D02*
X267801Y-553031D01*
X267801Y-553031D02*
X277324Y-543508D01*
X277324Y-543508D02*
X296372Y-533984D01*
X448753Y-714936D02*
X458277Y-724460D01*
X458277Y-724460D02*
X448753Y-733984D01*
X448753Y-733984D02*
X439229Y-724460D01*
X439229Y-724460D02*
X448753Y-714936D01*
X448753Y-714936D02*
X448753Y-733984D01*
X534467Y-553031D02*
X543991Y-543508D01*
X543991Y-543508D02*
X563039Y-533984D01*
X563039Y-533984D02*
X610658Y-533984D01*
X610658Y-533984D02*
X629705Y-543508D01*
X629705Y-543508D02*
X639229Y-553031D01*
X639229Y-553031D02*
X648753Y-572079D01*
X648753Y-572079D02*
X648753Y-591127D01*
X648753Y-591127D02*
X639229Y-619698D01*
X639229Y-619698D02*
X524944Y-733984D01*
X524944Y-733984D02*
X648753Y-733984D01*
X772562Y-533984D02*
X791610Y-533984D01*
X791610Y-533984D02*
X810658Y-543508D01*
X810658Y-543508D02*
X820182Y-553031D01*
X820182Y-553031D02*
X829705Y-572079D01*
X829705Y-572079D02*
X839229Y-610174D01*
X839229Y-610174D02*
X839229Y-657793D01*
X839229Y-657793D02*
X829705Y-695889D01*
X829705Y-695889D02*
X820182Y-714936D01*
X820182Y-714936D02*
X810658Y-724460D01*
X810658Y-724460D02*
X791610Y-733984D01*
X791610Y-733984D02*
X772562Y-733984D01*
X772562Y-733984D02*
X753515Y-724460D01*
X753515Y-724460D02*
X743991Y-714936D01*
X743991Y-714936D02*
X734467Y-695889D01*
X734467Y-695889D02*
X724943Y-657793D01*
X724943Y-657793D02*
X724943Y-610174D01*
X724943Y-610174D02*
X734467Y-572079D01*
X734467Y-572079D02*
X743991Y-553031D01*
X743991Y-553031D02*
X753515Y-543508D01*
X753515Y-543508D02*
X772562Y-533984D01*
X963039Y-533984D02*
X982086Y-533984D01*
X982086Y-533984D02*
X1001134Y-543508D01*
X1001134Y-543508D02*
X1010658Y-553031D01*
X1010658Y-553031D02*
X1020182Y-572079D01*
X1020182Y-572079D02*
X1029705Y-610174D01*
X1029705Y-610174D02*
X1029705Y-657793D01*
X1029705Y-657793D02*
X1020182Y-695889D01*
X1020182Y-695889D02*
X1010658Y-714936D01*
X1010658Y-714936D02*
X1001134Y-724460D01*
X1001134Y-724460D02*
X982086Y-733984D01*
X982086Y-733984D02*
X963039Y-733984D01*
X963039Y-733984D02*
X943991Y-724460D01*
X943991Y-724460D02*
X934467Y-714936D01*
X934467Y-714936D02*
X924943Y-695889D01*
X924943Y-695889D02*
X915420Y-657793D01*
X915420Y-657793D02*
X915420Y-610174D01*
X915420Y-610174D02*
X924943Y-572079D01*
X924943Y-572079D02*
X934467Y-553031D01*
X934467Y-553031D02*
X943991Y-543508D01*
X943991Y-543508D02*
X963039Y-533984D01*
X1115420Y-733984D02*
X1115420Y-600650D01*
X1115420Y-619698D02*
X1124944Y-610174D01*
X1124944Y-610174D02*
X1143991Y-600650D01*
X1143991Y-600650D02*
X1172563Y-600650D01*
X1172563Y-600650D02*
X1191610Y-610174D01*
X1191610Y-610174D02*
X1201134Y-629222D01*
X1201134Y-629222D02*
X1201134Y-733984D01*
X1201134Y-629222D02*
X1210658Y-610174D01*
X1210658Y-610174D02*
X1229705Y-600650D01*
X1229705Y-600650D02*
X1258277Y-600650D01*
X1258277Y-600650D02*
X1277325Y-610174D01*
X1277325Y-610174D02*
X1286848Y-629222D01*
X1286848Y-629222D02*
X1286848Y-733984D01*
X1382086Y-733984D02*
X1382086Y-600650D01*
X1382086Y-619698D02*
X1391610Y-610174D01*
X1391610Y-610174D02*
X1410658Y-600650D01*
X1410658Y-600650D02*
X1439229Y-600650D01*
X1439229Y-600650D02*
X1458277Y-610174D01*
X1458277Y-610174D02*
X1467801Y-629222D01*
X1467801Y-629222D02*
X1467801Y-733984D01*
X1467801Y-629222D02*
X1477324Y-610174D01*
X1477324Y-610174D02*
X1496372Y-600650D01*
X1496372Y-600650D02*
X1524943Y-600650D01*
X1524943Y-600650D02*
X1543991Y-610174D01*
X1543991Y-610174D02*
X1553515Y-629222D01*
X1553515Y-629222D02*
X1553515Y-733984D01*
X1943991Y-524460D02*
X1772563Y-781603D01*
X2201134Y-533984D02*
X2220182Y-533984D01*
X2220182Y-533984D02*
X2239229Y-543508D01*
X2239229Y-543508D02*
X2248753Y-553031D01*
X2248753Y-553031D02*
X2258277Y-572079D01*
X2258277Y-572079D02*
X2267801Y-610174D01*
X2267801Y-610174D02*
X2267801Y-657793D01*
X2267801Y-657793D02*
X2258277Y-695889D01*
X2258277Y-695889D02*
X2248753Y-714936D01*
X2248753Y-714936D02*
X2239229Y-724460D01*
X2239229Y-724460D02*
X2220182Y-733984D01*
X2220182Y-733984D02*
X2201134Y-733984D01*
X2201134Y-733984D02*
X2182087Y-724460D01*
X2182087Y-724460D02*
X2172563Y-714936D01*
X2172563Y-714936D02*
X2163039Y-695889D01*
X2163039Y-695889D02*
X2153515Y-657793D01*
X2153515Y-657793D02*
X2153515Y-610174D01*
X2153515Y-610174D02*
X2163039Y-572079D01*
X2163039Y-572079D02*
X2172563Y-553031D01*
X2172563Y-553031D02*
X2182087Y-543508D01*
X2182087Y-543508D02*
X2201134Y-533984D01*
X2353515Y-714936D02*
X2363039Y-724460D01*
X2363039Y-724460D02*
X2353515Y-733984D01*
X2353515Y-733984D02*
X2343991Y-724460D01*
X2343991Y-724460D02*
X2353515Y-714936D01*
X2353515Y-714936D02*
X2353515Y-733984D01*
X2486848Y-533984D02*
X2505896Y-533984D01*
X2505896Y-533984D02*
X2524944Y-543508D01*
X2524944Y-543508D02*
X2534468Y-553031D01*
X2534468Y-553031D02*
X2543991Y-572079D01*
X2543991Y-572079D02*
X2553515Y-610174D01*
X2553515Y-610174D02*
X2553515Y-657793D01*
X2553515Y-657793D02*
X2543991Y-695889D01*
X2543991Y-695889D02*
X2534468Y-714936D01*
X2534468Y-714936D02*
X2524944Y-724460D01*
X2524944Y-724460D02*
X2505896Y-733984D01*
X2505896Y-733984D02*
X2486848Y-733984D01*
X2486848Y-733984D02*
X2467801Y-724460D01*
X2467801Y-724460D02*
X2458277Y-714936D01*
X2458277Y-714936D02*
X2448753Y-695889D01*
X2448753Y-695889D02*
X2439229Y-657793D01*
X2439229Y-657793D02*
X2439229Y-610174D01*
X2439229Y-610174D02*
X2448753Y-572079D01*
X2448753Y-572079D02*
X2458277Y-553031D01*
X2458277Y-553031D02*
X2467801Y-543508D01*
X2467801Y-543508D02*
X2486848Y-533984D01*
X2677325Y-533984D02*
X2696372Y-533984D01*
X2696372Y-533984D02*
X2715420Y-543508D01*
X2715420Y-543508D02*
X2724944Y-553031D01*
X2724944Y-553031D02*
X2734468Y-572079D01*
X2734468Y-572079D02*
X2743991Y-610174D01*
X2743991Y-610174D02*
X2743991Y-657793D01*
X2743991Y-657793D02*
X2734468Y-695889D01*
X2734468Y-695889D02*
X2724944Y-714936D01*
X2724944Y-714936D02*
X2715420Y-724460D01*
X2715420Y-724460D02*
X2696372Y-733984D01*
X2696372Y-733984D02*
X2677325Y-733984D01*
X2677325Y-733984D02*
X2658277Y-724460D01*
X2658277Y-724460D02*
X2648753Y-714936D01*
X2648753Y-714936D02*
X2639229Y-695889D01*
X2639229Y-695889D02*
X2629706Y-657793D01*
X2629706Y-657793D02*
X2629706Y-610174D01*
X2629706Y-610174D02*
X2639229Y-572079D01*
X2639229Y-572079D02*
X2648753Y-553031D01*
X2648753Y-553031D02*
X2658277Y-543508D01*
X2658277Y-543508D02*
X2677325Y-533984D01*
X2810658Y-533984D02*
X2943991Y-533984D01*
X2943991Y-533984D02*
X2858277Y-733984D01*
X3029706Y-733984D02*
X3067801Y-733984D01*
X3067801Y-733984D02*
X3086848Y-724460D01*
X3086848Y-724460D02*
X3096372Y-714936D01*
X3096372Y-714936D02*
X3115420Y-686365D01*
X3115420Y-686365D02*
X3124944Y-648270D01*
X3124944Y-648270D02*
X3124944Y-572079D01*
X3124944Y-572079D02*
X3115420Y-553031D01*
X3115420Y-553031D02*
X3105896Y-543508D01*
X3105896Y-543508D02*
X3086848Y-533984D01*
X3086848Y-533984D02*
X3048753Y-533984D01*
X3048753Y-533984D02*
X3029706Y-543508D01*
X3029706Y-543508D02*
X3020182Y-553031D01*
X3020182Y-553031D02*
X3010658Y-572079D01*
X3010658Y-572079D02*
X3010658Y-619698D01*
X3010658Y-619698D02*
X3020182Y-638746D01*
X3020182Y-638746D02*
X3029706Y-648270D01*
X3029706Y-648270D02*
X3048753Y-657793D01*
X3048753Y-657793D02*
X3086848Y-657793D01*
X3086848Y-657793D02*
X3105896Y-648270D01*
X3105896Y-648270D02*
X3115420Y-638746D01*
X3115420Y-638746D02*
X3124944Y-619698D01*
X3201134Y-533984D02*
X3201134Y-572079D01*
X3277325Y-533984D02*
X3277325Y-572079D01*
X3572563Y-810174D02*
X3563039Y-800650D01*
X3563039Y-800650D02*
X3543991Y-772079D01*
X3543991Y-772079D02*
X3534468Y-753031D01*
X3534468Y-753031D02*
X3524944Y-724460D01*
X3524944Y-724460D02*
X3515420Y-676841D01*
X3515420Y-676841D02*
X3515420Y-638746D01*
X3515420Y-638746D02*
X3524944Y-591127D01*
X3524944Y-591127D02*
X3534468Y-562555D01*
X3534468Y-562555D02*
X3543991Y-543508D01*
X3543991Y-543508D02*
X3563039Y-514936D01*
X3563039Y-514936D02*
X3572563Y-505412D01*
X3677325Y-619698D02*
X3658277Y-610174D01*
X3658277Y-610174D02*
X3648753Y-600650D01*
X3648753Y-600650D02*
X3639229Y-581603D01*
X3639229Y-581603D02*
X3639229Y-572079D01*
X3639229Y-572079D02*
X3648753Y-553031D01*
X3648753Y-553031D02*
X3658277Y-543508D01*
X3658277Y-543508D02*
X3677325Y-533984D01*
X3677325Y-533984D02*
X3715420Y-533984D01*
X3715420Y-533984D02*
X3734468Y-543508D01*
X3734468Y-543508D02*
X3743991Y-553031D01*
X3743991Y-553031D02*
X3753515Y-572079D01*
X3753515Y-572079D02*
X3753515Y-581603D01*
X3753515Y-581603D02*
X3743991Y-600650D01*
X3743991Y-600650D02*
X3734468Y-610174D01*
X3734468Y-610174D02*
X3715420Y-619698D01*
X3715420Y-619698D02*
X3677325Y-619698D01*
X3677325Y-619698D02*
X3658277Y-629222D01*
X3658277Y-629222D02*
X3648753Y-638746D01*
X3648753Y-638746D02*
X3639229Y-657793D01*
X3639229Y-657793D02*
X3639229Y-695889D01*
X3639229Y-695889D02*
X3648753Y-714936D01*
X3648753Y-714936D02*
X3658277Y-724460D01*
X3658277Y-724460D02*
X3677325Y-733984D01*
X3677325Y-733984D02*
X3715420Y-733984D01*
X3715420Y-733984D02*
X3734468Y-724460D01*
X3734468Y-724460D02*
X3743991Y-714936D01*
X3743991Y-714936D02*
X3753515Y-695889D01*
X3753515Y-695889D02*
X3753515Y-657793D01*
X3753515Y-657793D02*
X3743991Y-638746D01*
X3743991Y-638746D02*
X3734468Y-629222D01*
X3734468Y-629222D02*
X3715420Y-619698D01*
X3867801Y-619698D02*
X3848753Y-610174D01*
X3848753Y-610174D02*
X3839229Y-600650D01*
X3839229Y-600650D02*
X3829706Y-581603D01*
X3829706Y-581603D02*
X3829706Y-572079D01*
X3829706Y-572079D02*
X3839229Y-553031D01*
X3839229Y-553031D02*
X3848753Y-543508D01*
X3848753Y-543508D02*
X3867801Y-533984D01*
X3867801Y-533984D02*
X3905896Y-533984D01*
X3905896Y-533984D02*
X3924944Y-543508D01*
X3924944Y-543508D02*
X3934468Y-553031D01*
X3934468Y-553031D02*
X3943991Y-572079D01*
X3943991Y-572079D02*
X3943991Y-581603D01*
X3943991Y-581603D02*
X3934468Y-600650D01*
X3934468Y-600650D02*
X3924944Y-610174D01*
X3924944Y-610174D02*
X3905896Y-619698D01*
X3905896Y-619698D02*
X3867801Y-619698D01*
X3867801Y-619698D02*
X3848753Y-629222D01*
X3848753Y-629222D02*
X3839229Y-638746D01*
X3839229Y-638746D02*
X3829706Y-657793D01*
X3829706Y-657793D02*
X3829706Y-695889D01*
X3829706Y-695889D02*
X3839229Y-714936D01*
X3839229Y-714936D02*
X3848753Y-724460D01*
X3848753Y-724460D02*
X3867801Y-733984D01*
X3867801Y-733984D02*
X3905896Y-733984D01*
X3905896Y-733984D02*
X3924944Y-724460D01*
X3924944Y-724460D02*
X3934468Y-714936D01*
X3934468Y-714936D02*
X3943991Y-695889D01*
X3943991Y-695889D02*
X3943991Y-657793D01*
X3943991Y-657793D02*
X3934468Y-638746D01*
X3934468Y-638746D02*
X3924944Y-629222D01*
X3924944Y-629222D02*
X3905896Y-619698D01*
X4182087Y-733984D02*
X4182087Y-533984D01*
X4267801Y-733984D02*
X4267801Y-629222D01*
X4267801Y-629222D02*
X4258277Y-610174D01*
X4258277Y-610174D02*
X4239230Y-600650D01*
X4239230Y-600650D02*
X4210658Y-600650D01*
X4210658Y-600650D02*
X4191610Y-610174D01*
X4191610Y-610174D02*
X4182087Y-619698D01*
X4391611Y-733984D02*
X4372563Y-724460D01*
X4372563Y-724460D02*
X4363039Y-714936D01*
X4363039Y-714936D02*
X4353515Y-695889D01*
X4353515Y-695889D02*
X4353515Y-638746D01*
X4353515Y-638746D02*
X4363039Y-619698D01*
X4363039Y-619698D02*
X4372563Y-610174D01*
X4372563Y-610174D02*
X4391611Y-600650D01*
X4391611Y-600650D02*
X4420182Y-600650D01*
X4420182Y-600650D02*
X4439230Y-610174D01*
X4439230Y-610174D02*
X4448753Y-619698D01*
X4448753Y-619698D02*
X4458277Y-638746D01*
X4458277Y-638746D02*
X4458277Y-695889D01*
X4458277Y-695889D02*
X4448753Y-714936D01*
X4448753Y-714936D02*
X4439230Y-724460D01*
X4439230Y-724460D02*
X4420182Y-733984D01*
X4420182Y-733984D02*
X4391611Y-733984D01*
X4572563Y-733984D02*
X4553515Y-724460D01*
X4553515Y-724460D02*
X4543992Y-705412D01*
X4543992Y-705412D02*
X4543992Y-533984D01*
X4724944Y-724460D02*
X4705896Y-733984D01*
X4705896Y-733984D02*
X4667801Y-733984D01*
X4667801Y-733984D02*
X4648753Y-724460D01*
X4648753Y-724460D02*
X4639230Y-705412D01*
X4639230Y-705412D02*
X4639230Y-629222D01*
X4639230Y-629222D02*
X4648753Y-610174D01*
X4648753Y-610174D02*
X4667801Y-600650D01*
X4667801Y-600650D02*
X4705896Y-600650D01*
X4705896Y-600650D02*
X4724944Y-610174D01*
X4724944Y-610174D02*
X4734468Y-629222D01*
X4734468Y-629222D02*
X4734468Y-648270D01*
X4734468Y-648270D02*
X4639230Y-667317D01*
X4810658Y-724460D02*
X4829706Y-733984D01*
X4829706Y-733984D02*
X4867801Y-733984D01*
X4867801Y-733984D02*
X4886849Y-724460D01*
X4886849Y-724460D02*
X4896373Y-705412D01*
X4896373Y-705412D02*
X4896373Y-695889D01*
X4896373Y-695889D02*
X4886849Y-676841D01*
X4886849Y-676841D02*
X4867801Y-667317D01*
X4867801Y-667317D02*
X4839230Y-667317D01*
X4839230Y-667317D02*
X4820182Y-657793D01*
X4820182Y-657793D02*
X4810658Y-638746D01*
X4810658Y-638746D02*
X4810658Y-629222D01*
X4810658Y-629222D02*
X4820182Y-610174D01*
X4820182Y-610174D02*
X4839230Y-600650D01*
X4839230Y-600650D02*
X4867801Y-600650D01*
X4867801Y-600650D02*
X4886849Y-610174D01*
X4963039Y-810174D02*
X4972563Y-800650D01*
X4972563Y-800650D02*
X4991611Y-772079D01*
X4991611Y-772079D02*
X5001134Y-753031D01*
X5001134Y-753031D02*
X5010658Y-724460D01*
X5010658Y-724460D02*
X5020182Y-676841D01*
X5020182Y-676841D02*
X5020182Y-638746D01*
X5020182Y-638746D02*
X5010658Y-591127D01*
X5010658Y-591127D02*
X5001134Y-562555D01*
X5001134Y-562555D02*
X4991611Y-543508D01*
X4991611Y-543508D02*
X4972563Y-514936D01*
X4972563Y-514936D02*
X4963039Y-505412D01*
M02*
