M48
; DRILL file {KiCad 9.0.0} date 2025-04-07T23:01:34+0100
; FORMAT={-:-/ absolute / inch / decimal}
; #@! TF.CreationDate,2025-04-07T23:01:34+01:00
; #@! TF.GenerationSoftware,Kicad,Pcbnew,9.0.0
; #@! TF.FileFunction,Plated,1,2,PTH
FMAT,2
INCH
; #@! TA.AperFunction,Plated,PTH,ViaDrill
T1C0.0087
%
G90
G05
T1
X4.4528Y-3.7165
X4.4594Y-4.4291
X4.4803Y-5.2717
X4.5169Y-3.165
X4.6496Y-4.5197
X4.7126Y-4.8701
X4.7126Y-4.8898
X4.7244Y-4.7697
X4.7992Y-4.6614
X4.7992Y-4.6929
X4.825Y-4.01
X4.835Y-3.4
X4.925Y-4.645
X4.925Y-4.79
X5.0276Y-4.5433
X5.0748Y-5.2598
X5.0787Y-3.6378
X5.0787Y-4.2126
X5.2598Y-4.6063
X5.315Y-3.1811
X5.4606Y-4.2047
X5.5669Y-3.6417
X5.5866Y-5.2362
X5.8307Y-4.4449
X5.8425Y-3.1929
X6.0394Y-3.6181
X6.085Y-3.865
X6.085Y-3.915
X6.085Y-3.965
X6.085Y-4.015
X6.085Y-4.065
X6.085Y-4.115
X6.0883Y-3.815
X6.09Y-3.765
X6.1126Y-3.84
X6.1126Y-3.89
X6.1126Y-3.94
X6.1126Y-3.99
X6.1126Y-4.04
X6.1126Y-4.09
X6.1126Y-4.14
X6.1177Y-3.7896
X6.19Y-3.715
X6.1909Y-4.24
X6.25Y-3.71
X6.25Y-4.195
X6.2756Y-4.4567
X6.3256Y-4.1154
X6.3307Y-3.765
X6.3307Y-3.815
X6.3307Y-3.865
X6.3307Y-3.915
X6.3307Y-3.965
X6.3307Y-4.015
X6.3307Y-4.065
X6.3543Y-5.2087
X6.355Y-4.09
X6.355Y-4.1404
X6.3583Y-3.79
X6.3583Y-3.84
X6.3583Y-3.89
X6.3583Y-3.94
X6.3583Y-3.99
X6.3583Y-4.04
X6.374Y-3.6417
X6.5669Y-4.3976
X6.63Y-4.78
X6.853Y-3.1583
X6.8701Y-3.6378
X6.9016Y-4.2047
X7.0748Y-5.2205
X7.2559Y-4.5866
X7.2795Y-3.1575
X7.3819Y-4.2047
X7.395Y-3.345
X7.595Y-3.645
X7.6Y-3.925
X7.6Y-4.515
X7.6339Y-5.3031
X7.815Y-3.34
X7.9646Y-4.9134
X7.9882Y-3.5866
X7.9921Y-3.185
X8.0Y-4.2323
M30
