%TF.GenerationSoftware,KiCad,Pcbnew,9.0.7*%
%TF.CreationDate,2026-04-06T00:07:16+01:00*%
%TF.ProjectId,ephys-test-module-32,65706879-732d-4746-9573-742d6d6f6475,A*%
%TF.SameCoordinates,PX66ff300PY82a7440*%
%TF.FileFunction,AssemblyDrawing,Bot*%
%FSLAX46Y46*%
G04 Gerber Fmt 4.6, Leading zero omitted, Abs format (unit mm)*
G04 Created by KiCad (PCBNEW 9.0.7) date 2026-04-06 00:07:16*
%MOMM*%
%LPD*%
G01*
G04 APERTURE LIST*
%ADD10C,0.150000*%
%ADD11C,0.100000*%
%ADD12C,0.200000*%
G04 APERTURE END LIST*
D10*
X14666666Y37545181D02*
X14666666Y36830896D01*
X14666666Y36830896D02*
X14619047Y36688039D01*
X14619047Y36688039D02*
X14523809Y36592800D01*
X14523809Y36592800D02*
X14380952Y36545181D01*
X14380952Y36545181D02*
X14285714Y36545181D01*
X15095238Y37449943D02*
X15142857Y37497562D01*
X15142857Y37497562D02*
X15238095Y37545181D01*
X15238095Y37545181D02*
X15476190Y37545181D01*
X15476190Y37545181D02*
X15571428Y37497562D01*
X15571428Y37497562D02*
X15619047Y37449943D01*
X15619047Y37449943D02*
X15666666Y37354705D01*
X15666666Y37354705D02*
X15666666Y37259467D01*
X15666666Y37259467D02*
X15619047Y37116610D01*
X15619047Y37116610D02*
X15047619Y36545181D01*
X15047619Y36545181D02*
X15666666Y36545181D01*
X44404819Y38534524D02*
X43928628Y38201191D01*
X44404819Y37963096D02*
X43404819Y37963096D01*
X43404819Y37963096D02*
X43404819Y38344048D01*
X43404819Y38344048D02*
X43452438Y38439286D01*
X43452438Y38439286D02*
X43500057Y38486905D01*
X43500057Y38486905D02*
X43595295Y38534524D01*
X43595295Y38534524D02*
X43738152Y38534524D01*
X43738152Y38534524D02*
X43833390Y38486905D01*
X43833390Y38486905D02*
X43881009Y38439286D01*
X43881009Y38439286D02*
X43928628Y38344048D01*
X43928628Y38344048D02*
X43928628Y37963096D01*
X44404819Y38963096D02*
X43404819Y38963096D01*
X43404819Y38963096D02*
X44404819Y39534524D01*
X44404819Y39534524D02*
X43404819Y39534524D01*
X43404819Y39915477D02*
X43404819Y40534524D01*
X43404819Y40534524D02*
X43785771Y40201191D01*
X43785771Y40201191D02*
X43785771Y40344048D01*
X43785771Y40344048D02*
X43833390Y40439286D01*
X43833390Y40439286D02*
X43881009Y40486905D01*
X43881009Y40486905D02*
X43976247Y40534524D01*
X43976247Y40534524D02*
X44214342Y40534524D01*
X44214342Y40534524D02*
X44309580Y40486905D01*
X44309580Y40486905D02*
X44357200Y40439286D01*
X44357200Y40439286D02*
X44404819Y40344048D01*
X44404819Y40344048D02*
X44404819Y40058334D01*
X44404819Y40058334D02*
X44357200Y39963096D01*
X44357200Y39963096D02*
X44309580Y39915477D01*
X56404819Y33459524D02*
X55928628Y33126191D01*
X56404819Y32888096D02*
X55404819Y32888096D01*
X55404819Y32888096D02*
X55404819Y33269048D01*
X55404819Y33269048D02*
X55452438Y33364286D01*
X55452438Y33364286D02*
X55500057Y33411905D01*
X55500057Y33411905D02*
X55595295Y33459524D01*
X55595295Y33459524D02*
X55738152Y33459524D01*
X55738152Y33459524D02*
X55833390Y33411905D01*
X55833390Y33411905D02*
X55881009Y33364286D01*
X55881009Y33364286D02*
X55928628Y33269048D01*
X55928628Y33269048D02*
X55928628Y32888096D01*
X56404819Y33888096D02*
X55404819Y33888096D01*
X55404819Y33888096D02*
X56404819Y34459524D01*
X56404819Y34459524D02*
X55404819Y34459524D01*
X55500057Y34888096D02*
X55452438Y34935715D01*
X55452438Y34935715D02*
X55404819Y35030953D01*
X55404819Y35030953D02*
X55404819Y35269048D01*
X55404819Y35269048D02*
X55452438Y35364286D01*
X55452438Y35364286D02*
X55500057Y35411905D01*
X55500057Y35411905D02*
X55595295Y35459524D01*
X55595295Y35459524D02*
X55690533Y35459524D01*
X55690533Y35459524D02*
X55833390Y35411905D01*
X55833390Y35411905D02*
X56404819Y34840477D01*
X56404819Y34840477D02*
X56404819Y35459524D01*
X56404819Y38509524D02*
X55928628Y38176191D01*
X56404819Y37938096D02*
X55404819Y37938096D01*
X55404819Y37938096D02*
X55404819Y38319048D01*
X55404819Y38319048D02*
X55452438Y38414286D01*
X55452438Y38414286D02*
X55500057Y38461905D01*
X55500057Y38461905D02*
X55595295Y38509524D01*
X55595295Y38509524D02*
X55738152Y38509524D01*
X55738152Y38509524D02*
X55833390Y38461905D01*
X55833390Y38461905D02*
X55881009Y38414286D01*
X55881009Y38414286D02*
X55928628Y38319048D01*
X55928628Y38319048D02*
X55928628Y37938096D01*
X56404819Y38938096D02*
X55404819Y38938096D01*
X55404819Y38938096D02*
X56404819Y39509524D01*
X56404819Y39509524D02*
X55404819Y39509524D01*
X55738152Y40414286D02*
X56404819Y40414286D01*
X55357200Y40176191D02*
X56071485Y39938096D01*
X56071485Y39938096D02*
X56071485Y40557143D01*
X14463095Y8395181D02*
X14463095Y9395181D01*
X14463095Y8918991D02*
X15034523Y8918991D01*
X15034523Y8395181D02*
X15034523Y9395181D01*
X16034523Y8395181D02*
X15463095Y8395181D01*
X15748809Y8395181D02*
X15748809Y9395181D01*
X15748809Y9395181D02*
X15653571Y9252324D01*
X15653571Y9252324D02*
X15558333Y9157086D01*
X15558333Y9157086D02*
X15463095Y9109467D01*
X84666666Y37545181D02*
X84666666Y36830896D01*
X84666666Y36830896D02*
X84619047Y36688039D01*
X84619047Y36688039D02*
X84523809Y36592800D01*
X84523809Y36592800D02*
X84380952Y36545181D01*
X84380952Y36545181D02*
X84285714Y36545181D01*
X85047619Y37545181D02*
X85666666Y37545181D01*
X85666666Y37545181D02*
X85333333Y37164229D01*
X85333333Y37164229D02*
X85476190Y37164229D01*
X85476190Y37164229D02*
X85571428Y37116610D01*
X85571428Y37116610D02*
X85619047Y37068991D01*
X85619047Y37068991D02*
X85666666Y36973753D01*
X85666666Y36973753D02*
X85666666Y36735658D01*
X85666666Y36735658D02*
X85619047Y36640420D01*
X85619047Y36640420D02*
X85571428Y36592800D01*
X85571428Y36592800D02*
X85476190Y36545181D01*
X85476190Y36545181D02*
X85190476Y36545181D01*
X85190476Y36545181D02*
X85095238Y36592800D01*
X85095238Y36592800D02*
X85047619Y36640420D01*
X44404819Y33459524D02*
X43928628Y33126191D01*
X44404819Y32888096D02*
X43404819Y32888096D01*
X43404819Y32888096D02*
X43404819Y33269048D01*
X43404819Y33269048D02*
X43452438Y33364286D01*
X43452438Y33364286D02*
X43500057Y33411905D01*
X43500057Y33411905D02*
X43595295Y33459524D01*
X43595295Y33459524D02*
X43738152Y33459524D01*
X43738152Y33459524D02*
X43833390Y33411905D01*
X43833390Y33411905D02*
X43881009Y33364286D01*
X43881009Y33364286D02*
X43928628Y33269048D01*
X43928628Y33269048D02*
X43928628Y32888096D01*
X44404819Y33888096D02*
X43404819Y33888096D01*
X43404819Y33888096D02*
X44404819Y34459524D01*
X44404819Y34459524D02*
X43404819Y34459524D01*
X44404819Y35459524D02*
X44404819Y34888096D01*
X44404819Y35173810D02*
X43404819Y35173810D01*
X43404819Y35173810D02*
X43547676Y35078572D01*
X43547676Y35078572D02*
X43642914Y34983334D01*
X43642914Y34983334D02*
X43690533Y34888096D01*
D11*
%TO.C,J2*%
X11380500Y55635000D02*
X18619500Y55635000D01*
X11380500Y18365000D02*
X11380500Y55635000D01*
X18619500Y55635000D02*
X18619500Y18365000D01*
X18619500Y18365000D02*
X11380500Y18365000D01*
D12*
X19700000Y52600000D02*
G75*
G02*
X19500000Y52600000I-100000J0D01*
G01*
X19500000Y52600000D02*
G75*
G02*
X19700000Y52600000I100000J0D01*
G01*
D11*
%TO.C,RN3*%
X43150000Y41225000D02*
X44750000Y41225000D01*
X43150000Y37225000D02*
X43150000Y41225000D01*
X44750000Y41225000D02*
X44750000Y37225000D01*
X44750000Y37225000D02*
X43150000Y37225000D01*
%TO.C,RN2*%
X55150000Y36150000D02*
X56750000Y36150000D01*
X55150000Y32150000D02*
X55150000Y36150000D01*
X56750000Y36150000D02*
X56750000Y32150000D01*
X56750000Y32150000D02*
X55150000Y32150000D01*
%TO.C,RN4*%
X55150000Y41200000D02*
X56750000Y41200000D01*
X55150000Y37200000D02*
X55150000Y41200000D01*
X56750000Y41200000D02*
X56750000Y37200000D01*
X56750000Y37200000D02*
X55150000Y37200000D01*
%TO.C,H1*%
X25425000Y13050000D02*
X5025000Y13050000D01*
X5025000Y4650000D01*
X25425000Y4650000D01*
X25425000Y13050000D01*
%TO.C,J3*%
X81380500Y55635000D02*
X88619500Y55635000D01*
X81380500Y18365000D02*
X81380500Y55635000D01*
X88619500Y55635000D02*
X88619500Y18365000D01*
X88619500Y18365000D02*
X81380500Y18365000D01*
D12*
X89700000Y52600000D02*
G75*
G02*
X89500000Y52600000I-100000J0D01*
G01*
X89500000Y52600000D02*
G75*
G02*
X89700000Y52600000I100000J0D01*
G01*
D11*
%TO.C,RN1*%
X43150000Y36150000D02*
X44750000Y36150000D01*
X43150000Y32150000D02*
X43150000Y36150000D01*
X44750000Y36150000D02*
X44750000Y32150000D01*
X44750000Y32150000D02*
X43150000Y32150000D01*
%TD*%
M02*
