%TF.GenerationSoftware,KiCad,Pcbnew,9.0.7*%
%TF.CreationDate,2026-04-06T00:07:16+01:00*%
%TF.ProjectId,ephys-test-module-32,65706879-732d-4746-9573-742d6d6f6475,A*%
%TF.SameCoordinates,PX66ff300PY82a7440*%
%TF.FileFunction,Copper,L1,Top*%
%TF.FilePolarity,Positive*%
%FSLAX46Y46*%
G04 Gerber Fmt 4.6, Leading zero omitted, Abs format (unit mm)*
G04 Created by KiCad (PCBNEW 9.0.7) date 2026-04-06 00:07:16*
%MOMM*%
%LPD*%
G01*
G04 APERTURE LIST*
G04 Aperture macros list*
%AMRoundRect*
0 Rectangle with rounded corners*
0 $1 Rounding radius*
0 $2 $3 $4 $5 $6 $7 $8 $9 X,Y pos of 4 corners*
0 Add a 4 corners polygon primitive as box body*
4,1,4,$2,$3,$4,$5,$6,$7,$8,$9,$2,$3,0*
0 Add four circle primitives for the rounded corners*
1,1,$1+$1,$2,$3*
1,1,$1+$1,$4,$5*
1,1,$1+$1,$6,$7*
1,1,$1+$1,$8,$9*
0 Add four rect primitives between the rounded corners*
20,1,$1+$1,$2,$3,$4,$5,0*
20,1,$1+$1,$4,$5,$6,$7,0*
20,1,$1+$1,$6,$7,$8,$9,0*
20,1,$1+$1,$8,$9,$2,$3,0*%
G04 Aperture macros list end*
%TA.AperFunction,SMDPad,CuDef*%
%ADD10R,3.150000X1.000000*%
%TD*%
%TA.AperFunction,SMDPad,CuDef*%
%ADD11RoundRect,0.095000X0.415000X0.095000X-0.415000X0.095000X-0.415000X-0.095000X0.415000X-0.095000X0*%
%TD*%
%TA.AperFunction,SMDPad,CuDef*%
%ADD12RoundRect,0.135000X-0.135000X-0.185000X0.135000X-0.185000X0.135000X0.185000X-0.135000X0.185000X0*%
%TD*%
%TA.AperFunction,SMDPad,CuDef*%
%ADD13RoundRect,0.150000X0.150000X-0.825000X0.150000X0.825000X-0.150000X0.825000X-0.150000X-0.825000X0*%
%TD*%
%TA.AperFunction,SMDPad,CuDef*%
%ADD14RoundRect,0.140000X-0.170000X0.140000X-0.170000X-0.140000X0.170000X-0.140000X0.170000X0.140000X0*%
%TD*%
%TA.AperFunction,ViaPad*%
%ADD15C,0.500000*%
%TD*%
%TA.AperFunction,Conductor*%
%ADD16C,0.400000*%
%TD*%
%TA.AperFunction,Conductor*%
%ADD17C,0.220000*%
%TD*%
G04 APERTURE END LIST*
D10*
%TO.P,J4,1,Pin_1*%
%TO.N,/Headstage Interface/REF*%
X82598962Y14597386D03*
%TO.P,J4,2,Pin_2*%
%TO.N,GND*%
X87648962Y14597386D03*
%TO.P,J4,3,Pin_3*%
%TO.N,/Headstage Interface/REF*%
X82598962Y12057386D03*
%TO.P,J4,4,Pin_4*%
%TO.N,GND*%
X87648962Y12057386D03*
%TD*%
D11*
%TO.P,J5,1,Pin_1*%
%TO.N,GND*%
X50710000Y31160000D03*
%TO.P,J5,2,Pin_2*%
%TO.N,/Headstage Interface/REF*%
X49190000Y31160000D03*
%TO.P,J5,3,Pin_3*%
%TO.N,/Headstage Interface/E17*%
X50710000Y31800000D03*
%TO.P,J5,4,Pin_4*%
%TO.N,/Headstage Interface/E16*%
X49190000Y31800000D03*
%TO.P,J5,5,Pin_5*%
%TO.N,/Headstage Interface/E19*%
X50710000Y32440000D03*
%TO.P,J5,6,Pin_6*%
%TO.N,/Headstage Interface/E18*%
X49190000Y32440000D03*
%TO.P,J5,7,Pin_7*%
%TO.N,/Headstage Interface/E21*%
X50710000Y33080000D03*
%TO.P,J5,8,Pin_8*%
%TO.N,/Headstage Interface/E20*%
X49190000Y33080000D03*
%TO.P,J5,9,Pin_9*%
%TO.N,/Headstage Interface/E23*%
X50710000Y33720000D03*
%TO.P,J5,10,Pin_10*%
%TO.N,/Headstage Interface/E22*%
X49190000Y33720000D03*
%TO.P,J5,11,Pin_11*%
%TO.N,/Headstage Interface/E25*%
X50710000Y34360000D03*
%TO.P,J5,12,Pin_12*%
%TO.N,/Headstage Interface/E24*%
X49190000Y34360000D03*
%TO.P,J5,13,Pin_13*%
%TO.N,/Headstage Interface/E27*%
X50710000Y35000000D03*
%TO.P,J5,14,Pin_14*%
%TO.N,/Headstage Interface/E26*%
X49190000Y35000000D03*
%TO.P,J5,15,Pin_15*%
%TO.N,/Headstage Interface/E29*%
X50710000Y35640000D03*
%TO.P,J5,16,Pin_16*%
%TO.N,/Headstage Interface/E28*%
X49190000Y35640000D03*
%TO.P,J5,17,Pin_17*%
%TO.N,/Headstage Interface/E31*%
X50710000Y36280000D03*
%TO.P,J5,18,Pin_18*%
%TO.N,/Headstage Interface/E30*%
X49190000Y36280000D03*
%TO.P,J5,19,Pin_19*%
%TO.N,/Headstage Interface/E33*%
X50710000Y36920000D03*
%TO.P,J5,20,Pin_20*%
%TO.N,/Headstage Interface/E32*%
X49190000Y36920000D03*
%TO.P,J5,21,Pin_21*%
%TO.N,/Headstage Interface/E35*%
X50710000Y37560000D03*
%TO.P,J5,22,Pin_22*%
%TO.N,/Headstage Interface/E34*%
X49190000Y37560000D03*
%TO.P,J5,23,Pin_23*%
%TO.N,/Headstage Interface/E37*%
X50710000Y38200000D03*
%TO.P,J5,24,Pin_24*%
%TO.N,/Headstage Interface/E36*%
X49190000Y38200000D03*
%TO.P,J5,25,Pin_25*%
%TO.N,/Headstage Interface/E39*%
X50710000Y38840000D03*
%TO.P,J5,26,Pin_26*%
%TO.N,/Headstage Interface/E38*%
X49190000Y38840000D03*
%TO.P,J5,27,Pin_27*%
%TO.N,/Headstage Interface/E41*%
X50710000Y39480000D03*
%TO.P,J5,28,Pin_28*%
%TO.N,/Headstage Interface/E40*%
X49190000Y39480000D03*
%TO.P,J5,29,Pin_29*%
%TO.N,/Headstage Interface/E43*%
X50710000Y40120000D03*
%TO.P,J5,30,Pin_30*%
%TO.N,/Headstage Interface/E42*%
X49190000Y40120000D03*
%TO.P,J5,31,Pin_31*%
%TO.N,/Headstage Interface/E45*%
X50710000Y40760000D03*
%TO.P,J5,32,Pin_32*%
%TO.N,/Headstage Interface/E44*%
X49190000Y40760000D03*
%TO.P,J5,33,Pin_33*%
%TO.N,/Headstage Interface/E47*%
X50710000Y41400000D03*
%TO.P,J5,34,Pin_34*%
%TO.N,/Headstage Interface/E46*%
X49190000Y41400000D03*
%TO.P,J5,35,Pin_35*%
%TO.N,/Headstage Interface/REF*%
X50710000Y42040000D03*
%TO.P,J5,36,Pin_36*%
%TO.N,GND*%
X49190000Y42040000D03*
%TD*%
D12*
%TO.P,R3,1*%
%TO.N,VCC*%
X14690000Y17000000D03*
%TO.P,R3,2*%
%TO.N,/Test Signal Interface/SCL*%
X15710000Y17000000D03*
%TD*%
%TO.P,R1,1*%
%TO.N,VCC*%
X12790000Y15900000D03*
%TO.P,R1,2*%
%TO.N,/Test Signal Interface/WP*%
X13810000Y15900000D03*
%TD*%
D13*
%TO.P,U1,1,A0*%
%TO.N,GND*%
X13295000Y8825000D03*
%TO.P,U1,2,A1*%
X14565000Y8825000D03*
%TO.P,U1,3,A2*%
X15835000Y8825000D03*
%TO.P,U1,4,GND*%
X17105000Y8825000D03*
%TO.P,U1,5,SDA*%
%TO.N,/Test Signal Interface/SDA*%
X17105000Y13775000D03*
%TO.P,U1,6,SCL*%
%TO.N,/Test Signal Interface/SCL*%
X15835000Y13775000D03*
%TO.P,U1,7,WP*%
%TO.N,/Test Signal Interface/WP*%
X14565000Y13775000D03*
%TO.P,U1,8,VCC*%
%TO.N,VCC*%
X13295000Y13775000D03*
%TD*%
D12*
%TO.P,R2,1*%
%TO.N,VCC*%
X16090000Y18200000D03*
%TO.P,R2,2*%
%TO.N,/Test Signal Interface/SDA*%
X17110000Y18200000D03*
%TD*%
D14*
%TO.P,C1,1*%
%TO.N,VCC*%
X11700000Y11780000D03*
%TO.P,C1,2*%
%TO.N,GND*%
X11700000Y10820000D03*
%TD*%
D15*
%TO.N,GND*%
X49100000Y42950000D03*
X64150000Y20600000D03*
X6730000Y56610000D03*
X14555000Y35146000D03*
X93900000Y2250000D03*
X5825000Y31425000D03*
X45400000Y45100000D03*
X25600000Y20000000D03*
X27000000Y56200000D03*
X58475000Y29425000D03*
X40400000Y55900000D03*
X68075000Y1250000D03*
X3425000Y17625000D03*
X30700000Y30200000D03*
X85040000Y37305000D03*
X84913000Y44417000D03*
X29250000Y1975000D03*
X79850000Y23000000D03*
X95200000Y29500000D03*
X33400000Y44500000D03*
X98600000Y12350000D03*
X67300000Y30200000D03*
X79500000Y30200000D03*
X14810000Y50640000D03*
X2350000Y2925000D03*
X5100000Y42600000D03*
X90501000Y52164000D03*
X50750000Y30447000D03*
X51400000Y23800000D03*
X95000000Y56100000D03*
X76450000Y18900000D03*
X66500000Y44600000D03*
X92700000Y17800000D03*
X40100000Y24100000D03*
X63650000Y12700000D03*
X94900000Y45900000D03*
X21000000Y30000000D03*
X21000000Y44600000D03*
X76900000Y56800000D03*
X66067445Y56778348D03*
X53900000Y44500000D03*
X36650000Y13050000D03*
X79833000Y52037000D03*
X43275000Y900000D03*
%TO.N,VCC*%
X14400000Y18050000D03*
X11700000Y12800000D03*
X12125000Y15775000D03*
X11700000Y13300000D03*
X13912500Y17562500D03*
%TO.N,/Headstage Interface/REF*%
X82150000Y16200000D03*
X49450000Y30100000D03*
X50750000Y42766000D03*
%TO.N,/Test Signal Interface/SDA*%
X17095000Y15334000D03*
X17095000Y19017000D03*
%TO.N,/Test Signal Interface/SCL*%
X19700000Y21600000D03*
%TO.N,/Test Signal Interface/WP*%
X10100000Y22200000D03*
%TO.N,/Headstage Interface/E39*%
X52800000Y38829000D03*
%TO.N,/Headstage Interface/E17*%
X53418889Y31819070D03*
%TO.N,/Headstage Interface/E38*%
X46559000Y38829000D03*
%TO.N,/Headstage Interface/E33*%
X53500678Y36917199D03*
%TO.N,/Headstage Interface/E43*%
X52800000Y40099000D03*
%TO.N,/Headstage Interface/E34*%
X46559000Y37525000D03*
%TO.N,/Headstage Interface/E19*%
X52670000Y32470000D03*
%TO.N,/Headstage Interface/E37*%
X53500000Y38194000D03*
%TO.N,/Headstage Interface/E16*%
X47259000Y31844000D03*
%TO.N,/Headstage Interface/E44*%
X47389000Y40743000D03*
%TO.N,/Headstage Interface/E29*%
X53500000Y35654000D03*
%TO.N,/Headstage Interface/E23*%
X52800000Y33749000D03*
%TO.N,/Headstage Interface/E30*%
X46559000Y36289000D03*
%TO.N,/Headstage Interface/E47*%
X52800000Y41369000D03*
%TO.N,/Headstage Interface/E28*%
X47259000Y35654000D03*
%TO.N,/Headstage Interface/E46*%
X46686000Y41369000D03*
%TO.N,/Headstage Interface/E32*%
X47259000Y36924000D03*
%TO.N,/Headstage Interface/E24*%
X47259000Y34384000D03*
%TO.N,/Headstage Interface/E41*%
X53461610Y39375000D03*
%TO.N,/Headstage Interface/E25*%
X53480926Y34414181D03*
%TO.N,/Headstage Interface/E31*%
X52800000Y36289000D03*
%TO.N,/Headstage Interface/E27*%
X52800000Y35019000D03*
%TO.N,/Headstage Interface/E21*%
X53417000Y33114000D03*
%TO.N,/Headstage Interface/E35*%
X52800000Y37559000D03*
%TO.N,/Headstage Interface/E36*%
X47259000Y38194000D03*
%TO.N,/Headstage Interface/E22*%
X46559000Y33749000D03*
%TO.N,/Headstage Interface/E45*%
X53500000Y40734000D03*
%TO.N,/Headstage Interface/E40*%
X47259000Y39464000D03*
%TO.N,/Headstage Interface/E18*%
X46559000Y32479000D03*
%TO.N,/Headstage Interface/E42*%
X46642000Y40099000D03*
%TO.N,/Headstage Interface/E20*%
X47259000Y33114000D03*
%TO.N,/Headstage Interface/E26*%
X46559000Y35019000D03*
%TD*%
D16*
%TO.N,VCC*%
X11700000Y11780000D02*
X11700000Y13300000D01*
D17*
X14475000Y17000000D02*
X14690000Y17000000D01*
X14400000Y18050000D02*
X15940000Y18050000D01*
D16*
X11700000Y13300000D02*
X11700000Y12600000D01*
D17*
X12250000Y15900000D02*
X12790000Y15900000D01*
X12125000Y15775000D02*
X12125000Y15925000D01*
X13912500Y17562500D02*
X14475000Y17000000D01*
D16*
X11700000Y12600000D02*
X11700000Y12800000D01*
D17*
X15940000Y18050000D02*
X16090000Y18200000D01*
D16*
X12175000Y13775000D02*
X11700000Y13300000D01*
X13295000Y13775000D02*
X12175000Y13775000D01*
D17*
X12125000Y15775000D02*
X12250000Y15900000D01*
D16*
%TO.N,/Headstage Interface/REF*%
X82598962Y12057386D02*
X82598962Y15751038D01*
X49250000Y30300000D02*
X49250000Y31100000D01*
X49250000Y31100000D02*
X49190000Y31160000D01*
X82598962Y15751038D02*
X82150000Y16200000D01*
X50750000Y41995000D02*
X50750000Y42766000D01*
X49450000Y30100000D02*
X49250000Y30300000D01*
D17*
%TO.N,/Test Signal Interface/SDA*%
X17105000Y13775000D02*
X17095000Y13785000D01*
X17110000Y19002000D02*
X17110000Y18200000D01*
X17095000Y19017000D02*
X17110000Y19002000D01*
X17095000Y13785000D02*
X17095000Y15334000D01*
%TO.N,/Test Signal Interface/SCL*%
X19700000Y18800000D02*
X17900000Y17000000D01*
X15835000Y13775000D02*
X15835000Y16875000D01*
X19700000Y21600000D02*
X19700000Y18800000D01*
X15835000Y16875000D02*
X15710000Y17000000D01*
X17900000Y17000000D02*
X15710000Y17000000D01*
%TO.N,/Test Signal Interface/WP*%
X10600000Y17000000D02*
X13371760Y17000000D01*
X13810000Y16561760D02*
X13810000Y15900000D01*
X14565000Y13775000D02*
X14565000Y15745000D01*
X10100000Y17500000D02*
X10600000Y17000000D01*
X14565000Y15745000D02*
X14410000Y15900000D01*
X14410000Y15900000D02*
X13810000Y15900000D01*
X13371760Y17000000D02*
X13810000Y16561760D01*
X10100000Y22200000D02*
X10100000Y17500000D01*
%TO.N,/Headstage Interface/E39*%
X50759000Y38829000D02*
X52800000Y38829000D01*
X50750000Y38820000D02*
X50759000Y38829000D01*
%TO.N,/Headstage Interface/E17*%
X50750000Y31835000D02*
X53402959Y31835000D01*
X53402959Y31835000D02*
X53418889Y31819070D01*
%TO.N,/Headstage Interface/E38*%
X49300000Y38829000D02*
X46559000Y38829000D01*
%TO.N,/Headstage Interface/E33*%
X50759000Y36924000D02*
X53500000Y36924000D01*
X50750000Y36915000D02*
X50759000Y36924000D01*
%TO.N,/Headstage Interface/E43*%
X50759000Y40099000D02*
X52800000Y40099000D01*
X50750000Y40090000D02*
X50759000Y40099000D01*
%TO.N,/Headstage Interface/E34*%
X46593000Y37559000D02*
X46559000Y37525000D01*
X49300000Y37559000D02*
X46593000Y37559000D01*
%TO.N,/Headstage Interface/E19*%
X52670000Y32470000D02*
X50750000Y32470000D01*
%TO.N,/Headstage Interface/E37*%
X50759000Y38194000D02*
X53500000Y38194000D01*
X50750000Y38185000D02*
X50759000Y38194000D01*
%TO.N,/Headstage Interface/E16*%
X49300000Y31844000D02*
X47259000Y31844000D01*
%TO.N,/Headstage Interface/E44*%
X49232000Y40743000D02*
X49250000Y40725000D01*
X47389000Y40743000D02*
X49309000Y40743000D01*
X47389000Y40743000D02*
X49232000Y40743000D01*
%TO.N,/Headstage Interface/E29*%
X50750000Y35645000D02*
X50759000Y35654000D01*
X50759000Y35654000D02*
X53500000Y35654000D01*
%TO.N,/Headstage Interface/E23*%
X50750000Y33740000D02*
X50759000Y33749000D01*
X50759000Y33749000D02*
X52800000Y33749000D01*
%TO.N,/Headstage Interface/E30*%
X49300000Y36289000D02*
X46559000Y36289000D01*
%TO.N,/Headstage Interface/E47*%
X50750000Y41360000D02*
X50759000Y41369000D01*
X50759000Y41369000D02*
X52800000Y41369000D01*
%TO.N,/Headstage Interface/E28*%
X49300000Y35654000D02*
X47259000Y35654000D01*
%TO.N,/Headstage Interface/E46*%
X46677000Y41378000D02*
X46686000Y41369000D01*
X49309000Y41378000D02*
X46677000Y41378000D01*
%TO.N,/Headstage Interface/E32*%
X49300000Y36924000D02*
X47259000Y36924000D01*
X47259000Y36924000D02*
X49241000Y36924000D01*
X49241000Y36924000D02*
X49250000Y36915000D01*
%TO.N,/Headstage Interface/E24*%
X47259000Y34384000D02*
X49241000Y34384000D01*
X49241000Y34384000D02*
X49250000Y34375000D01*
X49300000Y34384000D02*
X47259000Y34384000D01*
%TO.N,/Headstage Interface/E41*%
X50750000Y39455000D02*
X53381610Y39455000D01*
X53381610Y39455000D02*
X53461610Y39375000D01*
%TO.N,/Headstage Interface/E25*%
X53441745Y34375000D02*
X53480926Y34414181D01*
X50750000Y34375000D02*
X53441745Y34375000D01*
%TO.N,/Headstage Interface/E31*%
X50759000Y36289000D02*
X52800000Y36289000D01*
X50750000Y36280000D02*
X50759000Y36289000D01*
%TO.N,/Headstage Interface/E27*%
X50750000Y35010000D02*
X50759000Y35019000D01*
X50759000Y35019000D02*
X52800000Y35019000D01*
%TO.N,/Headstage Interface/E21*%
X53404000Y33114000D02*
X53395000Y33105000D01*
X53395000Y33105000D02*
X50750000Y33105000D01*
X53417000Y33114000D02*
X53404000Y33114000D01*
%TO.N,/Headstage Interface/E35*%
X50759000Y37559000D02*
X52800000Y37559000D01*
X50750000Y37550000D02*
X50759000Y37559000D01*
%TO.N,/Headstage Interface/E36*%
X49241000Y38194000D02*
X49250000Y38185000D01*
X47259000Y38194000D02*
X49241000Y38194000D01*
X49300000Y38194000D02*
X47259000Y38194000D01*
%TO.N,/Headstage Interface/E22*%
X49300000Y33749000D02*
X46559000Y33749000D01*
%TO.N,/Headstage Interface/E45*%
X50750000Y40725000D02*
X50759000Y40734000D01*
X50759000Y40734000D02*
X53500000Y40734000D01*
%TO.N,/Headstage Interface/E40*%
X49241000Y39464000D02*
X49250000Y39455000D01*
X49300000Y39464000D02*
X47259000Y39464000D01*
X47259000Y39464000D02*
X49241000Y39464000D01*
%TO.N,/Headstage Interface/E18*%
X49300000Y32479000D02*
X46559000Y32479000D01*
%TO.N,/Headstage Interface/E42*%
X46664000Y40108000D02*
X49309000Y40108000D01*
X46655000Y40099000D02*
X46664000Y40108000D01*
X46642000Y40099000D02*
X46655000Y40099000D01*
%TO.N,/Headstage Interface/E20*%
X47259000Y33114000D02*
X49241000Y33114000D01*
X49241000Y33114000D02*
X49250000Y33105000D01*
X49300000Y33114000D02*
X47259000Y33114000D01*
%TO.N,/Headstage Interface/E26*%
X49300000Y35019000D02*
X46559000Y35019000D01*
%TD*%
%TA.AperFunction,Conductor*%
%TO.N,GND*%
G36*
X97002065Y59799385D02*
G01*
X97309309Y59782130D01*
X97317543Y59781201D01*
X97618855Y59730007D01*
X97626923Y59728166D01*
X97920633Y59643549D01*
X97928447Y59640815D01*
X98210817Y59523853D01*
X98218293Y59520253D01*
X98485784Y59372416D01*
X98492808Y59368003D01*
X98742086Y59191131D01*
X98748554Y59185972D01*
X98901670Y59049138D01*
X98976446Y58982314D01*
X98982313Y58976447D01*
X99065033Y58883884D01*
X99185969Y58748557D01*
X99191132Y58742085D01*
X99346337Y58523343D01*
X99368000Y58492812D01*
X99372415Y58485785D01*
X99520252Y58218294D01*
X99523852Y58210818D01*
X99640810Y57928457D01*
X99643551Y57920624D01*
X99728162Y57626935D01*
X99730008Y57618844D01*
X99781199Y57317550D01*
X99782129Y57309304D01*
X99799384Y57002066D01*
X99799500Y56997917D01*
X99799500Y3002084D01*
X99799384Y2997935D01*
X99782129Y2690697D01*
X99781199Y2682451D01*
X99730008Y2381157D01*
X99728162Y2373066D01*
X99643551Y2079377D01*
X99640810Y2071544D01*
X99523852Y1789183D01*
X99520252Y1781707D01*
X99372415Y1514216D01*
X99368000Y1507189D01*
X99191138Y1257924D01*
X99185963Y1251436D01*
X98982313Y1023554D01*
X98976446Y1017687D01*
X98748564Y814037D01*
X98742076Y808862D01*
X98492811Y632000D01*
X98485784Y627585D01*
X98218293Y479748D01*
X98210817Y476148D01*
X97928456Y359190D01*
X97920623Y356449D01*
X97626934Y271838D01*
X97618843Y269992D01*
X97317549Y218801D01*
X97309303Y217871D01*
X97002066Y200616D01*
X96997917Y200500D01*
X3002083Y200500D01*
X2997934Y200616D01*
X2690696Y217871D01*
X2682450Y218801D01*
X2381156Y269992D01*
X2373065Y271838D01*
X2079376Y356449D01*
X2071543Y359190D01*
X1789182Y476148D01*
X1781706Y479748D01*
X1514215Y627585D01*
X1507188Y632000D01*
X1363715Y733799D01*
X1257915Y808868D01*
X1251443Y814031D01*
X1062260Y983096D01*
X1023553Y1017687D01*
X1017686Y1023554D01*
X950862Y1098330D01*
X814028Y1251446D01*
X808869Y1257914D01*
X631997Y1507192D01*
X627584Y1514216D01*
X610565Y1545009D01*
X479747Y1781707D01*
X476147Y1789183D01*
X450347Y1851469D01*
X359185Y2071553D01*
X356451Y2079367D01*
X271834Y2373077D01*
X269993Y2381145D01*
X218799Y2682457D01*
X217870Y2690697D01*
X200616Y2997935D01*
X200500Y3002084D01*
X200500Y7945795D01*
X12695001Y7945795D01*
X12697850Y7915398D01*
X12697852Y7915389D01*
X12742652Y7787357D01*
X12823207Y7678209D01*
X12823208Y7678208D01*
X12932356Y7597653D01*
X12932355Y7597653D01*
X13060385Y7552854D01*
X13060393Y7552852D01*
X13090803Y7550001D01*
X13195000Y7550001D01*
X13395000Y7550001D01*
X13499194Y7550001D01*
X13499205Y7550002D01*
X13529602Y7552851D01*
X13529611Y7552853D01*
X13657643Y7597653D01*
X13766791Y7678208D01*
X13766792Y7678209D01*
X13847345Y7787354D01*
X13860152Y7823953D01*
X13897892Y7866184D01*
X13954440Y7869361D01*
X13996671Y7831621D01*
X13999848Y7823953D01*
X14012654Y7787354D01*
X14093207Y7678209D01*
X14093208Y7678208D01*
X14202356Y7597653D01*
X14202355Y7597653D01*
X14330385Y7552854D01*
X14330393Y7552852D01*
X14360803Y7550001D01*
X14465000Y7550001D01*
X14665000Y7550001D01*
X14769194Y7550001D01*
X14769205Y7550002D01*
X14799602Y7552851D01*
X14799611Y7552853D01*
X14927643Y7597653D01*
X15036791Y7678208D01*
X15036792Y7678209D01*
X15117345Y7787354D01*
X15130152Y7823953D01*
X15167892Y7866184D01*
X15224440Y7869361D01*
X15266671Y7831621D01*
X15269848Y7823953D01*
X15282654Y7787354D01*
X15363207Y7678209D01*
X15363208Y7678208D01*
X15472356Y7597653D01*
X15472355Y7597653D01*
X15600385Y7552854D01*
X15600393Y7552852D01*
X15630803Y7550001D01*
X15735000Y7550001D01*
X15935000Y7550001D01*
X16039194Y7550001D01*
X16039205Y7550002D01*
X16069602Y7552851D01*
X16069611Y7552853D01*
X16197643Y7597653D01*
X16306791Y7678208D01*
X16306792Y7678209D01*
X16387345Y7787354D01*
X16400152Y7823953D01*
X16437892Y7866184D01*
X16494440Y7869361D01*
X16536671Y7831621D01*
X16539848Y7823953D01*
X16552654Y7787354D01*
X16633207Y7678209D01*
X16633208Y7678208D01*
X16742356Y7597653D01*
X16742355Y7597653D01*
X16870385Y7552854D01*
X16870393Y7552852D01*
X16900803Y7550001D01*
X17005000Y7550001D01*
X17205000Y7550001D01*
X17309194Y7550001D01*
X17309205Y7550002D01*
X17339602Y7552851D01*
X17339611Y7552853D01*
X17467643Y7597653D01*
X17576791Y7678208D01*
X17576792Y7678209D01*
X17657347Y7787357D01*
X17702146Y7915386D01*
X17702148Y7915394D01*
X17704999Y7945802D01*
X17705000Y7945803D01*
X17705000Y8725000D01*
X17205000Y8725000D01*
X17205000Y7550001D01*
X17005000Y7550001D01*
X17005000Y8725000D01*
X16480498Y8725000D01*
X16470001Y8720652D01*
X16469996Y8720655D01*
X16469991Y8720652D01*
X16459497Y8725000D01*
X15935000Y8725000D01*
X15935000Y7550001D01*
X15735000Y7550001D01*
X15735000Y8725000D01*
X15210498Y8725000D01*
X15200001Y8720652D01*
X15199996Y8720655D01*
X15199991Y8720652D01*
X15189497Y8725000D01*
X14665000Y8725000D01*
X14665000Y7550001D01*
X14465000Y7550001D01*
X14465000Y8725000D01*
X13940498Y8725000D01*
X13930001Y8720652D01*
X13929996Y8720655D01*
X13929991Y8720652D01*
X13919497Y8725000D01*
X13395000Y8725000D01*
X13395000Y7550001D01*
X13195000Y7550001D01*
X13195000Y8725000D01*
X12695001Y8725000D01*
X12695001Y7945795D01*
X200500Y7945795D01*
X200500Y9704199D01*
X12695000Y9704199D01*
X12695000Y8925000D01*
X13195000Y8925000D01*
X13395000Y8925000D01*
X13919494Y8925000D01*
X13929990Y8929349D01*
X13929994Y8929348D01*
X13929998Y8929349D01*
X13940498Y8925000D01*
X14465000Y8925000D01*
X14665000Y8925000D01*
X15189494Y8925000D01*
X15199990Y8929349D01*
X15199994Y8929348D01*
X15199998Y8929349D01*
X15210498Y8925000D01*
X15735000Y8925000D01*
X15935000Y8925000D01*
X16459494Y8925000D01*
X16469990Y8929349D01*
X16469994Y8929348D01*
X16469998Y8929349D01*
X16480498Y8925000D01*
X17005000Y8925000D01*
X17205000Y8925000D01*
X17704999Y8925000D01*
X17704999Y9704194D01*
X17704998Y9704206D01*
X17702149Y9734603D01*
X17702147Y9734612D01*
X17657347Y9862644D01*
X17576792Y9971792D01*
X17576791Y9971793D01*
X17467643Y10052348D01*
X17467644Y10052348D01*
X17339614Y10097147D01*
X17339606Y10097149D01*
X17309198Y10100000D01*
X17205000Y10100000D01*
X17205000Y8925000D01*
X17005000Y8925000D01*
X17005000Y10100000D01*
X16900806Y10100000D01*
X16900793Y10099999D01*
X16870397Y10097150D01*
X16870388Y10097148D01*
X16742356Y10052348D01*
X16633208Y9971793D01*
X16633207Y9971792D01*
X16552653Y9862645D01*
X16539847Y9826047D01*
X16502107Y9783816D01*
X16445559Y9780641D01*
X16403328Y9818381D01*
X16400153Y9826047D01*
X16387346Y9862645D01*
X16306792Y9971792D01*
X16306791Y9971793D01*
X16197643Y10052348D01*
X16197644Y10052348D01*
X16069614Y10097147D01*
X16069606Y10097149D01*
X16039198Y10100000D01*
X15935000Y10100000D01*
X15935000Y8925000D01*
X15735000Y8925000D01*
X15735000Y10100000D01*
X15630806Y10100000D01*
X15630793Y10099999D01*
X15600397Y10097150D01*
X15600388Y10097148D01*
X15472356Y10052348D01*
X15363208Y9971793D01*
X15363207Y9971792D01*
X15282653Y9862645D01*
X15269847Y9826047D01*
X15232107Y9783816D01*
X15175559Y9780641D01*
X15133328Y9818381D01*
X15130153Y9826047D01*
X15117346Y9862645D01*
X15036792Y9971792D01*
X15036791Y9971793D01*
X14927643Y10052348D01*
X14927644Y10052348D01*
X14799614Y10097147D01*
X14799606Y10097149D01*
X14769198Y10100000D01*
X14665000Y10100000D01*
X14665000Y8925000D01*
X14465000Y8925000D01*
X14465000Y10100000D01*
X14360806Y10100000D01*
X14360793Y10099999D01*
X14330397Y10097150D01*
X14330388Y10097148D01*
X14202356Y10052348D01*
X14093208Y9971793D01*
X14093207Y9971792D01*
X14012653Y9862645D01*
X13999847Y9826047D01*
X13962107Y9783816D01*
X13905559Y9780641D01*
X13863328Y9818381D01*
X13860153Y9826047D01*
X13847346Y9862645D01*
X13766792Y9971792D01*
X13766791Y9971793D01*
X13657643Y10052348D01*
X13657644Y10052348D01*
X13529614Y10097147D01*
X13529606Y10097149D01*
X13499198Y10100000D01*
X13395000Y10100000D01*
X13395000Y8925000D01*
X13195000Y8925000D01*
X13195000Y10100000D01*
X13090806Y10100000D01*
X13090793Y10099999D01*
X13060397Y10097150D01*
X13060388Y10097148D01*
X12932356Y10052348D01*
X12823208Y9971793D01*
X12823207Y9971792D01*
X12742652Y9862644D01*
X12697853Y9734615D01*
X12697851Y9734607D01*
X12695000Y9704199D01*
X200500Y9704199D01*
X200500Y10626993D01*
X11090001Y10626993D01*
X11092786Y10597279D01*
X11092787Y10597272D01*
X11136594Y10472081D01*
X11215358Y10365360D01*
X11215359Y10365359D01*
X11322080Y10286595D01*
X11447268Y10242789D01*
X11447273Y10242788D01*
X11477002Y10240001D01*
X11600000Y10240001D01*
X11800000Y10240001D01*
X11922993Y10240001D01*
X11923007Y10240002D01*
X11952721Y10242787D01*
X11952728Y10242788D01*
X12077919Y10286595D01*
X12184640Y10365359D01*
X12184641Y10365360D01*
X12263405Y10472081D01*
X12307211Y10597269D01*
X12307212Y10597274D01*
X12309999Y10627003D01*
X12310000Y10627004D01*
X12310000Y10720000D01*
X11800000Y10720000D01*
X11800000Y10240001D01*
X11600000Y10240001D01*
X11600000Y10720000D01*
X11090001Y10720000D01*
X11090001Y10626993D01*
X200500Y10626993D01*
X200500Y11012998D01*
X11090000Y11012998D01*
X11090000Y10920000D01*
X12309999Y10920000D01*
X12309999Y11012993D01*
X12309998Y11013008D01*
X12307213Y11042722D01*
X12307212Y11042729D01*
X12263405Y11167920D01*
X12184641Y11274641D01*
X12184640Y11274642D01*
X12139641Y11307853D01*
X12110410Y11356364D01*
X12124044Y11411336D01*
X12131252Y11419713D01*
X12153224Y11441684D01*
X12203972Y11550513D01*
X12210500Y11600099D01*
X12210499Y11959900D01*
X12203972Y12009487D01*
X12153224Y12118316D01*
X12122174Y12149366D01*
X12100500Y12201692D01*
X12100500Y12572860D01*
X12110414Y12609860D01*
X12119799Y12626114D01*
X12150499Y12740689D01*
X12150500Y12740689D01*
X12150500Y12859311D01*
X12150499Y12859312D01*
X12119800Y12973883D01*
X12119796Y12973892D01*
X12110414Y12990143D01*
X12100500Y13027142D01*
X12100500Y13072860D01*
X12110414Y13109860D01*
X12119799Y13126114D01*
X12124656Y13144244D01*
X12143806Y13177415D01*
X12319219Y13352826D01*
X12371545Y13374500D01*
X12720500Y13374500D01*
X12772826Y13352826D01*
X12794500Y13300500D01*
X12794500Y12916736D01*
X12804427Y12848607D01*
X12804427Y12848606D01*
X12855801Y12743518D01*
X12855802Y12743517D01*
X12938517Y12660802D01*
X13043607Y12609427D01*
X13111740Y12599500D01*
X13111746Y12599500D01*
X13478254Y12599500D01*
X13478260Y12599500D01*
X13546393Y12609427D01*
X13651483Y12660802D01*
X13734198Y12743517D01*
X13785573Y12848607D01*
X13795500Y12916740D01*
X13795500Y14633260D01*
X13785573Y14701393D01*
X13734198Y14806483D01*
X13651483Y14889198D01*
X13651482Y14889199D01*
X13546394Y14940573D01*
X13478264Y14950500D01*
X13478260Y14950500D01*
X13111740Y14950500D01*
X13111735Y14950500D01*
X13043606Y14940573D01*
X13043605Y14940573D01*
X12938517Y14889199D01*
X12855801Y14806483D01*
X12804427Y14701395D01*
X12804427Y14701394D01*
X12794500Y14633265D01*
X12794500Y14249500D01*
X12772826Y14197174D01*
X12720500Y14175500D01*
X12122271Y14175500D01*
X12020417Y14148209D01*
X12020408Y14148205D01*
X11929221Y14095558D01*
X11929092Y14095485D01*
X11929087Y14095481D01*
X11577415Y13743810D01*
X11544245Y13724658D01*
X11526113Y13719799D01*
X11526112Y13719799D01*
X11423390Y13660492D01*
X11339508Y13576610D01*
X11280201Y13473888D01*
X11280199Y13473883D01*
X11249500Y13359312D01*
X11249500Y13240689D01*
X11280199Y13126118D01*
X11280200Y13126116D01*
X11280201Y13126114D01*
X11289585Y13109860D01*
X11299500Y13072860D01*
X11299500Y13027142D01*
X11289586Y12990143D01*
X11280203Y12973892D01*
X11280199Y12973883D01*
X11249500Y12859312D01*
X11249500Y12740689D01*
X11280199Y12626118D01*
X11280200Y12626116D01*
X11280201Y12626114D01*
X11289585Y12609860D01*
X11299500Y12572860D01*
X11299500Y12201692D01*
X11277826Y12149366D01*
X11246776Y12118317D01*
X11196027Y12009486D01*
X11189500Y11959900D01*
X11189500Y11600101D01*
X11196027Y11550515D01*
X11196028Y11550513D01*
X11246776Y11441684D01*
X11268741Y11419719D01*
X11290415Y11367393D01*
X11268741Y11315067D01*
X11260359Y11307853D01*
X11215357Y11274640D01*
X11136594Y11167920D01*
X11092788Y11042732D01*
X11092787Y11042727D01*
X11090000Y11012998D01*
X200500Y11012998D01*
X200500Y22259312D01*
X9649500Y22259312D01*
X9649500Y22140689D01*
X9680199Y22026118D01*
X9680201Y22026113D01*
X9739508Y21923391D01*
X9739509Y21923390D01*
X9739511Y21923387D01*
X9767826Y21895072D01*
X9789500Y21842747D01*
X9789500Y17459119D01*
X9810658Y17380155D01*
X9810660Y17380150D01*
X9826205Y17353226D01*
X9851538Y17309348D01*
X10409349Y16751538D01*
X10409351Y16751537D01*
X10409352Y16751536D01*
X10480149Y16710661D01*
X10480151Y16710660D01*
X10480152Y16710660D01*
X10480154Y16710659D01*
X10519636Y16700080D01*
X10559119Y16689501D01*
X10559120Y16689500D01*
X10559122Y16689500D01*
X10640879Y16689500D01*
X13212494Y16689500D01*
X13264820Y16667826D01*
X13471762Y16460884D01*
X13493436Y16408558D01*
X13471762Y16356232D01*
X13395935Y16280405D01*
X13367067Y16218496D01*
X13325309Y16180233D01*
X13268726Y16182703D01*
X13232933Y16218496D01*
X13225004Y16235500D01*
X13204065Y16280404D01*
X13120404Y16364065D01*
X13013173Y16414068D01*
X13013171Y16414069D01*
X12977178Y16418807D01*
X12964316Y16420500D01*
X12615684Y16420500D01*
X12604318Y16419004D01*
X12566828Y16414069D01*
X12459595Y16364065D01*
X12375935Y16280405D01*
X12363262Y16253226D01*
X12353557Y16244334D01*
X12348521Y16232174D01*
X12333495Y16225951D01*
X12321505Y16214963D01*
X12296195Y16210500D01*
X12268838Y16210500D01*
X12249852Y16214279D01*
X12249533Y16213085D01*
X12165880Y16235500D01*
X12165878Y16235500D01*
X12084122Y16235500D01*
X12084120Y16235500D01*
X12005154Y16214341D01*
X12005147Y16214338D01*
X11997226Y16209765D01*
X11979387Y16202376D01*
X11951113Y16194799D01*
X11848390Y16135492D01*
X11764508Y16051610D01*
X11705201Y15948888D01*
X11705199Y15948883D01*
X11674500Y15834312D01*
X11674500Y15715689D01*
X11705199Y15601118D01*
X11705201Y15601113D01*
X11764508Y15498391D01*
X11764509Y15498390D01*
X11764511Y15498387D01*
X11848387Y15414511D01*
X11848389Y15414510D01*
X11848390Y15414509D01*
X11909027Y15379500D01*
X11951114Y15355201D01*
X11951115Y15355201D01*
X11951117Y15355200D01*
X12008402Y15339851D01*
X12065688Y15324501D01*
X12065689Y15324500D01*
X12065691Y15324500D01*
X12184311Y15324500D01*
X12184311Y15324501D01*
X12298886Y15355201D01*
X12401613Y15414511D01*
X12401618Y15414517D01*
X12405265Y15417314D01*
X12459970Y15431979D01*
X12481588Y15425680D01*
X12566827Y15385932D01*
X12615684Y15379500D01*
X12615686Y15379500D01*
X12964314Y15379500D01*
X12964316Y15379500D01*
X13013173Y15385932D01*
X13120404Y15435935D01*
X13204065Y15519596D01*
X13232933Y15581505D01*
X13274690Y15619768D01*
X13331273Y15617298D01*
X13367067Y15581504D01*
X13395933Y15519598D01*
X13395935Y15519596D01*
X13479596Y15435935D01*
X13586827Y15385932D01*
X13635684Y15379500D01*
X13635686Y15379500D01*
X13984314Y15379500D01*
X13984316Y15379500D01*
X14033173Y15385932D01*
X14140404Y15435935D01*
X14140404Y15435936D01*
X14146271Y15438671D01*
X14147353Y15436350D01*
X14193335Y15446552D01*
X14241109Y15416131D01*
X14254500Y15373674D01*
X14254500Y14957872D01*
X14232826Y14905546D01*
X14213004Y14891393D01*
X14208520Y14889201D01*
X14208518Y14889199D01*
X14125801Y14806483D01*
X14074427Y14701395D01*
X14074427Y14701394D01*
X14064500Y14633265D01*
X14064500Y12916736D01*
X14074427Y12848607D01*
X14074427Y12848606D01*
X14125801Y12743518D01*
X14125802Y12743517D01*
X14208517Y12660802D01*
X14313607Y12609427D01*
X14381740Y12599500D01*
X14381746Y12599500D01*
X14748254Y12599500D01*
X14748260Y12599500D01*
X14816393Y12609427D01*
X14921483Y12660802D01*
X15004198Y12743517D01*
X15055573Y12848607D01*
X15065500Y12916740D01*
X15065500Y14633260D01*
X15055573Y14701393D01*
X15004198Y14806483D01*
X14921483Y14889198D01*
X14921482Y14889199D01*
X14921479Y14889201D01*
X14916996Y14891393D01*
X14879508Y14933848D01*
X14875500Y14957872D01*
X14875500Y15785877D01*
X14875499Y15785880D01*
X14867463Y15815877D01*
X14861130Y15839511D01*
X14854340Y15864849D01*
X14813462Y15935652D01*
X14600652Y16148462D01*
X14529850Y16189340D01*
X14529845Y16189342D01*
X14450881Y16210500D01*
X14450879Y16210500D01*
X14450878Y16210500D01*
X14303805Y16210500D01*
X14251479Y16232174D01*
X14236738Y16253226D01*
X14224065Y16280404D01*
X14142174Y16362295D01*
X14120500Y16414621D01*
X14120500Y16602636D01*
X14120500Y16602638D01*
X14118767Y16609105D01*
X14126157Y16665255D01*
X14138788Y16674949D01*
X14129900Y16677772D01*
X14104062Y16684696D01*
X14103211Y16686251D01*
X14101422Y16686819D01*
X14085025Y16706403D01*
X14073233Y16726827D01*
X14058462Y16752412D01*
X13825200Y16985674D01*
X13803526Y17038000D01*
X13825200Y17090326D01*
X13877526Y17112000D01*
X13893234Y17112000D01*
X13945560Y17090326D01*
X14197826Y16838060D01*
X14207549Y16814585D01*
X14219232Y16792024D01*
X14219500Y16788883D01*
X14219500Y16775684D01*
X14222698Y16751392D01*
X14222843Y16749693D01*
X14214742Y16724193D01*
X14207818Y16698354D01*
X14206245Y16697446D01*
X14205695Y16695714D01*
X14204875Y16695290D01*
X14227242Y16692346D01*
X14257311Y16659533D01*
X14275933Y16619599D01*
X14275934Y16619598D01*
X14275935Y16619596D01*
X14359596Y16535935D01*
X14466827Y16485932D01*
X14515684Y16479500D01*
X14515686Y16479500D01*
X14864314Y16479500D01*
X14864316Y16479500D01*
X14913173Y16485932D01*
X15020404Y16535935D01*
X15104065Y16619596D01*
X15132933Y16681505D01*
X15174690Y16719768D01*
X15231273Y16717298D01*
X15267066Y16681505D01*
X15273445Y16667826D01*
X15295933Y16619598D01*
X15295935Y16619596D01*
X15379596Y16535935D01*
X15481775Y16488288D01*
X15520037Y16446532D01*
X15524500Y16421222D01*
X15524500Y14957872D01*
X15502826Y14905546D01*
X15483004Y14891393D01*
X15478520Y14889201D01*
X15478518Y14889199D01*
X15395801Y14806483D01*
X15344427Y14701395D01*
X15344427Y14701394D01*
X15334500Y14633265D01*
X15334500Y12916736D01*
X15344427Y12848607D01*
X15344427Y12848606D01*
X15395801Y12743518D01*
X15395802Y12743517D01*
X15478517Y12660802D01*
X15583607Y12609427D01*
X15651740Y12599500D01*
X15651746Y12599500D01*
X16018254Y12599500D01*
X16018260Y12599500D01*
X16086393Y12609427D01*
X16191483Y12660802D01*
X16274198Y12743517D01*
X16325573Y12848607D01*
X16335500Y12916740D01*
X16335500Y14633260D01*
X16335499Y14633265D01*
X16604500Y14633265D01*
X16604500Y12916736D01*
X16614427Y12848607D01*
X16614427Y12848606D01*
X16665801Y12743518D01*
X16665802Y12743517D01*
X16748517Y12660802D01*
X16853607Y12609427D01*
X16921740Y12599500D01*
X16921746Y12599500D01*
X17288254Y12599500D01*
X17288260Y12599500D01*
X17356393Y12609427D01*
X17461483Y12660802D01*
X17544198Y12743517D01*
X17595573Y12848607D01*
X17605500Y12916740D01*
X17605500Y14633260D01*
X17595573Y14701393D01*
X17544198Y14806483D01*
X17461483Y14889198D01*
X17461482Y14889199D01*
X17446997Y14896281D01*
X17438722Y14905652D01*
X17427174Y14910435D01*
X17420701Y14926061D01*
X17409509Y14938736D01*
X17405500Y14962761D01*
X17405500Y14976747D01*
X17427173Y15029072D01*
X17455489Y15057387D01*
X17489984Y15117133D01*
X80823462Y15117133D01*
X80823462Y14077640D01*
X80835095Y14019154D01*
X80864570Y13975043D01*
X80879410Y13952834D01*
X80921204Y13924908D01*
X80945729Y13908520D01*
X80945730Y13908520D01*
X80945731Y13908519D01*
X81004214Y13896886D01*
X82124462Y13896886D01*
X82176788Y13875212D01*
X82198462Y13822886D01*
X82198462Y12831886D01*
X82176788Y12779560D01*
X82124462Y12757886D01*
X81004214Y12757886D01*
X80974972Y12752070D01*
X80945729Y12746253D01*
X80879411Y12701939D01*
X80879409Y12701937D01*
X80835095Y12635619D01*
X80823462Y12577133D01*
X80823462Y11537640D01*
X80835095Y11479154D01*
X80860133Y11441684D01*
X80879410Y11412834D01*
X80921204Y11384908D01*
X80945729Y11368520D01*
X80945730Y11368520D01*
X80945731Y11368519D01*
X81004214Y11356886D01*
X81004216Y11356886D01*
X84193708Y11356886D01*
X84193710Y11356886D01*
X84252193Y11368519D01*
X84318514Y11412834D01*
X84362829Y11479155D01*
X84369480Y11512594D01*
X85773963Y11512594D01*
X85776870Y11487518D01*
X85776872Y11487512D01*
X85822175Y11384908D01*
X85901483Y11305600D01*
X86004086Y11260297D01*
X86004085Y11260297D01*
X86029172Y11257387D01*
X87548962Y11257387D01*
X87748962Y11257387D01*
X89268754Y11257387D01*
X89293830Y11260295D01*
X89293836Y11260297D01*
X89396440Y11305600D01*
X89475748Y11384908D01*
X89521051Y11487511D01*
X89523962Y11512597D01*
X89523962Y11957386D01*
X87748962Y11957386D01*
X87748962Y11257387D01*
X87548962Y11257387D01*
X87548962Y11957386D01*
X85773963Y11957386D01*
X85773963Y11512594D01*
X84369480Y11512594D01*
X84374462Y11537638D01*
X84374462Y12577134D01*
X84369481Y12602176D01*
X85773962Y12602176D01*
X85773962Y12157386D01*
X87548962Y12157386D01*
X87748962Y12157386D01*
X89523961Y12157386D01*
X89523961Y12602179D01*
X89521053Y12627255D01*
X89521051Y12627261D01*
X89475748Y12729865D01*
X89396440Y12809173D01*
X89293837Y12854476D01*
X89293838Y12854476D01*
X89268751Y12857386D01*
X87748962Y12857386D01*
X87748962Y12157386D01*
X87548962Y12157386D01*
X87548962Y12857386D01*
X86029169Y12857386D01*
X86004093Y12854478D01*
X86004087Y12854476D01*
X85901483Y12809173D01*
X85822175Y12729865D01*
X85776872Y12627262D01*
X85773962Y12602176D01*
X84369481Y12602176D01*
X84362829Y12635617D01*
X84318514Y12701938D01*
X84276719Y12729865D01*
X84252194Y12746253D01*
X84252195Y12746253D01*
X84222951Y12752070D01*
X84193710Y12757886D01*
X84193708Y12757886D01*
X83073462Y12757886D01*
X83021136Y12779560D01*
X82999462Y12831886D01*
X82999462Y13822886D01*
X83021136Y13875212D01*
X83073462Y13896886D01*
X84193708Y13896886D01*
X84193710Y13896886D01*
X84252193Y13908519D01*
X84318514Y13952834D01*
X84362829Y14019155D01*
X84369480Y14052594D01*
X85773963Y14052594D01*
X85776870Y14027518D01*
X85776872Y14027512D01*
X85822175Y13924908D01*
X85901483Y13845600D01*
X86004086Y13800297D01*
X86004085Y13800297D01*
X86029172Y13797387D01*
X87548962Y13797387D01*
X87748962Y13797387D01*
X89268754Y13797387D01*
X89293830Y13800295D01*
X89293836Y13800297D01*
X89396440Y13845600D01*
X89475748Y13924908D01*
X89521051Y14027511D01*
X89523962Y14052597D01*
X89523962Y14497386D01*
X87748962Y14497386D01*
X87748962Y13797387D01*
X87548962Y13797387D01*
X87548962Y14497386D01*
X85773963Y14497386D01*
X85773963Y14052594D01*
X84369480Y14052594D01*
X84374462Y14077638D01*
X84374462Y15117134D01*
X84369481Y15142176D01*
X85773962Y15142176D01*
X85773962Y14697386D01*
X87548962Y14697386D01*
X87748962Y14697386D01*
X89523961Y14697386D01*
X89523961Y15142179D01*
X89521053Y15167255D01*
X89521051Y15167261D01*
X89475748Y15269865D01*
X89396440Y15349173D01*
X89293837Y15394476D01*
X89293838Y15394476D01*
X89268751Y15397386D01*
X87748962Y15397386D01*
X87748962Y14697386D01*
X87548962Y14697386D01*
X87548962Y15397386D01*
X86029169Y15397386D01*
X86004093Y15394478D01*
X86004087Y15394476D01*
X85901483Y15349173D01*
X85822175Y15269865D01*
X85776872Y15167262D01*
X85773962Y15142176D01*
X84369481Y15142176D01*
X84362829Y15175617D01*
X84318514Y15241938D01*
X84276719Y15269865D01*
X84252194Y15286253D01*
X84252195Y15286253D01*
X84222951Y15292070D01*
X84193710Y15297886D01*
X84193708Y15297886D01*
X83073462Y15297886D01*
X83021136Y15319560D01*
X82999462Y15371886D01*
X82999462Y15803764D01*
X82996216Y15815877D01*
X82976091Y15890989D01*
X82972169Y15905626D01*
X82961912Y15923391D01*
X82919444Y15996948D01*
X82919443Y15996949D01*
X82919442Y15996951D01*
X82593808Y16322585D01*
X82574656Y16355758D01*
X82569799Y16373886D01*
X82535585Y16433146D01*
X82510491Y16476610D01*
X82510490Y16476611D01*
X82510489Y16476613D01*
X82426613Y16560489D01*
X82426610Y16560491D01*
X82426609Y16560492D01*
X82323887Y16619799D01*
X82323882Y16619801D01*
X82209311Y16650500D01*
X82209309Y16650500D01*
X82090691Y16650500D01*
X82090689Y16650500D01*
X81976117Y16619801D01*
X81976112Y16619799D01*
X81873390Y16560492D01*
X81789508Y16476610D01*
X81730201Y16373888D01*
X81730199Y16373883D01*
X81699500Y16259312D01*
X81699500Y16140689D01*
X81730199Y16026118D01*
X81730201Y16026113D01*
X81789508Y15923391D01*
X81789509Y15923390D01*
X81789511Y15923387D01*
X81873387Y15839511D01*
X81873389Y15839510D01*
X81873390Y15839509D01*
X81882397Y15834309D01*
X81976114Y15780201D01*
X81994242Y15775344D01*
X82027415Y15756192D01*
X82176788Y15606819D01*
X82198462Y15554493D01*
X82198462Y15371886D01*
X82176788Y15319560D01*
X82124462Y15297886D01*
X81004214Y15297886D01*
X80974972Y15292070D01*
X80945729Y15286253D01*
X80879411Y15241939D01*
X80879409Y15241937D01*
X80835095Y15175619D01*
X80823462Y15117133D01*
X17489984Y15117133D01*
X17514799Y15160114D01*
X17545499Y15274689D01*
X17545500Y15274689D01*
X17545500Y15393311D01*
X17545499Y15393312D01*
X17544407Y15397386D01*
X17514799Y15507886D01*
X17472295Y15581504D01*
X17455491Y15610610D01*
X17455490Y15610611D01*
X17455489Y15610613D01*
X17371613Y15694489D01*
X17371610Y15694491D01*
X17371609Y15694492D01*
X17268887Y15753799D01*
X17268882Y15753801D01*
X17154311Y15784500D01*
X17154309Y15784500D01*
X17035691Y15784500D01*
X17035689Y15784500D01*
X16921117Y15753801D01*
X16921112Y15753799D01*
X16818390Y15694492D01*
X16734508Y15610610D01*
X16675201Y15507888D01*
X16675199Y15507883D01*
X16644500Y15393312D01*
X16644500Y15274689D01*
X16675199Y15160118D01*
X16675201Y15160113D01*
X16734508Y15057391D01*
X16734509Y15057390D01*
X16734511Y15057387D01*
X16762826Y15029072D01*
X16784500Y14976747D01*
X16784500Y14952981D01*
X16762826Y14900655D01*
X16753501Y14892757D01*
X16748517Y14889199D01*
X16665801Y14806483D01*
X16614427Y14701395D01*
X16614427Y14701394D01*
X16604500Y14633265D01*
X16335499Y14633265D01*
X16325573Y14701393D01*
X16274198Y14806483D01*
X16191483Y14889198D01*
X16191482Y14889199D01*
X16191479Y14889201D01*
X16186996Y14891393D01*
X16149508Y14933848D01*
X16145500Y14957872D01*
X16145500Y16615500D01*
X16167174Y16667826D01*
X16219500Y16689500D01*
X17940881Y16689500D01*
X17940881Y16689501D01*
X18019849Y16710660D01*
X18090652Y16751538D01*
X19948461Y18609348D01*
X19975691Y18656511D01*
X19989340Y18680152D01*
X20010499Y18759120D01*
X20010500Y18759120D01*
X20010500Y19004978D01*
X81619500Y19004978D01*
X81619500Y18865023D01*
X81646802Y18727762D01*
X81646805Y18727751D01*
X81700362Y18598453D01*
X81777704Y18482703D01*
X81778118Y18482083D01*
X81877083Y18383118D01*
X81993452Y18305363D01*
X82122755Y18251804D01*
X82260022Y18224500D01*
X82260023Y18224500D01*
X82399977Y18224500D01*
X82399978Y18224500D01*
X82537245Y18251804D01*
X82666548Y18305363D01*
X82782917Y18383118D01*
X82881882Y18482083D01*
X82959637Y18598452D01*
X83013196Y18727755D01*
X83040500Y18865022D01*
X83040500Y19004978D01*
X83013196Y19142245D01*
X82959637Y19271548D01*
X82881882Y19387917D01*
X82782917Y19486882D01*
X82666548Y19564637D01*
X82666549Y19564637D01*
X82666547Y19564638D01*
X82537249Y19618195D01*
X82537238Y19618198D01*
X82433829Y19638767D01*
X82399978Y19645500D01*
X82260022Y19645500D01*
X82232867Y19640099D01*
X82122761Y19618198D01*
X82122750Y19618195D01*
X81993452Y19564638D01*
X81877083Y19486883D01*
X81877082Y19486881D01*
X81778119Y19387918D01*
X81778117Y19387917D01*
X81700362Y19271548D01*
X81646805Y19142250D01*
X81646802Y19142239D01*
X81619500Y19004978D01*
X20010500Y19004978D01*
X20010500Y21242747D01*
X20032173Y21295072D01*
X20060489Y21323387D01*
X20119799Y21426114D01*
X20150499Y21540689D01*
X20150500Y21540689D01*
X20150500Y21659311D01*
X20150499Y21659312D01*
X20119800Y21773883D01*
X20119798Y21773888D01*
X20060491Y21876610D01*
X20060490Y21876611D01*
X20060489Y21876613D01*
X19976613Y21960489D01*
X19976610Y21960491D01*
X19976609Y21960492D01*
X19873887Y22019799D01*
X19873882Y22019801D01*
X19759311Y22050500D01*
X19759309Y22050500D01*
X19640691Y22050500D01*
X19640689Y22050500D01*
X19526117Y22019801D01*
X19526112Y22019799D01*
X19423390Y21960492D01*
X19339508Y21876610D01*
X19280201Y21773888D01*
X19280199Y21773883D01*
X19249500Y21659312D01*
X19249500Y21540689D01*
X19280199Y21426118D01*
X19280201Y21426113D01*
X19339508Y21323391D01*
X19339509Y21323390D01*
X19339511Y21323387D01*
X19367826Y21295072D01*
X19389500Y21242747D01*
X19389500Y18959266D01*
X19367826Y18906940D01*
X17793060Y17332174D01*
X17740734Y17310500D01*
X16203805Y17310500D01*
X16151479Y17332174D01*
X16136738Y17353226D01*
X16124183Y17380150D01*
X16124065Y17380404D01*
X16040404Y17464065D01*
X15933173Y17514068D01*
X15933171Y17514069D01*
X15897178Y17518807D01*
X15884316Y17520500D01*
X15535684Y17520500D01*
X15524318Y17519004D01*
X15486828Y17514069D01*
X15379595Y17464065D01*
X15295935Y17380405D01*
X15267067Y17318496D01*
X15225309Y17280233D01*
X15168726Y17282703D01*
X15132933Y17318496D01*
X15104183Y17380150D01*
X15104065Y17380404D01*
X15020404Y17464065D01*
X14913173Y17514068D01*
X14913171Y17514069D01*
X14877178Y17518807D01*
X14864316Y17520500D01*
X14660050Y17520500D01*
X14654498Y17522800D01*
X14648659Y17521382D01*
X14628996Y17533363D01*
X14607724Y17542174D01*
X14605424Y17547726D01*
X14600293Y17550852D01*
X14594861Y17573228D01*
X14586050Y17594500D01*
X14588349Y17600052D01*
X14586932Y17605891D01*
X14596627Y17620037D01*
X14607724Y17646826D01*
X14616402Y17654257D01*
X14619608Y17656600D01*
X14676613Y17689511D01*
X14708980Y17721879D01*
X14713606Y17725257D01*
X14735980Y17730689D01*
X14757254Y17739500D01*
X15735545Y17739500D01*
X15766818Y17732568D01*
X15866827Y17685932D01*
X15915684Y17679500D01*
X15915686Y17679500D01*
X16264314Y17679500D01*
X16264316Y17679500D01*
X16313173Y17685932D01*
X16420404Y17735935D01*
X16504065Y17819596D01*
X16532933Y17881505D01*
X16574690Y17919768D01*
X16631273Y17917298D01*
X16667067Y17881504D01*
X16695933Y17819598D01*
X16695935Y17819596D01*
X16779596Y17735935D01*
X16886827Y17685932D01*
X16935684Y17679500D01*
X16935686Y17679500D01*
X17284314Y17679500D01*
X17284316Y17679500D01*
X17333173Y17685932D01*
X17440404Y17735935D01*
X17524065Y17819596D01*
X17574068Y17926827D01*
X17580500Y17975684D01*
X17580500Y18424316D01*
X17574068Y18473173D01*
X17524065Y18580404D01*
X17461689Y18642780D01*
X17440016Y18695103D01*
X17453819Y18735750D01*
X17453064Y18736186D01*
X17455258Y18739988D01*
X17455320Y18740168D01*
X17455483Y18740382D01*
X17455489Y18740387D01*
X17514799Y18843114D01*
X17545499Y18957689D01*
X17545500Y18957689D01*
X17545500Y19076311D01*
X17545499Y19076312D01*
X17514800Y19190883D01*
X17514798Y19190888D01*
X17455491Y19293610D01*
X17455490Y19293611D01*
X17455489Y19293613D01*
X17371613Y19377489D01*
X17371610Y19377491D01*
X17371609Y19377492D01*
X17268887Y19436799D01*
X17268882Y19436801D01*
X17154311Y19467500D01*
X17154309Y19467500D01*
X17035691Y19467500D01*
X17035689Y19467500D01*
X16921117Y19436801D01*
X16921112Y19436799D01*
X16818390Y19377492D01*
X16734508Y19293610D01*
X16675201Y19190888D01*
X16675199Y19190883D01*
X16644500Y19076312D01*
X16644500Y18957689D01*
X16675199Y18843118D01*
X16675201Y18843113D01*
X16734508Y18740391D01*
X16734509Y18740390D01*
X16734511Y18740387D01*
X16742889Y18732009D01*
X16764563Y18679684D01*
X16742889Y18627358D01*
X16695935Y18580405D01*
X16667067Y18518496D01*
X16625309Y18480233D01*
X16568726Y18482703D01*
X16532933Y18518496D01*
X16504065Y18580404D01*
X16420404Y18664065D01*
X16313173Y18714068D01*
X16313171Y18714069D01*
X16277178Y18718807D01*
X16264316Y18720500D01*
X15915684Y18720500D01*
X15904318Y18719004D01*
X15866828Y18714069D01*
X15759595Y18664065D01*
X15675935Y18580405D01*
X15625931Y18473172D01*
X15619569Y18424841D01*
X15591250Y18375792D01*
X15546202Y18360500D01*
X14757254Y18360500D01*
X14704929Y18382173D01*
X14703983Y18383119D01*
X14676613Y18410489D01*
X14676610Y18410491D01*
X14676609Y18410492D01*
X14573887Y18469799D01*
X14573882Y18469801D01*
X14459311Y18500500D01*
X14459309Y18500500D01*
X14340691Y18500500D01*
X14340689Y18500500D01*
X14226117Y18469801D01*
X14226112Y18469799D01*
X14123390Y18410492D01*
X14039508Y18326610D01*
X13980201Y18223888D01*
X13980199Y18223883D01*
X13949500Y18109312D01*
X13949500Y18087000D01*
X13927826Y18034674D01*
X13875500Y18013000D01*
X13853189Y18013000D01*
X13738617Y17982301D01*
X13738612Y17982299D01*
X13635890Y17922992D01*
X13552008Y17839110D01*
X13492701Y17736388D01*
X13492699Y17736383D01*
X13462000Y17621812D01*
X13462000Y17503189D01*
X13488671Y17403653D01*
X13481279Y17347500D01*
X13436346Y17313022D01*
X13417193Y17310500D01*
X10759265Y17310500D01*
X10706939Y17332174D01*
X10432174Y17606940D01*
X10410500Y17659266D01*
X10410500Y19004978D01*
X11619500Y19004978D01*
X11619500Y18865023D01*
X11646802Y18727762D01*
X11646805Y18727751D01*
X11700362Y18598453D01*
X11777704Y18482703D01*
X11778118Y18482083D01*
X11877083Y18383118D01*
X11993452Y18305363D01*
X12122755Y18251804D01*
X12260022Y18224500D01*
X12260023Y18224500D01*
X12399977Y18224500D01*
X12399978Y18224500D01*
X12537245Y18251804D01*
X12666548Y18305363D01*
X12782917Y18383118D01*
X12881882Y18482083D01*
X12959637Y18598452D01*
X13013196Y18727755D01*
X13040500Y18865022D01*
X13040500Y19004978D01*
X13013196Y19142245D01*
X12959637Y19271548D01*
X12881882Y19387917D01*
X12782917Y19486882D01*
X12666548Y19564637D01*
X12666549Y19564637D01*
X12666547Y19564638D01*
X12537249Y19618195D01*
X12537238Y19618198D01*
X12433829Y19638767D01*
X12399978Y19645500D01*
X12260022Y19645500D01*
X12232867Y19640099D01*
X12122761Y19618198D01*
X12122750Y19618195D01*
X11993452Y19564638D01*
X11877083Y19486883D01*
X11877082Y19486881D01*
X11778119Y19387918D01*
X11778117Y19387917D01*
X11700362Y19271548D01*
X11646805Y19142250D01*
X11646802Y19142239D01*
X11619500Y19004978D01*
X10410500Y19004978D01*
X10410500Y21842747D01*
X10432173Y21895072D01*
X10460489Y21923387D01*
X10519799Y22026114D01*
X10550499Y22140689D01*
X10550500Y22140689D01*
X10550500Y22259311D01*
X10550499Y22259312D01*
X10519800Y22373883D01*
X10519798Y22373888D01*
X10460491Y22476610D01*
X10460490Y22476611D01*
X10460489Y22476613D01*
X10376613Y22560489D01*
X10376610Y22560491D01*
X10376609Y22560492D01*
X10273887Y22619799D01*
X10273882Y22619801D01*
X10159311Y22650500D01*
X10159309Y22650500D01*
X10040691Y22650500D01*
X10040689Y22650500D01*
X9926117Y22619801D01*
X9926112Y22619799D01*
X9823390Y22560492D01*
X9739508Y22476610D01*
X9680201Y22373888D01*
X9680199Y22373883D01*
X9649500Y22259312D01*
X200500Y22259312D01*
X200500Y38888312D01*
X46108500Y38888312D01*
X46108500Y38769689D01*
X46139199Y38655118D01*
X46139201Y38655113D01*
X46198508Y38552391D01*
X46198509Y38552390D01*
X46198511Y38552387D01*
X46282387Y38468511D01*
X46282389Y38468510D01*
X46282390Y38468509D01*
X46288655Y38464892D01*
X46385114Y38409201D01*
X46385115Y38409201D01*
X46385117Y38409200D01*
X46410040Y38402522D01*
X46499688Y38378501D01*
X46499689Y38378500D01*
X46499691Y38378500D01*
X46618311Y38378500D01*
X46618311Y38378501D01*
X46732886Y38409201D01*
X46732886Y38409202D01*
X46735546Y38409914D01*
X46791698Y38402522D01*
X46826177Y38357589D01*
X46826177Y38319284D01*
X46808500Y38253309D01*
X46808500Y38134691D01*
X46834898Y38036173D01*
X46836336Y38030807D01*
X46828943Y37974654D01*
X46784010Y37940175D01*
X46736544Y37943285D01*
X46732889Y37944799D01*
X46618311Y37975500D01*
X46618309Y37975500D01*
X46499691Y37975500D01*
X46499689Y37975500D01*
X46385117Y37944801D01*
X46385112Y37944799D01*
X46282390Y37885492D01*
X46198508Y37801610D01*
X46139201Y37698888D01*
X46139199Y37698883D01*
X46108500Y37584312D01*
X46108500Y37465689D01*
X46139199Y37351118D01*
X46139201Y37351113D01*
X46198508Y37248391D01*
X46198509Y37248390D01*
X46198511Y37248387D01*
X46282387Y37164511D01*
X46385114Y37105201D01*
X46385115Y37105201D01*
X46385117Y37105200D01*
X46442402Y37089851D01*
X46499688Y37074501D01*
X46499689Y37074500D01*
X46499691Y37074500D01*
X46618311Y37074500D01*
X46618311Y37074501D01*
X46725731Y37103284D01*
X46781883Y37095892D01*
X46816362Y37050959D01*
X46816363Y37012653D01*
X46808500Y36983308D01*
X46808500Y36864689D01*
X46826177Y36798718D01*
X46818785Y36742565D01*
X46773852Y36708087D01*
X46735546Y36708087D01*
X46618311Y36739500D01*
X46618309Y36739500D01*
X46499691Y36739500D01*
X46499689Y36739500D01*
X46385117Y36708801D01*
X46385112Y36708799D01*
X46282390Y36649492D01*
X46198508Y36565610D01*
X46139201Y36462888D01*
X46139199Y36462883D01*
X46108500Y36348312D01*
X46108500Y36229689D01*
X46139199Y36115118D01*
X46139201Y36115113D01*
X46198508Y36012391D01*
X46198509Y36012390D01*
X46198511Y36012387D01*
X46282387Y35928511D01*
X46282389Y35928510D01*
X46282390Y35928509D01*
X46383879Y35869914D01*
X46385114Y35869201D01*
X46385115Y35869201D01*
X46385117Y35869200D01*
X46410040Y35862522D01*
X46499688Y35838501D01*
X46499689Y35838500D01*
X46499691Y35838500D01*
X46618311Y35838500D01*
X46618311Y35838501D01*
X46732886Y35869201D01*
X46732886Y35869202D01*
X46735546Y35869914D01*
X46791698Y35862522D01*
X46826177Y35817589D01*
X46826178Y35779283D01*
X46808500Y35713308D01*
X46808500Y35594689D01*
X46826177Y35528718D01*
X46818785Y35472565D01*
X46773852Y35438087D01*
X46735546Y35438087D01*
X46618311Y35469500D01*
X46618309Y35469500D01*
X46499691Y35469500D01*
X46499689Y35469500D01*
X46385117Y35438801D01*
X46385112Y35438799D01*
X46282390Y35379492D01*
X46198508Y35295610D01*
X46139201Y35192888D01*
X46139199Y35192883D01*
X46108500Y35078312D01*
X46108500Y34959689D01*
X46139199Y34845118D01*
X46139201Y34845113D01*
X46198508Y34742391D01*
X46198509Y34742390D01*
X46198511Y34742387D01*
X46282387Y34658511D01*
X46282389Y34658510D01*
X46282390Y34658509D01*
X46340616Y34624892D01*
X46385114Y34599201D01*
X46385115Y34599201D01*
X46385117Y34599200D01*
X46442402Y34583851D01*
X46499688Y34568501D01*
X46499689Y34568500D01*
X46499691Y34568500D01*
X46618311Y34568500D01*
X46618311Y34568501D01*
X46732886Y34599201D01*
X46732886Y34599202D01*
X46735546Y34599914D01*
X46791698Y34592522D01*
X46826177Y34547589D01*
X46826177Y34509284D01*
X46823456Y34499123D01*
X46808500Y34443308D01*
X46808500Y34324689D01*
X46826177Y34258718D01*
X46818785Y34202565D01*
X46773852Y34168087D01*
X46735546Y34168087D01*
X46618311Y34199500D01*
X46618309Y34199500D01*
X46499691Y34199500D01*
X46499689Y34199500D01*
X46385117Y34168801D01*
X46385112Y34168799D01*
X46282390Y34109492D01*
X46198508Y34025610D01*
X46139201Y33922888D01*
X46139199Y33922883D01*
X46108500Y33808312D01*
X46108500Y33689689D01*
X46139199Y33575118D01*
X46139201Y33575113D01*
X46198508Y33472391D01*
X46198509Y33472390D01*
X46198511Y33472387D01*
X46282387Y33388511D01*
X46282389Y33388510D01*
X46282390Y33388509D01*
X46357938Y33344891D01*
X46385114Y33329201D01*
X46385115Y33329201D01*
X46385117Y33329200D01*
X46410040Y33322522D01*
X46499688Y33298501D01*
X46499689Y33298500D01*
X46499691Y33298500D01*
X46618311Y33298500D01*
X46618311Y33298501D01*
X46732886Y33329201D01*
X46732886Y33329202D01*
X46735546Y33329914D01*
X46791698Y33322522D01*
X46826177Y33277589D01*
X46826178Y33239283D01*
X46808500Y33173308D01*
X46808500Y33054689D01*
X46826177Y32988718D01*
X46818785Y32932565D01*
X46773852Y32898087D01*
X46735546Y32898087D01*
X46618311Y32929500D01*
X46618309Y32929500D01*
X46499691Y32929500D01*
X46499689Y32929500D01*
X46385117Y32898801D01*
X46385112Y32898799D01*
X46282390Y32839492D01*
X46198508Y32755610D01*
X46139201Y32652888D01*
X46139199Y32652883D01*
X46108500Y32538312D01*
X46108500Y32419689D01*
X46139199Y32305118D01*
X46139201Y32305113D01*
X46198508Y32202391D01*
X46198509Y32202390D01*
X46198511Y32202387D01*
X46282387Y32118511D01*
X46282389Y32118510D01*
X46282390Y32118509D01*
X46383879Y32059914D01*
X46385114Y32059201D01*
X46385115Y32059201D01*
X46385117Y32059200D01*
X46410040Y32052522D01*
X46499688Y32028501D01*
X46499689Y32028500D01*
X46499691Y32028500D01*
X46618311Y32028500D01*
X46618311Y32028501D01*
X46732886Y32059201D01*
X46732886Y32059202D01*
X46735546Y32059914D01*
X46791698Y32052522D01*
X46826177Y32007589D01*
X46826177Y31969284D01*
X46818097Y31939123D01*
X46808500Y31903308D01*
X46808500Y31784689D01*
X46839199Y31670118D01*
X46839201Y31670113D01*
X46898508Y31567391D01*
X46898509Y31567390D01*
X46898511Y31567387D01*
X46982387Y31483511D01*
X46982389Y31483510D01*
X46982390Y31483509D01*
X47025568Y31458580D01*
X47085114Y31424201D01*
X47085115Y31424201D01*
X47085117Y31424200D01*
X47139975Y31409501D01*
X47199688Y31393501D01*
X47199689Y31393500D01*
X47199691Y31393500D01*
X47318311Y31393500D01*
X47318311Y31393501D01*
X47432886Y31424201D01*
X47535613Y31483511D01*
X47563929Y31511827D01*
X47616254Y31533500D01*
X48461379Y31533500D01*
X48513705Y31511826D01*
X48535379Y31459500D01*
X48529074Y31429610D01*
X48526990Y31424892D01*
X48526990Y31424891D01*
X48506541Y31378579D01*
X48482365Y31323825D01*
X48479500Y31299123D01*
X48479500Y31020879D01*
X48482365Y30996178D01*
X48482366Y30996173D01*
X48526990Y30895109D01*
X48605109Y30816990D01*
X48706173Y30772366D01*
X48730877Y30769500D01*
X48775499Y30769501D01*
X48827825Y30747828D01*
X48849500Y30695503D01*
X48849500Y30352727D01*
X48849500Y30247273D01*
X48873069Y30159312D01*
X48876793Y30145412D01*
X48876795Y30145408D01*
X48929518Y30054089D01*
X49006190Y29977417D01*
X49025342Y29944246D01*
X49030200Y29926115D01*
X49030201Y29926113D01*
X49089508Y29823391D01*
X49089509Y29823390D01*
X49089511Y29823387D01*
X49173387Y29739511D01*
X49276114Y29680201D01*
X49276115Y29680201D01*
X49276117Y29680200D01*
X49333402Y29664851D01*
X49390688Y29649501D01*
X49390689Y29649500D01*
X49390691Y29649500D01*
X49509311Y29649500D01*
X49509311Y29649501D01*
X49623886Y29680201D01*
X49726613Y29739511D01*
X49810489Y29823387D01*
X49869799Y29926114D01*
X49900499Y30040689D01*
X49900500Y30040689D01*
X49900500Y30159311D01*
X49900499Y30159312D01*
X49869800Y30273883D01*
X49869798Y30273888D01*
X49810491Y30376610D01*
X49810490Y30376611D01*
X49810489Y30376613D01*
X49726613Y30460489D01*
X49714828Y30467294D01*
X49687498Y30483073D01*
X49653021Y30528007D01*
X49650500Y30547158D01*
X49650500Y30713849D01*
X49672174Y30766175D01*
X49694606Y30781542D01*
X49774891Y30816990D01*
X49837455Y30879555D01*
X49889779Y30901228D01*
X49942106Y30879554D01*
X49955714Y30860824D01*
X49971455Y30829931D01*
X50059931Y30741455D01*
X50171414Y30684652D01*
X50171421Y30684650D01*
X50263910Y30670000D01*
X50610000Y30670000D01*
X50810000Y30670000D01*
X51156090Y30670000D01*
X51248578Y30684650D01*
X51248585Y30684652D01*
X51360068Y30741455D01*
X51448545Y30829932D01*
X51505348Y30941415D01*
X51505350Y30941422D01*
X51520000Y31033911D01*
X51520000Y31060000D01*
X50810000Y31060000D01*
X50810000Y30670000D01*
X50610000Y30670000D01*
X50610000Y31086000D01*
X50631674Y31138326D01*
X50684000Y31160000D01*
X50710000Y31160000D01*
X50710000Y31186000D01*
X50731674Y31238326D01*
X50784000Y31260000D01*
X51520000Y31260000D01*
X51520000Y31286090D01*
X51505350Y31378579D01*
X51505348Y31378586D01*
X51485824Y31416905D01*
X51481380Y31473367D01*
X51518163Y31516434D01*
X51551758Y31524500D01*
X53045705Y31524500D01*
X53098030Y31502826D01*
X53120857Y31480000D01*
X53142276Y31458581D01*
X53245003Y31399271D01*
X53245004Y31399271D01*
X53245006Y31399270D01*
X53302291Y31383921D01*
X53359577Y31368571D01*
X53359578Y31368570D01*
X53359580Y31368570D01*
X53478200Y31368570D01*
X53478200Y31368571D01*
X53592775Y31399271D01*
X53695502Y31458581D01*
X53779378Y31542457D01*
X53838688Y31645184D01*
X53869388Y31759759D01*
X53869389Y31759759D01*
X53869389Y31878381D01*
X53869388Y31878382D01*
X53838689Y31992953D01*
X53838687Y31992958D01*
X53779380Y32095680D01*
X53779379Y32095681D01*
X53779378Y32095683D01*
X53695502Y32179559D01*
X53695499Y32179561D01*
X53695498Y32179562D01*
X53592776Y32238869D01*
X53592771Y32238871D01*
X53478200Y32269570D01*
X53478198Y32269570D01*
X53359580Y32269570D01*
X53359578Y32269570D01*
X53245006Y32238871D01*
X53245003Y32238869D01*
X53197964Y32211712D01*
X53141811Y32204321D01*
X53096878Y32238800D01*
X53089487Y32294952D01*
X53089797Y32296112D01*
X53089799Y32296114D01*
X53120499Y32410689D01*
X53120500Y32410689D01*
X53120500Y32529311D01*
X53120499Y32529312D01*
X53118087Y32538312D01*
X53092030Y32635561D01*
X53099422Y32691714D01*
X53144355Y32726192D01*
X53200508Y32718800D01*
X53243114Y32694201D01*
X53243116Y32694201D01*
X53243117Y32694200D01*
X53300402Y32678851D01*
X53357688Y32663501D01*
X53357689Y32663500D01*
X53357691Y32663500D01*
X53476311Y32663500D01*
X53476311Y32663501D01*
X53590886Y32694201D01*
X53693613Y32753511D01*
X53777489Y32837387D01*
X53836799Y32940114D01*
X53867499Y33054689D01*
X53867500Y33054689D01*
X53867500Y33173311D01*
X53867499Y33173312D01*
X53836800Y33287883D01*
X53836798Y33287888D01*
X53777491Y33390610D01*
X53777490Y33390611D01*
X53777489Y33390613D01*
X53693613Y33474489D01*
X53693610Y33474491D01*
X53693609Y33474492D01*
X53590887Y33533799D01*
X53590882Y33533801D01*
X53476311Y33564500D01*
X53476309Y33564500D01*
X53357691Y33564500D01*
X53357689Y33564500D01*
X53329874Y33557047D01*
X53273721Y33564439D01*
X53239243Y33609372D01*
X53239243Y33647678D01*
X53250499Y33689689D01*
X53250500Y33689689D01*
X53250500Y33808311D01*
X53250499Y33808312D01*
X53236884Y33859122D01*
X53225585Y33901293D01*
X53232977Y33957444D01*
X53277910Y33991923D01*
X53316216Y33991923D01*
X53378500Y33975235D01*
X53421614Y33963682D01*
X53421615Y33963681D01*
X53421617Y33963681D01*
X53540237Y33963681D01*
X53540237Y33963682D01*
X53654812Y33994382D01*
X53757539Y34053692D01*
X53841415Y34137568D01*
X53900725Y34240295D01*
X53931425Y34354870D01*
X53931426Y34354870D01*
X53931426Y34473492D01*
X53931425Y34473493D01*
X53900726Y34588064D01*
X53900724Y34588069D01*
X53841417Y34690791D01*
X53841416Y34690792D01*
X53841415Y34690794D01*
X53757539Y34774670D01*
X53757536Y34774672D01*
X53757535Y34774673D01*
X53654813Y34833980D01*
X53654808Y34833982D01*
X53540237Y34864681D01*
X53540235Y34864681D01*
X53421617Y34864681D01*
X53333640Y34841108D01*
X53277488Y34848501D01*
X53243009Y34893435D01*
X53243009Y34931739D01*
X53250500Y34959691D01*
X53250500Y35078309D01*
X53250500Y35078311D01*
X53234205Y35139122D01*
X53232822Y35144284D01*
X53240214Y35200435D01*
X53285146Y35234914D01*
X53323453Y35234914D01*
X53326114Y35234201D01*
X53440688Y35203501D01*
X53440689Y35203500D01*
X53440691Y35203500D01*
X53559311Y35203500D01*
X53559311Y35203501D01*
X53673886Y35234201D01*
X53776613Y35293511D01*
X53860489Y35377387D01*
X53919799Y35480114D01*
X53950499Y35594689D01*
X53950500Y35594689D01*
X53950500Y35713311D01*
X53950499Y35713312D01*
X53919800Y35827883D01*
X53919798Y35827888D01*
X53860491Y35930610D01*
X53860490Y35930611D01*
X53860489Y35930613D01*
X53776613Y36014489D01*
X53776610Y36014491D01*
X53776609Y36014492D01*
X53673887Y36073799D01*
X53673882Y36073801D01*
X53559311Y36104500D01*
X53559309Y36104500D01*
X53440691Y36104500D01*
X53354694Y36081457D01*
X53323453Y36073086D01*
X53267300Y36080479D01*
X53232821Y36125412D01*
X53232821Y36163717D01*
X53245842Y36212311D01*
X53250500Y36229690D01*
X53250500Y36348311D01*
X53250499Y36348312D01*
X53234733Y36407152D01*
X53242125Y36463304D01*
X53287058Y36497783D01*
X53325364Y36497783D01*
X53326790Y36497401D01*
X53326792Y36497400D01*
X53441366Y36466700D01*
X53441367Y36466699D01*
X53441369Y36466699D01*
X53559989Y36466699D01*
X53559989Y36466700D01*
X53674564Y36497400D01*
X53777291Y36556710D01*
X53861167Y36640586D01*
X53920477Y36743313D01*
X53951177Y36857888D01*
X53951178Y36857888D01*
X53951178Y36976510D01*
X53951177Y36976511D01*
X53949355Y36983309D01*
X53920477Y37091085D01*
X53917702Y37095892D01*
X53861169Y37193809D01*
X53861168Y37193810D01*
X53861167Y37193812D01*
X53777291Y37277688D01*
X53777288Y37277690D01*
X53777287Y37277691D01*
X53674565Y37336998D01*
X53674560Y37337000D01*
X53559989Y37367699D01*
X53559987Y37367699D01*
X53441369Y37367699D01*
X53441367Y37367699D01*
X53322107Y37335743D01*
X53321354Y37338552D01*
X53273892Y37338583D01*
X53233869Y37378658D01*
X53230777Y37426085D01*
X53241389Y37465689D01*
X53250499Y37499689D01*
X53250500Y37499689D01*
X53250500Y37618311D01*
X53232822Y37684282D01*
X53240214Y37740435D01*
X53285146Y37774914D01*
X53323453Y37774914D01*
X53326114Y37774201D01*
X53440688Y37743501D01*
X53440689Y37743500D01*
X53440691Y37743500D01*
X53559311Y37743500D01*
X53559311Y37743501D01*
X53673886Y37774201D01*
X53776613Y37833511D01*
X53860489Y37917387D01*
X53919799Y38020114D01*
X53950499Y38134689D01*
X53950500Y38134689D01*
X53950500Y38253311D01*
X53950499Y38253312D01*
X53919800Y38367883D01*
X53919798Y38367888D01*
X53860491Y38470610D01*
X53860490Y38470611D01*
X53860489Y38470613D01*
X53776613Y38554489D01*
X53776610Y38554491D01*
X53776609Y38554492D01*
X53673887Y38613799D01*
X53673882Y38613801D01*
X53559311Y38644500D01*
X53559309Y38644500D01*
X53440691Y38644500D01*
X53351044Y38620479D01*
X53323453Y38613086D01*
X53267300Y38620479D01*
X53232821Y38665412D01*
X53232821Y38703717D01*
X53245842Y38752311D01*
X53250500Y38769690D01*
X53250500Y38868737D01*
X53272174Y38921063D01*
X53324500Y38942737D01*
X53343650Y38940216D01*
X53381535Y38930065D01*
X53402300Y38924500D01*
X53402301Y38924500D01*
X53520921Y38924500D01*
X53520921Y38924501D01*
X53635496Y38955201D01*
X53738223Y39014511D01*
X53822099Y39098387D01*
X53881409Y39201114D01*
X53912109Y39315689D01*
X53912110Y39315689D01*
X53912110Y39434311D01*
X53912109Y39434312D01*
X53881410Y39548883D01*
X53881408Y39548888D01*
X53822101Y39651610D01*
X53822100Y39651611D01*
X53822099Y39651613D01*
X53738223Y39735489D01*
X53738220Y39735491D01*
X53738219Y39735492D01*
X53635497Y39794799D01*
X53635492Y39794801D01*
X53520921Y39825500D01*
X53520919Y39825500D01*
X53402301Y39825500D01*
X53290926Y39795657D01*
X53234773Y39803050D01*
X53200294Y39847983D01*
X53207687Y39904136D01*
X53207688Y39904137D01*
X53212659Y39912749D01*
X53219799Y39925114D01*
X53250499Y40039689D01*
X53250500Y40039689D01*
X53250500Y40158311D01*
X53232822Y40224282D01*
X53240214Y40280435D01*
X53285146Y40314914D01*
X53323453Y40314914D01*
X53326114Y40314201D01*
X53440688Y40283501D01*
X53440689Y40283500D01*
X53440691Y40283500D01*
X53559311Y40283500D01*
X53559311Y40283501D01*
X53673886Y40314201D01*
X53776613Y40373511D01*
X53860489Y40457387D01*
X53919799Y40560114D01*
X53950499Y40674689D01*
X53950500Y40674689D01*
X53950500Y40793311D01*
X53950499Y40793312D01*
X53919800Y40907883D01*
X53919798Y40907888D01*
X53860491Y41010610D01*
X53860490Y41010611D01*
X53860489Y41010613D01*
X53776613Y41094489D01*
X53776610Y41094491D01*
X53776609Y41094492D01*
X53673887Y41153799D01*
X53673882Y41153801D01*
X53559311Y41184500D01*
X53559309Y41184500D01*
X53440691Y41184500D01*
X53351044Y41160479D01*
X53323453Y41153086D01*
X53267300Y41160479D01*
X53232821Y41205412D01*
X53232821Y41243717D01*
X53245842Y41292311D01*
X53250500Y41309690D01*
X53250500Y41428311D01*
X53250499Y41428312D01*
X53219800Y41542883D01*
X53219798Y41542888D01*
X53160491Y41645610D01*
X53160490Y41645611D01*
X53160489Y41645613D01*
X53076613Y41729489D01*
X53076610Y41729491D01*
X53076609Y41729492D01*
X52973887Y41788799D01*
X52973882Y41788801D01*
X52859311Y41819500D01*
X52859309Y41819500D01*
X52740691Y41819500D01*
X52740689Y41819500D01*
X52626117Y41788801D01*
X52626112Y41788799D01*
X52523390Y41729492D01*
X52495071Y41701173D01*
X52442746Y41679500D01*
X51444361Y41679500D01*
X51392035Y41701174D01*
X51370361Y41753500D01*
X51376666Y41783390D01*
X51378540Y41787634D01*
X51417634Y41876173D01*
X51420500Y41900877D01*
X51420499Y42179122D01*
X51417634Y42203827D01*
X51373010Y42304891D01*
X51294891Y42383010D01*
X51194609Y42427289D01*
X51185012Y42437339D01*
X51172174Y42442657D01*
X51166227Y42457013D01*
X51155497Y42468251D01*
X51150500Y42494983D01*
X51150500Y42538860D01*
X51160414Y42575860D01*
X51169799Y42592114D01*
X51200499Y42706689D01*
X51200500Y42706689D01*
X51200500Y42825311D01*
X51200499Y42825312D01*
X51169800Y42939883D01*
X51169798Y42939888D01*
X51110491Y43042610D01*
X51110490Y43042611D01*
X51110489Y43042613D01*
X51026613Y43126489D01*
X51026610Y43126491D01*
X51026609Y43126492D01*
X50923887Y43185799D01*
X50923882Y43185801D01*
X50809311Y43216500D01*
X50809309Y43216500D01*
X50690691Y43216500D01*
X50690689Y43216500D01*
X50576117Y43185801D01*
X50576112Y43185799D01*
X50473390Y43126492D01*
X50389508Y43042610D01*
X50330201Y42939888D01*
X50330199Y42939883D01*
X50299500Y42825312D01*
X50299500Y42706689D01*
X50330199Y42592118D01*
X50330200Y42592116D01*
X50330201Y42592114D01*
X50339585Y42575860D01*
X50349500Y42538860D01*
X50349500Y42504500D01*
X50327826Y42452174D01*
X50275503Y42430500D01*
X50250879Y42430500D01*
X50226177Y42427635D01*
X50226171Y42427634D01*
X50125108Y42383010D01*
X50062545Y42320447D01*
X50010218Y42298773D01*
X49957893Y42320447D01*
X49944285Y42339177D01*
X49928543Y42370071D01*
X49840068Y42458546D01*
X49728585Y42515349D01*
X49728578Y42515351D01*
X49636090Y42530000D01*
X49290000Y42530000D01*
X49290000Y42114000D01*
X49268326Y42061674D01*
X49216000Y42040000D01*
X49190000Y42040000D01*
X49190000Y42014000D01*
X49168326Y41961674D01*
X49116000Y41940000D01*
X48380000Y41940000D01*
X48380000Y41913911D01*
X48394649Y41821422D01*
X48394649Y41821420D01*
X48407553Y41796095D01*
X48411996Y41739633D01*
X48375213Y41696565D01*
X48341618Y41688500D01*
X47034254Y41688500D01*
X46981929Y41710173D01*
X46962613Y41729489D01*
X46962610Y41729491D01*
X46962609Y41729492D01*
X46859887Y41788799D01*
X46859882Y41788801D01*
X46745311Y41819500D01*
X46745309Y41819500D01*
X46626691Y41819500D01*
X46626689Y41819500D01*
X46512117Y41788801D01*
X46512112Y41788799D01*
X46409390Y41729492D01*
X46325508Y41645610D01*
X46266201Y41542888D01*
X46266199Y41542883D01*
X46235500Y41428312D01*
X46235500Y41309689D01*
X46266199Y41195118D01*
X46266201Y41195113D01*
X46325508Y41092391D01*
X46325509Y41092390D01*
X46325511Y41092387D01*
X46409387Y41008511D01*
X46409389Y41008510D01*
X46409390Y41008509D01*
X46512112Y40949202D01*
X46512114Y40949201D01*
X46512115Y40949201D01*
X46512117Y40949200D01*
X46569402Y40933851D01*
X46626688Y40918501D01*
X46626689Y40918500D01*
X46626691Y40918500D01*
X46745311Y40918500D01*
X46745311Y40918501D01*
X46859886Y40949201D01*
X46859887Y40949202D01*
X46863180Y40950084D01*
X46919332Y40942692D01*
X46953811Y40897759D01*
X46953812Y40859453D01*
X46938500Y40802308D01*
X46938500Y40683692D01*
X46966970Y40577439D01*
X46959577Y40521287D01*
X46914643Y40486808D01*
X46858491Y40494201D01*
X46815887Y40518799D01*
X46815882Y40518801D01*
X46701311Y40549500D01*
X46701309Y40549500D01*
X46582691Y40549500D01*
X46582689Y40549500D01*
X46468117Y40518801D01*
X46468112Y40518799D01*
X46365390Y40459492D01*
X46281508Y40375610D01*
X46222201Y40272888D01*
X46222199Y40272883D01*
X46191500Y40158312D01*
X46191500Y40039689D01*
X46222199Y39925118D01*
X46222201Y39925113D01*
X46281508Y39822391D01*
X46281509Y39822390D01*
X46281511Y39822387D01*
X46365387Y39738511D01*
X46468114Y39679201D01*
X46468115Y39679201D01*
X46468117Y39679200D01*
X46525402Y39663851D01*
X46582688Y39648501D01*
X46582689Y39648500D01*
X46582691Y39648500D01*
X46701311Y39648500D01*
X46701311Y39648501D01*
X46717779Y39652914D01*
X46729125Y39655953D01*
X46785277Y39648561D01*
X46819756Y39603628D01*
X46819757Y39565323D01*
X46808500Y39523309D01*
X46808500Y39404689D01*
X46826177Y39338718D01*
X46818785Y39282565D01*
X46773852Y39248087D01*
X46735546Y39248087D01*
X46618311Y39279500D01*
X46618309Y39279500D01*
X46499691Y39279500D01*
X46499689Y39279500D01*
X46385117Y39248801D01*
X46385112Y39248799D01*
X46282390Y39189492D01*
X46198508Y39105610D01*
X46139201Y39002888D01*
X46139199Y39002883D01*
X46108500Y38888312D01*
X200500Y38888312D01*
X200500Y42166090D01*
X48380000Y42166090D01*
X48380000Y42140000D01*
X49090000Y42140000D01*
X49090000Y42530000D01*
X48743910Y42530000D01*
X48651421Y42515351D01*
X48651414Y42515349D01*
X48539931Y42458546D01*
X48451454Y42370069D01*
X48394651Y42258586D01*
X48394649Y42258579D01*
X48380000Y42166090D01*
X200500Y42166090D01*
X200500Y55134978D01*
X11619500Y55134978D01*
X11619500Y54995023D01*
X11646802Y54857762D01*
X11646805Y54857751D01*
X11700362Y54728453D01*
X11700363Y54728452D01*
X11778118Y54612083D01*
X11877083Y54513118D01*
X11993452Y54435363D01*
X12122755Y54381804D01*
X12260022Y54354500D01*
X12260023Y54354500D01*
X12399977Y54354500D01*
X12399978Y54354500D01*
X12537245Y54381804D01*
X12666548Y54435363D01*
X12782917Y54513118D01*
X12881882Y54612083D01*
X12959637Y54728452D01*
X13013196Y54857755D01*
X13040500Y54995022D01*
X13040500Y55134978D01*
X81619500Y55134978D01*
X81619500Y54995023D01*
X81646802Y54857762D01*
X81646805Y54857751D01*
X81700362Y54728453D01*
X81700363Y54728452D01*
X81778118Y54612083D01*
X81877083Y54513118D01*
X81993452Y54435363D01*
X82122755Y54381804D01*
X82260022Y54354500D01*
X82260023Y54354500D01*
X82399977Y54354500D01*
X82399978Y54354500D01*
X82537245Y54381804D01*
X82666548Y54435363D01*
X82782917Y54513118D01*
X82881882Y54612083D01*
X82959637Y54728452D01*
X83013196Y54857755D01*
X83040500Y54995022D01*
X83040500Y55134978D01*
X83013196Y55272245D01*
X82959637Y55401548D01*
X82881882Y55517917D01*
X82782917Y55616882D01*
X82666548Y55694637D01*
X82666549Y55694637D01*
X82666547Y55694638D01*
X82537249Y55748195D01*
X82537238Y55748198D01*
X82433829Y55768767D01*
X82399978Y55775500D01*
X82260022Y55775500D01*
X82232867Y55770099D01*
X82122761Y55748198D01*
X82122750Y55748195D01*
X81993452Y55694638D01*
X81877083Y55616883D01*
X81877082Y55616881D01*
X81778119Y55517918D01*
X81778117Y55517917D01*
X81700362Y55401548D01*
X81646805Y55272250D01*
X81646802Y55272239D01*
X81619500Y55134978D01*
X13040500Y55134978D01*
X13013196Y55272245D01*
X12959637Y55401548D01*
X12881882Y55517917D01*
X12782917Y55616882D01*
X12666548Y55694637D01*
X12666549Y55694637D01*
X12666547Y55694638D01*
X12537249Y55748195D01*
X12537238Y55748198D01*
X12433829Y55768767D01*
X12399978Y55775500D01*
X12260022Y55775500D01*
X12232867Y55770099D01*
X12122761Y55748198D01*
X12122750Y55748195D01*
X11993452Y55694638D01*
X11877083Y55616883D01*
X11877082Y55616881D01*
X11778119Y55517918D01*
X11778117Y55517917D01*
X11700362Y55401548D01*
X11646805Y55272250D01*
X11646802Y55272239D01*
X11619500Y55134978D01*
X200500Y55134978D01*
X200500Y56997917D01*
X200616Y57002066D01*
X202740Y57039882D01*
X217870Y57309312D01*
X218800Y57317550D01*
X269994Y57618860D01*
X271833Y57626920D01*
X356453Y57920639D01*
X359183Y57928442D01*
X476150Y58210825D01*
X479743Y58218287D01*
X627590Y58485796D01*
X631991Y58492801D01*
X808875Y58742096D01*
X814020Y58748547D01*
X1017690Y58976452D01*
X1023553Y58982314D01*
X1251453Y59185980D01*
X1257904Y59191125D01*
X1507199Y59368009D01*
X1514204Y59372410D01*
X1781713Y59520257D01*
X1789175Y59523850D01*
X2071558Y59640817D01*
X2079361Y59643547D01*
X2373080Y59728167D01*
X2381140Y59730006D01*
X2682458Y59781201D01*
X2690688Y59782130D01*
X2997934Y59799385D01*
X3002083Y59799500D01*
X3039882Y59799500D01*
X96960118Y59799500D01*
X96997917Y59799500D01*
X97002065Y59799385D01*
G37*
%TD.AperFunction*%
%TD*%
M02*
